<svg xmlns="http://www.w3.org/2000/svg" width="45.543" height="45.543" viewBox="0 0 45.543 45.543">
  <g id="Group_4462" data-name="Group 4462" transform="translate(-860.938 -121.136)">
    <g id="Group_4410" data-name="Group 4410" transform="translate(869.952 122.559)">
      <path id="Path_9113" data-name="Path 9113" d="M24.982,10.545v3.8a1.9,1.9,0,0,1-1.9,1.9H12.648a1.9,1.9,0,0,1-1.9-1.9v-3.8h3.321a3.8,3.8,0,1,1,7.591,0Z" transform="translate(-10.75 -6.75)" fill="#f6921c"/>
    </g>
    <g id="Group_4411" data-name="Group 4411" transform="translate(883.236 143.433)">
      <circle id="Ellipse_55" data-name="Ellipse 55" cx="10.911" cy="10.911" r="10.911" transform="translate(0 0)" fill="#f6921c"/>
    </g>
    <g id="Group_4412" data-name="Group 4412" transform="translate(882.287 128.252)">
      <path id="Path_9114" data-name="Path 9114" d="M23.417,11.648V9.8a3.555,3.555,0,0,0-.474-.047h-3.8v1.9a1.9,1.9,0,0,1-1.9,1.9h4.27A1.9,1.9,0,0,0,23.417,11.648Z" transform="translate(-17.25 -9.75)" fill="#f6921c"/>
    </g>
    <g id="Group_4413" data-name="Group 4413" transform="translate(862.362 128.252)">
      <path id="Path_9115" data-name="Path 9115" d="M11.02,37.266V13.545A3.8,3.8,0,0,1,14.341,9.8V9.75h-3.8a3.806,3.806,0,0,0-3.8,3.8v23.72a3.806,3.806,0,0,0,3.8,3.8h4.27A3.806,3.806,0,0,1,11.02,37.266Z" transform="translate(-6.75 -9.75)" fill="#f6921c"/>
    </g>
    <g id="Group_4414" data-name="Group 4414" transform="translate(869.952 122.559)">
      <path id="Path_9116" data-name="Path 9116" d="M15.02,14.341v-3.8h3.321A3.8,3.8,0,0,1,20,7.414a3.764,3.764,0,0,0-2.135-.664,3.806,3.806,0,0,0-3.8,3.8H10.75v3.8a1.9,1.9,0,0,0,1.9,1.9h4.27A1.9,1.9,0,0,1,15.02,14.341Z" transform="translate(-10.75 -6.75)" fill="#f6921c"/>
    </g>
    <g id="Group_4415" data-name="Group 4415" transform="translate(883.236 143.433)">
      <path id="Path_9117" data-name="Path 9117" d="M22.02,28.661a10.912,10.912,0,0,1,8.777-10.7,10.911,10.911,0,1,0-2.135,21.61A10.846,10.846,0,0,0,30.8,39.36,10.912,10.912,0,0,1,22.02,28.661Z" transform="translate(-17.75 -17.75)" fill="#f6921c"/>
    </g>
    <g id="Group_4416" data-name="Group 4416" transform="translate(892.724 149.126)">
      <path id="Path_9118" data-name="Path 9118" d="M27.5,31.3l-4.27-3.8a1.429,1.429,0,0,1-.478-1.065V20.75H25.6V25.8l3.791,3.37Z" transform="translate(-22.75 -20.75)" fill="#002838"/>
    </g>
    <g id="Group_4417" data-name="Group 4417" transform="translate(881.812 142.01)">
      <path id="Path_9119" data-name="Path 9119" d="M29.335,41.669A12.335,12.335,0,1,1,41.669,29.335,12.349,12.349,0,0,1,29.335,41.669Zm0-21.823a9.488,9.488,0,1,0,9.488,9.488A9.5,9.5,0,0,0,29.335,19.846Z" transform="translate(-17 -17)" fill="#002838"/>
    </g>
    <g id="Group_4418" data-name="Group 4418" transform="translate(860.938 126.829)">
      <path id="Path_9120" data-name="Path 9120" d="M23.439,43.157H11.219A5.224,5.224,0,0,1,6,37.939V14.219A5.224,5.224,0,0,1,11.219,9h3.568v2.846H11.219a2.375,2.375,0,0,0-2.372,2.372v23.72a2.375,2.375,0,0,0,2.372,2.372H23.439Z" transform="translate(-6 -9)" fill="#002838"/>
    </g>
    <g id="Group_4419" data-name="Group 4419" transform="translate(884.431 126.829)">
      <path id="Path_9121" data-name="Path 9121" d="M27.147,20.082H24.3V14.219a2.375,2.375,0,0,0-2.372-2.372H18.38V9h3.549a5.224,5.224,0,0,1,5.219,5.219Z" transform="translate(-18.38 -9)" fill="#002838"/>
    </g>
    <g id="Group_4420" data-name="Group 4420" transform="translate(868.529 121.136)">
      <path id="Path_9122" data-name="Path 9122" d="M23.758,18.335H13.321A3.325,3.325,0,0,1,10,15.014v-3.8A1.424,1.424,0,0,1,11.423,9.8h2.095a5.219,5.219,0,0,1,10.042,0h2.095a1.424,1.424,0,0,1,1.423,1.423v3.8A3.325,3.325,0,0,1,23.758,18.335ZM12.846,12.642v2.372a.475.475,0,0,0,.474.474H23.758a.475.475,0,0,0,.474-.474V12.642h-1.9a1.424,1.424,0,0,1-1.423-1.423,2.372,2.372,0,1,0-4.744,0,1.424,1.424,0,0,1-1.423,1.423Z" transform="translate(-10 -6)" fill="#002838"/>
    </g>
    <g id="Group_4421" data-name="Group 4421" transform="translate(868.054 136.317)">
      <path id="Path_9123" data-name="Path 9123" d="M9.75,14H27.778v2.846H9.75Z" transform="translate(-9.75 -14)" fill="#002838"/>
    </g>
    <g id="Group_4422" data-name="Group 4422" transform="translate(868.054 142.01)">
      <path id="Path_9124" data-name="Path 9124" d="M9.75,17H23.356v2.846H9.75Z" transform="translate(-9.75 -17)" fill="#002838"/>
    </g>
    <g id="Group_4423" data-name="Group 4423" transform="translate(868.054 147.703)">
      <path id="Path_9125" data-name="Path 9125" d="M9.75,20H20.073v2.846H9.75Z" transform="translate(-9.75 -20)" fill="#002838"/>
    </g>
  </g>
</svg>
