<svg xmlns="http://www.w3.org/2000/svg" width="47.369" height="47.371" viewBox="0 0 47.369 47.371">
  <g id="Group_4461" data-name="Group 4461" transform="translate(-675.025 -120.629)">
    <g id="Group_4358" data-name="Group 4358" transform="translate(684.4 122.11)">
      <path id="Path_9063" data-name="Path 9063" d="M25.553,10.7v3.948a1.974,1.974,0,0,1-1.974,1.974H12.724a1.974,1.974,0,0,1-1.974-1.974V10.7H14.2a3.948,3.948,0,0,1,7.9,0Z" transform="translate(-10.75 -6.75)" fill="#f7931d"/>
    </g>
    <g id="Group_4359" data-name="Group 4359" transform="translate(699.75 145.152)">
      <path id="Path_9064" data-name="Path 9064" d="M24.458,38.746l-5.931,1.046,1.046-5.931L34.228,19.205c.772-.772,1.672-1.119,2.442-.349L39.112,21.3a1.972,1.972,0,0,1,0,2.791Z" transform="translate(-18.527 -18.424)" fill="#f7931d"/>
    </g>
    <g id="Group_4360" data-name="Group 4360" transform="translate(697.23 128.031)">
      <path id="Path_9065" data-name="Path 9065" d="M23.665,11.724V9.8a3.7,3.7,0,0,0-.493-.049H19.224v1.974A1.974,1.974,0,0,1,17.25,13.7h4.441A1.974,1.974,0,0,0,23.665,11.724Z" transform="translate(-17.25 -9.75)" fill="#f7931d"/>
    </g>
    <g id="Group_4361" data-name="Group 4361" transform="translate(676.505 128.031)">
      <path id="Path_9066" data-name="Path 9066" d="M11.191,38.37V13.7a3.95,3.95,0,0,1,3.454-3.9V9.75H10.7A3.959,3.959,0,0,0,6.75,13.7V38.37A3.959,3.959,0,0,0,10.7,42.317h4.441A3.959,3.959,0,0,1,11.191,38.37Z" transform="translate(-6.75 -9.75)" fill="#f7931d"/>
    </g>
    <g id="Group_4362" data-name="Group 4362" transform="translate(684.4 122.11)">
      <path id="Path_9067" data-name="Path 9067" d="M15.191,14.645V10.7h3.454a3.95,3.95,0,0,1,1.727-3.257,3.915,3.915,0,0,0-2.221-.691A3.959,3.959,0,0,0,14.2,10.7H10.75v3.948a1.974,1.974,0,0,0,1.974,1.974h4.441A1.974,1.974,0,0,1,15.191,14.645Z" transform="translate(-10.75 -6.75)" fill="#f7931d"/>
    </g>
    <g id="Group_4363" data-name="Group 4363" transform="translate(699.752 145.151)">
      <path id="Path_9068" data-name="Path 9068" d="M24.015,33.861l13.83-13.83-1.174-1.174c-.772-.772-1.672-.422-2.442.349L19.574,33.861l-1.046,5.931,4.583-.809Z" transform="translate(-18.528 -18.424)" fill="#f7931d"/>
    </g>
    <g id="Group_4364" data-name="Group 4364" transform="translate(698.271 143.673)">
      <path id="Path_9069" data-name="Path 9069" d="M19.257,42A1.48,1.48,0,0,1,17.8,40.265l1.046-5.931a1.472,1.472,0,0,1,.411-.79L33.912,18.889c1.8-1.8,3.569-1.318,4.536-.349l2.442,2.442a3.456,3.456,0,0,1,0,4.885L26.234,40.522a1.472,1.472,0,0,1-.79.411l-5.931,1.046a1.41,1.41,0,0,1-.257.024Zm2.424-6.7-.6,3.389,3.389-.6L38.8,23.772a.493.493,0,0,0,0-.7L36.374,20.65c-.02.037-.17.13-.369.33Z" transform="translate(-17.777 -17.675)" fill="#002838"/>
    </g>
    <g id="Group_4365" data-name="Group 4365" transform="translate(675.025 126.551)">
      <path id="Path_9070" data-name="Path 9070" d="M25.758,44.528H11.428A5.432,5.432,0,0,1,6,39.1V14.428A5.432,5.432,0,0,1,11.428,9h3.711v2.961H11.428a2.471,2.471,0,0,0-2.467,2.467V39.1a2.471,2.471,0,0,0,2.467,2.467h14.33Z" transform="translate(-6 -9)" fill="#002838"/>
    </g>
    <g id="Group_4366" data-name="Group 4366" transform="translate(699.46 126.551)">
      <path id="Path_9071" data-name="Path 9071" d="M27.5,28.363H24.538V14.428a2.471,2.471,0,0,0-2.467-2.467H18.38V9h3.691A5.432,5.432,0,0,1,27.5,14.428Z" transform="translate(-18.38 -9)" fill="#002838"/>
    </g>
    <g id="Group_4367" data-name="Group 4367" transform="translate(682.92 120.629)">
      <path id="Path_9072" data-name="Path 9072" d="M24.31,18.83H13.454A3.458,3.458,0,0,1,10,15.375V11.428a1.481,1.481,0,0,1,1.48-1.48h2.179a5.429,5.429,0,0,1,10.445,0h2.179a1.481,1.481,0,0,1,1.48,1.48v3.948A3.458,3.458,0,0,1,24.31,18.83ZM12.961,12.908v2.467a.494.494,0,0,0,.493.493H24.31a.494.494,0,0,0,.493-.493V12.908H22.83a1.481,1.481,0,0,1-1.48-1.48,2.467,2.467,0,0,0-4.934,0,1.481,1.481,0,0,1-1.48,1.48Z" transform="translate(-10 -6)" fill="#002838"/>
    </g>
    <g id="Group_4368" data-name="Group 4368" transform="translate(682.426 136.42)">
      <path id="Path_9073" data-name="Path 9073" d="M9.75,14H28.5v2.961H9.75Z" transform="translate(-9.75 -14)" fill="#002838"/>
    </g>
    <g id="Group_4369" data-name="Group 4369" transform="translate(682.426 142.341)">
      <path id="Path_9074" data-name="Path 9074" d="M9.75,17H28.5v2.961H9.75Z" transform="translate(-9.75 -17)" fill="#002838"/>
    </g>
    <g id="Group_4370" data-name="Group 4370" transform="translate(682.426 148.262)">
      <path id="Path_9075" data-name="Path 9075" d="M9.75,20H28.5v2.961H9.75Z" transform="translate(-9.75 -20)" fill="#002838"/>
    </g>
  </g>
</svg>
