<svg width="114" height="114" viewBox="0 0 114 114" fill="none" xmlns="http://www.w3.org/2000/svg">
<path d="M68.0316 78.6363L47.2967 66.1936H23.9025C18.8335 66.1936 14.709 62.069 14.709 57V9.19355C14.709 4.12453 18.8335 0 23.9025 0H90.0961C95.1651 0 99.2897 4.12453 99.2897 9.19355V57C99.2897 62.069 95.1651 66.1936 90.0961 66.1936H68.0316V78.6363Z" fill="#00A651"/>
<path d="M104.807 25.7422H99.2904V29.4196H104.807C107.847 29.4196 110.323 31.8949 110.323 34.9357V84.5809H3.67742V34.9357C3.67742 31.8949 6.15268 29.4196 9.19355 29.4196H14.7097V25.7422H9.19355C4.12453 25.7422 0 29.8667 0 34.9357V93.7745C0 98.8435 4.12453 102.968 9.19355 102.968H33.0968V110.323H25.7419V114H88.2581V110.323H80.9033V102.968H104.807C109.876 102.968 114 98.8435 114 93.7745V34.9357C114 29.8667 109.876 25.7422 104.807 25.7422ZM77.2258 110.323H36.7742V102.968H77.2258V110.323ZM104.807 99.2906H9.19355C6.15268 99.2906 3.67742 96.8154 3.67742 93.7745V88.2584H110.323V93.7745C110.323 96.8154 107.847 99.2906 104.807 99.2906Z" fill="#002838"/>
<path d="M44.1289 91.9355H47.8063V95.613H44.1289V91.9355Z" fill="#002838"/>
<path d="M51.4844 91.9355H62.5166V95.613H51.4844V91.9355Z" fill="#002838"/>
<path d="M66.1934 91.9355H69.8708V95.613H66.1934V91.9355Z" fill="#002838"/>
<path d="M34.9348 51.4835H44.1283V29.419H40.4509V27.5803C40.4509 18.4568 47.874 11.0319 56.9993 11.0319C66.1246 11.0319 73.5477 18.4568 73.5477 27.5803V29.419H69.8703V51.4835H73.5477V53.3223C73.5477 54.335 72.7235 55.161 71.709 55.161H62.1769C61.4156 53.026 59.3928 51.4835 56.9993 51.4835C53.9584 51.4835 51.4832 53.9588 51.4832 56.9997C51.4832 60.0406 53.9584 62.5158 56.9993 62.5158C59.3928 62.5158 61.4156 60.9734 62.1769 58.8384H71.709C74.7498 58.8384 77.2251 56.3631 77.2251 53.3223V51.4835H79.0638C84.1328 51.4835 88.2574 47.359 88.2574 42.29V38.6126C88.2574 33.5436 84.1328 29.419 79.0638 29.419H77.2251V27.5803C77.2251 16.4286 68.151 7.35449 56.9993 7.35449C45.8476 7.35449 36.7735 16.4286 36.7735 27.5803V29.419H34.9348C29.8657 29.419 25.7412 33.5436 25.7412 38.6126V42.29C25.7412 47.359 29.8657 51.4835 34.9348 51.4835ZM56.9993 58.8384C55.9848 58.8384 55.1606 58.0124 55.1606 56.9997C55.1606 55.987 55.9848 55.161 56.9993 55.161C58.0138 55.161 58.838 55.987 58.838 56.9997C58.838 58.0124 58.0138 58.8384 56.9993 58.8384ZM84.5799 38.6126V42.29C84.5799 44.6836 83.0375 46.7063 80.9025 47.4677V36.7739H77.2251V47.8061H73.5477V33.0964H79.0638C82.1047 33.0964 84.5799 35.5717 84.5799 38.6126ZM29.4186 38.6126C29.4186 35.5717 31.8939 33.0964 34.9348 33.0964H40.4509V47.8061H36.7735V36.7739H33.0961V47.4677C30.9611 46.7063 29.4186 44.6836 29.4186 42.29V38.6126Z" fill="#002838"/>
<path d="M33.0977 77.2256H36.7751V80.903H33.0977V77.2256Z" fill="#002838"/>
<path d="M7.35449 77.2256H29.419V80.903H7.35449V77.2256Z" fill="#002838"/>
<path d="M7.35449 69.8711H36.7739V73.5485H7.35449V69.8711Z" fill="#002838"/>
<path d="M102.968 77.2256H106.645V80.903H102.968V77.2256Z" fill="#002838"/>
<path d="M77.2256 77.2256H99.2901V80.903H77.2256V77.2256Z" fill="#002838"/>
<path d="M77.2256 69.8711H106.645V73.5485H77.2256V69.8711Z" fill="#002838"/>
</svg>
