<svg width="482" height="330" viewBox="0 0 482 330" fill="none" xmlns="http://www.w3.org/2000/svg">
<path d="M311.209 60.8134C311.209 60.8134 288.33 61.606 277.974 101.969C271.171 128.4 182.615 131.387 182.615 131.387V141.005H277.699C284.023 141.063 290.268 139.608 295.914 136.763C301.56 133.918 306.443 129.765 310.157 124.65C311.397 122.913 312.474 121.066 313.375 119.132C319.659 105.49 332.868 68.1146 311.209 60.8134Z" fill="#EF870C"/>
<path opacity="0.45" d="M241.292 330C374.092 330 481.748 316.959 481.748 300.871C481.748 284.784 374.092 271.742 241.292 271.742C108.491 271.742 0.835449 284.784 0.835449 300.871C0.835449 316.959 108.491 330 241.292 330Z" fill="#F9F9F9"/>
<path d="M290.374 295.323C290.374 295.323 289.337 300.749 284.761 301.877C280.186 303.005 279.682 307.715 284.045 308.249C288.407 308.782 298.306 301.709 298.306 301.709L296.582 293.28L290.374 295.323Z" fill="#77869E"/>
<path d="M329.588 295.323C329.588 295.323 328.551 300.749 323.975 301.877C319.4 303.005 318.896 307.715 323.258 308.249C327.621 308.782 337.52 301.709 337.52 301.709L335.796 293.28L329.588 295.323Z" fill="#77869E"/>
<path d="M137.437 112.608L131.992 138.963H162.497L158.348 108.676L137.437 112.608Z" fill="#DADADA"/>
<path d="M203.755 27.5538H82.7568V109.682H203.755V27.5538Z" fill="#24285B"/>
<path d="M203.755 102.624H82.7568V118.172H203.755V102.624Z" fill="#E6E6E6"/>
<path d="M387.167 150.395H68.9531V289.942H387.167V150.395Z" fill="#DADADA"/>
<path d="M387.167 141.036H68.9531V162.924H387.167V141.036Z" fill="#E6E6E6"/>
<path d="M370.709 222.981H357.226V295.613H370.709V222.981Z" fill="#FFD200"/>
<path d="M370.709 222.981H357.226V295.613H370.709V222.981Z" fill="#019549"/>
<path opacity="0.08" d="M303.727 139.888L279.597 139.736L250.984 184.077C243.555 195.605 239.231 208.855 238.429 222.544C237.627 236.232 240.376 249.896 246.408 262.211L259.403 288.795H385.496L385.786 232.061L386.792 145.864L303.727 139.888Z" fill="black"/>
<path d="M85.1208 162.925H68.9531V289.942H85.1208V162.925Z" fill="#E6E6E6"/>
<path opacity="0.61" d="M152.598 162.925H85.1055V289.942H152.598V162.925Z" fill="#E6E6E6"/>
<path d="M386.892 162.925H370.725V289.942H386.892V162.925Z" fill="#E6E6E6"/>
<path d="M147.763 114.346C150.248 114.346 152.263 112.333 152.263 109.849C152.263 107.366 150.248 105.353 147.763 105.353C145.278 105.353 143.264 107.366 143.264 109.849C143.264 112.333 145.278 114.346 147.763 114.346Z" fill="#A5A5A5"/>
<path d="M145.475 172.771H92.2437V199.065H145.475V172.771Z" fill="#C9C9C9"/>
<path d="M145.475 213.866H92.2437V240.16H145.475V213.866Z" fill="#C9C9C9"/>
<path d="M117.868 190.468C120.092 190.468 121.895 188.667 121.895 186.444C121.895 184.222 120.092 182.42 117.868 182.42C115.644 182.42 113.841 184.222 113.841 186.444C113.841 188.667 115.644 190.468 117.868 190.468Z" fill="#A5A5A5"/>
<path d="M117.868 231.029C120.092 231.029 121.895 229.227 121.895 227.005C121.895 224.783 120.092 222.981 117.868 222.981C115.644 222.981 113.841 224.783 113.841 227.005C113.841 229.227 115.644 231.029 117.868 231.029Z" fill="#A5A5A5"/>
<path d="M172.487 134.253H108.991V141.036H172.487V134.253Z" fill="#A5A5A5"/>
<path d="M333.859 182.435C333.859 182.435 318.942 83.5556 353.688 66.5904C388.433 49.6253 444.532 65.31 418.984 187.587L417.718 201.184C416.897 209.96 412.829 218.115 406.31 224.052C399.791 229.989 391.289 233.281 382.469 233.285H311.88C298.931 233.285 294.981 215.558 306.771 210.223C310.823 208.419 315.057 207.055 319.4 206.153C322.988 205.373 326.236 203.478 328.68 200.74C331.124 198.002 332.638 194.561 333.005 190.91L333.859 182.435Z" fill="#00A651"/>
<path d="M315.312 12.616C315.005 17.1579 315.307 21.7205 316.212 26.1821C316.355 26.7034 316.599 27.1913 316.931 27.6178C317.264 28.0443 317.677 28.401 318.147 28.6673C318.618 28.9336 319.137 29.1043 319.674 29.1696C320.21 29.2349 320.755 29.1935 321.276 29.0477C322.981 28.6774 324.544 27.8277 325.782 26.599C327.019 25.3702 327.88 23.8135 328.261 22.1123L330.58 14.9329C330.899 13.4472 330.748 11.8988 330.146 10.503C329.545 9.10722 328.524 7.93316 327.224 7.1439C322.557 3.89719 315.419 7.63166 315.312 12.616Z" fill="#F9CAC0"/>
<path d="M329.162 17.006L336.879 42.6595L322.42 45.891L322.618 25.923L329.162 17.006Z" fill="#F9CAC0"/>
<path d="M315.22 17.8136L312.994 20.9993C312.867 21.1804 312.788 21.3904 312.765 21.61C312.741 21.8295 312.774 22.0515 312.859 22.2552C312.944 22.459 313.079 22.6379 313.252 22.7754C313.425 22.9129 313.63 23.0046 313.848 23.0419L316.99 23.5753L315.22 17.8136Z" fill="#F9CAC0"/>
<path opacity="0.31" d="M322.633 28.5751C322.633 28.5751 324.494 28.194 327.743 24.9778C327.743 24.9778 328.444 30.2823 322.526 34.4588L322.633 28.5751Z" fill="#CE8172"/>
<path d="M326.233 17.6156C326.178 18.3336 325.871 19.0092 325.366 19.5225C324.86 20.0359 324.189 20.3539 323.472 20.4203C320.386 20.5277 317.463 21.8348 315.327 24.0633C311.743 28.4227 317.813 33.8034 322.603 30.9073C327.392 28.0111 332.273 17.1888 332.273 17.1888C332.273 17.1888 335.186 8.46996 332.593 4.23248C330 -0.0049995 316.395 -3.38889 313.619 6.07685C311.834 12.0977 317.584 13.1495 321.962 13.1495C322.549 13.148 323.131 13.2676 323.67 13.5009C324.209 13.7342 324.694 14.0761 325.095 14.5053C325.496 14.9345 325.804 15.4417 325.999 15.9953C326.195 16.5488 326.275 17.1367 326.233 17.7223V17.6156Z" fill="#002838"/>
<path d="M323.365 17.3564C323.365 17.3564 323.365 14.2011 325.745 14.4145C328.124 14.6279 328.124 19.1703 324.921 19.6428L323.365 17.3564Z" fill="#F9CAC0"/>
<path d="M319.705 46.5463L332.135 43.7264C332.135 43.7264 410.457 34.093 400.406 107.883C390.98 177.146 384.085 195.224 384.085 195.224L313.497 197.678C313.497 197.678 309.562 138.978 298.244 124.239C286.927 109.499 264.536 65.9351 319.705 46.5463Z" fill="#F7931D"/>
<path d="M315.038 48.2992C315.038 48.2992 309.867 118.995 332.136 150.425C332.136 150.425 330.87 75.9495 350.012 43.8178C350.012 43.7264 332.136 38.8487 315.038 48.2992Z" fill="white"/>
<path d="M310.508 169.189L277.425 202.998C270.776 209.794 266.351 218.45 264.739 227.818C263.126 237.185 264.401 246.822 268.395 255.448L287.004 295.613L296.582 293.28L287.431 257.186C285.602 250.039 286.145 242.492 288.978 235.68C291.812 228.868 296.782 223.16 303.141 219.414L340.967 197.114L310.508 169.189Z" fill="#002838"/>
<path d="M310.508 169.189L388.173 173.762C388.173 173.762 388.051 201.199 378.808 207.51C373.683 210.954 354.648 217.798 338.694 223.21C332.425 225.332 327.252 229.85 324.308 235.775C321.363 241.699 320.887 248.548 322.984 254.823L335.796 293.25L324.921 296.116L301.463 250.083C298.108 243.518 297.084 236.009 298.558 228.787C300.032 221.564 303.918 215.056 309.577 210.329L333.005 190.743L310.508 169.189Z" fill="#002838"/>
<path d="M356.875 72.5809C356.638 69.1673 357.364 65.7558 358.971 62.734C360.577 59.7121 362.999 57.2012 365.962 55.4864C368.925 53.7717 372.31 52.9219 375.732 53.0337C379.154 53.1455 382.477 54.2143 385.321 56.1187C390.911 59.8169 395.518 64.8179 398.743 70.6908C405.439 83.0831 408.886 110.596 410.61 131.921C411.297 140.317 409.545 148.734 405.565 156.161C401.586 163.587 395.547 169.709 388.173 173.793L342.416 199.065L335.812 190.468L370.557 163.351C374.969 159.924 378.018 155.041 379.161 149.574C380.304 144.107 379.465 138.412 376.795 133.506C368.696 118.736 358.568 96.0242 356.875 72.5809Z" fill="#EF870C"/>
<path d="M335.796 190.468C335.796 190.468 320.025 199.202 328.749 203.775C337.474 208.348 340.951 197.129 340.951 197.129L335.796 190.468Z" fill="#F9CAC0"/>
<path opacity="0.27" d="M315.038 48.2991L300.959 88.1283L312.14 107.41L307.93 126.037L332.075 150.425C332.075 150.425 312.14 132.485 315.038 48.2991Z" fill="#F7931D"/>
<path d="M315.038 48.2991L321.566 52.8719L326.797 45.2506L332.334 52.1555L350.012 43.7263C350.012 43.7263 328.551 35.0837 315.038 48.2991Z" fill="#EF870C"/>
<path opacity="0.27" d="M350.011 43.7263L352.97 96.39L339.136 104.697L347.297 121.845L332.135 150.425C332.135 150.425 331.205 75.4922 350.011 43.7263Z" fill="#F7931D"/>
<path d="M182.615 133.536C182.615 133.536 167.363 130.808 168.796 141.036H182.615V133.536Z" fill="#F9CAC0"/>
<path d="M140.747 254.244H95.3398V289.942H140.747V254.244Z" fill="#C9C9C9"/>
<path d="M357.226 284.028H370.724L392.474 308.264H337.52L357.226 284.028Z" fill="#FFD200"/>
<path d="M357.226 284.028H370.724L392.474 308.264H337.52L357.226 284.028Z" fill="#019549"/>
<path d="M186.779 42.4916H103.058V60.7981H186.779V42.4916Z" fill="#00A651"/>
<path d="M132.663 68.6177H105.01V93.3719H132.663V68.6177Z" fill="#77869E"/>
<path d="M186.779 68.6177H138.886V76.2543H186.779V68.6177Z" fill="white"/>
<path opacity="0.14" d="M186.779 81.5892H138.886V89.2258H186.779V81.5892Z" fill="white"/>
</svg>
