<svg width="493" height="371" viewBox="0 0 493 371" fill="none" xmlns="http://www.w3.org/2000/svg">
<path d="M118.936 114.688H34.0171V248.998H118.936V114.688Z" fill="#E6E6E6"/>
<path d="M451.342 105.068H384.17V178.698H451.342V105.068Z" fill="#E6E6E6"/>
<path d="M249.335 330.274C339.458 330.274 412.518 321.66 412.518 311.034C412.518 300.408 339.458 291.794 249.335 291.794C159.211 291.794 86.1519 300.408 86.1519 311.034C86.1519 321.66 159.211 330.274 249.335 330.274Z" fill="#F4F4F4"/>
<path d="M398.221 286.121H316.506V307.704H398.221V286.121Z" fill="#E6E6E6"/>
<path opacity="0.43" d="M380.35 265.031H298.635V286.614H380.35V265.031Z" fill="#E6E6E6"/>
<path d="M122.634 292.411C122.634 292.411 110.555 289.081 107.967 277.858C107.967 277.858 126.701 274.034 127.194 293.398L122.634 292.411Z" fill="#20CE6A"/>
<path d="M124.113 291.301C124.113 291.301 115.732 277.981 123.127 265.524C123.127 265.524 137.301 274.528 131.015 291.424L124.113 291.301Z" fill="#0ABF5B"/>
<path d="M126.208 291.301C126.208 291.301 130.645 277.241 144.203 274.528C144.203 274.528 146.668 283.654 135.452 291.301H126.208Z" fill="#00A651"/>
<path d="M117.457 290.931L119.922 307.704H135.329L137.67 291.054L117.457 290.931Z" fill="#002838"/>
<path d="M316.259 44.8811H169.838V307.828H316.259V44.8811Z" fill="#77869E"/>
<path d="M303.195 74.8511H181.917V259.851H303.195V74.8511Z" fill="white"/>
<path d="M243.542 297.838C251.438 297.838 257.839 291.432 257.839 283.531C257.839 275.63 251.438 269.224 243.542 269.224C235.646 269.224 229.245 275.63 229.245 283.531C229.245 291.432 235.646 297.838 243.542 297.838Z" fill="white"/>
<path opacity="0.12" d="M271.643 55.1178H230.601V61.1611H271.643V55.1178Z" fill="black"/>
<path d="M215.811 65.4777C219.487 65.4777 222.466 62.4959 222.466 58.8177C222.466 55.1395 219.487 52.1577 215.811 52.1577C212.135 52.1577 209.155 55.1395 209.155 58.8177C209.155 62.4959 212.135 65.4777 215.811 65.4777Z" fill="white"/>
<path d="M212.853 141.944C222.859 141.944 230.971 133.827 230.971 123.814C230.971 113.802 222.859 105.684 212.853 105.684C202.847 105.684 194.735 113.802 194.735 123.814C194.735 133.827 202.847 141.944 212.853 141.944Z" fill="#002838"/>
<path d="M215.195 115.428C215.441 116.784 215.564 118.264 215.441 119.744C215.441 120.484 214.825 120.978 214.085 120.854H213.962C212.853 120.731 211.867 119.991 211.497 119.004L210.511 116.784C210.141 115.798 210.511 114.811 211.251 114.194C212.36 113.331 213.839 113.454 214.702 114.564C214.948 114.811 215.195 115.058 215.195 115.428Z" fill="#F4A28C"/>
<path d="M210.757 117.154L210.388 125.664L215.071 125.541L213.469 119.498L210.757 117.154Z" fill="#F4A28C"/>
<path d="M214.578 115.674C213.839 115.798 212.976 115.798 212.237 115.798C212.73 116.414 212.853 117.401 212.483 118.141C212.113 118.881 211.251 119.251 210.511 119.128L210.141 115.798C210.018 114.811 210.388 113.948 211.251 113.331C211.62 113.084 211.99 112.838 212.36 112.591C213.223 112.098 214.702 112.591 215.564 111.851C215.811 111.604 216.181 111.604 216.427 111.851C216.55 111.974 216.55 111.974 216.55 112.098C217.043 113.331 216.55 114.688 215.564 115.428C215.195 115.551 214.825 115.551 214.578 115.674Z" fill="#FFD200"/>
<path d="M212.73 118.018C212.73 118.018 212.606 117.031 211.867 117.154C211.127 117.278 211.374 118.758 212.36 118.758L212.73 118.018Z" fill="#F4A28C"/>
<path d="M215.441 117.031L216.304 117.894C216.427 118.018 216.427 118.388 216.304 118.511L216.181 118.634L215.195 118.881L215.441 117.031Z" fill="#F4A28C"/>
<path opacity="0.31" d="M213.839 120.731C213.223 120.608 212.73 120.361 212.237 119.991C212.606 121.224 213.346 122.211 214.332 122.828L213.839 120.731Z" fill="#CE8172"/>
<path d="M200.528 137.258C200.528 137.258 200.281 125.788 212.606 125.294C224.931 124.801 224.561 137.751 224.561 137.751C224.561 137.751 212.976 148.358 200.528 137.258Z" fill="#FCA342"/>
<path d="M211.374 244.434C221.38 244.434 229.491 236.317 229.491 226.304C229.491 216.292 221.38 208.174 211.374 208.174C201.367 208.174 193.256 216.292 193.256 226.304C193.256 236.317 201.367 244.434 211.374 244.434Z" fill="#002838"/>
<path d="M213.839 218.041C214.085 219.398 214.209 220.878 214.085 222.358C214.085 223.098 213.469 223.591 212.73 223.468H212.606C211.497 223.344 210.511 222.604 210.141 221.618L209.155 219.398C208.786 218.411 209.155 217.424 209.895 216.808C211.004 215.944 212.483 216.068 213.346 217.178C213.592 217.424 213.716 217.671 213.839 218.041Z" fill="#F4A28C"/>
<path d="M209.278 219.768L209.032 228.278L213.715 228.154L211.99 221.988L209.278 219.768Z" fill="#F4A28C"/>
<path d="M214.085 219.644L214.948 220.508C215.071 220.631 215.071 221.001 214.948 221.124L214.825 221.248L213.839 221.494L214.085 219.644Z" fill="#F4A28C"/>
<path opacity="0.31" d="M212.483 223.344C211.867 223.221 211.374 222.974 210.881 222.604C211.251 223.838 211.99 224.824 212.976 225.441L212.483 223.344Z" fill="#CE8172"/>
<path d="M199.172 239.748C199.172 239.748 198.925 228.401 211.25 227.784C223.575 227.168 223.206 240.241 223.206 240.241C223.206 240.241 211.497 250.848 199.172 239.748Z" fill="#F7931D"/>
<path d="M209.155 222.481L207.8 219.891C207.8 219.891 205.458 220.138 205.335 218.411C205.211 216.684 207.06 217.054 207.06 215.944C207.06 214.834 206.814 213.108 208.662 213.108C210.511 213.108 211.004 214.588 211.867 213.724C212.36 213.231 213.222 213.108 213.715 213.601C213.962 213.848 214.209 214.218 214.209 214.588C214.332 215.698 215.564 215.451 215.071 217.054C214.578 218.658 211.99 217.794 211.99 217.794C211.99 217.794 209.648 217.794 209.895 218.904C210.141 220.014 211.99 222.111 209.155 222.481Z" fill="#FFD200"/>
<path d="M210.881 220.261C210.881 220.261 210.388 219.398 209.772 219.768C209.155 220.138 209.772 221.494 210.758 221.124L210.881 220.261Z" fill="#F4A28C"/>
<path d="M212.113 192.264C222.119 192.264 230.231 184.147 230.231 174.134C230.231 164.121 222.119 156.004 212.113 156.004C202.107 156.004 193.995 164.121 193.995 174.134C193.995 184.147 202.107 192.264 212.113 192.264Z" fill="#002838"/>
<path d="M214.578 165.748C214.825 167.104 214.948 168.584 214.825 170.064C214.702 170.804 214.085 171.298 213.346 171.174C212.237 171.051 211.251 170.311 210.881 169.324L209.895 167.104C209.525 166.118 209.895 165.131 210.634 164.514C211.744 163.651 213.223 163.774 214.085 164.884C214.332 165.131 214.455 165.378 214.578 165.748Z" fill="#F4A28C"/>
<path d="M210.018 167.474L209.648 175.984L214.332 175.861L212.729 169.694L210.018 167.474Z" fill="#F4A28C"/>
<path d="M212.113 168.338C212.113 168.338 211.99 167.351 211.251 167.474C210.511 167.598 210.758 169.078 211.744 169.078L212.113 168.338Z" fill="#F4A28C"/>
<path d="M214.825 167.351L215.688 168.214C215.811 168.338 215.811 168.708 215.688 168.831L215.564 168.954L214.578 169.324L214.825 167.351Z" fill="#F4A28C"/>
<path opacity="0.31" d="M213.099 171.051C212.483 170.928 211.99 170.681 211.497 170.311C211.867 171.544 212.606 172.531 213.592 173.148L213.099 171.051Z" fill="#CE8172"/>
<path d="M199.911 187.578C199.911 187.578 199.665 176.108 211.99 175.614C224.315 175.121 223.945 188.071 223.945 188.071C223.945 188.071 212.236 198.678 199.911 187.578Z" fill="#FCA342"/>
<path d="M205.458 172.038C204.718 173.148 204.595 174.504 204.965 175.738C205.211 176.848 206.321 177.711 207.553 177.588C210.758 177.464 210.265 176.478 210.758 171.914C211.127 167.598 211.497 166.241 214.085 165.624C216.674 165.008 215.071 162.418 212.853 162.541C210.634 162.664 206.69 162.664 206.814 166.734C206.814 168.461 206.444 170.311 205.458 172.038Z" fill="#FFD200"/>
<path d="M265.727 110.001H240.954V115.058H265.727V110.001Z" fill="#E6E6E6"/>
<path d="M303.195 74.8511H181.917V96.4344H303.195V74.8511Z" fill="#00A651"/>
<path d="M288.282 82.4978H224.562V88.6645H288.282V82.4978Z" fill="white"/>
<path d="M195.844 90.3911C198.975 90.3911 201.514 87.8511 201.514 84.7178C201.514 81.5845 198.975 79.0444 195.844 79.0444C192.713 79.0444 190.175 81.5845 190.175 84.7178C190.175 87.8511 192.713 90.3911 195.844 90.3911Z" fill="#24285B"/>
<path opacity="0.74" d="M201.514 90.3911C204.645 90.3911 207.183 87.8511 207.183 84.7178C207.183 81.5845 204.645 79.0444 201.514 79.0444C198.383 79.0444 195.844 81.5845 195.844 84.7178C195.844 87.8511 198.383 90.3911 201.514 90.3911Z" fill="#24285B"/>
<path opacity="0.31" d="M208.046 90.3911C211.177 90.3911 213.715 87.8511 213.715 84.7178C213.715 81.5845 211.177 79.0444 208.046 79.0444C204.915 79.0444 202.376 81.5845 202.376 84.7178C202.376 87.8511 204.915 90.3911 208.046 90.3911Z" fill="#24285B"/>
<path d="M240.954 120.361V130.844L233.805 135.778H240.954H339.554V120.361H240.954Z" fill="#F7931D"/>
<path opacity="0.39" d="M325.38 125.664H250.074V130.598H325.38V125.664Z" fill="white"/>
<path d="M265.727 158.224H240.954V163.281H265.727V158.224Z" fill="#E6E6E6"/>
<path d="M240.954 168.584V179.068L233.805 184.124H240.954H339.554V168.584H240.954Z" fill="#F7931D"/>
<path opacity="0.39" d="M325.38 174.011H250.074V178.944H325.38V174.011Z" fill="white"/>
<path d="M265.727 212.491H240.954V217.548H265.727V212.491Z" fill="#E6E6E6"/>
<path d="M240.954 222.851V233.334L233.805 238.391H240.954H339.554V222.851H240.954Z" fill="#F7931D"/>
<path opacity="0.39" d="M325.38 228.278H250.074V233.211H325.38V228.278Z" fill="white"/>
<path d="M428.787 88.9111H361.615V162.541H428.787V88.9111Z" fill="#002838"/>
<path d="M377.022 114.194C379.472 114.194 381.459 112.207 381.459 109.754C381.459 107.302 379.472 105.314 377.022 105.314C374.571 105.314 372.585 107.302 372.585 109.754C372.585 112.207 374.571 114.194 377.022 114.194Z" fill="#68E1FD"/>
<path d="M377.022 131.338C379.472 131.338 381.459 129.35 381.459 126.898C381.459 124.446 379.472 122.458 377.022 122.458C374.571 122.458 372.585 124.446 372.585 126.898C372.585 129.35 374.571 131.338 377.022 131.338Z" fill="white"/>
<path d="M377.022 148.604C379.472 148.604 381.459 146.617 381.459 144.164C381.459 141.712 379.472 139.724 377.022 139.724C374.571 139.724 372.585 141.712 372.585 144.164C372.585 146.617 374.571 148.604 377.022 148.604Z" fill="#FFD200"/>
<path opacity="0.2" d="M417.694 105.808H390.579V112.098H417.694V105.808Z" fill="white"/>
<path opacity="0.2" d="M417.694 123.814H390.579V130.104H417.694V123.814Z" fill="white"/>
<path opacity="0.2" d="M417.694 141.328H390.579V147.618H417.694V141.328Z" fill="white"/>
<path d="M142.107 96.8044H57.188V231.114H142.107V96.8044Z" fill="#00A651"/>
<path d="M84.3029 136.764C92.0628 136.764 98.3534 130.47 98.3534 122.704C98.3534 114.939 92.0628 108.644 84.3029 108.644C76.5431 108.644 70.2524 114.939 70.2524 122.704C70.2524 130.47 76.5431 136.764 84.3029 136.764Z" fill="#68E1FD"/>
<path d="M129.166 114.688H105.502V120.484H129.166V114.688Z" fill="white"/>
<path opacity="0.21" d="M129.166 124.924H105.502V130.721H129.166V124.924Z" fill="white"/>
<path opacity="0.11" d="M142.107 150.084H57.188V231.114H142.107V150.084Z" fill="white"/>
<path d="M124.729 166.364H86.6448V174.134H124.729V166.364Z" fill="white"/>
<path opacity="0.57" d="M124.729 186.468H86.6448V194.238H124.729V186.468Z" fill="white"/>
<path opacity="0.23" d="M124.729 206.571H86.6448V214.341H124.729V206.571Z" fill="white"/>
<path d="M76.415 175.121C78.8655 175.121 80.852 173.133 80.852 170.681C80.852 168.229 78.8655 166.241 76.415 166.241C73.9645 166.241 71.978 168.229 71.978 170.681C71.978 173.133 73.9645 175.121 76.415 175.121Z" fill="#FFD200"/>
<path opacity="0.36" d="M76.415 194.731C78.8655 194.731 80.852 192.743 80.852 190.291C80.852 187.839 78.8655 185.851 76.415 185.851C73.9645 185.851 71.978 187.839 71.978 190.291C71.978 192.743 73.9645 194.731 76.415 194.731Z" fill="#FFD200"/>
<path opacity="0.36" d="M76.415 214.958C78.8655 214.958 80.852 212.97 80.852 210.518C80.852 208.066 78.8655 206.078 76.415 206.078C73.9645 206.078 71.978 208.066 71.978 210.518C71.978 212.97 73.9645 214.958 76.415 214.958Z" fill="#FFD200"/>
</svg>
