<svg width="114" height="114" viewBox="0 0 114 114" fill="none" xmlns="http://www.w3.org/2000/svg">
<path d="M99.2906 114H14.71V101.129H25.7937C26.1798 100.039 26.6303 98.9595 27.1378 97.9022L19.2939 90.0583L34.8953 74.4568L42.7392 82.3008C43.7965 81.7933 44.8758 81.3428 45.9662 80.9567V69.8711H68.0307V80.9548C69.1211 81.341 70.2004 81.7915 71.2576 82.2989L79.1016 74.455L94.703 90.0565L86.8591 97.9004C87.3666 98.9613 87.8171 100.039 88.2032 101.127H99.2869V114H99.2906Z" fill="#F7931D"/>
<path d="M76.5859 107.09C77.0088 108.736 77.2258 110.442 77.2258 112.161V114H80.9032V112.161C80.9032 110.131 80.6477 108.116 80.1457 106.171L76.5859 107.09Z" fill="#002838"/>
<path d="M56.9999 88.2581C43.82 88.2581 33.0967 98.9814 33.0967 112.161V114H36.7741V112.161C36.7741 101.01 45.8481 91.9355 56.9999 91.9355C65.0424 91.9355 72.32 96.6977 75.5433 104.069L78.9118 102.596C75.1057 93.8864 66.5042 88.2581 56.9999 88.2581Z" fill="#002838"/>
<path d="M57 95.6128C47.8745 95.6128 40.4517 103.038 40.4517 112.161V114H44.1291V112.161C44.1291 105.064 49.9045 99.2902 57 99.2902C64.0956 99.2902 69.871 105.064 69.871 112.161V114H73.5484V112.161C73.5484 103.038 66.1256 95.6128 57 95.6128Z" fill="#002838"/>
<path d="M73.7966 46.9276L69.871 46.4237V45.3977C71.9322 43.5462 73.5263 41.1926 74.4549 38.521C78.079 38.0686 80.9032 35.0017 80.9032 31.2581V22.0645C80.9032 9.89777 71.0055 0 58.8387 0C46.672 0 36.7742 9.89777 36.7742 22.0645V31.2581C36.7742 35.0035 39.5966 38.0686 43.2226 38.521C44.1529 41.1908 45.7453 43.5462 47.8065 45.3977V46.4237L43.8808 46.9276C37.9197 47.6906 33.0766 51.2044 31.2415 56.0972L26.7661 68.0323H90.9132L86.4359 56.099C84.6009 51.2044 79.7577 47.6906 73.7966 46.9276ZM62.8067 49.8824L62.1153 49.3179C63.5532 49.0274 64.9175 48.5383 66.1954 47.9002V51.9141L62.8067 49.8824ZM57 58.0389L58.8387 56.5348L60.6774 58.0389V64.3548H57V58.0389ZM51.4839 51.9141V47.9002C52.7618 48.5383 54.1243 49.0274 55.564 49.3179L54.8726 49.8824L51.4839 51.9141ZM75.3172 34.4611C75.354 34.0106 75.3871 33.5583 75.3871 33.0968V28.0918C76.4811 28.7298 77.2258 29.9029 77.2258 31.2581C77.2258 32.6408 76.4499 33.8341 75.3172 34.4611ZM58.8387 3.67742C68.9774 3.67742 77.2258 11.9259 77.2258 22.0645V24.9256C76.6558 24.5927 76.0417 24.3335 75.3871 24.1643V22.0645C75.3871 19.0233 72.9122 16.5484 69.871 16.5484H47.8065C44.7652 16.5484 42.2903 19.0233 42.2903 22.0645V24.1625C41.6358 24.3335 41.0216 24.5909 40.4516 24.9237V22.0645C40.4516 11.9259 48.7001 3.67742 58.8387 3.67742ZM40.4516 31.2581C40.4516 29.9029 41.1963 28.7298 42.2903 28.0918V33.0968C42.2903 33.5565 42.3216 34.0088 42.3602 34.4611C41.2276 33.8341 40.4516 32.6408 40.4516 31.2581ZM45.9678 33.0968V22.0645C45.9678 21.0514 46.7915 20.2258 47.8065 20.2258H69.871C70.8859 20.2258 71.7097 21.0514 71.7097 22.0645V33.0968C71.7097 40.1942 65.9343 45.9677 58.8387 45.9677C51.7431 45.9677 45.9678 40.1942 45.9678 33.0968ZM34.6854 57.388C36.0203 53.8301 39.8118 51.1547 44.3479 50.5737L47.8065 50.1306V58.4085L55.9501 53.523L56.2553 53.8981L53.3226 56.2958V64.3548H32.0726L34.6854 57.388ZM64.3549 64.3548V56.2958L61.4221 53.8981L61.7273 53.523L69.871 58.4085V50.1306L73.3296 50.5737C77.8657 51.1547 81.6571 53.8301 82.992 57.388L85.6048 64.3548H64.3549Z" fill="#002838"/>
<path d="M68.0285 23.9031H64.3511V27.5805H68.0285V23.9031Z" fill="#002838"/>
<path d="M53.319 23.9031H49.6416V27.5805H53.319V23.9031Z" fill="#002838"/>
<path d="M51.4839 33.0969V34.9356C51.4839 38.9918 54.7825 42.2905 58.8387 42.2905C62.8949 42.2905 66.1936 38.9918 66.1936 34.9356V33.0969H62.5162V34.9356C62.5162 36.9637 60.8668 38.6131 58.8387 38.6131C56.8106 38.6131 55.1613 36.9637 55.1613 34.9356V33.0969H51.4839Z" fill="#002838"/>
<path d="M58.8351 77.2258H55.1577V80.9032H58.8351V77.2258Z" fill="#002838"/>
<path d="M33.5867 91.354L36.187 88.7537L33.5867 86.1534L30.9864 88.7537L33.5867 91.354Z" fill="#002838"/>
<path d="M80.3992 91.3552L82.9995 88.7549L80.3992 86.1546L77.7989 88.7549L80.3992 91.3552Z" fill="#002838"/>
<path d="M97.4479 62.5161H93.7705V66.1935H97.4479V62.5161Z" fill="#002838"/>
<path d="M110.323 20.2258V62.5161H101.129V66.1936H114V20.2258H110.323Z" fill="#002838"/>
<path d="M104.802 20.2258H101.125V23.9032H104.802V20.2258Z" fill="#002838"/>
<path d="M104.806 27.5806H101.129V53.3225H93.7739V56.9999H104.806V27.5806Z" fill="#002838"/>
<path d="M20.2223 62.5161H16.5449V66.1935H20.2223V62.5161Z" fill="#002838"/>
<path d="M3.67742 20.2258H0V66.1936H12.871V62.5161H3.67742V20.2258Z" fill="#002838"/>
<path d="M12.8674 20.2258H9.18994V23.9032H12.8674V20.2258Z" fill="#002838"/>
<path d="M12.8713 27.5806H9.19385V56.9999H20.2261V53.3225H12.8713V27.5806Z" fill="#002838"/>
<path d="M57 95C47.6112 95 40 103.507 40 114H74C74 103.507 66.3888 95 57 95Z" fill="#00A651"/>
</svg>
