<svg width="108" height="116" viewBox="0 0 108 116" fill="none" xmlns="http://www.w3.org/2000/svg">
<path d="M83.3438 66.8869V52.8006L78.526 51.84C77.8992 49.6146 77.0123 47.474 75.8747 45.4496L78.6035 41.3583L68.6417 31.3965L64.5504 34.1253C62.526 32.9895 60.3854 32.1008 58.16 31.474L57.1994 26.6562H43.1131L42.1525 31.474C39.9271 32.1008 37.7865 32.9877 35.7621 34.1253L31.6708 31.3965L21.709 41.3583L24.4378 45.4496C23.302 47.474 22.4133 49.6146 21.7865 51.84L16.9688 52.8006V66.8887L21.7865 67.8493C22.4133 70.0747 23.3002 72.2153 24.4378 74.2397L21.709 78.331L31.6708 88.2928L35.7621 85.5641C37.7865 86.6998 39.9271 87.5885 42.1525 88.2154L43.1131 93.0312H57.2012L58.1618 88.2135C60.3872 87.5867 62.5278 86.6998 64.5522 85.5622L68.6435 88.291L78.6053 78.3292L75.8766 74.2379C77.0123 72.2135 77.901 70.0729 78.5279 67.8475L83.3438 66.8869ZM50.1562 78.2812C39.9732 78.2812 31.7188 70.0268 31.7188 59.8438C31.7188 49.6607 39.9732 41.4062 50.1562 41.4062C60.3393 41.4062 68.5938 49.6607 68.5938 59.8438C68.5938 70.0268 60.3393 78.2812 50.1562 78.2812Z" fill="#00A651"/>
<path d="M66.75 98.5625H57.5312V113.312H66.75V98.5625Z" fill="#F7931D"/>
<path d="M98.0938 96.7188H55.6875V100.406H21.0914L17.4039 98.5625H0.375V113.312H17.4039L21.0914 111.469H55.6875V115.156H98.0938C103.177 115.156 107.312 111.021 107.312 105.938C107.312 100.854 103.177 96.7188 98.0938 96.7188ZM20.2211 107.781L16.5336 109.625H4.0625V102.25H16.5336L20.2211 104.094H55.6875V107.781H20.2211ZM59.375 100.406H88.875V111.469H59.375V100.406ZM98.0938 111.469H92.5625V100.406H98.0938C101.143 100.406 103.625 102.888 103.625 105.938C103.625 108.987 101.143 111.469 98.0938 111.469Z" fill="#002838"/>
<path d="M75.2589 22.9688C76.8611 22.9688 78.4043 23.6952 79.4922 24.9618C82.4311 28.382 86.7639 30.3438 91.3807 30.3438C97.2696 30.3438 102.723 27.049 105.275 21.9492L106.608 19.2812H93.5489L91.0912 15.5938L93.5489 11.9062H106.608L105.273 9.23834C102.723 4.13853 97.2696 0.84375 91.3807 0.84375C86.7658 0.84375 82.4311 2.8055 79.4922 6.22566C78.4043 7.49231 76.8611 8.21875 75.2589 8.21875H8.375C4.30769 8.21875 1 11.5264 1 15.5938C1 19.6611 4.30769 22.9688 8.375 22.9688H75.2589ZM4.6875 15.5938C4.6875 13.5601 6.34134 11.9062 8.375 11.9062H75.2589C77.9379 11.9062 80.5007 10.7133 82.2891 8.62991C84.5274 6.02469 87.8407 4.53125 91.3807 4.53125C94.7363 4.53125 97.902 5.91591 100.096 8.21875H91.5761L86.6588 15.5938L91.5761 22.9688H100.096C97.902 25.2716 94.7381 26.6562 91.3807 26.6562C87.8407 26.6562 84.5274 25.1628 82.2891 22.5576C80.5007 20.4742 77.9379 19.2812 75.2589 19.2812H8.375C6.34134 19.2812 4.6875 17.6274 4.6875 15.5938Z" fill="#002838"/>
<path d="M50.1562 43.25C54.0337 43.25 57.806 44.6181 60.7818 47.1034L63.1455 44.2733C59.5077 41.2366 54.8947 39.5625 50.1562 39.5625C38.9739 39.5625 29.875 48.6614 29.875 59.8437C29.875 64.5822 31.5491 69.1952 34.5858 72.833L37.4159 70.4693C34.9306 67.4935 33.5625 63.7212 33.5625 59.8437C33.5625 50.6951 41.0076 43.25 50.1562 43.25Z" fill="#002838"/>
<path d="M70.4375 59.8437C70.4375 55.1053 68.7652 50.4922 65.7267 46.8545L62.8965 49.2182C65.3819 52.1958 66.75 55.9681 66.75 59.8437C66.75 68.9924 59.3049 76.4375 50.1562 76.4375C46.2788 76.4375 42.5065 75.0694 39.5307 72.584L37.167 75.4142C40.8047 78.4508 45.4178 80.125 50.1562 80.125C61.3386 80.125 70.4375 71.0261 70.4375 59.8437Z" fill="#002838"/>
<path d="M101.781 43.25C101.781 38.1668 97.6456 34.0312 92.5624 34.0312C87.4791 34.0312 83.3436 38.1668 83.3436 43.25C83.3436 48.3332 87.4791 52.4687 92.5624 52.4687C92.9735 52.4687 93.3644 52.4005 93.7608 52.3471C94.1812 54.814 94.4061 57.327 94.4061 59.8437C94.4061 71.9701 89.5976 83.2852 80.8638 91.7056L83.4229 94.3587C92.8832 85.2396 98.0936 72.9805 98.0936 59.8437C98.0936 56.9159 97.8134 53.988 97.2879 51.1228C99.9669 49.5095 101.781 46.6001 101.781 43.25ZM92.5624 48.7812C89.5128 48.7812 87.0311 46.2996 87.0311 43.25C87.0311 40.2004 89.5128 37.7187 92.5624 37.7187C95.6119 37.7187 98.0936 40.2004 98.0936 43.25C98.0936 46.2996 95.6119 48.7812 92.5624 48.7812Z" fill="#002838"/>
<path d="M13.2812 94.8751C18.3645 94.8751 22.5 90.7396 22.5 85.6563C22.5 80.5731 18.3645 76.4376 13.2812 76.4376C11.9224 76.4376 10.6428 76.751 9.47944 77.2802C7.11206 71.7766 5.90625 65.9227 5.90625 59.8438C5.90625 48.6431 10.0989 37.9585 17.7118 29.7538L15.0088 27.2463C6.75991 36.1332 2.21875 47.7101 2.21875 59.8438C2.21875 66.7192 3.65319 73.329 6.452 79.5203C4.98253 81.1539 4.0625 83.2927 4.0625 85.6563C4.0625 90.7396 8.19803 94.8751 13.2812 94.8751ZM18.8125 85.6563C18.8125 88.7059 16.3308 91.1876 13.2812 91.1876C10.2317 91.1876 7.75 88.7059 7.75 85.6563C7.75 82.6068 10.2317 80.1251 13.2812 80.1251C16.3308 80.1251 18.8125 82.6068 18.8125 85.6563Z" fill="#002838"/>
<path d="M92.5625 46.9375C94.5991 46.9375 96.25 45.2866 96.25 43.25C96.25 41.2134 94.5991 39.5625 92.5625 39.5625C90.5259 39.5625 88.875 41.2134 88.875 43.25C88.875 45.2866 90.5259 46.9375 92.5625 46.9375Z" fill="#F7931D"/>
<path d="M13.2812 89.3438C15.3178 89.3438 16.9688 87.6928 16.9688 85.6562C16.9688 83.6197 15.3178 81.9688 13.2812 81.9688C11.2447 81.9688 9.59375 83.6197 9.59375 85.6562C9.59375 87.6928 11.2447 89.3438 13.2812 89.3438Z" fill="#F7931D"/>
<circle cx="50" cy="60" r="7" fill="#DADADA"/>
</svg>
