<svg width="429" height="408" viewBox="0 0 429 408" fill="none" xmlns="http://www.w3.org/2000/svg">
<path d="M292.391 158.817L417.982 158.817V-0.000244141L292.391 -0.000244141V158.817Z" fill="#00A651"/>
<path opacity="0.2" d="M297.737 33.2754C297.737 33.2754 320.697 31.0941 321.222 50.8069C321.222 50.8069 319.582 86.4933 334.555 103.107C349.529 119.72 387.036 82.4917 397.482 158.867H360.451L309.611 119.293L295.048 64.5665L297.737 33.2754Z" fill="#00572B"/>
<path d="M376.928 89.5602C390.142 89.5602 400.855 78.8474 400.855 65.6326C400.855 52.4177 390.142 41.705 376.928 41.705C363.713 41.705 353 52.4177 353 65.6326C353 78.8474 363.713 89.5602 376.928 89.5602Z" fill="white"/>
<path d="M367 63.2874L373.527 73.3734L386.057 57.8754" stroke="#00A651" stroke-width="4" stroke-linecap="round" stroke-linejoin="round"/>
<path opacity="0.4" d="M350.726 26.7318L398.532 26.7318V15.0222L350.726 15.0222V26.7318Z" fill="white"/>
<path d="M149.695 0.0161438H24.1035V158.834H149.695V0.0161438Z" fill="#F2F2F2"/>
<path opacity="0.2" d="M144.332 33.3082C144.332 33.3082 121.372 31.127 120.864 50.8234C120.864 50.8234 122.504 86.5262 107.53 103.123C92.5571 119.72 55.0503 82.5245 44.6035 158.883H81.6347L132.475 119.326L147.12 64.583L144.332 33.3082Z" fill="#5B5B5B"/>
<path d="M174.557 100.876C174.557 100.876 194.122 124.066 202.322 138.006C210.522 151.946 239.124 155.423 257.853 120.277C268.972 99.4002 271.645 88.2974 281.01 94.9886C290.374 101.68 268.972 129.986 268.972 129.986C268.972 129.986 259.493 195.176 174.557 175.217C64.2016 149.289 174.557 100.876 174.557 100.876Z" fill="#F9CAC0"/>
<path opacity="0.45" d="M214.344 407.917C332.353 407.917 428.019 394.164 428.019 377.2C428.019 360.235 332.353 346.483 214.344 346.483C96.3338 346.483 0.667969 360.235 0.667969 377.2C0.667969 394.164 96.3338 407.917 214.344 407.917Z" fill="#FAFAFA"/>
<path d="M343.363 106.337C353.383 144.057 366.765 241.9 230.317 230.272V216.742C230.317 216.742 292.637 207.312 300.837 180.252C307.791 157.292 287.16 96.809 317.237 89.9046C328.799 87.2806 340.296 94.8574 343.363 106.337Z" fill="#EA8610"/>
<path d="M166.8 42.8529C166.8 42.8529 167.899 55.4645 165.783 63.8449C165.575 64.6551 165.209 65.4162 164.706 66.0847C164.203 66.7533 163.574 67.3161 162.853 67.7411C162.133 68.1661 161.336 68.4449 160.507 68.5615C159.679 68.678 158.836 68.6301 158.026 68.4205C153.811 67.2889 148.448 64.5501 147.054 57.8589L143.266 46.8053C142.74 44.5135 142.938 42.1148 143.834 39.9408C144.73 37.7668 146.28 35.9247 148.268 34.6693C155.32 29.5361 166.505 35.145 166.8 42.8529Z" fill="#F9CAC0"/>
<path d="M145.135 49.7245L130.72 81.5078L149.481 95.4314L153.221 65.5342L145.135 49.7245Z" fill="#F9CAC0"/>
<path d="M163.651 43.3778C159.742 43.5297 155.829 43.227 151.991 42.4758C153.12 44.1953 153.722 46.2077 153.722 48.265C153.722 50.3223 153.12 52.3346 151.991 54.0542C150.927 55.7415 149.309 57.0062 147.415 57.6316C145.521 58.2569 143.469 58.204 141.609 57.4818L141.823 41.2294C141.774 38.9011 142.358 36.6034 143.514 34.5815C144.669 32.5596 146.352 30.8894 148.383 29.7494C150.134 28.7496 151.947 27.8622 153.811 27.0926C158.485 25.223 165.291 28.339 169.539 25.1738C169.962 24.859 170.459 24.6593 170.983 24.5943C171.506 24.5292 172.037 24.6009 172.525 24.8025C173.012 25.0041 173.439 25.3286 173.764 25.7443C174.088 26.16 174.299 26.6528 174.377 27.1746C175.098 32.0946 174.229 39.901 167.538 42.607C166.294 43.0786 164.98 43.3391 163.651 43.3778Z" fill="#24285B"/>
<path d="M153.336 53.6769C153.336 53.6769 153.336 48.757 149.596 49.1834C145.857 49.6098 146.021 56.5961 150.99 57.2521L153.336 53.6769Z" fill="#F9CAC0"/>
<path d="M167.063 50.8233L170.589 55.7433C170.792 56.019 170.921 56.3418 170.965 56.6814C171.009 57.021 170.966 57.3662 170.84 57.6845C170.713 58.0027 170.508 58.2836 170.243 58.5006C169.978 58.7177 169.663 58.8637 169.326 58.9249L164.488 59.8433L167.063 50.8233Z" fill="#F9CAC0"/>
<path opacity="0.31" d="M153.122 66.387C150.696 64.9582 148.705 62.8942 147.366 60.4174C147.366 60.4174 142.872 68.3057 152.056 74.9149L153.122 66.387Z" fill="#CE8172"/>
<path d="M273.171 46.8218C273.171 46.8218 272.072 59.4334 274.187 67.8138C274.394 68.625 274.758 69.3875 275.261 70.0572C275.763 70.7268 276.393 71.2906 277.114 71.7159C277.835 72.1412 278.633 72.4196 279.462 72.5352C280.291 72.6508 281.135 72.6012 281.945 72.3894C286.159 71.2578 291.506 68.519 292.916 61.8278L296.705 50.7906C297.226 48.4988 297.025 46.1018 296.129 43.9288C295.234 41.7559 293.687 39.9134 291.703 38.6546C284.569 33.5214 273.4 39.0974 273.171 46.8218Z" fill="#F9CAC0"/>
<path d="M294.818 53.6934L309.234 85.4766L290.472 99.4002L286.717 69.503L294.818 53.6934Z" fill="#F9CAC0"/>
<path d="M286.602 57.6621C286.602 57.6621 286.7 52.7421 290.358 53.1521C294.015 53.5621 293.933 60.5813 288.947 61.2373L286.602 57.6621Z" fill="#F9CAC0"/>
<path d="M272.875 54.8086L269.366 59.7286C269.162 60.0042 269.033 60.327 268.989 60.6666C268.945 61.0062 268.988 61.3514 269.114 61.6697C269.241 61.9879 269.446 62.2688 269.711 62.4859C269.976 62.7029 270.292 62.8489 270.628 62.9102L275.466 63.8122L272.875 54.8086Z" fill="#F9CAC0"/>
<path opacity="0.31" d="M286.832 70.3557C289.25 68.9308 291.238 66.8798 292.588 64.4189C292.588 64.4189 297.082 72.3073 287.898 78.9165L286.832 70.3557Z" fill="#CE8172"/>
<path d="M201.125 136.038L188.12 177.809L161.634 173.577L173.458 99.4001C173.458 99.4001 193.04 120.622 201.125 136.038Z" fill="#F7931D"/>
<path d="M366.487 231.847L352.481 367.606H338L326.864 261.17L301.313 241.752L366.487 231.847Z" fill="#002838"/>
<path d="M301.313 241.752V367.704H318.303L333.9 256.758L301.313 241.752Z" fill="#002838"/>
<path d="M165.799 91.2658C157.159 84.5647 146.573 80.8575 135.64 80.7042C117.944 80.7042 88.2929 93.9718 82.1101 138.383C75.9273 182.794 82.2905 231.863 82.2905 231.863L147.464 241.703C147.464 241.703 219.28 137.989 165.799 91.2658Z" fill="#F7931D"/>
<path opacity="0.08" d="M153.335 232.109L147.431 241.752L82.2578 231.912C82.2578 231.912 69.1378 136.185 97.231 104.615L119.535 138.662L153.335 232.109Z" fill="black"/>
<path d="M281.009 94.9886C289.581 88.1425 300.154 84.2841 311.12 84.0006C328.832 83.8202 358.68 96.5794 365.502 140.876C372.325 185.172 366.683 234.356 366.683 234.356L301.641 245.213C301.641 245.213 228.251 142.417 281.009 94.9886Z" fill="#F7931D"/>
<path d="M94.3611 116.571C87.2599 154.898 81.4379 253.527 216.574 231.469L215.541 217.972C215.541 217.972 152.68 213.364 142.43 187.009C133.737 164.689 149.662 102.746 119.24 98.1374C107.432 96.4974 96.5423 104.861 94.3611 116.571Z" fill="#F9CAC0"/>
<path d="M91.1961 116.948C88.2393 130.775 88.4299 145.09 91.7537 158.834L139.314 158.424C139.314 158.424 147.12 109.617 126.456 97.0878C126.456 97.0878 121.536 92.8238 111.696 95.3166C106.613 96.6745 102.006 99.4151 98.3875 103.234C94.7686 107.053 92.2792 111.8 91.1961 116.948Z" fill="#F7931D"/>
<path d="M142.101 367.721C142.101 367.721 143.528 374.395 149.219 375.658C154.91 376.921 155.648 382.743 150.285 383.514C144.922 384.285 132.475 375.839 132.475 375.839L133.967 367.639L142.101 367.721Z" fill="#77869E"/>
<path d="M63.0537 367.721C63.0537 367.721 61.6105 374.395 55.9361 375.658C50.2617 376.921 49.4909 382.743 54.8701 383.514C60.2493 384.285 72.6805 375.839 72.6805 375.839L71.1881 367.639L63.0537 367.721Z" fill="#77869E"/>
<path opacity="0.08" d="M304.56 124.148C304.56 124.148 297.196 150.486 321.304 170.576C345.412 190.666 341.132 226.123 294.884 234.848L301.641 245.196L371.177 233.323L374.457 184.664L349.529 134.496L304.56 124.148Z" fill="black"/>
<path d="M217.405 213.736L208.689 214.407L210.115 232.933L218.83 232.263L217.405 213.736Z" fill="#00A651"/>
<path d="M266.594 38.5562C266.594 38.5562 263.413 47.4286 275.467 47.4942C287.521 47.5598 282.469 58.6954 291.949 59.2858C301.428 59.8762 303.084 56.0058 302.674 48.921C302.264 41.8362 303.248 28.3062 292.916 25.8462C282.584 23.3862 264.954 20.9262 266.594 38.5562Z" fill="#24285B"/>
<path d="M302.428 116.604C301.477 100.499 318.418 89.2978 333.211 95.7102C354.186 104.796 388.643 121.95 394.678 158.161C404.206 215.332 376.638 236.553 345.298 261.17L338.295 246.82C338.295 246.82 376.49 205.541 354.695 167.608C337.918 138.58 303.756 138.727 302.428 116.604Z" fill="#F7931D"/>
<path d="M339.115 248.493L330.702 252.576L338 265.155L345.298 261.17L339.115 248.493Z" fill="#F9CAC0"/>
<path d="M147.432 241.752V367.704H130.441L114.845 256.758L147.432 241.752Z" fill="#002838"/>
<path d="M242.912 214.266L244.552 231.256C244.552 231.256 231.432 237.144 223.708 232.667C215.984 228.189 225.84 209.001 242.912 214.266Z" fill="#F7BFB3"/>
<path d="M305.331 367.721C305.331 367.721 303.904 374.395 298.213 375.658C292.523 376.921 291.785 382.743 297.147 383.514C302.51 384.285 314.958 375.839 314.958 375.839L313.482 367.639L305.331 367.721Z" fill="#77869E"/>
<path d="M341.214 367.721C341.214 367.721 339.771 374.395 334.096 375.658C328.422 376.921 327.651 382.743 333.03 383.514C338.409 384.285 350.841 375.839 350.841 375.839L349.348 367.639L341.214 367.721Z" fill="#77869E"/>
<path d="M82.2416 231.847L58.5928 367.606L76.6328 367.704L115.468 261.17L147.432 241.752L82.2416 231.847Z" fill="#002838"/>
<path d="M217.722 217.71C217.722 217.71 222.905 211.773 228.563 214.43C234.221 217.087 229.875 217.251 234.795 220.006C239.715 222.761 246.881 235.422 218.837 232.24L217.722 217.71Z" fill="#F9CAC0"/>
<path d="M65.1034 89.5765C78.3182 89.5765 89.031 78.8638 89.031 65.6489C89.031 52.4341 78.3182 41.7213 65.1034 41.7213C51.8885 41.7213 41.1758 52.4341 41.1758 65.6489C41.1758 78.8638 51.8885 89.5765 65.1034 89.5765Z" fill="white"/>
<path d="M56.5757 63.3201L63.0865 73.4061L75.6161 57.9081" stroke="#D4E1E9" stroke-width="4" stroke-linecap="round" stroke-linejoin="round"/>
<path opacity="0.4" d="M91.3602 15.055H43.5542V26.7646H91.3602V15.055Z" fill="#A5A5A5"/>
</svg>
