<svg width="98" height="98" viewBox="0 0 98 98" fill="none" xmlns="http://www.w3.org/2000/svg">
<path d="M85.75 22.9688H70.0133C70.2752 23.4205 70.4375 23.9396 70.4375 24.5C70.4375 26.192 69.067 27.5625 67.375 27.5625C69.067 27.5625 70.4375 28.933 70.4375 30.625H84.2188C85.064 30.625 85.75 31.311 85.75 32.1562V75.0312C85.75 75.8765 85.064 76.5625 84.2188 76.5625H13.7812C12.936 76.5625 12.25 75.8765 12.25 75.0312V32.1562C12.25 31.311 12.936 30.625 13.7812 30.625H24.5V22.9688H12.25C8.02834 22.9688 4.59375 26.4033 4.59375 30.625V82.6875H93.4062V30.625C93.4062 26.4033 89.9717 22.9688 85.75 22.9688Z" fill="#F7931D"/>
<path d="M84.2188 29.0938H71.687C71.4833 28.5211 71.174 28.005 70.7744 27.5625C71.5094 26.7479 71.9688 25.6806 71.9688 24.5C71.9688 23.3194 71.5078 22.2521 70.7744 21.4375C71.5094 20.6229 71.9688 19.5556 71.9688 18.375C71.9688 15.8423 69.9077 13.7812 67.375 13.7812H58.6178L59.5105 10.2104C59.6483 9.65913 59.7188 9.08797 59.7188 8.51681C59.7188 4.66419 56.5858 1.53125 52.7332 1.53125H50.9585L48.1195 10.0496C47.8393 10.8918 47.3248 11.6283 46.6312 12.1842L42.065 15.8377C41.2534 16.487 40.2336 16.8438 39.1954 16.8438H38.2812V13.7812H22.9688V29.0938H13.7812C12.0923 29.0938 10.7188 30.4673 10.7188 32.1562V75.0312C10.7188 76.7202 12.0923 78.0938 13.7812 78.0938H84.2188C85.9077 78.0938 87.2812 76.7202 87.2812 75.0312V32.1562C87.2812 30.4673 85.9077 29.0938 84.2188 29.0938ZM39.1954 19.9062C40.9272 19.9062 42.6254 19.3106 43.979 18.228L48.5452 14.5744C49.6998 13.6511 50.5588 12.42 51.0258 11.0173L53.1604 4.61519C55.1219 4.82956 56.6562 6.49709 56.6562 8.51681C56.6562 8.83684 56.6164 9.15688 56.5383 9.46772L54.6947 16.8438H67.375C68.2187 16.8438 68.9062 17.5313 68.9062 18.375C68.9062 19.2187 68.2187 19.9062 67.375 19.9062H59.7188V22.9688H67.375C68.2187 22.9688 68.9062 23.6563 68.9062 24.5C68.9062 25.3437 68.2187 26.0312 67.375 26.0312H59.7188V29.0938H67.375C68.2187 29.0938 68.9062 29.7813 68.9062 30.625C68.9062 31.4687 68.2187 32.1562 67.375 32.1562H64.3125H59.7188V35.2188H64.3125C65.1562 35.2188 65.8438 35.9063 65.8438 36.75C65.8438 37.5937 65.1562 38.2812 64.3125 38.2812H48.1073C46.9252 38.2812 45.7415 38.001 44.6834 37.4728L40.1739 35.2188H38.2812V19.9062H39.1954ZM26.0312 16.8438H35.2188V38.2812H26.0312V16.8438ZM84.2188 75.0312H13.7812V32.1562H22.9688V41.3438H38.2812V38.2812H39.4511L43.3129 40.2122C44.7937 40.9533 46.4505 41.3438 48.1073 41.3438H64.3125C66.8452 41.3438 68.9062 39.2827 68.9062 36.75C68.9062 36.1452 68.7822 35.5709 68.5694 35.0411C70.0241 34.6461 71.1848 33.5635 71.687 32.1562H84.2188V75.0312Z" fill="#002838"/>
<path d="M88.8125 96.4688H9.1875C4.96584 96.4688 1.53125 93.0342 1.53125 88.8125V81.1562H96.4688V88.8125C96.4688 93.0342 93.0342 96.4688 88.8125 96.4688ZM4.59375 84.2188V88.8125C4.59375 91.3452 6.65481 93.4062 9.1875 93.4062H88.8125C91.3452 93.4062 93.4062 91.3452 93.4062 88.8125V84.2188H4.59375Z" fill="#002838"/>
<path d="M41.3438 87.2812H56.6562V90.3438H41.3438V87.2812Z" fill="#002838"/>
<path d="M59.7188 87.2812H62.7812V90.3438H59.7188V87.2812Z" fill="#002838"/>
<path d="M35.2188 87.2812H38.2812V90.3438H35.2188V87.2812Z" fill="#002838"/>
<path d="M68.9062 50.5312L71.9688 58.1875H78.0938L73.1432 62.2484L75.7601 70.4375L68.9062 65.3767L62.0524 70.4375L64.6693 62.2484L58.1875 58.1875H65.8438L68.9062 50.5312Z" fill="#00A651"/>
<path d="M49 45.9375L52.0625 53.5938H59.7188L53.237 57.6546L55.8539 65.8438L49 60.783L42.1461 65.8438L44.763 57.6546L38.2812 53.5938H45.9375L49 45.9375Z" fill="#00A651"/>
<path d="M29.0938 50.5312L32.1562 58.1875H39.8125L33.3307 62.2484L35.9476 70.4375L29.0938 65.3767L22.2399 70.4375L24.8568 62.2484L19.9062 58.1875H26.0312L29.0938 50.5312Z" fill="#00A651"/>
<path d="M81.1562 47.4688H78.0938V38.2812H75.0312V35.2188H81.1562V47.4688Z" fill="#002838"/>
<path d="M78.0938 50.5312H81.1562V53.5938H78.0938V50.5312Z" fill="#002838"/>
</svg>
