<svg width="84" height="84" viewBox="0 0 84 84" fill="none" xmlns="http://www.w3.org/2000/svg">
<path d="M82.6453 0H58.2609C57.5135 0 56.9062 0.607227 56.9062 1.35469V14.9015C56.9062 15.649 57.5135 16.2562 58.2609 16.2562H77.2265L84 20.3203V1.35469C84 0.607227 83.3934 0 82.6453 0Z" fill="#00A651"/>
<path d="M82.6453 67.7436H63.6797L56.9062 63.6796V82.6452C56.9062 83.3933 57.5135 83.9999 58.2609 83.9999H82.6453C83.3934 83.9999 84 83.3933 84 82.6452V69.0983C84 68.3509 83.3934 67.7436 82.6453 67.7436Z" fill="#00A651"/>
<path d="M5.42822 36.5765H35.2313V63.6703H5.42822V36.5765Z" fill="#F7931D"/>
<path d="M21.6845 32.5125H5.42822V16.2562H21.6845V32.5125Z" fill="#F7931D"/>
<path d="M70.4525 29.8031V28.4484C70.4525 23.2195 66.1972 18.9656 60.9697 18.9656C55.7421 18.9656 51.4868 23.2195 51.4868 28.4484V29.8031H48.7775V6.77343C48.7775 3.03878 45.7394 0 42.004 0H6.78222C3.04757 0 0.00878906 3.03878 0.00878906 6.77343V77.2171C0.00878906 80.9517 3.04757 83.9905 6.78222 83.9905H42.004C45.7394 83.9905 48.7775 80.9517 48.7775 77.2171V62.3155H83.9993V29.8031H70.4525ZM54.1962 28.4484C54.1962 24.7138 57.235 21.675 60.9697 21.675C64.705 21.675 67.7431 24.7138 67.7431 28.4484V32.5125C67.7431 36.2471 64.705 39.2859 60.9697 39.2859C57.235 39.2859 54.1962 36.2471 54.1962 32.5125V28.4484ZM75.8712 59.6062H46.0681V48.9354C46.0681 47.0674 47.3348 45.4455 49.1459 44.993L55.1348 43.4961L60.9697 49.3296L66.8045 43.4948L72.7934 44.9917C74.6045 45.4455 75.8712 47.0674 75.8712 48.9354V59.6062ZM65.0337 41.4343L60.9697 45.4984L56.9056 41.4343V41.0672C58.1399 41.6553 59.5151 41.9953 60.9697 41.9953C62.4249 41.9953 63.7994 41.6553 65.0337 41.0672V41.4343ZM54.1962 39.1357V40.9376L48.4904 42.3637C45.4695 43.1198 43.3587 45.8212 43.3587 48.9354V59.6062H40.6494V32.5125H51.4868C51.4868 35.0889 52.5234 37.4258 54.1962 39.1357ZM6.78222 2.70937H42.004C44.2451 2.70937 46.0681 4.53304 46.0681 6.77343V10.8375H2.71816V6.77343C2.71816 4.53304 4.54183 2.70937 6.78222 2.70937ZM42.004 81.2811H6.78222C4.54183 81.2811 2.71816 79.4575 2.71816 77.2171V73.153H46.0681V77.2171C46.0681 79.4575 44.2451 81.2811 42.004 81.2811ZM46.0681 70.4437H2.71816V13.5469H46.0681V29.8031H37.94V62.3155H46.0681V70.4437ZM81.2899 59.6062H78.5806V48.9354C78.5806 45.8212 76.4698 43.1198 73.4489 42.3637L67.7431 40.9376V39.1357C69.4159 37.4245 70.4525 35.0876 70.4525 32.5125H81.2899V59.6062Z" fill="#002838"/>
<path d="M16.2651 75.8624H35.2307V78.5718H16.2651V75.8624Z" fill="#002838"/>
<path d="M24.3936 17.6108H43.3591V20.3202H24.3936V17.6108Z" fill="#002838"/>
<path d="M24.3936 23.0297H43.3591V25.739H24.3936V23.0297Z" fill="#002838"/>
<path d="M5.42822 35.2218H35.2313V37.9312H5.42822V35.2218Z" fill="#002838"/>
<path d="M5.42822 40.6406H35.2313V43.35H5.42822V40.6406Z" fill="#002838"/>
<path d="M5.42822 62.3156H35.2313V65.0249H5.42822V62.3156Z" fill="#002838"/>
<path d="M10.8472 46.0593H35.2315V48.7687H10.8472V46.0593Z" fill="#002838"/>
<path d="M5.42822 46.0593H8.1376V48.7687H5.42822V46.0593Z" fill="#002838"/>
<path d="M10.8472 51.478H35.2315V54.1874H10.8472V51.478Z" fill="#002838"/>
<path d="M5.42822 51.478H8.1376V54.1874H5.42822V51.478Z" fill="#002838"/>
<path d="M10.8472 56.8969H35.2315V59.6062H10.8472V56.8969Z" fill="#002838"/>
<path d="M5.42822 56.8969H8.1376V59.6062H5.42822V56.8969Z" fill="#002838"/>
<path d="M24.3936 28.4484H35.231V31.1577H24.3936V28.4484Z" fill="#002838"/>
<path d="M63.6797 6.77344H66.3891V9.48281H63.6797V6.77344Z" fill="#002838"/>
<path d="M69.0981 6.77344H71.8075V9.48281H69.0981V6.77344Z" fill="#002838"/>
<path d="M74.5171 6.77344H77.2264V9.48281H74.5171V6.77344Z" fill="#002838"/>
<path d="M74.5171 74.5077H77.2264V77.2171H74.5171V74.5077Z" fill="#002838"/>
<path d="M69.0981 74.5077H71.8075V77.2171H69.0981V74.5077Z" fill="#002838"/>
<path d="M63.6797 74.5077H66.3891V77.2171H63.6797V74.5077Z" fill="#002838"/>
</svg>
