<svg width="20" height="17" viewBox="0 0 20 17" fill="none" xmlns="http://www.w3.org/2000/svg">
<path fill-rule="evenodd" clip-rule="evenodd" d="M19.6927 8.89038L13.1314 15.7869C12.9258 16.0029 12.6558 16.1111 12.3861 16.1111C12.1171 16.1111 11.8482 16.0038 11.6427 15.7889C11.2311 15.3585 11.2303 14.66 11.6408 14.2286L16.4108 9.21452H1.05264C0.471317 9.21452 0 8.72045 0 8.11107C0 7.50169 0.471317 7.00762 1.05264 7.00762H16.4108L11.6408 1.99381C11.2303 1.56236 11.2311 0.863604 11.6427 0.433258C12.0543 0.00291236 12.7208 0.00373992 13.1314 0.435465L19.6927 7.33203C20.1024 7.76265 20.1024 8.45948 19.6927 8.89038Z" fill="#00A651"/>
</svg>
