<svg width="77" height="77" viewBox="0 0 77 77" fill="none" xmlns="http://www.w3.org/2000/svg">
<path d="M75.4444 11.1806L71.4584 7.19469C67.5952 3.33145 62.459 1.20312 56.9956 1.20312H48.125C47.669 1.20312 47.2527 1.46059 47.0482 1.86845L46.1783 3.60938H45.2592L44.3881 1.86845C44.1848 1.46059 43.7685 1.20312 43.3125 1.20312H36.0938C35.4284 1.20312 34.8906 1.74092 34.8906 2.40625V14.4375C34.8906 15.1028 35.4284 15.6406 36.0938 15.6406H43.3125C43.7685 15.6406 44.1848 15.3832 44.3893 14.9753L45.2592 13.2344H46.1783L47.0494 14.9753C47.2527 15.3832 47.669 15.6406 48.125 15.6406C49.452 15.6406 50.5312 16.7198 50.5312 18.0469V26.4688H52.9375H57.75H60.1562V15.1642C60.1562 13.4365 61.5615 12.0312 63.2892 12.0312C63.519 12.0312 63.7476 12.0565 63.969 12.1058L74.3315 14.4086C74.6888 14.4844 75.0594 14.4002 75.3457 14.1728C75.6308 13.9442 75.7969 13.6001 75.7969 13.2344V12.0312C75.7969 11.7112 75.6705 11.4056 75.4444 11.1806Z" fill="#F7931D"/>
<path d="M57.75 25.2656H56.5469H48.125V69.7812C48.125 73.0983 50.8236 75.7969 54.1406 75.7969H56.5469C59.8639 75.7969 62.5625 73.0983 62.5625 69.7812V25.2656H57.75ZM57.75 27.6719H60.1562V32.4844H55.3438V28.875C55.3438 28.2121 55.884 27.6719 56.5469 27.6719H57.75ZM55.3438 42.1094H60.1562V46.9219H56.5469C55.884 46.9219 55.3438 46.3829 55.3438 45.7188V42.1094ZM55.3438 39.7031V34.8906H60.1562V39.7031H55.3438ZM56.5469 73.3906H54.1406C52.1507 73.3906 50.5312 71.7712 50.5312 69.7812V68.5781H54.1406V66.1719H50.5312V63.7656H54.1406V61.3594H50.5312V27.6719H53.1589C53.0241 28.0497 52.9375 28.4515 52.9375 28.875V45.7188C52.9375 47.7087 54.5569 49.3281 56.5469 49.3281H60.1562V69.7812C60.1562 71.7712 58.5368 73.3906 56.5469 73.3906Z" fill="#002838"/>
<path d="M14.4375 27.6719H9.625V30.0781H14.4375V27.6719Z" fill="#002838"/>
<path d="M14.4375 20.4531H9.625V22.8594H14.4375V20.4531Z" fill="#002838"/>
<path d="M36.0938 27.6719H31.2812V30.0781H36.0938V27.6719Z" fill="#002838"/>
<path d="M36.0938 20.4531H31.2812V22.8594H36.0938V20.4531Z" fill="#002838"/>
<path d="M30.0781 38.5V32.4844H27.6719V36.0938H18.0469V32.4844H15.6406V38.5H18.0469V63.2254C16.5105 64.5994 15.6406 66.5172 15.6406 68.5781C15.6406 72.5593 18.8782 75.7969 22.8594 75.7969C26.8405 75.7969 30.0781 72.5593 30.0781 68.5781C30.0781 66.5172 29.2083 64.5982 27.6719 63.2254V38.5H30.0781ZM25.7433 64.7522C26.9692 65.6786 27.6719 67.073 27.6719 68.5781C27.6719 71.2322 25.5135 73.3906 22.8594 73.3906C20.2053 73.3906 18.0469 71.2322 18.0469 68.5781C18.0469 67.073 18.7495 65.6786 19.9755 64.7522L20.4531 64.3913V38.5H25.2656V64.3925L25.7433 64.7522Z" fill="#002838"/>
<path d="M28.875 33.6875H16.8438C14.8538 33.6875 13.2344 32.0681 13.2344 30.0781V20.4531C13.2344 18.4632 14.8538 16.8438 16.8438 16.8438H28.875C30.865 16.8438 32.4844 18.4632 32.4844 20.4531V30.0781C32.4844 32.0681 30.865 33.6875 28.875 33.6875Z" fill="#F7931D"/>
<path d="M6.01562 32.4844C3.36153 32.4844 1.20312 30.326 1.20312 27.6719V22.8594C1.20312 20.2053 3.36153 18.0469 6.01562 18.0469C8.66972 18.0469 10.8281 20.2053 10.8281 22.8594V27.6719C10.8281 30.326 8.66972 32.4844 6.01562 32.4844Z" fill="#F7931D"/>
<path d="M39.7031 32.4844C37.049 32.4844 34.8906 30.326 34.8906 27.6719V22.8594C34.8906 20.2053 37.049 18.0469 39.7031 18.0469C42.3572 18.0469 44.5156 20.2053 44.5156 22.8594V27.6719C44.5156 30.326 42.3572 32.4844 39.7031 32.4844Z" fill="#F7931D"/>
</svg>
