<svg width="26" height="26" viewBox="0 0 26 26" fill="none" xmlns="http://www.w3.org/2000/svg">
<path d="M13 0C5.82032 0 0 5.82032 0 13C0 20.1798 5.82032 26.0001 13 26.0001C20.1798 26.0001 26.0001 20.1798 26.0001 13C25.9925 5.82353 20.1766 0.00767163 13 0ZM13 24.1429C6.84597 24.1429 1.85713 19.1541 1.85713 13C1.85713 6.84597 6.84597 1.85713 13 1.85713C19.1541 1.85713 24.1429 6.84597 24.1429 13C24.1363 19.1514 19.1514 24.1363 13 24.1429Z" fill="white"/>
<path d="M20.1342 7.70208C19.7743 7.35452 19.2039 7.35452 18.844 7.70208L10.2148 16.3313L7.15695 13.2735C6.80068 12.9046 6.2128 12.8944 5.84396 13.2507C5.47507 13.6069 5.46489 14.1948 5.82116 14.5637C5.82862 14.5714 5.83623 14.579 5.84396 14.5865L9.55828 18.3008C9.92086 18.6633 10.5087 18.6633 10.8713 18.3008L20.157 9.01501C20.5133 8.64618 20.5031 8.05835 20.1342 7.70208Z" fill="white"/>
</svg>
