<svg width="79" height="79" viewBox="0 0 79 79" fill="none" xmlns="http://www.w3.org/2000/svg">
<path d="M25.4839 57.3387H53.5161V64.9839H25.4839V57.3387Z" fill="#F7931D"/>
<path d="M64.9839 48.4194H57.3387C55.2314 48.4194 53.5161 46.7041 53.5161 44.5968V39.5001C53.5161 37.3928 55.2314 35.6775 57.3387 35.6775H64.9839C67.0911 35.6775 68.8064 37.3928 68.8064 39.5001V44.5968C68.8064 46.7041 67.0911 48.4194 64.9839 48.4194Z" fill="#F7931D"/>
<path d="M21.6613 48.4194H14.0162C11.9089 48.4194 10.1936 46.7041 10.1936 44.5968V39.5001C10.1936 37.3928 11.9089 35.6775 14.0162 35.6775H21.6613C23.7686 35.6775 25.4839 37.3928 25.4839 39.5001V44.5968C25.4839 46.7041 23.7686 48.4194 21.6613 48.4194Z" fill="#F7931D"/>
<path d="M25.4839 40.7742H53.5161V43.3226H25.4839V40.7742Z" fill="#002838"/>
<path d="M15.2903 40.7742H20.3871V43.3226H15.2903V40.7742Z" fill="#002838"/>
<path d="M58.6128 40.7742H63.7096V43.3226H58.6128V40.7742Z" fill="#002838"/>
<path d="M79 31.8548C79 26.9366 74.9976 22.9355 70.0806 22.9355H66.0235C66.1666 22.5354 66.2581 22.1099 66.2581 21.6613V16.5645C66.2581 7.43114 58.8269 0 49.6935 0H29.3065C20.1731 0 12.7419 7.43114 12.7419 16.5645V21.6613C12.7419 22.1099 12.8334 22.5354 12.9765 22.9355H8.91935C4.00239 22.9355 0 26.9366 0 31.8548V43.3226H2.54839V72.629C2.54839 76.1418 5.40661 79 8.91935 79H70.0806C73.5934 79 76.4516 76.1418 76.4516 72.629V43.3226H79V31.8548ZM15.2903 21.6613V16.5645C15.2903 8.83661 21.5785 2.54839 29.3065 2.54839H49.6935C57.4215 2.54839 63.7097 8.83661 63.7097 16.5645V21.6613C63.7097 22.3631 63.1385 22.9355 62.4355 22.9355H48.6539C49.1815 21.456 50.5832 20.3871 52.2419 20.3871H61.1613V17.8387C61.1613 10.8126 55.4455 5.09677 48.4194 5.09677H30.5806C23.5545 5.09677 17.8387 10.8126 17.8387 17.8387V20.3871H26.7581C28.4168 20.3871 29.8185 21.456 30.3461 22.9355H16.5645C15.8615 22.9355 15.2903 22.3631 15.2903 21.6613ZM33.0002 22.9355C32.4079 20.0318 29.8353 17.8387 26.7581 17.8387H20.3871C20.3871 12.2181 24.96 7.64516 30.5806 7.64516H48.4194C54.04 7.64516 58.6129 12.2181 58.6129 17.8387H52.2419C49.166 17.8387 46.5921 20.0318 45.9998 22.9355H33.0002ZM76.4516 40.7742H68.8064V43.3226H73.9032V72.629C73.9032 74.7363 72.1879 76.4516 70.0806 76.4516H8.91935C6.81208 76.4516 5.09677 74.7363 5.09677 72.629V43.3226H10.1935V40.7742H2.54839V31.8548C2.54839 28.3421 5.40661 25.4839 8.91935 25.4839H70.0806C73.5934 25.4839 76.4516 28.3421 76.4516 31.8548V40.7742Z" fill="#002838"/>
<path d="M60.7041 50.9678C56.912 50.9678 53.3812 52.9438 51.4917 56.0645H27.5097C25.6202 52.9438 22.0882 50.9678 18.2973 50.9678C15.3476 50.9678 12.5983 52.1119 10.5594 54.1887L10.1936 54.5608V58.6129H16.6386L17.7268 61.1613L16.6386 63.7097H10.1936V67.7619L10.5582 68.1339C12.5983 70.2107 15.3464 71.3549 18.2961 71.3549C22.0882 71.3549 25.6189 69.3789 27.5084 66.2581H51.4892C53.3787 69.3789 56.9107 71.3549 60.7016 71.3549C63.6512 71.3549 66.4006 70.2107 68.4394 68.1339L68.8065 67.7619V63.7097H62.3615L61.2733 61.1613L62.3615 58.6129H68.8065V54.5608L68.4419 54.1887C66.4018 52.1119 63.6537 50.9678 60.7041 50.9678ZM66.2581 56.0645H60.6798L58.501 61.1613L60.6798 66.2581H66.2581V66.698C64.7456 68.0624 62.792 68.8065 60.7041 68.8065C57.5914 68.8065 54.7163 67.0825 53.3824 64.4146L53.0297 63.7097H48.4194V61.1613H45.871V63.7097H38.2259V61.1613H35.6775V63.7097H28.0323V61.1613H25.4839V64.6386C24.1027 67.1745 21.3185 68.8065 18.2961 68.8065C16.2068 68.8065 14.2532 68.0624 12.742 66.698V66.2581H18.3203L20.4991 61.1613L18.3203 56.0645H12.742V55.6247C14.2545 54.2603 16.2081 53.5162 18.2961 53.5162C21.4087 53.5162 24.2838 55.2402 25.6177 57.908L25.9705 58.6129H30.5807V61.1613H33.1291V58.6129H40.7742V61.1613H43.3226V58.6129H50.9678V61.1613H53.5162V57.684C54.8974 55.1481 57.6816 53.5162 60.7041 53.5162C62.7933 53.5162 64.7469 54.2603 66.2581 55.6247V56.0645Z" fill="#002838"/>
</svg>
