<svg width="82" height="82" viewBox="0 0 82 82" fill="none" xmlns="http://www.w3.org/2000/svg">
<path d="M66.625 34.5938H56.375V60.2188H66.625V34.5938Z" fill="#F7931D"/>
<path d="M25.625 29.4688H15.375V52.5313H25.625V29.4688Z" fill="#F7931D"/>
<path d="M35.875 14.6293C35.875 9.02898 32.6552 3.96548 27.4713 1.41323L25.625 0.504822V13.1405L15.375 16.2155V0.504822L13.5287 1.41323C8.34478 3.96548 5.125 9.02898 5.125 14.6293C5.125 20.4923 8.61641 25.6942 14.0938 28.1094V53.8894C8.61641 56.3058 5.125 61.5064 5.125 67.3694C5.125 72.9698 8.34478 78.0333 13.5287 80.5855L15.375 81.4952V65.7845L25.625 68.8595V81.4952L27.4713 80.5868C32.6552 78.0345 35.875 72.971 35.875 67.3707C35.875 61.5077 32.3836 56.3058 26.9062 53.8907V28.1094C32.3836 25.6942 35.875 20.4923 35.875 14.6293ZM25.1727 55.9496C30.1183 57.81 33.3125 62.2931 33.3125 67.3707C33.3125 71.2849 31.3932 74.8865 28.1875 77.1825V66.953L12.8125 62.3405V77.1825C9.60681 74.8865 7.6875 71.2836 7.6875 67.3707C7.6875 62.2931 10.8817 57.81 15.8273 55.9496L16.6562 55.6383V26.3617L15.8273 26.0504C10.8817 24.19 7.6875 19.7069 7.6875 14.6293C7.6875 10.7151 9.60681 7.11351 12.8125 4.81751V19.6595L28.1875 15.047V4.81751C31.3932 7.11351 33.3125 10.7164 33.3125 14.6293C33.3125 19.7069 30.1183 24.19 25.1727 26.0504L24.3438 26.3617V55.6383L25.1727 55.9496Z" fill="#002838"/>
<path d="M76.875 14.6293C76.875 9.02898 73.6552 3.96548 68.4713 1.41323L66.625 0.504822V13.1405L56.375 16.2155V0.504822L54.5287 1.41323C49.3448 3.96548 46.125 9.02898 46.125 14.6293C46.125 20.4923 49.6164 25.6942 55.0938 28.1094V62.4725C52.6747 64.4148 51.25 67.354 51.25 70.4675C51.25 76.1191 55.8484 80.7175 61.5 80.7175C67.1516 80.7175 71.75 76.1191 71.75 70.4675C71.75 67.3528 70.3253 64.4136 67.9062 62.4725V28.1094C73.3836 25.6942 76.875 20.4923 76.875 14.6293ZM65.8921 64.1637C67.9549 65.6064 69.1875 67.9639 69.1875 70.4688C69.1875 74.7084 65.7397 78.1562 61.5 78.1562C57.2603 78.1562 53.8125 74.7084 53.8125 70.4688C53.8125 67.9639 55.0451 65.6064 57.1079 64.1637L57.6562 63.7819V26.3617L56.8273 26.0504C51.8817 24.19 48.6875 19.7069 48.6875 14.6293C48.6875 10.7151 50.6068 7.11351 53.8125 4.81751V19.6595L69.1875 15.047V4.81751C72.3932 7.11351 74.3125 10.7164 74.3125 14.6293C74.3125 19.7069 71.1183 24.19 66.1727 26.0504L65.3438 26.3617V63.7819L65.8921 64.1637Z" fill="#002838"/>
<path d="M61.5 65.3438C58.6736 65.3438 56.375 67.6423 56.375 70.4688C56.375 73.2952 58.6736 75.5938 61.5 75.5938C64.3264 75.5938 66.625 73.2952 66.625 70.4688C66.625 67.6423 64.3264 65.3438 61.5 65.3438ZM61.5 73.0312C60.0868 73.0312 58.9375 71.882 58.9375 70.4688C58.9375 69.0555 60.0868 67.9062 61.5 67.9062C62.9132 67.9062 64.0625 69.0555 64.0625 70.4688C64.0625 71.882 62.9132 73.0312 61.5 73.0312Z" fill="#002838"/>
<path d="M62.7812 33.3125H60.2188V35.875H62.7812V33.3125Z" fill="#002838"/>
<path d="M62.7812 38.4375H60.2188V61.5H62.7812V38.4375Z" fill="#002838"/>
<path d="M21.7812 33.3125H19.2188V53.8125H21.7812V33.3125Z" fill="#002838"/>
<path d="M21.7812 28.1875H19.2188V30.75H21.7812V28.1875Z" fill="#002838"/>
</svg>
