<svg width="84" height="83" viewBox="0 0 84 83" fill="none" xmlns="http://www.w3.org/2000/svg">
<path d="M60.8125 17.8125V47.375C60.8125 48.8598 62.0152 50.0625 63.5 50.0625C64.9848 50.0625 66.1875 48.8598 66.1875 47.375V32.5938C66.1875 31.1089 67.3902 29.9062 68.875 29.9062C70.3598 29.9062 71.5625 31.1089 71.5625 32.5938V39.3125C71.5625 40.7973 72.7652 42 74.25 42C75.7348 42 76.9375 40.7973 76.9375 39.3125V11.0938C76.9375 8.86716 68.5149 7.0625 58.125 7.0625C47.7351 7.0625 39.3125 8.86716 39.3125 11.0938C39.3125 13.3203 47.7351 15.125 58.125 15.125C59.6098 15.125 60.8125 16.3277 60.8125 17.8125Z" fill="#F7931D"/>
<path d="M79.625 76.9375H64.8438C63.3589 76.9375 62.1562 75.7348 62.1562 74.25C62.1562 72.7652 60.9536 71.5625 59.4688 71.5625H40.6562L35.2812 76.9375H12.4375C10.9527 76.9375 9.75 78.1402 9.75 79.625C9.75 81.1098 10.9527 82.3125 12.4375 82.3125H79.625C81.1098 82.3125 82.3125 81.1098 82.3125 79.625C82.3125 78.1402 81.1098 76.9375 79.625 76.9375Z" fill="#F7931D"/>
<path d="M75.5935 53.0577C74.9942 53.4998 73.629 54.2738 71.1726 55.0344L71.9681 57.6009C74.8169 56.7194 77.0542 55.5719 77.9545 54.5332L78.281 54.1542V46.1361H75.5935V53.0577Z" fill="#002838"/>
<path d="M66.0546 56.194L66.4725 58.8506C67.444 58.6974 68.3537 58.5228 69.203 58.3319L68.6171 55.7103C67.8216 55.8877 66.9656 56.0516 66.0546 56.194Z" fill="#002838"/>
<path d="M60.7478 56.7208L60.8714 59.4056C61.8295 59.3612 62.7487 59.2941 63.6288 59.2094L63.3721 56.5353C62.5336 56.6146 61.6589 56.6791 60.7478 56.7208Z" fill="#002838"/>
<path d="M58.125 0.34375C43.5695 0.34375 32.5938 4.96491 32.5938 11.0938V40.0999L29.9062 42.7874L8.96256 21.8438H8.40625C3.95978 21.8438 0.34375 25.4598 0.34375 29.9062V30.4626L21.2874 51.4062L11.8812 60.8125L19.1562 68.0876L21.8438 65.4001L35.2812 78.8376L49.8394 64.2794C52.4947 64.6489 55.2749 64.8438 58.125 64.8438C72.6805 64.8438 83.6562 60.2226 83.6562 54.0938V11.0938C83.6562 4.96491 72.6805 0.34375 58.125 0.34375ZM3.05813 29.3755C3.30806 26.8344 5.33444 24.8081 7.87681 24.5581L8.35653 25.0378C8.11331 27.5923 6.09366 29.6133 3.53784 29.8565L3.05813 29.3755ZM5.78191 32.1006C8.01522 31.2863 9.78628 29.5152 10.6006 27.2819L28.0062 44.6875L23.1875 49.5062L5.78191 32.1006ZM19.1562 64.2874L15.6813 60.8125L39.3125 37.1813L42.7874 40.6562L19.1562 64.2874ZM44.2938 51.8L42.3937 53.7L49.5062 60.8125L43.3438 66.9749L34.8875 58.5187L32.9875 60.4188L41.4437 68.875L35.2812 75.0374L23.7438 63.5L25.875 61.3688L34.3312 69.825L36.2313 67.925L27.7751 59.4688L33.9375 53.3063L42.3937 61.7625L44.2938 59.8625L35.8376 51.4062L42 45.2438L53.5374 56.7812L51.4062 58.9124L44.2938 51.8ZM77.3473 18.2868L77.5193 18.2183C78.9813 17.5155 80.102 16.7845 80.9688 16.0535V16.4688C80.9688 17.9334 79.5081 19.5097 76.9375 20.8668V23.8661C77.2694 23.7156 77.4804 23.6121 77.5193 23.592C78.9813 22.8892 80.102 22.1582 80.9688 21.4272V54.0938C80.9688 57.9073 71.588 62.1562 58.125 62.1562C56.1242 62.1562 54.1623 62.0528 52.2568 61.862L57.3376 56.7812L43.9001 43.3438L46.5876 40.6562L39.3125 33.3812L35.2812 37.4124V21.4057C39.3891 24.9129 47.8561 27.2188 58.125 27.2188C58.5967 27.2188 59.0643 27.204 59.5306 27.1892C59.9592 27.1758 60.3865 27.161 60.8098 27.161H60.8125V24.4735C60.8112 24.4735 60.8112 24.4735 60.8098 24.4735C60.3583 24.4735 59.9028 24.4883 59.4432 24.5017C59.0078 24.5165 58.5684 24.5312 58.125 24.5312C44.662 24.5312 35.2812 20.2823 35.2812 16.4688V16.0307C39.3891 19.5379 47.8561 21.8438 58.125 21.8438C58.5967 21.8438 59.0643 21.829 59.5306 21.8142C59.9592 21.8008 60.3865 21.786 60.8098 21.786H60.8125V19.0985C60.8112 19.0985 60.8112 19.0985 60.8098 19.0985C60.3583 19.0985 59.9028 19.1132 59.4432 19.1267C59.0078 19.1415 58.5684 19.1562 58.125 19.1562C44.662 19.1562 35.2812 14.9073 35.2812 11.0938C35.2812 7.28019 44.662 3.03125 58.125 3.03125C71.588 3.03125 80.9688 7.28019 80.9688 11.0938C80.9688 12.5625 79.4987 14.1441 76.9375 15.4918V18.4145C77.1471 18.35 77.3043 18.3003 77.3473 18.2868Z" fill="#002838"/>
</svg>
