<svg width="78" height="78" viewBox="0 0 78 78" fill="none" xmlns="http://www.w3.org/2000/svg">
<path d="M51.1875 70.6875H46.3125C44.9658 70.6875 43.875 69.5967 43.875 68.25V64.0124C43.875 66.3524 41.9774 68.25 39.6374 68.25C39.2145 68.25 38.7952 68.1866 38.3906 68.0623L9.64275 59.2166C8.25703 58.7913 7.3125 57.5116 7.3125 56.0625V70.6875C7.3125 72.0342 8.40328 73.125 9.75 73.125C11.0967 73.125 12.1875 72.0342 12.1875 70.6875V68.25C12.1875 66.9033 13.2783 65.8125 14.625 65.8125C15.9717 65.8125 17.0625 66.9033 17.0625 68.25V73.125C17.0625 74.4717 18.1533 75.5625 19.5 75.5625H51.1875C52.5342 75.5625 53.625 74.4717 53.625 73.125C53.625 71.7783 52.5342 70.6875 51.1875 70.6875Z" fill="#F7931D"/>
<path d="M69.4688 26.8125V1.21875H1.21875V52.4062H6.09375V56.0625C6.09375 58.0588 7.37587 59.7943 9.28322 60.3817L38.0335 69.2287C38.5552 69.3883 39.0938 69.4688 39.6362 69.4688C42.6453 69.4688 45.0938 67.0203 45.0938 64.0112V59.1362V57.2812V54.8438H48.75C50.7329 54.8438 52.4806 53.8773 53.5933 52.4062H69.4688V36.5625H67.0312V40.2188H54.8438V35.3438H58.5V32.9062H54.8438C53.4995 32.9062 52.4062 33.9995 52.4062 35.3438V48.75C52.4062 50.7658 50.7658 52.4062 48.75 52.4062H39.1377C38.4796 52.4062 37.8922 51.9651 37.7983 51.402C37.7374 51.0339 37.8337 50.6793 38.0701 50.4014C38.3041 50.126 38.6417 49.9688 39 49.9688H47.5312C48.8755 49.9688 49.9688 48.8755 49.9688 47.5312V34.125C49.9688 32.1092 51.6092 30.4688 53.625 30.4688H58.5V28.0312H53.625C53.2082 28.0312 52.7999 28.0739 52.4062 28.1543V23.1562H59.7188V26.8125H62.1562V23.1562H67.0312V26.8125H69.4688ZM67.0312 42.6562V49.9688H54.7207C54.8011 49.5751 54.8438 49.1668 54.8438 48.75V42.6562H67.0312ZM67.0312 10.9688H62.1562V3.65625H67.0312V10.9688ZM37.7812 38.0993L30.8929 40.2188H30.4688V32.9062H37.7812V38.0993ZM49.9688 10.9688H42.6562V3.65625H49.9688V10.9688ZM52.4062 3.65625H59.7188V10.9688H52.4062V3.65625ZM30.4688 20.7188V13.4062H37.7812V20.7188H30.4688ZM23.1562 30.4688V23.1562H30.4688V30.4688H23.1562ZM20.7188 20.7188V13.4062H28.0312V20.7188H20.7188ZM18.2812 20.7188H10.9688V13.4062H18.2812V20.7188ZM20.7188 23.1562V30.4688H13.4062V23.1562H20.7188ZM40.2188 10.9688H32.9062V3.65625H40.2188V10.9688ZM30.4688 10.9688H23.1562V3.65625H30.4688V10.9688ZM20.7188 10.9688H13.4062V3.65625H20.7188V10.9688ZM8.53125 20.7188H3.65625V13.4062H8.53125V20.7188ZM10.9688 23.1562V30.4688H3.65625V23.1562H10.9688ZM8.53125 32.9062V40.2188H3.65625V32.9062H8.53125ZM10.9688 32.9062H18.2812V40.2188H10.9688V32.9062ZM20.7188 32.9062H28.0312V40.2188H20.7188V32.9062ZM32.9062 30.4688V23.1562H40.2188V30.4688H32.9062ZM40.2188 20.7188V13.4062H47.5312V20.7188H40.2188ZM49.9688 13.4062H57.2812V20.7188H49.9688V13.4062ZM10.9688 3.65625V10.9688H3.65625V3.65625H10.9688ZM3.65625 42.6562H22.971L9.28322 46.8683C7.77928 47.3314 6.67509 48.5136 6.27047 49.9688H3.65625V42.6562ZM39.6362 67.0312C39.3352 67.0312 39.0366 66.9862 38.7477 66.8984L9.99984 58.0515C9.12112 57.7809 8.53125 56.9814 8.53125 56.0625V55.1935C8.77012 55.3166 9.01875 55.4251 9.28322 55.5067L38.0335 64.3537C38.5552 64.5133 39.0938 64.5938 39.6362 64.5938C40.7526 64.5938 41.7897 64.2537 42.6562 63.676V64.0112C42.6562 65.6772 41.3022 67.0312 39.6362 67.0312ZM36.2115 48.8256C35.5156 49.6458 35.2182 50.7292 35.3949 51.7993C35.6801 53.5348 37.2901 54.8438 39.1377 54.8438H42.6562V57.2812V59.1362C42.6562 60.8022 41.3022 62.1562 39.6362 62.1562C39.3352 62.1562 39.0366 62.1112 38.7477 62.0234L9.99984 53.1765C9.12112 52.9059 8.53125 52.1064 8.53125 51.1875C8.53125 50.2686 9.12112 49.4691 9.99984 49.1985L38.7477 40.3516C39.0366 40.2638 39.3352 40.2188 39.6362 40.2188C41.3022 40.2188 42.6562 41.5728 42.6562 43.2388V47.5312H39C37.9251 47.5312 36.9086 48.0029 36.2115 48.8256ZM47.5312 47.5312H45.0938V43.2388C45.0938 40.4296 42.9512 38.1359 40.2188 37.841V32.9062H47.6543C47.5739 33.2999 47.5312 33.7082 47.5312 34.125V47.5312ZM49.9688 29.2817C49.519 29.6217 49.1217 30.0203 48.7817 30.4688H42.6562V23.1562H49.9688V29.2817ZM59.7188 20.7188V13.4062H67.0312V20.7188H59.7188Z" fill="#002838"/>
<path d="M70.6875 37.7812H57.2812V25.5938H70.6875C74.0476 25.5938 76.7812 28.3274 76.7812 31.6875C76.7812 35.0476 74.0476 37.7812 70.6875 37.7812Z" fill="#F7931D"/>
</svg>
