<svg width="44" height="41" viewBox="0 0 44 41" fill="none" xmlns="http://www.w3.org/2000/svg">
<path fill-rule="evenodd" clip-rule="evenodd" d="M4.74364 36.634C6.81534 34.4416 11.7708 31.9998 15.9118 30.5565L20.3878 34.3631C21.0894 34.9601 22.1204 34.9601 22.822 34.3631L27.298 30.5565C31.439 31.9998 36.3945 34.4416 38.4661 36.634H4.74364ZM27.4595 26.6493C26.8414 26.4511 26.1656 26.5874 25.6715 27.0077L21.6047 30.4659L17.5383 27.0077C17.0442 26.5874 16.3683 26.4511 15.7503 26.6493C13.1201 27.4882 0 32.0035 0 38.5126C0 39.5501 0.841172 40.3913 1.87867 40.3913H41.3306C42.3681 40.3913 43.2093 39.5501 43.2093 38.5126C43.2093 32.0035 30.0892 27.4882 27.4595 26.6493ZM21.6047 3.75733C26.5061 3.75733 30.4936 7.76969 30.4936 12.7021C30.4936 17.6355 26.5061 21.6488 21.6047 21.6488C16.7037 21.6488 12.7162 17.6355 12.7162 12.7021C12.7162 7.76969 16.7037 3.75733 21.6047 3.75733ZM21.6047 25.4061C28.5778 25.4061 34.2509 19.7072 34.2509 12.7021C34.2509 5.69799 28.5778 0 21.6047 0C14.632 0 8.9589 5.69799 8.9589 12.7021C8.9589 19.7072 14.632 25.4061 21.6047 25.4061Z" fill="#002838"/>
</svg>
