<svg width="392" height="278" viewBox="0 0 392 278" fill="none" xmlns="http://www.w3.org/2000/svg">
<path d="M391.057 0H1.21338V277.103H391.057V0Z" fill="#E6E6E6"/>
<path d="M318.096 36.0202C321.999 36.0202 325.163 32.8563 325.163 28.9534C325.163 25.0505 321.999 21.8866 318.096 21.8866C314.193 21.8866 311.029 25.0505 311.029 28.9534C311.029 32.8563 314.193 36.0202 318.096 36.0202Z" fill="#00A651"/>
<path d="M339.109 35.9736C343.012 35.9736 346.176 32.8096 346.176 28.9068C346.176 25.0039 343.012 21.84 339.109 21.84C335.206 21.84 332.042 25.0039 332.042 28.9068C332.042 32.8096 335.206 35.9736 339.109 35.9736Z" fill="#F7931D"/>
<path d="M358.906 35.9268C362.809 35.9268 365.973 32.7629 365.973 28.86C365.973 24.9571 362.809 21.7932 358.906 21.7932C355.003 21.7932 351.839 24.9571 351.839 28.86C351.839 32.7629 355.003 35.9268 358.906 35.9268Z" fill="#77869E"/>
<path d="M390.48 53.0868H0.932617V277.54H390.48V53.0868Z" fill="#F9F9F9"/>
<path d="M294 20.9482H114V35.9482H294V20.9482Z" fill="white"/>
<path d="M293.557 21.3876H269.393V35.5056H293.557V21.3876Z" fill="#C9C9C9"/>
<path d="M68.3608 29.3963H71.4507L69.9097 25.7505L68.3608 29.3963Z" fill="#77869E" fill-opacity="0.85"/>
<path d="M90.5615 23.1452L83.945 30.6116L78.9647 26.0046L83.7941 27.5297L90.212 22.9069C89.2747 22.3112 88.1706 21.9696 86.9871 21.9696H64.5324C62.6102 21.9696 60.9024 22.8672 59.8063 24.2731H66.3116V25.5122H63.7063V32.4782H62.3242V25.5122H59.0517C58.7102 26.2668 58.5195 27.1008 58.5195 27.9824C58.5195 31.3026 61.2122 33.9953 64.5324 33.9953H86.9871C90.3073 33.9953 93 31.3026 93 27.9824C93 26.0046 92.0389 24.2413 90.5615 23.1452ZM82.5629 24.2731H83.945V26.0761L83.7305 26.9101L82.5629 26.4336V24.2731ZM72.7692 32.4782L71.9829 30.6274H67.8446L67.0582 32.4782H65.6126L69.2346 24.2731H70.6564L74.2466 32.4861H72.7692V32.4782ZM77.8448 32.5258C76.558 32.5258 75.3348 32.0016 74.4928 31.2232L75.0886 30.0238C75.9305 30.7942 76.9869 31.2232 77.8686 31.2232C78.8297 31.2232 79.4016 30.8578 79.4016 30.2303C79.4016 28.4034 74.9694 29.4201 74.9694 26.4971C74.9694 25.0912 76.1768 24.2095 77.956 24.2095C78.4167 24.2095 78.8694 24.2731 79.2983 24.3843L78.234 25.536C78.099 25.5201 77.9719 25.5122 77.8527 25.5122C77.0425 25.5122 76.5183 25.814 76.5183 26.37C76.5183 28.1651 80.9505 27.204 80.9425 30.1588C80.9425 31.6203 79.6558 32.5258 77.8448 32.5258ZM83.945 32.4782H82.5629V30.2065L83.945 31.4853V32.4782ZM88.0356 32.4782L85.7242 29.3883L86.6774 28.3081L89.6957 32.4782H88.0356Z" fill="#77869E" fill-opacity="0.85"/>
<path d="M19.9405 26.108C19.6864 25.687 18.9953 25.2898 18.201 25.2898C17.1764 25.2898 16.6839 25.7188 16.6839 26.2668C16.6839 26.9023 17.4385 27.085 18.3202 27.1882C19.8452 27.3788 21.2749 27.776 21.2749 29.5234C21.2749 31.1597 19.8293 31.8587 18.1931 31.8587C16.6998 31.8587 15.5401 31.398 15 30.0556L16.1517 29.4599C16.4774 30.2701 17.3273 30.6196 18.2169 30.6196C19.0827 30.6196 19.9008 30.3177 19.9008 29.5234C19.9008 28.8324 19.178 28.5465 18.201 28.4432C16.7077 28.2685 15.3257 27.8713 15.3257 26.2271C15.3257 24.7179 16.811 24.0984 18.1613 24.0905C19.3051 24.0905 20.4886 24.4161 21.0446 25.544L19.9405 26.108Z" fill="#77869E" fill-opacity="0.85"/>
<path d="M28.3284 31.668H22.8398C22.8398 29.2295 22.8398 26.7752 22.8398 24.3367H28.3284V25.679H24.214V27.3629H28.1855V28.6497H24.214V30.3098H28.3284V31.668Z" fill="#77869E" fill-opacity="0.85"/>
<path d="M31.2991 24.3367V30.3892H35.072V31.668H29.917V24.3367H31.2991Z" fill="#77869E" fill-opacity="0.85"/>
<path d="M42.0379 31.668H36.5493C36.5493 29.2295 36.5493 26.7752 36.5493 24.3367H42.0379V25.679H37.9235V27.3629H41.8949V28.6497H37.9235V30.3098H42.0379V31.668Z" fill="#77869E" fill-opacity="0.85"/>
<path d="M50.0842 30.7466C49.3297 31.4932 48.3606 31.8347 47.2963 31.8347C44.5718 31.8347 43.4201 29.9602 43.4121 28.0539C43.4042 26.1396 44.6513 24.1936 47.3042 24.1936C48.2971 24.1936 49.2423 24.5669 49.9969 25.3136L49.0755 26.2032C48.591 25.7345 47.9476 25.5121 47.3042 25.5121C45.5329 25.5121 44.7704 26.8307 44.7783 28.0539C44.7863 29.2692 45.4932 30.5321 47.3042 30.5321C47.9396 30.5321 48.6625 30.27 49.147 29.7855L50.0842 30.7466Z" fill="#77869E" fill-opacity="0.85"/>
<path d="M53.174 25.5996H50.8467V24.3367C52.9595 24.3367 54.7546 24.3367 56.8754 24.3367V25.5917H54.556V31.668H53.174V25.5996Z" fill="#77869E" fill-opacity="0.85"/>
<path d="M103.175 84.162H28.3105V154.424H103.175V84.162Z" fill="white"/>
<path d="M69.7131 108.451C71.2625 111.457 72.4011 114.658 73.0983 117.967C73.1973 118.769 72.9811 119.579 72.4951 120.225C72.0092 120.871 71.2914 121.303 70.4931 121.43C69.2191 121.688 67.8976 121.572 66.6881 121.096C65.4785 120.62 64.4324 119.804 63.6759 118.747L59.9631 114.52C59.3278 113.603 58.9873 112.515 58.9873 111.4C58.9873 110.284 59.3278 109.196 59.9631 108.28C62.1939 104.614 68.1687 105.066 69.7131 108.451Z" fill="#F9CAC0"/>
<path d="M61.835 112.959L60.9458 132.881L71.9594 132.584L68.1842 118.201L61.835 112.959Z" fill="#F9CAC0"/>
<path d="M65.7192 115.721C65.7192 115.721 64.7832 113.584 63.2232 114.41C61.6632 115.237 62.9892 118.373 65.3292 117.749L65.7192 115.721Z" fill="#F4A28C"/>
<path d="M71.2886 111.946L73.7534 113.506C73.8918 113.595 74.0057 113.717 74.0846 113.861C74.1635 114.006 74.2049 114.168 74.2049 114.332C74.2049 114.497 74.1635 114.659 74.0846 114.803C74.0057 114.948 73.8918 115.07 73.7534 115.159L71.7722 116.454L71.2886 111.946Z" fill="#F9CAC0"/>
<path opacity="0.31" d="M69.1199 121.508C67.7233 121.32 66.4117 120.729 65.3447 119.808C66.0814 122.595 67.849 124.998 70.2899 126.532L69.1199 121.508Z" fill="#CE8172"/>
<path d="M61.32 118.388L57.0456 111.134C57.0456 111.134 53.0988 109.949 54.8304 106.798C56.562 103.646 59.1048 105.082 60.072 101.01C60.1711 100.286 60.4867 99.6099 60.9774 99.0691C61.4681 98.5283 62.1108 98.1486 62.8213 97.9798C63.5318 97.8111 64.2767 97.8612 64.9581 98.1235C65.6396 98.3859 66.2257 98.8483 66.6396 99.4499C68.0748 101.572 73.2072 99.2939 73.1136 103.022C73.02 106.751 68.2308 108.311 66.8736 108.732C60.9456 110.588 68.3712 117.016 61.32 118.388Z" fill="#002838"/>
<path d="M28.3105 154.44C28.3105 154.44 33.4274 134.815 60.9458 132.881L71.9594 132.584C71.9594 132.584 100.539 131.82 103.159 154.424L28.3105 154.44Z" fill="#F7931D"/>
<path d="M54.4248 133.723C54.4248 133.723 52.1004 128.731 61.1796 127.624C70.2588 126.516 79.0884 123.38 78.6204 133.084C78.6204 133.084 70.2276 141.352 54.4248 133.723Z" fill="#EF870C"/>
<path d="M35.2214 180.882C39.0381 180.882 42.1322 177.788 42.1322 173.971C42.1322 170.154 39.0381 167.06 35.2214 167.06C31.4046 167.06 28.3105 170.154 28.3105 173.971C28.3105 177.788 31.4046 180.882 35.2214 180.882Z" fill="#77869E"/>
<path d="M94.8289 170.352H55.0801C52.9003 170.352 51.1333 172.119 51.1333 174.299V174.314C51.1333 176.494 52.9003 178.261 55.0801 178.261H94.8289C97.0086 178.261 98.7757 176.494 98.7757 174.314V174.299C98.7757 172.119 97.0086 170.352 94.8289 170.352Z" fill="#77869E"/>
<path d="M35.2214 202.956C39.0381 202.956 42.1322 199.862 42.1322 196.045C42.1322 192.228 39.0381 189.134 35.2214 189.134C31.4046 189.134 28.3105 192.228 28.3105 196.045C28.3105 199.862 31.4046 202.956 35.2214 202.956Z" fill="#77869E"/>
<path d="M94.8289 192.426H55.0801C52.9003 192.426 51.1333 194.193 51.1333 196.373V196.388C51.1333 198.568 52.9003 200.335 55.0801 200.335H94.8289C97.0086 200.335 98.7757 198.568 98.7757 196.388V196.373C98.7757 194.193 97.0086 192.426 94.8289 192.426Z" fill="#77869E"/>
<path d="M35.2214 225.014C39.0381 225.014 42.1322 221.92 42.1322 218.104C42.1322 214.287 39.0381 211.193 35.2214 211.193C31.4046 211.193 28.3105 214.287 28.3105 218.104C28.3105 221.92 31.4046 225.014 35.2214 225.014Z" fill="#77869E"/>
<path d="M94.8289 214.484H55.0801C52.9003 214.484 51.1333 216.251 51.1333 218.431V218.447C51.1333 220.627 52.9003 222.394 55.0801 222.394H94.8289C97.0086 222.394 98.7757 220.627 98.7757 218.447V218.431C98.7757 216.251 97.0086 214.484 94.8289 214.484Z" fill="#77869E"/>
<path d="M283.605 84.162H119.103V131.602H283.605V84.162Z" fill="white"/>
<path d="M283.605 144.316H119.103V191.755H283.605V144.316Z" fill="white"/>
<path d="M283.605 204.454H119.103V251.893H283.605V204.454Z" fill="white"/>
<path d="M273.652 114.176H246.165V126.251H273.652V114.176Z" fill="#00A651"/>
<path d="M273.652 173.176H246.165V185.25H273.652V173.176Z" fill="#00A651"/>
<path d="M273.652 233.719H246.165V245.793H273.652V233.719Z" fill="#00A651"/>
<path opacity="0.28" d="M273.652 92.8043H129.461V97.8119H273.652V92.8043Z" fill="#C9C9C9"/>
<path opacity="0.28" d="M273.652 102.882H129.461V107.89H273.652V102.882Z" fill="#C9C9C9"/>
<path opacity="0.28" d="M273.652 152.443H129.461V157.451H273.652V152.443Z" fill="#C9C9C9"/>
<path opacity="0.28" d="M273.652 162.521H129.461V167.528H273.652V162.521Z" fill="#C9C9C9"/>
<path opacity="0.28" d="M273.652 213.08H129.461V218.088H273.652V213.08Z" fill="#C9C9C9"/>
<path opacity="0.28" d="M273.652 223.158H129.461V228.166H273.652V223.158Z" fill="#C9C9C9"/>
<path d="M374.022 84.162H298.347V152.443H374.022V84.162Z" fill="#00A651"/>
<path d="M374.022 168.028H298.347V236.309H374.022V168.028Z" fill="#F7931D"/>
</svg>
