<svg width="497" height="360" viewBox="0 0 497 360" fill="none" xmlns="http://www.w3.org/2000/svg">
<path opacity="0.45" d="M248.302 359.812C385.435 359.812 496.603 343.274 496.603 322.874C496.603 302.474 385.435 285.936 248.302 285.936C111.168 285.936 0 302.474 0 322.874C0 343.274 111.168 359.812 248.302 359.812Z" fill="#F4F4F4"/>
<path d="M53.4034 71.3743L13.4946 71.6943L15.5242 324.211L55.4329 323.891L53.4034 71.3743Z" fill="#00A651"/>
<path d="M13.5078 71.6833L32.987 13.2173L53.4178 71.3613L13.5078 71.6833Z" fill="#B0F9D3"/>
<path d="M24.1304 39.79L42.2741 39.652L32.9873 13.2173L24.1304 39.79Z" fill="#24285B"/>
<path d="M451.75 297.16H377.303V316.741H451.75V297.16Z" fill="#E6E6E6"/>
<path opacity="0.43" d="M435.479 278.009H361.032V297.589H435.479V278.009Z" fill="#E6E6E6"/>
<path opacity="0.08" d="M14.6284 200.376V225.645C14.6284 225.645 36.318 228.068 54.5384 216.261V193.553L38.8661 190.486L14.6284 200.376Z" fill="black"/>
<path d="M406.407 28.612H159.778V316.879H406.407V28.612Z" fill="#77869E"/>
<path opacity="0.08" d="M391.363 67.4667H199.366V298.249H391.363V67.4667Z" fill="black"/>
<path d="M379.084 54.1727H187.086V284.955H379.084V54.1727Z" fill="white"/>
<path opacity="0.08" d="M167.192 92C167.192 92 204.355 95.5727 213.565 143.873L243.405 104.006C243.405 104.006 260.766 101.905 253.091 117.806C248.056 128.263 246.828 158.378 233.596 178.756C207.358 219.109 189.781 264.459 181.974 311.941L181.33 315.928L163.293 316.741L168.282 169.433L167.192 92Z" fill="black"/>
<path d="M236.513 0H220.303V67.4667H236.513V0Z" fill="#F2F2F2"/>
<path d="M346.158 0H329.948V67.4667H346.158V0Z" fill="#F2F2F2"/>
<path d="M356.258 89.4393H315.32V130.333H356.258V89.4393Z" fill="#00A651"/>
<path d="M356.258 149.117H315.32V190.011H356.258V149.117Z" fill="#00A651"/>
<path d="M356.258 208.809H315.32V249.703H356.258V208.809Z" fill="#00A651"/>
<path d="M93.6809 110.323C82.7671 133.906 50.1483 179.906 18.6348 185.211V201.741C18.6348 201.741 75.0921 198.812 124.78 149.239C145.456 128.57 145.103 114.295 137.659 104.665C125.855 89.4393 101.755 92.8587 93.6809 110.323Z" fill="#F7931D"/>
<path d="M295.365 101.2H221.685V118.573H295.365V101.2Z" fill="#A5A5A5"/>
<path opacity="0.44" d="M295.365 160.877H221.685V178.25H295.365V160.877Z" fill="#A5A5A5"/>
<path opacity="0.13" d="M295.365 220.555H221.685V237.927H295.365V220.555Z" fill="#A5A5A5"/>
<path d="M324.53 109.879L332.711 120.367L346.526 101.2" stroke="white" stroke-width="3" stroke-miterlimit="10"/>
<path d="M324.53 168.667L332.711 179.155L346.526 159.988" stroke="white" stroke-width="3" stroke-miterlimit="10"/>
<path d="M324.53 227.455L332.711 237.943L346.526 218.776" stroke="white" stroke-width="3" stroke-miterlimit="10"/>
<path d="M119.822 71.806L125.701 89.4087L111.748 98.2713L106.729 67.758L119.822 71.806Z" fill="#F9CAC0"/>
<path d="M111.042 49.6953C112.347 48.4143 113.952 47.4796 115.711 46.9761C117.47 46.4726 119.327 46.4164 121.113 46.8126C122.899 47.2088 124.558 48.0447 125.938 49.2445C127.319 50.4442 128.377 51.9696 129.017 53.682C132.087 61.778 134.988 73.784 125.425 75.8387C110.781 78.9053 106.13 60.168 106.13 60.168C106.7 56.2705 108.409 52.6277 111.042 49.6953Z" fill="#F9CAC0"/>
<path d="M110.996 61.5327C110.996 61.5327 107.818 58.88 106.391 62.652C104.963 66.424 110.551 68.2333 112.224 66.332C113.897 64.4307 110.996 61.5327 110.996 61.5327Z" fill="#F4A28C"/>
<path d="M95.4617 106.904C97.5698 102.24 100.658 98.0842 104.518 94.7187C108.377 91.3532 112.916 88.8571 117.827 87.4C136.784 81.7114 171.674 87.9367 182.297 105.647C196.864 129.889 175.543 206.847 175.543 206.847L111.932 211.845C111.932 211.845 76.8268 148.718 95.4617 106.904Z" fill="#F7931D"/>
<path d="M175.558 206.908L167.177 316.281H153.93L142.11 231.303L112.822 211.845L175.558 206.908Z" fill="#002838"/>
<path d="M112.823 211.845L94.5562 316.281H108.755L139.424 229.525L112.823 211.845Z" fill="#002838"/>
<path opacity="0.08" d="M123.337 85.744C123.337 85.744 93.5122 181.593 179.564 187.941L175.558 206.908L111.932 211.845C111.932 211.845 87.0652 168.544 90.4422 127.205C90.4422 127.205 90.9795 102.749 108.202 91.9387C112.749 88.8218 117.909 86.7099 123.337 85.744Z" fill="black"/>
<path d="M97.8871 316.066L89.3218 322.353C89.0018 322.588 88.7644 322.919 88.6436 323.297C88.5227 323.676 88.5245 324.083 88.6487 324.46C88.7729 324.837 89.0131 325.166 89.3352 325.398C89.6573 325.631 90.0448 325.757 90.4424 325.757H104.779C105.277 325.753 105.754 325.552 106.104 325.199C106.455 324.846 106.652 324.368 106.652 323.871V316.066H97.8871Z" fill="#77869E"/>
<path d="M165.519 316.066L173.578 322.353C173.892 322.596 174.123 322.933 174.236 323.314C174.349 323.695 174.34 324.103 174.21 324.478C174.079 324.854 173.834 325.18 173.509 325.409C173.183 325.638 172.794 325.76 172.396 325.757H162.203C161.488 325.757 160.779 325.616 160.118 325.342C159.457 325.069 158.856 324.668 158.35 324.162C157.844 323.657 157.443 323.057 157.169 322.396C156.895 321.736 156.754 321.028 156.754 320.313V316.066H165.519Z" fill="#77869E"/>
<path d="M149.31 86.894C146.134 91.9844 144.45 97.8623 144.45 103.86C144.45 109.858 146.134 115.736 149.31 120.827C156.248 132.541 176.402 155.373 190.217 170.415C191.777 172.132 193.724 173.453 195.898 174.266C198.072 175.08 200.409 175.363 202.714 175.091C205.02 174.82 207.227 174.002 209.152 172.705C211.076 171.409 212.663 169.672 213.78 167.639L243.467 115.383L233.397 108.928L206.197 148.795C206.197 148.795 187.577 87.6607 149.31 86.894Z" fill="#F78F16"/>
<path d="M239.951 113.16C239.951 113.16 256.836 107.027 249.928 97.4587C243.021 87.8907 233.396 108.959 233.396 108.959L239.951 113.16Z" fill="#F9CAC0"/>
<path d="M107.833 72.7874L102.722 60.214C102.194 58.9075 101.94 57.5063 101.977 56.0977C102.014 54.6891 102.341 53.3031 102.937 52.026C105.009 47.518 108.969 40.572 115.017 36.6927C124.504 30.4674 133.79 30.4367 132.747 38.7014C131.703 46.966 135.694 38.272 138.887 44.1907C142.079 50.1094 140.161 52.026 135.479 52.578C130.797 53.13 121.664 52.9614 118.379 58.9874C115.094 65.0134 119.085 72.4194 107.833 72.7874Z" fill="#24285B"/>
<path d="M18.6348 185.211C18.6348 185.211 9.83926 181.47 6.50831 189.643C3.17736 197.815 18.6348 201.741 18.6348 201.741V185.211Z" fill="#F9CAC0"/>
<path d="M55.2356 280.276L14.8511 280.6L15.2154 325.924L55.5999 325.6L55.2356 280.276Z" fill="#002838"/>
</svg>
