<svg width="504" height="379" viewBox="0 0 504 379" fill="none" xmlns="http://www.w3.org/2000/svg">
<path d="M296.982 51.0387H263.97V56.2184H296.982V51.0387Z" fill="#E6E6E6"/>
<path d="M296.982 45.859H272.034V51.0387H296.982V45.859Z" fill="#C9C9C9"/>
<path d="M251.496 355.628C346.553 355.628 423.612 344.542 423.612 330.867C423.612 317.192 346.553 306.106 251.496 306.106C156.439 306.106 79.3799 317.192 79.3799 330.867C79.3799 344.542 156.439 355.628 251.496 355.628Z" fill="#F4F4F4"/>
<path d="M332.766 97.5293V120.775H347.76L350.91 129.997L354.816 120.775H369.81V97.5293H332.766Z" fill="#E6E6E6"/>
<path d="M349.398 114.332C349.02 114.332 348.768 114.205 348.516 113.953L344.61 108.899C344.232 108.394 344.358 107.636 344.736 107.257C345.24 106.878 345.996 107.004 346.374 107.383L349.398 111.3L356.958 103.088C357.336 102.583 358.092 102.583 358.596 103.088C359.1 103.467 359.1 104.225 358.722 104.73L350.154 113.826C350.028 114.205 349.776 114.332 349.398 114.332Z" fill="white"/>
<path d="M133.056 102.962V126.081H148.05L151.326 135.303L155.106 126.081H170.1V102.962H133.056Z" fill="#E6E6E6"/>
<path d="M149.688 119.764C149.31 119.764 149.058 119.638 148.806 119.385L144.9 114.332C144.522 113.826 144.648 113.068 145.152 112.689C145.656 112.31 146.286 112.437 146.664 112.942L149.688 116.858L157.248 108.647C157.752 108.141 158.382 108.141 158.886 108.647C159.39 109.152 159.39 109.784 158.886 110.289L150.318 119.511C150.318 119.638 149.94 119.764 149.688 119.764Z" fill="white"/>
<path d="M327.348 56H176.526V327.238H327.348V56Z" fill="#77869E"/>
<path d="M313.992 87.17H189.126V278.06H313.992V87.17Z" fill="white"/>
<path d="M252.504 317.349C260.646 317.349 267.246 310.732 267.246 302.568C267.246 294.405 260.646 287.787 252.504 287.787C244.362 287.787 237.762 294.405 237.762 302.568C237.762 310.732 244.362 317.349 252.504 317.349Z" fill="white"/>
<path opacity="0.12" d="M281.61 66.9567H239.274V73.147H281.61V66.9567Z" fill="black"/>
<path d="M223.902 77.5686C227.73 77.5686 230.832 74.4578 230.832 70.6203C230.832 66.7829 227.73 63.672 223.902 63.672C220.075 63.672 216.972 66.7829 216.972 70.6203C216.972 74.4578 220.075 77.5686 223.902 77.5686Z" fill="white"/>
<path d="M344.358 154.253C343.98 157.032 343.98 159.812 344.358 162.465C344.61 163.854 345.996 164.612 347.256 164.36C349.398 163.981 351.162 162.465 351.666 160.443L353.304 156.148C353.808 154.379 353.052 152.358 351.54 151.347C349.02 149.326 344.61 151.347 344.358 154.253Z" fill="#F9CAC0"/>
<path opacity="0.08" d="M176.4 240.791L177.03 254.562L190.26 251.782L195.93 227.905C198.072 218.683 205.884 211.735 215.334 210.724C225.414 209.587 237.888 208.576 245.952 209.082C260.946 210.092 292.698 206.555 303.408 215.651C314.118 224.747 315.252 249.508 327.6 258.478V241.297L323.946 195.059L310.338 190.384L262.08 197.585L256.914 198.47L251.622 201.375L240.282 195.69L175.014 192.911L176.4 240.791Z" fill="black"/>
<path d="M353.178 157.032L355.068 173.203L346.122 173.582L348.39 161.58L353.178 157.032Z" fill="#F9CAC0"/>
<path d="M160.902 173.708L245.826 193.037L244.314 200.238C244.314 200.238 201.852 199.101 170.226 205.292C138.6 211.482 160.902 173.708 160.902 173.708Z" fill="#68E1FD"/>
<path d="M160.902 173.708L245.826 193.037L244.314 200.238C244.314 200.238 201.852 199.101 170.226 205.292C138.6 211.482 160.902 173.708 160.902 173.708Z" fill="#FDA134"/>
<path d="M344.106 157.411L342.72 159.306C342.468 159.685 342.468 160.191 342.846 160.443C342.972 160.443 342.972 160.57 343.098 160.57L344.988 160.949L344.106 157.411Z" fill="#F9CAC0"/>
<path d="M342.468 173.708L258.048 194.553L260.316 199.101C260.316 199.101 301.644 199.101 333.396 205.165C365.148 211.229 342.468 173.708 342.468 173.708Z" fill="#F9CAC0"/>
<path opacity="0.31" d="M347.76 164.233C348.894 163.981 349.902 163.475 350.784 162.591C350.406 164.865 349.02 167.013 347.13 168.402L347.76 164.233Z" fill="#CE8172"/>
<path d="M304.164 201.375L306.306 182.678L336.168 174.972L339.57 205.923C327.6 206.808 315.504 205.292 304.164 201.375Z" fill="#68E1FD"/>
<path d="M304.164 201.375L306.306 182.678L336.168 174.972L339.57 205.923C327.6 206.808 315.504 205.292 304.164 201.375Z" fill="#FDA134"/>
<path d="M336.168 174.972C336.168 174.972 374.472 166.381 388.206 174.087C401.94 181.794 374.976 254.562 374.976 254.562L332.64 253.172C332.64 253.172 295.596 182.299 336.168 174.972Z" fill="#F7931D"/>
<path d="M344.736 322.908C344.736 322.908 342.72 326.445 339.318 326.193C335.916 325.94 334.404 329.098 337.302 330.488C340.2 331.878 348.768 329.225 348.768 329.225L349.524 322.908H344.736Z" fill="#77869E"/>
<path d="M375.732 322.15C375.732 322.15 377.118 325.94 380.646 326.193C384.174 326.445 385.056 329.856 381.906 330.741C378.756 331.625 370.818 327.709 370.818 327.709L371.07 321.392L375.732 322.15Z" fill="#77869E"/>
<path d="M332.64 253.172L343.476 322.782H350.532C350.532 322.782 343.98 270.353 355.446 264.037C366.912 257.72 369.18 322.782 369.18 322.782L376.74 322.15L376.614 250.266L332.64 253.172Z" fill="#002838"/>
<path d="M159.012 154.253C159.39 157.032 159.39 159.812 159.012 162.465C158.76 163.854 157.374 164.612 156.114 164.36C153.972 164.107 152.208 162.465 151.704 160.443L150.066 156.148C149.562 154.379 150.318 152.358 151.83 151.347C154.35 149.326 158.76 151.347 159.012 154.253Z" fill="#F9CAC0"/>
<path d="M150.192 157.032L148.428 173.203L157.374 173.582L155.106 161.58L150.192 157.032Z" fill="#F9CAC0"/>
<path d="M159.264 157.411L160.776 159.306C161.028 159.685 161.028 160.191 160.65 160.443C160.524 160.57 160.398 160.57 160.398 160.57L158.508 160.949L159.264 157.411Z" fill="#F9CAC0"/>
<path opacity="0.31" d="M155.61 164.233C154.476 163.981 153.468 163.475 152.712 162.591C153.09 164.865 154.476 167.013 156.366 168.402L155.61 164.233Z" fill="#CE8172"/>
<path d="M167.202 174.972C167.202 174.972 128.898 166.381 115.164 174.087C101.43 181.794 128.394 254.562 128.394 254.562L170.73 253.172C170.73 253.172 207.774 182.299 167.202 174.972Z" fill="#F7931D"/>
<path d="M158.634 322.908C158.634 322.908 160.65 326.445 164.052 326.193C167.454 325.94 168.966 329.098 166.068 330.488C163.17 331.878 154.602 329.225 154.602 329.225L153.846 322.908H158.634Z" fill="#77869E"/>
<path d="M127.638 322.15C127.638 322.15 126.252 325.94 122.85 326.193C119.448 326.445 118.44 329.856 121.59 330.741C124.74 331.625 132.678 327.709 132.678 327.709L132.426 321.392L127.638 322.15Z" fill="#77869E"/>
<path opacity="0.08" d="M133.938 180.783C133.938 180.783 146.034 188.616 139.86 206.681C133.686 224.747 132.678 237.507 147.294 233.085C161.91 228.663 160.776 208.45 160.776 208.45L175.644 210.724L177.03 239.275L170.73 253.298L133.938 251.024L118.944 247.234L113.4 228.284L123.606 196.322L133.938 180.783Z" fill="black"/>
<path d="M170.73 253.172L159.894 322.782H152.838C152.838 322.782 159.39 270.353 147.924 264.037C136.458 257.72 134.19 322.782 134.19 322.782L126.63 322.15L126.756 250.266L170.73 253.172Z" fill="#002838"/>
<path d="M126.504 171.813C126.504 171.813 102.69 167.771 102.69 205.418C102.69 243.065 108.486 276.544 163.548 242.939L159.39 236.496C159.39 236.496 129.78 249.635 123.48 238.138C117.18 226.642 148.05 178.13 126.504 171.813Z" fill="#68E1FD"/>
<path d="M126.504 171.813C126.504 171.813 102.69 167.771 102.69 205.418C102.69 243.065 108.486 276.544 163.548 242.939L159.39 236.496C159.39 236.496 129.78 249.635 123.48 238.138C117.18 226.642 148.05 178.13 126.504 171.813Z" fill="#FDA134"/>
<path d="M170.028 205.336L162.435 235.598L182.597 240.684L190.19 210.422L170.028 205.336Z" fill="#FFD200"/>
<path opacity="0.08" d="M374.346 182.678C374.346 182.678 365.148 190.005 370.692 205.923C376.236 221.841 370.944 248.877 354.942 251.782L376.488 250.393L387.45 214.135L374.346 182.678Z" fill="black"/>
<path d="M158.13 154.506C157.752 154.632 157.374 154.758 156.996 154.758C156.492 154.885 155.988 155.011 155.484 155.264L155.106 155.39C154.476 155.643 154.098 156.274 154.098 156.906C154.35 159.306 152.586 161.454 150.192 161.707C150.066 161.707 149.94 161.707 149.814 161.707C149.814 161.707 145.908 155.895 149.058 151.347C150.948 148.821 153.72 147.305 156.87 147.178C158.886 147.178 160.65 148.821 160.65 150.842C160.524 152.611 159.516 154 158.13 154.506Z" fill="#002838"/>
<path d="M153.972 159.685C154.224 159.306 154.35 158.801 154.098 158.422C153.846 157.79 153.216 156.906 152.334 157.032C151.452 157.159 151.2 158.675 151.83 159.559C152.208 160.064 153.09 160.191 153.594 159.812C153.72 159.685 153.72 159.685 153.846 159.559L153.972 159.685Z" fill="#F9CAC0"/>
<path d="M341.964 149.2C342.594 150.21 343.098 151.221 343.224 152.358C343.224 153.621 344.232 154.632 345.366 154.632C345.618 154.632 345.87 154.632 346.122 154.506C349.902 153.874 348.642 160.949 353.556 160.191C355.068 160.191 356.454 159.054 356.832 157.538C357.21 156.022 358.218 154.758 359.604 154C360.612 153.495 361.494 152.484 360.99 150.463C359.856 145.915 356.328 151.6 355.068 146.673C353.808 141.746 351.792 142.504 350.784 143.388C349.776 144.273 348.768 145.662 347.13 144.02C345.492 142.378 339.696 145.662 341.964 149.2Z" fill="#002838"/>
<path d="M349.524 159.685C349.272 159.306 349.146 158.801 349.398 158.422C349.65 157.79 350.154 156.906 351.162 157.032C352.17 157.159 352.296 158.675 351.666 159.559C351.288 160.064 350.406 160.191 349.902 159.812C349.776 159.685 349.776 159.685 349.65 159.559L349.524 159.685Z" fill="#F9CAC0"/>
<path d="M245.574 194.048L248.85 195.059C250.74 195.564 252.126 197.08 252.504 198.975C252.882 200.744 252.882 202.639 251.496 203.144C248.85 204.281 244.566 198.596 244.566 198.596L245.574 194.048Z" fill="#F9CAC0"/>
<path d="M259.812 194.048L256.788 194.932C254.772 195.564 253.26 197.206 252.882 199.354C252.63 200.996 252.756 202.512 253.89 203.018C256.536 204.155 260.82 198.47 260.82 198.47L259.812 194.048Z" fill="#F9CAC0"/>
<path d="M251.37 180.783C271.133 180.783 287.154 164.72 287.154 144.904C287.154 125.089 271.133 109.026 251.37 109.026C231.607 109.026 215.586 125.089 215.586 144.904C215.586 164.72 231.607 180.783 251.37 180.783Z" fill="#00A651"/>
<path d="M238.266 145.41L246.96 159.433L264.474 134.292" stroke="white" stroke-width="5" stroke-linecap="round" stroke-linejoin="round"/>
<path d="M384.552 172.445C392.616 173.203 402.948 180.151 409.878 206.934L385.308 215.777L374.85 185.078C373.212 180.151 375.858 174.719 380.772 172.95C382.032 172.445 383.292 172.319 384.552 172.445Z" fill="#68E1FD"/>
<path d="M384.552 172.445C392.616 173.203 402.948 180.151 409.878 206.934L385.308 215.777L374.85 185.078C373.212 180.151 375.858 174.719 380.772 172.95C382.032 172.445 383.292 172.319 384.552 172.445Z" fill="#FDA134"/>
<path d="M145.152 172.445C145.152 172.445 145.656 166.128 153.09 168.402C160.524 170.676 160.902 173.708 160.902 173.708L145.152 172.445Z" fill="#68E1FD"/>
<path d="M145.152 172.445C145.152 172.445 145.656 166.128 153.09 168.402C160.524 170.676 160.902 173.708 160.902 173.708L145.152 172.445Z" fill="#F7931D"/>
<path d="M408.618 206.934L414.288 227.274C417.06 237.254 411.516 247.74 401.688 250.898L384.426 255.193C382.536 255.699 381.024 257.088 380.52 258.983C380.016 260.752 379.134 262.773 377.622 262.647C371.448 262.142 377.37 253.298 377.37 253.298L394.254 242.813C398.538 240.16 400.05 234.601 397.782 230.053L389.718 214.388L408.618 206.934Z" fill="#F9CAC0"/>
<path d="M280.728 220.831H223.902V247.108H280.728V220.831Z" fill="#FFD200"/>
<path opacity="0.34" d="M270.522 256.962H234.36V264.668H270.522V256.962Z" fill="#C9C9C9"/>
<path d="M160.02 237.886C160.02 237.886 164.052 231.695 167.832 234.854C171.612 238.012 162.288 241.549 162.288 241.549L160.02 237.886Z" fill="#F9CAC0"/>
<path opacity="0.46" d="M275.058 225.252H244.818V231.822H275.058V225.252Z" fill="white"/>
<path d="M294.21 44.5957C294.21 44.5957 285.012 42.069 282.996 33.4784C282.996 33.4784 297.234 30.5727 297.738 45.3537L294.21 44.5957Z" fill="#20CE6A"/>
<path d="M295.344 43.7113C295.344 43.7113 288.918 33.4783 294.588 24.0033C294.588 24.0033 305.424 30.9516 300.636 43.8376L295.344 43.7113Z" fill="#0ABF5B"/>
<path d="M296.982 43.7113C296.982 43.7113 300.384 32.973 310.716 30.8253C310.716 30.8253 312.606 37.7736 304.038 43.7113H296.982Z" fill="#00A651"/>
<path d="M290.304 43.4586L292.194 56.2183L303.912 56.3446L305.676 43.4586H290.304Z" fill="#002838"/>
</svg>
