<svg width="384" height="402" viewBox="0 0 384 402" fill="none" xmlns="http://www.w3.org/2000/svg">
<path opacity="0.45" d="M125.039 60.9712C39.6653 56.4764 -23.2766 141.694 8.27233 221.197C13.7227 235.216 22.1556 247.882 32.9869 258.319C102.933 325.429 252.766 302.743 299.331 267.762C345.896 232.782 364.967 126.806 323.195 93.3568C271.199 51.8256 202.543 65.0549 125.039 60.9712Z" fill="#F4F4F4"/>
<path d="M189.81 244.749L233.057 296.858L290.724 232.101L244.443 191.463L189.81 244.749Z" fill="#F9CAC0"/>
<path d="M213.22 284.097L280.898 223.48L359.253 290.236L265.202 353.575L213.22 284.097Z" fill="#F7931D"/>
<path opacity="0.08" d="M218.41 228.698L303.259 327.953L265.201 353.575L213.22 284.097L218.608 279.488L191.639 246.947L218.41 228.698Z" fill="black" fill-opacity="0.49"/>
<path d="M73.0718 180.716C73.0718 180.716 118.715 244.14 162.331 246.564C205.946 248.989 229.271 246.805 247.406 204.438L73.0718 180.716Z" fill="#F9CAC0"/>
<path d="M213.22 0H85.7056V228.698H213.22V0Z" fill="#77869E"/>
<path d="M201.806 26.0759H96.2549V187.025H201.806V26.0759Z" fill="white"/>
<path opacity="0.56" d="M149.853 220.105C156.744 220.105 162.331 214.519 162.331 207.628C162.331 200.736 156.744 195.15 149.853 195.15C142.961 195.15 137.375 200.736 137.375 207.628C137.375 214.519 142.961 220.105 149.853 220.105Z" fill="white"/>
<path opacity="0.12" d="M174.425 8.93311H138.679V14.1511H174.425V8.93311Z" fill="black"/>
<path d="M125.734 17.9371C128.952 17.9371 131.562 15.328 131.562 12.1094C131.562 8.89089 128.952 6.28174 125.734 6.28174C122.515 6.28174 119.906 8.89089 119.906 12.1094C119.906 15.328 122.515 17.9371 125.734 17.9371Z" fill="white"/>
<path opacity="0.08" d="M113.809 180.148C113.809 180.148 121.905 194.653 112.037 199.134C102.168 203.615 85.7056 196.298 85.7056 196.298V185.607L113.809 180.148Z" fill="black"/>
<path opacity="0.08" d="M111.512 138.702C111.512 138.702 120.587 159.333 110.732 163.828C100.877 168.323 85.7056 160.51 85.7056 160.51V149.748L111.512 138.702Z" fill="black"/>
<path opacity="0.08" d="M111.512 119.503C111.512 119.503 119.254 135.951 109.385 140.446C99.5162 144.941 85.7056 141.297 85.7056 141.297V130.606L111.512 119.503Z" fill="black"/>
<path d="M79.0555 95.0155C79.0555 95.0155 59.6441 121.29 79.0555 126.21C98.467 131.13 119.14 131.882 109.669 109.337C100.197 86.7915 79.0555 95.0155 79.0555 95.0155Z" fill="#F9CAC0"/>
<path d="M79.0555 122.623C79.0555 122.623 59.6441 148.911 79.0555 153.817C98.467 158.723 116.531 159.999 110.987 136.164C107.116 119.475 79.0555 122.623 79.0555 122.623Z" fill="#F9CAC0"/>
<path d="M79.0555 152.711C79.0555 152.711 59.6441 179 79.0555 183.906C98.467 188.812 113.724 196.667 114.844 172.818C115.596 156.639 79.0555 152.711 79.0555 152.711Z" fill="#F9CAC0"/>
<path opacity="0.46" d="M93.3626 105.608L91.6327 118.553C91.5791 118.96 91.6063 119.372 91.7129 119.768C91.8194 120.163 92.0032 120.534 92.2536 120.858C92.5041 121.182 92.8162 121.454 93.172 121.657C93.5278 121.86 93.9203 121.991 94.3268 122.041L98.5806 122.58C100.329 122.821 102.105 122.401 103.561 121.402C105.016 120.403 106.046 118.897 106.45 117.178L107.528 112.797C107.763 111.876 107.811 110.918 107.669 109.979C107.527 109.039 107.197 108.138 106.7 107.329C106.203 106.519 105.548 105.818 104.774 105.266C104 104.715 103.124 104.325 102.196 104.119L97.2194 102.942C96.7889 102.834 96.3404 102.819 95.9038 102.899C95.4672 102.978 95.0525 103.149 94.6875 103.402C94.3225 103.654 94.0155 103.981 93.787 104.362C93.5585 104.742 93.4138 105.167 93.3626 105.608Z" fill="white"/>
<path opacity="0.08" d="M70.7181 112.796C70.7181 112.796 69.4846 118.114 71.4413 120.723H182.72V90.4639L70.7181 112.796Z" fill="#F9CAC0"/>
<path d="M186.861 26.0759H65.4717V112.797H186.861V26.0759Z" fill="#00A651"/>
<path d="M150.066 172.761C161.53 172.761 170.824 163.467 170.824 152.002C170.824 140.538 161.53 131.244 150.066 131.244C138.601 131.244 129.307 140.538 129.307 152.002C129.307 163.467 138.601 172.761 150.066 172.761Z" fill="#F7931D"/>
<path d="M142.366 152.172L149.357 160.226L158.757 145.423" stroke="white" stroke-width="3" stroke-linecap="round" stroke-linejoin="round"/>
<path d="M144.181 111.237L149.03 125.43L154.376 111.237H144.181Z" fill="#00A651"/>
<path d="M165.081 75.8877H88.7964V95.0014H165.081V75.8877Z" fill="white"/>
<path d="M165.095 75.8877H145.485V95.0014H165.095V75.8877Z" fill="#F7931D"/>
<path d="M97.6446 88.0113C99.0541 88.0113 100.197 86.8686 100.197 85.459C100.197 84.0494 99.0541 82.9067 97.6446 82.9067C96.235 82.9067 95.0923 84.0494 95.0923 85.459C95.0923 86.8686 96.235 88.0113 97.6446 88.0113Z" fill="#002838"/>
<path d="M107.116 88.0113C108.526 88.0113 109.669 86.8686 109.669 85.459C109.669 84.0494 108.526 82.9067 107.116 82.9067C105.707 82.9067 104.564 84.0494 104.564 85.459C104.564 86.8686 105.707 88.0113 107.116 88.0113Z" fill="#002838"/>
<path d="M116.361 88.0113C117.771 88.0113 118.914 86.8686 118.914 85.459C118.914 84.0494 117.771 82.9067 116.361 82.9067C114.952 82.9067 113.809 84.0494 113.809 85.459C113.809 86.8686 114.952 88.0113 116.361 88.0113Z" fill="#002838"/>
<path d="M125.833 88.0113C127.243 88.0113 128.385 86.8686 128.385 85.459C128.385 84.0494 127.243 82.9067 125.833 82.9067C124.423 82.9067 123.281 84.0494 123.281 85.459C123.281 86.8686 124.423 88.0113 125.833 88.0113Z" fill="#002838"/>
<path d="M135.503 88.0113C136.913 88.0113 138.056 86.8686 138.056 85.459C138.056 84.0494 136.913 82.9067 135.503 82.9067C134.094 82.9067 132.951 84.0494 132.951 85.459C132.951 86.8686 134.094 88.0113 135.503 88.0113Z" fill="#002838"/>
<path d="M229.328 105.168C229.03 100.319 228.846 95.4697 228.902 91.1309C229.002 82.2121 220.281 75.4344 211.887 78.3695C207.633 79.7874 204.23 83.4173 204.23 91.1309C204.23 106.473 209.037 128.578 211.746 139.808C212.886 144.55 213.202 149.451 212.681 154.3C210.923 170.875 208.13 209.996 220.352 212.605C234.532 215.625 268.916 210.634 242.004 153.293C234.792 138.191 230.491 121.864 229.328 105.168Z" fill="#F9CAC0"/>
<path opacity="0.46" d="M93.8868 167.84L93.5465 179.269C93.5294 179.631 93.5849 179.992 93.7097 180.332C93.8346 180.671 94.0263 180.982 94.2735 181.247C94.5206 181.511 94.8183 181.723 95.1489 181.871C95.4794 182.018 95.8362 182.098 96.198 182.105L99.8988 182.204C101.439 182.242 102.939 181.711 104.111 180.711C105.283 179.712 106.046 178.314 106.251 176.788L106.79 172.888C106.907 172.066 106.86 171.229 106.65 170.425C106.441 169.621 106.073 168.867 105.569 168.207C105.064 167.547 104.434 166.995 103.713 166.581C102.993 166.167 102.198 165.901 101.373 165.799L96.9495 165.232C96.5739 165.184 96.1925 165.215 95.8296 165.324C95.4668 165.432 95.1305 165.614 94.8423 165.86C94.554 166.105 94.3202 166.408 94.1557 166.749C93.9912 167.09 93.8996 167.462 93.8868 167.84Z" fill="white"/>
<path opacity="0.46" d="M92.0861 133.257L90.3563 146.231C90.3006 146.639 90.3263 147.053 90.4319 147.45C90.5376 147.847 90.721 148.22 90.9716 148.545C91.2222 148.871 91.535 149.144 91.8918 149.348C92.2487 149.552 92.6424 149.683 93.0503 149.734L97.3041 150.272C99.0524 150.498 100.822 150.071 102.276 149.075C103.73 148.079 104.767 146.582 105.188 144.87L106.251 140.489C106.477 139.568 106.518 138.611 106.371 137.674C106.225 136.738 105.894 135.839 105.398 135.031C104.903 134.223 104.252 133.521 103.483 132.966C102.714 132.41 101.843 132.013 100.92 131.797L95.9429 130.634C95.5156 130.526 95.0703 130.51 94.6364 130.587C94.2024 130.664 93.7897 130.832 93.4253 131.079C93.0609 131.327 92.7532 131.649 92.5223 132.025C92.2915 132.4 92.1429 132.82 92.0861 133.257Z" fill="white"/>
</svg>
