<svg width="506" height="381" viewBox="0 0 506 381" fill="none" xmlns="http://www.w3.org/2000/svg">
<path d="M251.229 339.578C357.213 339.578 443.13 333.68 443.13 326.404C443.13 319.129 357.213 313.231 251.229 313.231C145.245 313.231 59.3286 319.129 59.3286 326.404C59.3286 333.68 145.245 339.578 251.229 339.578Z" fill="#F4F4F4"/>
<path d="M381.524 45.7112H139.276V231.911H381.524V45.7112Z" fill="#F4F4F4"/>
<path d="M204.171 311.204C204.171 311.204 193.292 308.291 191.015 298.158C191.015 298.158 207.84 294.738 208.219 312.091L204.171 311.204Z" fill="#20CE6A"/>
<path d="M205.562 310.064C205.562 310.064 197.972 298.158 204.677 286.884C204.677 286.884 217.453 294.991 211.761 310.064H205.562Z" fill="#0ABF5B"/>
<path d="M207.46 310.064C207.46 310.064 211.508 297.398 223.525 294.991C223.525 294.991 225.802 303.225 215.682 310.064H207.46Z" fill="#00A651"/>
<path d="M199.617 309.811L201.894 324.758L215.683 324.884L217.707 309.811H199.617Z" fill="#002838"/>
<path d="M278.173 70.791H230.989V118.038H278.173V70.791Z" fill="#002838"/>
<path opacity="0.4" d="M257.934 63.3179H248.952V80.2912H257.934V63.3179Z" fill="white"/>
<path d="M353.441 71.6777H306.256V118.924H353.441V71.6777Z" fill="#FFD200"/>
<path opacity="0.76" d="M352.303 146.918H305.118V194.164H352.303V146.918Z" stroke="#C9C9C9" stroke-linecap="round" stroke-linejoin="round" stroke-dasharray="2 2"/>
<path d="M278.173 146.918H230.989V194.164H278.173V146.918Z" fill="#77869E"/>
<path d="M205.057 146.918H157.872V194.164H205.057V146.918Z" fill="#77869E"/>
<path opacity="0.4" d="M333.074 64.3311H324.093V81.3044H333.074V64.3311Z" fill="white"/>
<path d="M206.195 71.6777H159.011V118.924H206.195V71.6777Z" fill="#00A651"/>
<path opacity="0.4" d="M185.955 64.3311H176.974V81.3044H185.955V64.3311Z" fill="white"/>
<path d="M177.985 176.178L159.39 176.684L153.318 231.911H180.009C181.527 226.844 185.955 223.044 191.268 222.664C212.014 220.891 257.554 210.378 248.066 152.111L222.766 181.751L197.719 194.798L177.985 176.178Z" fill="#F4F4F4"/>
<path d="M129.536 151.858L133.078 162.625L124.729 167.945L121.693 149.451L129.536 151.858Z" fill="#F9CAC0"/>
<path d="M118.784 139.191C120.302 135.771 124.097 134.251 127.512 135.771C128.398 136.151 129.157 136.658 129.789 137.418C133.331 141.218 137.632 147.298 132.825 150.591C125.362 155.658 118.531 146.158 118.531 146.158C117.772 143.878 117.898 141.471 118.784 139.191Z" fill="#F9CAC0"/>
<path d="M124.223 145.778C124.223 145.778 122.326 144.131 121.44 146.411C120.555 148.691 123.97 149.831 124.982 148.691C125.994 147.551 124.223 145.778 124.223 145.778Z" fill="#F4A28C"/>
<path d="M117.519 168.071C117.519 168.071 87.4118 186.311 83.4903 229.251C82.7313 236.598 87.5383 243.438 94.7488 245.084L130.042 253.571L117.519 168.071Z" fill="#68E1FD"/>
<path d="M117.519 168.071C117.519 168.071 87.4118 186.311 83.4903 229.251C82.7313 236.598 87.5383 243.438 94.7488 245.084L130.042 253.571L117.519 168.071Z" fill="#FDA134"/>
<path d="M130.212 219.985L83.8867 241.297L97.7767 271.569L144.102 250.257L130.212 219.985Z" fill="#FFD200"/>
<path d="M125.235 142.991C125.235 142.991 129.156 154.391 122.325 153.631C115.494 152.871 119.163 148.058 115.747 142.991C112.332 137.924 114.103 134.504 119.416 130.071C121.819 128.044 123.464 127.031 124.349 126.018C125.741 124.498 128.144 124.371 129.662 125.764C130.042 126.144 130.295 126.524 130.548 126.904C132.445 131.211 132.445 137.038 125.235 142.991Z" fill="#002838"/>
<path d="M110.561 176.938C113.47 170.478 119.036 165.664 125.741 163.638C138.644 159.711 163.058 151.604 170.269 163.764C180.136 180.231 164.956 245.084 164.956 245.084L121.693 248.504C121.693 248.504 97.9107 205.438 110.561 176.938Z" fill="#F7931D"/>
<path d="M164.956 245.084L159.264 319.691H150.282L142.186 261.804L122.326 248.504L164.956 245.084Z" fill="#002838"/>
<path d="M122.326 248.504L109.929 319.691H119.543L140.415 260.538L122.326 248.504Z" fill="#002838"/>
<path opacity="0.08" d="M129.536 162.625C129.536 162.625 109.296 227.858 167.739 232.291L164.956 245.211L121.693 248.505C111.7 230.898 106.766 211.011 107.019 190.871C107.019 190.871 107.399 174.278 119.163 166.805C122.326 164.651 125.741 163.258 129.536 162.625Z" fill="black"/>
<path d="M111.699 319.691L105.754 324.124C105.121 324.378 104.868 325.138 105.121 325.771C105.374 326.278 105.88 326.531 106.513 326.404H116.506C117.265 326.404 117.771 325.898 117.771 325.138V319.691H111.699Z" fill="#77869E"/>
<path d="M159.01 319.691L164.703 324.124C165.335 324.631 165.335 325.391 164.956 326.024C164.703 326.404 164.324 326.531 163.944 326.531H156.733C154.583 326.531 152.938 324.884 152.938 322.731V319.691H159.01Z" fill="#77869E"/>
<path d="M246.169 156.671C246.169 156.671 250.596 149.704 245.536 147.804C240.476 145.904 240.982 155.151 240.982 155.151L246.169 156.671Z" fill="#F9CAC0"/>
<path d="M247.56 157.051L241.109 155.151L212.646 179.978C208.345 183.651 202.4 184.791 197.087 183.018C189.244 180.358 182.666 175.038 178.365 168.071C168.118 151.478 150.788 157.431 150.788 157.431C150.788 157.431 137.758 170.351 163.691 192.518C179.25 205.691 195.063 206.578 205.309 205.058C206.574 204.931 207.839 204.804 209.104 204.804C210.369 204.804 211.508 204.424 212.646 204.044C214.038 203.411 215.429 202.778 216.694 202.018C227.194 196.064 238.452 183.144 247.56 157.051Z" fill="#68E1FD"/>
<path d="M247.56 157.051L241.109 155.151L212.646 179.978C208.345 183.651 202.4 184.791 197.087 183.018C189.244 180.358 182.666 175.038 178.365 168.071C168.118 151.478 150.788 157.431 150.788 157.431C150.788 157.431 137.758 170.351 163.691 192.518C179.25 205.691 195.063 206.578 205.309 205.058C206.574 204.931 207.839 204.804 209.104 204.804C210.369 204.804 211.508 204.424 212.646 204.044C214.038 203.411 215.429 202.778 216.694 202.018C227.194 196.064 238.452 183.144 247.56 157.051Z" fill="#FDA134"/>
<path opacity="0.4" d="M195.822 90.6777H169.383V95.3644H195.822V90.6777Z" fill="white"/>
<path opacity="0.4" d="M348.634 108.158H331.81V112.844H348.634V108.158Z" fill="white"/>
<path d="M271.469 108.158H254.645V112.844H271.469V108.158Z" fill="#FFD200"/>
<path opacity="0.4" d="M195.822 101.191H169.383V105.878H195.822V101.191Z" fill="white"/>
<path d="M342.056 205.691H315.238V212.531H342.056V205.691Z" fill="#C9C9C9"/>
<path d="M267.927 205.691H241.235V212.531H267.927V205.691Z" fill="#C9C9C9"/>
<path d="M409.733 303.098H381.271V306.771H409.733V303.098Z" fill="#ADADAD"/>
<path d="M380.006 271.051L376.464 326.404H380.006L387.596 271.051H380.006Z" fill="#C9C9C9"/>
<path d="M409.607 271.051L413.149 326.404H409.607L402.017 271.051H409.607Z" fill="#C9C9C9"/>
<path d="M413.149 263.958H376.464V272.698H413.149V263.958Z" fill="#E6E6E6"/>
<path d="M405.433 260.918H398.096V259.271H405.433C406.571 259.271 407.33 258.384 407.33 257.371V252.178C407.33 251.038 406.445 250.278 405.433 250.278H398.096V248.631H405.433C407.457 248.631 408.975 250.278 408.975 252.178V257.371C408.975 259.398 407.33 260.918 405.433 260.918Z" fill="#FFD200"/>
<path d="M405.433 260.918H398.096V259.271H405.433C406.571 259.271 407.33 258.384 407.33 257.371V252.178C407.33 251.038 406.445 250.278 405.433 250.278H398.096V248.631H405.433C407.457 248.631 408.975 250.278 408.975 252.178V257.371C408.975 259.398 407.33 260.918 405.433 260.918Z" fill="#00A651"/>
<path d="M402.27 244.958H387.976V264.084H402.27V244.958Z" fill="#00A651"/>
<path d="M395.312 259.018C397.688 259.018 399.613 256.863 399.613 254.204C399.613 251.546 397.688 249.391 395.312 249.391C392.937 249.391 391.011 251.546 391.011 254.204C391.011 256.863 392.937 259.018 395.312 259.018Z" fill="#E6E6E6"/>
<path d="M390.253 244.958C390.253 244.958 388.229 238.244 393.542 237.611C398.855 236.978 406.318 238.244 403.535 230.264C400.752 222.284 397.21 223.931 401.132 214.811C405.053 205.691 415.806 221.904 419.601 213.291C423.395 204.678 428.835 207.718 434.274 211.898C439.714 216.078 440.726 229.251 430.1 231.278C419.474 233.304 417.324 235.584 415.173 241.538C413.023 247.491 402.143 244.958 402.143 244.958H390.253Z" fill="#E6E6E6"/>
</svg>
