<svg width="215" height="198" viewBox="0 0 215 198" fill="none" xmlns="http://www.w3.org/2000/svg">
<path opacity="0.3" d="M98.4719 197.579C152.856 197.579 196.944 153.466 196.944 99.0506C196.944 44.6349 152.856 0.522217 98.4719 0.522217C44.0874 0.522217 0 44.6349 0 99.0506C0 153.466 44.0874 197.579 98.4719 197.579Z" fill="#EFEFEF"/>
<path d="M89.4724 29.1875C89.4724 29.1875 120.857 21.6136 128.146 36.855C135.434 52.0965 94.5215 81.6422 71.9492 46.8825L89.4724 29.1875Z" fill="#F9CAC0"/>
<path d="M160.475 59.5616L141.827 20.53L72.5049 53.6884L91.1531 92.7199L160.475 59.5616Z" fill="#77869E"/>
<path d="M153.32 59.0781L137.705 26.3955L85.844 51.2018L101.459 83.8844L153.32 59.0781Z" fill="white"/>
<path d="M112.198 68.8276L104.81 53.3625L98.4719 56.394L105.861 71.859L112.198 68.8276Z" fill="#F7931D"/>
<path d="M129.95 62.039C136.492 62.039 141.794 56.7333 141.794 50.1883C141.794 43.6434 136.492 38.3376 129.95 38.3376C123.409 38.3376 118.106 43.6434 118.106 50.1883C118.106 56.7333 123.409 62.039 129.95 62.039Z" fill="#00A651"/>
<path d="M105.76 36.0715C105.76 36.0715 123.419 42.0863 124.765 47.6751C125.889 52.2927 117.544 56.2884 106.237 50.4695C103.954 49.2818 101.443 48.5986 98.8741 48.4664C96.3047 48.3341 93.737 48.7557 91.3447 49.7028C87.3343 51.2959 82.1063 52.2586 76.7336 49.9498C65.4346 45.1704 68.8831 35.9608 79.1688 32.0588C89.4544 28.1569 92.6645 27.2197 105.76 36.0715Z" fill="#F9CAC0"/>
<path d="M80.5146 53.7749L17.1997 78.6263L6.82031 39.002L76.5808 28.0459L80.5146 53.7749Z" fill="#00A651"/>
<path d="M144.34 34.112C145.069 34.112 145.66 33.5208 145.66 32.7915C145.66 32.0622 145.069 31.4709 144.34 31.4709C143.611 31.4709 143.021 32.0622 143.021 32.7915C143.021 33.5208 143.611 34.112 144.34 34.112Z" fill="#A8A8A8"/>
<path d="M152.162 48.1308L146.672 36.6396C146.53 36.3425 146.174 36.2167 145.877 36.3588L145.87 36.3625C145.573 36.5045 145.447 36.8606 145.589 37.1577L151.079 48.6489C151.221 48.946 151.577 49.0718 151.874 48.9297L151.882 48.926C152.179 48.784 152.304 48.4279 152.162 48.1308Z" fill="#A8A8A8"/>
<path d="M87.5646 73.5401C89.8877 73.5401 91.7709 71.6558 91.7709 69.3315C91.7709 67.0071 89.8877 65.1228 87.5646 65.1228C85.2416 65.1228 83.3584 67.0071 83.3584 69.3315C83.3584 71.6558 85.2416 73.5401 87.5646 73.5401Z" fill="#C3CAD4"/>
<path d="M131.389 129.948C131.389 129.948 99.7403 123.55 93.0222 139.064C86.3042 154.578 128.298 182.565 149.585 146.987L131.389 129.948Z" fill="#F9CAC0"/>
<path d="M132.059 193.492L149.244 153.794L78.7381 123.237L61.5526 162.935L132.059 193.492Z" fill="#77869E"/>
<path d="M128.076 53.2261C128.52 53.0143 128.811 52.722 128.952 52.3493C129.101 51.9794 129.145 51.4469 129.085 50.7517C129.026 50.0566 129.002 49.4438 129.014 48.9134C129.032 48.3804 129.108 47.8926 129.242 47.4501C129.383 47.0105 129.605 46.6124 129.906 46.256C130.21 45.905 130.627 45.6029 131.156 45.3497C132.07 44.913 132.958 44.8471 133.82 45.1519C134.683 45.4567 135.393 46.0696 135.953 46.9908L137.688 46.1614L138.307 47.4588L136.548 48.2998C136.87 49.3212 136.827 50.2611 136.421 51.1195C136.019 51.9753 135.292 52.6551 134.238 53.1589L133.119 50.8155C133.767 50.5055 134.187 50.1391 134.376 49.7163C134.574 49.2964 134.566 48.8621 134.352 48.4134C134.14 47.9702 133.849 47.6876 133.479 47.5658C133.114 47.4414 132.71 47.4851 132.267 47.697C131.856 47.8933 131.583 48.1699 131.448 48.5266C131.313 48.8833 131.27 49.4453 131.317 50.2126C131.368 50.9853 131.376 51.6354 131.342 52.1627C131.314 52.6875 131.223 53.1629 131.068 53.5889C130.918 54.0124 130.693 54.3889 130.392 54.7185C130.097 55.0456 129.703 55.3267 129.212 55.5618C128.293 56.001 127.41 56.0711 126.564 55.7719C125.717 55.4728 125.002 54.845 124.42 53.8886L122.806 54.6599L122.191 53.3706L123.796 52.6032C123.386 51.4382 123.367 50.3913 123.74 49.4627C124.121 48.5368 124.866 47.8091 125.974 47.2794L127.093 49.6228C126.449 49.9303 126.027 50.3181 125.826 50.7862C125.632 51.2571 125.673 51.779 125.946 52.3521C126.173 52.8278 126.477 53.1441 126.857 53.3009C127.243 53.4552 127.649 53.4302 128.076 53.2261Z" fill="white"/>
<path d="M121.421 185.051L135.812 151.81L83.0648 128.95L68.6747 162.19L121.421 185.051Z" fill="white"/>
<path d="M118.723 173.377L125.472 157.789L117.385 154.284L110.637 169.872L118.723 173.377Z" fill="#F7931D"/>
<path d="M94.5548 165.526C101.096 165.526 106.399 160.22 106.399 153.675C106.399 147.13 101.096 141.824 94.5548 141.824C88.0136 141.824 82.7109 147.13 82.7109 153.675C82.7109 160.22 88.0136 165.526 94.5548 165.526Z" fill="#00A651"/>
<path d="M98.638 154.689C98.2112 154.443 97.8041 154.368 97.4165 154.463C97.0267 154.551 96.5619 154.817 96.022 155.261C95.4822 155.706 94.9899 156.074 94.5451 156.365C94.0951 156.653 93.6494 156.868 93.208 157.009C92.7645 157.141 92.31 157.184 91.8447 157.138C91.3823 157.087 90.8962 156.914 90.3862 156.62C89.5067 156.114 88.9476 155.417 88.7091 154.531C88.4705 153.645 88.5725 152.709 89.015 151.724L87.3444 150.761L88.0633 149.512L89.7572 150.488C90.4175 149.641 91.2175 149.142 92.1571 148.99C93.0915 148.836 94.0662 149.05 95.081 149.635L93.7825 151.892C93.158 151.532 92.6174 151.394 92.1606 151.477C91.7015 151.552 91.3477 151.806 91.0991 152.238C90.8535 152.665 90.7856 153.066 90.8954 153.441C91 153.813 91.2657 154.122 91.6924 154.368C92.0879 154.596 92.4713 154.664 92.8425 154.573C93.2137 154.482 93.7024 154.199 94.3086 153.723C94.9178 153.242 95.4497 152.866 95.9041 152.594C96.3533 152.319 96.7978 152.125 97.2376 152.011C97.6721 151.894 98.1109 151.866 98.5538 151.927C98.9916 151.985 99.4473 152.15 99.9208 152.423C100.806 152.933 101.365 153.622 101.599 154.492C101.833 155.361 101.721 156.309 101.263 157.334L102.816 158.229L102.102 159.47L100.556 158.58C99.8279 159.581 98.9743 160.192 97.9957 160.411C97.0149 160.622 95.9911 160.421 94.9243 159.806L96.2227 157.55C96.842 157.906 97.4021 158.035 97.9029 157.935C98.4015 157.827 98.8095 157.498 99.127 156.946C99.3906 156.488 99.4791 156.057 99.3924 155.654C99.3006 155.247 99.0491 154.926 98.638 154.689Z" fill="white"/>
<path d="M115.399 137.437C115.399 137.437 97.9866 144.099 96.8371 149.739C95.8154 154.399 104.33 158.08 115.399 151.843C117.637 150.565 120.124 149.783 122.69 149.551C125.257 149.319 127.843 149.642 130.274 150.497C134.336 151.946 139.598 152.678 144.885 150.208C155.997 145.011 152.208 135.929 141.777 132.385C131.347 128.841 128.171 128.099 115.399 137.437Z" fill="#F9CAC0"/>
<path d="M141.258 154.186L205.45 176.661L214.348 136.679L144.229 128.33L141.258 154.186Z" fill="#F7931D"/>
<path d="M134.787 174.199C137.11 174.199 138.994 172.315 138.994 169.99C138.994 167.666 137.11 165.781 134.787 165.781C132.464 165.781 130.581 167.666 130.581 169.99C130.581 172.315 132.464 174.199 134.787 174.199Z" fill="#C3CAD4"/>
</svg>
