<svg width="113" height="113" viewBox="0 0 113 113" fill="none" xmlns="http://www.w3.org/2000/svg">
<path d="M82.375 9.0625V23.5625H89.625V52.5625H100.5V23.5625V9.0625H82.375Z" fill="#F7931D"/>
<path d="M82.375 7.25H100.5V10.875H82.375V7.25Z" fill="#002838"/>
<path d="M82.375 14.5H100.5V18.125H82.375V14.5Z" fill="#002838"/>
<path d="M82.375 21.75H100.5V25.375H82.375V21.75Z" fill="#002838"/>
<path d="M91.4375 94.25C91.4375 92.0949 93.0579 90.3205 95.2039 90.1266L112.363 88.566L111.187 86.1952C110.293 84.3918 109.111 82.8168 107.75 81.4465V0H35.25V10.875H33.4375C28.4404 10.875 24.375 14.9404 24.375 19.9375V59.8125H28V27.1404C29.5189 28.2913 31.3894 29 33.4375 29H76.9375C79.9354 29 82.375 31.4396 82.375 34.4375V57.0357L91.2943 64.4688C92.5359 65.5056 93.25 67.0263 93.25 68.6466V76.2428C87.45 76.8047 82.3098 80.0835 79.3753 85.1893H53.375V88.8143H81.5829L82.0814 87.8084C84.55 82.8367 89.5036 79.75 95.0118 79.75C99.5919 79.75 103.79 81.8833 106.49 85.4594L94.8758 86.5161C90.8484 86.8822 87.8125 90.2063 87.8125 94.25C87.8125 98.2937 90.8484 101.618 94.874 101.986L106.489 103.042C103.788 106.619 99.5901 108.752 95.0099 108.752C89.5018 108.752 84.55 105.665 82.0814 100.695L81.5829 99.6875H47.5732V103.312H79.3753C82.6052 108.931 88.4976 112.375 95.0118 112.375C101.908 112.375 108.107 108.516 111.187 102.305L112.363 99.934L95.2039 98.3734C93.0579 98.1795 91.4375 96.4051 91.4375 94.25V94.25ZM28 19.9375C28 16.9396 30.4396 14.5 33.4375 14.5H35.25V25.375H33.4375C30.4396 25.375 28 22.9354 28 19.9375ZM75.125 25.375H46.125V10.875H75.125V25.375ZM86 55.3392V34.4375C86 30.0621 82.8807 26.4009 78.75 25.5581V7.25H42.5V25.375H38.875V3.625H104.125V78.6154C101.936 77.3285 99.4759 76.5219 96.875 76.2537V68.6448C96.875 65.9478 95.686 63.4085 93.6143 61.683L86 55.3392Z" fill="#002838"/>
<path d="M78.75 50.75V36.25C78.75 34.2508 77.1242 32.625 75.125 32.625H35.25C33.2508 32.625 31.625 34.2508 31.625 36.25V50.75C31.625 52.7492 33.2508 54.375 35.25 54.375H75.125C77.1242 54.375 78.75 52.7492 78.75 50.75ZM35.25 36.25H75.125L75.1268 50.75H35.25V36.25Z" fill="#002838"/>
<path d="M89.625 29H100.5V32.625H89.625V29Z" fill="#002838"/>
<path d="M89.625 36.25H100.5V39.875H89.625V36.25Z" fill="#002838"/>
<path d="M89.625 43.5H100.5V47.125H89.625V43.5Z" fill="#002838"/>
<path d="M89.625 50.75H100.5V54.375H89.625V50.75Z" fill="#002838"/>
<path d="M55.1875 92.046V78.329L50.1234 77.0838C49.9004 76.4821 49.6485 75.8803 49.3694 75.2804L52.0736 70.8108L42.3731 61.1102L37.9053 63.8163C37.3072 63.5372 36.7054 63.2852 36.1019 63.0605L34.8585 58H21.1415L19.8963 63.0641C19.2946 63.2871 18.6928 63.539 18.0947 63.8199L13.6251 61.1139L3.92456 70.8144L6.62881 75.284C6.34969 75.8839 6.09775 76.4857 5.87481 77.0874L0.8125 78.329V92.046L5.87662 93.2912C6.09956 93.8948 6.3515 94.4965 6.63063 95.0946L3.92637 99.5642L13.6251 109.263L18.0965 106.557C18.6946 106.838 19.2964 107.088 19.8981 107.313L21.1415 112.375H34.8585L36.1037 107.311C36.7054 107.088 37.3072 106.836 37.9053 106.555L42.3749 109.261L52.0754 99.5606L49.3712 95.091C49.6503 94.4911 49.9023 93.8893 50.1252 93.2876L55.1875 92.046ZM28 99.6875C19.9924 99.6875 13.5 93.1951 13.5 85.1875C13.5 77.1799 19.9924 70.6875 28 70.6875C36.0076 70.6875 42.5 77.1799 42.5 85.1875C42.5 93.1951 36.0076 99.6875 28 99.6875Z" fill="#00A651"/>
<path d="M28 101.5C19.0046 101.5 11.6875 94.1811 11.6875 85.1875C11.6875 76.1939 19.0046 68.875 28 68.875C36.9954 68.875 44.3125 76.1939 44.3125 85.1875C44.3125 94.1811 36.9954 101.5 28 101.5ZM28 72.5C21.0056 72.5 15.3125 78.1913 15.3125 85.1875C15.3125 92.1837 21.0056 97.875 28 97.875C34.9944 97.875 40.6875 92.1837 40.6875 85.1875C40.6875 78.1913 34.9944 72.5 28 72.5Z" fill="#002838"/>
<path d="M28 94.25C23.0029 94.25 18.9375 90.1846 18.9375 85.1875C18.9375 80.1904 23.0029 76.125 28 76.125C32.9971 76.125 37.0625 80.1904 37.0625 85.1875C37.0625 90.1846 32.9971 94.25 28 94.25ZM28 79.75C25.0021 79.75 22.5625 82.1896 22.5625 85.1875C22.5625 88.1854 25.0021 90.625 28 90.625C30.9979 90.625 33.4375 88.1854 33.4375 85.1875C33.4375 82.1896 30.9979 79.75 28 79.75Z" fill="#002838"/>
<path d="M76.9375 81.5625H73.3125V77.9375H76.9375V81.5625ZM69.6875 81.5625H66.0625V77.9375H69.6875V81.5625ZM62.4375 81.5625H58.8125V77.9375H62.4375V81.5625Z" fill="#002838"/>
</svg>
