<svg width="41" height="42" viewBox="0 0 41 42" fill="none" xmlns="http://www.w3.org/2000/svg">
<path fill-rule="evenodd" clip-rule="evenodd" d="M27.5686 25.9909C28.3305 26.7543 28.3295 27.9902 27.5661 28.7521C27.1849 29.1328 26.6861 29.3232 26.1868 29.3232C25.6865 29.3232 25.1867 29.1318 24.8055 28.7501L19.1182 23.0531C18.7526 22.687 18.5476 22.1906 18.5476 21.6733V11.1656C18.5476 10.0874 19.4218 9.21318 20.5 9.21318C21.5782 9.21318 22.4524 10.0874 22.4524 11.1656V20.8655L27.5686 25.9909ZM20.4995 37.445C11.8207 37.445 4.75993 30.3696 4.75993 21.6733C4.75993 12.9769 11.8207 5.90195 20.4995 5.90195C29.1783 5.90195 36.2396 12.9769 36.2396 21.6733C36.2396 30.3696 29.1783 37.445 20.4995 37.445ZM3.90527 7.75964C3.88916 6.85423 4.44266 5.90391 5.55063 4.93407C6.56392 4.14287 7.50252 3.81535 8.34253 3.96129C9.04734 4.08381 9.66868 4.53041 10.1285 4.9736C8.07359 6.25827 6.27106 7.91047 4.81556 9.84088C4.41972 9.36596 3.9204 8.60454 3.90527 7.75964ZM32.6574 3.9613C33.4955 3.81585 34.4361 4.14336 35.4493 4.93358C36.55 5.89708 37.104 6.84154 37.0952 7.74061C37.0874 8.56501 36.6066 9.33717 36.1854 9.84332C34.7299 7.91193 32.9269 6.25925 30.8715 4.97361C31.3308 4.53042 31.9526 4.08381 32.6574 3.9613ZM38.2671 13.2895C38.8274 12.8067 40.9463 10.7889 40.999 7.82865C41.037 5.70398 40.0189 3.72671 37.9733 1.95297C37.9508 1.93345 37.9279 1.91441 37.904 1.89587C35.4737 -0.0233206 33.3208 -0.127285 31.9429 0.122131C29.5434 0.557023 27.9522 2.25266 27.2372 3.18932C25.1344 2.41813 22.8653 1.9969 20.4995 1.9969C18.1342 1.9969 15.865 2.41813 13.7628 3.18883C13.0473 2.25266 11.4566 0.557023 9.05711 0.122131C7.67922 -0.127285 5.52623 -0.0228326 3.09601 1.89587C3.07258 1.91441 3.04964 1.93345 3.02719 1.95297C0.981097 3.72671 -0.0365792 5.70398 0.00100405 7.82914C0.0537182 10.7885 2.17156 12.8057 2.73238 13.2895C1.53069 15.8344 0.855169 18.6756 0.855169 21.673C0.855169 26.6242 2.69431 31.1503 5.71903 34.6123C5.69316 34.646 5.66241 34.6743 5.638 34.7104L2.80706 38.9657C2.20963 39.8633 2.45319 41.0752 3.3508 41.6726C3.68319 41.8942 4.05902 42.0001 4.43046 42.0001C5.06205 42.0001 5.68145 41.6941 6.05777 41.1289L8.59732 37.3125C11.9027 39.8423 16.0276 41.3495 20.4995 41.3495C25.0051 41.3495 29.1583 39.8184 32.4764 37.2539L35.0555 41.1289C35.4313 41.6941 36.0512 42.0001 36.6828 42.0001C37.0542 42.0001 37.4295 41.8937 37.7624 41.6726C38.66 41.0752 38.9036 39.8633 38.3062 38.9652L35.4747 34.7104C35.4342 34.6494 35.3844 34.5997 35.3385 34.545C38.3286 31.0917 40.1443 26.592 40.1443 21.673C40.1443 18.6761 39.4688 15.8349 38.2671 13.2895Z" fill="#002838"/>
</svg>
