<svg width="34" height="44" viewBox="0 0 34 44" fill="none" xmlns="http://www.w3.org/2000/svg">
<path fill-rule="evenodd" clip-rule="evenodd" d="M23.707 25.1652C24.0259 25.4841 24.2075 25.9257 24.2075 26.382C24.2075 26.8334 24.0259 27.275 23.707 27.5939C23.3881 27.9128 22.9416 28.0943 22.4902 28.0943C22.0388 28.0943 21.5972 27.9128 21.2783 27.5939C20.9545 27.275 20.7729 26.8334 20.7729 26.382C20.7729 25.9257 20.9545 25.4841 21.2783 25.1652C21.9161 24.5274 23.0692 24.5274 23.707 25.1652ZM9.16132 11.0395C9.16132 10.0911 9.92967 9.32226 10.8786 9.32226H22.5574C23.5058 9.32226 24.2747 10.0911 24.2747 11.0395C24.2747 11.9879 23.5058 12.7568 22.5574 12.7568H10.8786C9.92967 12.7568 9.16132 11.9879 9.16132 11.0395ZM9.16132 18.3992C9.16132 17.4508 9.92967 16.6819 10.8786 16.6819H22.5574C23.5058 16.6819 24.2747 17.4508 24.2747 18.3992C24.2747 19.3476 23.5058 20.1165 22.5574 20.1165H10.8786C9.92967 20.1165 9.16132 19.3476 9.16132 18.3992ZM8.88853 26.2495C8.88853 25.3011 9.65737 24.5323 10.6058 24.5323H16.4057C17.3541 24.5323 18.123 25.3011 18.123 26.2495C18.123 27.1979 17.3541 27.9668 16.4057 27.9668H10.6058C9.65737 27.9668 8.88853 27.1979 8.88853 26.2495ZM4.24309 39.2516H29.7566V3.92516H4.24309V39.2516ZM31.7192 0H2.28051C1.19668 0 0.317932 0.878746 0.317932 1.96258V41.2142C0.317932 42.298 1.19668 43.1768 2.28051 43.1768H31.7192C32.8031 43.1768 33.6818 42.298 33.6818 41.2142V1.96258C33.6818 0.878746 32.8031 0 31.7192 0Z" fill="#002838"/>
</svg>
