<svg width="88" height="88" viewBox="0 0 88 88" fill="none" xmlns="http://www.w3.org/2000/svg">
<path d="M88 14.1935V11.3548H61.0323V8.51613H55.3548V0H32.6452V8.51613H26.9677V11.3548H0V14.1935H26.9677V17.0323H0V19.871H26.9677V22.7097H7.09677V25.5484H0V28.3871H7.09677V35.4839H10.1966C10.0377 35.9295 9.93548 36.4036 9.93548 36.9032C9.93548 39.2508 11.8459 41.1613 14.1935 41.1613C16.5412 41.1613 18.4516 39.2508 18.4516 36.9032C18.4516 36.4036 18.3494 35.9295 18.1905 35.4839H21.5529C21.3925 35.9295 21.2903 36.4036 21.2903 36.9032C21.2903 39.2508 23.2008 41.1613 25.5484 41.1613C27.896 41.1613 29.8064 39.2508 29.8064 36.9032C29.8064 36.4036 29.7043 35.9295 29.5453 35.4839H32.6452V88H35.4839V35.4839H42.5806V38.3226H45.4194V35.4839H52.5161V88H55.3548V35.4839H58.4547C58.2957 35.9295 58.1935 36.4036 58.1935 36.9032C58.1935 39.2508 60.104 41.1613 62.4516 41.1613C64.7992 41.1613 66.7097 39.2508 66.7097 36.9032C66.7097 36.4036 66.6075 35.9295 66.4485 35.4839H69.811C69.6506 35.9295 69.5484 36.4036 69.5484 36.9032C69.5484 39.2508 71.4588 41.1613 73.8064 41.1613C76.1541 41.1613 78.0645 39.2508 78.0645 36.9032C78.0645 36.4036 77.9623 35.9295 77.8034 35.4839H80.9032V28.3871H88V25.5484H80.9032V22.7097H61.0323V19.871H88V17.0323H61.0323V14.1935H88ZM29.8064 11.3548H32.6452V22.7097H29.8064V11.3548ZM15.6129 36.9032C15.6129 37.6867 14.9756 38.3226 14.1935 38.3226C13.4115 38.3226 12.7742 37.6867 12.7742 36.9032C12.7742 36.1197 13.4115 35.4839 14.1935 35.4839C14.9756 35.4839 15.6129 36.1197 15.6129 36.9032ZM26.9677 36.9032C26.9677 37.6867 26.3305 38.3226 25.5484 38.3226C24.7663 38.3226 24.129 37.6867 24.129 36.9032C24.129 36.1197 24.7663 35.4839 25.5484 35.4839C26.3305 35.4839 26.9677 36.1197 26.9677 36.9032ZM63.871 36.9032C63.871 37.6867 63.2337 38.3226 62.4516 38.3226C61.6695 38.3226 61.0323 37.6867 61.0323 36.9032C61.0323 36.1197 61.6695 35.4839 62.4516 35.4839C63.2337 35.4839 63.871 36.1197 63.871 36.9032ZM75.2258 36.9032C75.2258 37.6867 74.5885 38.3226 73.8064 38.3226C73.0244 38.3226 72.3871 37.6867 72.3871 36.9032C72.3871 36.1197 73.0244 35.4839 73.8064 35.4839C74.5885 35.4839 75.2258 36.1197 75.2258 36.9032ZM78.0645 32.6452H9.93548V25.5484H78.0645V32.6452ZM55.3548 22.7097V19.871H52.5161V22.7097H35.4839V2.83871H52.5161V17.0323H55.3548V11.3548H58.1935V22.7097H55.3548Z" fill="#002838"/>
<path d="M45.4193 44H42.5806V46.8387H45.4193V44Z" fill="#002838"/>
<path d="M45.4193 52.5161H42.5806V55.3548H45.4193V52.5161Z" fill="#002838"/>
<path d="M45.4193 61.0323H42.5806V63.871H45.4193V61.0323Z" fill="#002838"/>
<path d="M45.4193 69.5484H42.5806V72.3871H45.4193V69.5484Z" fill="#002838"/>
<path d="M45.4193 78.0645H42.5806V80.9032H45.4193V78.0645Z" fill="#002838"/>
<path d="M72.3871 59.6129L79.4839 65.2903L70.2283 82.4787C69.8096 83.2565 68.9977 83.7419 68.1135 83.7419H67.6933C66.3662 83.7419 65.2904 82.6661 65.2904 81.339C65.2904 81.0508 65.3429 80.7656 65.4437 80.4959L69.5484 69.5484L62.4517 63.871L71.7073 46.6826C72.126 45.9048 72.9393 45.4194 73.8235 45.4194H74.2437C75.5693 45.4194 76.6452 46.4952 76.6452 47.8223C76.6452 48.1105 76.5927 48.3957 76.4919 48.6654L72.3871 59.6129Z" fill="#F7931D"/>
<path d="M78.0645 29.8065H9.93552V32.6452H78.0645V29.8065Z" fill="#F7931D"/>
</svg>
