<svg width="76" height="77" viewBox="0 0 76 77" fill="none" xmlns="http://www.w3.org/2000/svg">
<path d="M55.4359 16.532V43.9314C55.4359 45.3076 56.5505 46.4222 57.9267 46.4222C59.3029 46.4222 60.4176 45.3076 60.4176 43.9314V30.2317C60.4176 28.8555 61.5322 27.7408 62.9084 27.7408C64.2846 27.7408 65.3993 28.8555 65.3993 30.2317V36.4588C65.3993 37.835 66.5139 38.9497 67.8901 38.9497C69.2663 38.9497 70.381 37.835 70.381 36.4588V10.3049C70.381 8.24119 62.5747 6.56858 52.945 6.56858C43.3154 6.56858 35.509 8.24119 35.509 10.3049C35.509 12.3685 43.3154 14.0411 52.945 14.0411C54.3212 14.0411 55.4359 15.1558 55.4359 16.532Z" fill="#F7931D"/>
<path d="M72.8718 71.3308H59.1721C57.7959 71.3308 56.6813 70.2161 56.6813 68.8399C56.6813 67.4637 55.5666 66.3491 54.1904 66.3491H36.7544L31.7727 71.3308H10.6005C9.22428 71.3308 8.10962 72.4454 8.10962 73.8216C8.10962 75.1978 9.22428 76.3125 10.6005 76.3125H72.8718C74.248 76.3125 75.3627 75.1978 75.3627 73.8216C75.3627 72.4454 74.248 71.3308 72.8718 71.3308Z" fill="#F7931D"/>
<path d="M10.6875 2.39786V4.77286C10.6875 8.0468 13.3511 10.7104 16.625 10.7104H59.375C62.6489 10.7104 65.3125 8.0468 65.3125 4.77286V2.39786H10.6875Z" fill="#F7931D"/>
<path d="M60.5625 60.5854H43.9375C42.6253 60.5854 41.5625 59.5225 41.5625 58.2104V39.2104C41.5625 37.8982 42.6253 36.8354 43.9375 36.8354H60.5625C61.8747 36.8354 62.9375 37.8982 62.9375 39.2104V58.2104C62.9375 59.5225 61.8747 60.5854 60.5625 60.5854Z" fill="#F7931D"/>
<path d="M68.875 1.21036H7.125C3.85106 1.21036 1.1875 3.87392 1.1875 7.14786V31.1781L4.01612 36.8354H39.1875V34.4604H65.3125V62.9604H39.1875V39.2104H36.8125V68.8979C36.8125 72.1718 39.4761 74.8354 42.75 74.8354H61.75C65.0239 74.8354 67.6875 72.1718 67.6875 68.8979V36.8354H71.9839L74.8125 31.1781V7.14786C74.8125 3.87392 72.1489 1.21036 68.875 1.21036ZM7.125 3.58536H68.875C70.8391 3.58536 72.4375 5.18373 72.4375 7.14786V29.7104H67.6875V28.5229C67.6875 25.2489 65.0239 22.5854 61.75 22.5854H42.75C39.4761 22.5854 36.8125 25.2489 36.8125 28.5229V29.7104H3.5625V7.14786C3.5625 5.18373 5.16087 3.58536 7.125 3.58536ZM5.48388 34.4604L4.29638 32.0854H36.8125V34.4604H5.48388ZM39.1875 32.0854V28.5229C39.1875 26.5587 40.7859 24.9604 42.75 24.9604H61.75C63.7141 24.9604 65.3125 26.5587 65.3125 28.5229V32.0854H39.1875ZM61.75 72.4604H42.75C40.7859 72.4604 39.1875 70.862 39.1875 68.8979V65.3354H65.3125V68.8979C65.3125 70.862 63.7141 72.4604 61.75 72.4604ZM67.6875 34.4604V32.0854H71.7036L70.5161 34.4604H67.6875Z" fill="#002838"/>
<path d="M55.8125 27.3354H48.6875V29.7104H55.8125V27.3354Z" fill="#002838"/>
<path d="M54.625 67.7104H49.875V70.0854H54.625V67.7104Z" fill="#002838"/>
<path d="M60.5625 27.3354H58.1875V29.7104H60.5625V27.3354Z" fill="#002838"/>
<path d="M46.3125 27.3354H43.9375V29.7104H46.3125V27.3354Z" fill="#002838"/>
<path d="M58.1875 48.7104C58.1875 45.4364 55.5239 42.7729 52.25 42.7729C48.9761 42.7729 46.3125 45.4364 46.3125 48.7104C46.3125 51.9843 48.9761 54.6479 52.25 54.6479C55.5239 54.6479 58.1875 51.9843 58.1875 48.7104ZM48.6875 48.7104C48.6875 46.7462 50.2859 45.1479 52.25 45.1479C54.2141 45.1479 55.8125 46.7462 55.8125 48.7104C55.8125 50.2565 54.8162 51.5627 53.4375 52.0544V47.5229H51.0625V52.0544C49.6838 51.5627 48.6875 50.2565 48.6875 48.7104Z" fill="#002838"/>
<path d="M11.875 27.3354C15.1489 27.3354 17.8125 24.6718 17.8125 21.3979C17.8125 18.1239 15.1489 15.4604 11.875 15.4604C8.60106 15.4604 5.9375 18.1239 5.9375 21.3979C5.9375 24.6718 8.60106 27.3354 11.875 27.3354ZM11.875 17.8354C13.8391 17.8354 15.4375 19.4337 15.4375 21.3979C15.4375 22.944 14.4412 24.2502 13.0625 24.7419V20.2104H10.6875V24.7419C9.30881 24.2502 8.3125 22.944 8.3125 21.3979C8.3125 19.4337 9.91087 17.8354 11.875 17.8354Z" fill="#002838"/>
<path d="M70.0625 13.0854H55.8125V15.4604H70.0625V13.0854Z" fill="#002838"/>
<path d="M70.0625 17.8354H55.8125V20.2104H70.0625V17.8354Z" fill="#002838"/>
<path d="M10.26 44.0803C11.5081 43.04 13.0625 41.7457 13.0625 39.2104H10.6875C10.6875 40.5665 9.98331 41.2184 8.74 42.2539C7.49194 43.2942 5.9375 44.5885 5.9375 47.1239C5.9375 49.6592 7.49075 50.9547 8.73881 51.995C9.98331 53.0317 10.6875 53.6836 10.6875 55.0421C10.6875 56.3994 9.98331 57.0525 8.74 58.0892C7.49194 59.1295 5.9375 60.425 5.9375 62.9604H8.3125C8.3125 61.603 9.01669 60.9499 10.26 59.9132C11.5081 58.873 13.0625 57.5774 13.0625 55.0421C13.0625 52.5056 11.5081 51.2112 10.26 50.1698C9.01669 49.1331 8.3125 48.4812 8.3125 47.1239C8.3125 45.7677 9.01669 45.1158 10.26 44.0803Z" fill="#002838"/>
<path d="M18.5725 44.0803C19.8206 43.04 21.375 41.7457 21.375 39.2104H19C19 40.5665 18.2958 41.2184 17.0525 42.2539C15.8044 43.2942 14.25 44.5885 14.25 47.1227C14.25 49.658 15.8033 50.9535 17.0513 51.9938C18.2958 53.0317 19 53.6836 19 55.0421C19 56.3994 18.2958 57.0525 17.0525 58.0892C15.8044 59.1295 14.25 60.425 14.25 62.9604H16.625C16.625 61.603 17.3292 60.9499 18.5725 59.9132C19.8206 58.873 21.375 57.5774 21.375 55.0421C21.375 52.5056 19.8206 51.2112 18.5725 50.1698C17.3292 49.1331 16.625 48.4812 16.625 47.1239C16.625 45.7677 17.3292 45.1158 18.5725 44.0803Z" fill="#002838"/>
<path d="M26.885 44.0803C28.1331 43.04 29.6875 41.7457 29.6875 39.2104H27.3125C27.3125 40.5665 26.6083 41.2184 25.365 42.2539C24.1169 43.2942 22.5625 44.5885 22.5625 47.1227C22.5625 49.658 24.1157 50.9535 25.3638 51.9938C26.6083 53.0317 27.3125 53.6836 27.3125 55.0421C27.3125 56.3994 26.6083 57.0525 25.365 58.0892C24.1169 59.1295 22.5625 60.425 22.5625 62.9604H24.9375C24.9375 61.603 25.6417 60.9499 26.885 59.9132C28.1331 58.873 29.6875 57.5774 29.6875 55.0421C29.6875 52.5056 28.1331 51.2112 26.885 50.1698C25.6417 49.1331 24.9375 48.4812 24.9375 47.1239C24.9375 45.7677 25.6417 45.1158 26.885 44.0803Z" fill="#002838"/>
</svg>
