<svg width="16" height="22" viewBox="0 0 16 22" fill="none" xmlns="http://www.w3.org/2000/svg">
<path fill-rule="evenodd" clip-rule="evenodd" d="M7.89153 10.1867C6.71524 10.1867 5.75848 9.20267 5.75848 7.99315C5.75848 6.78363 6.71524 5.79961 7.89153 5.79961C9.06781 5.79961 10.025 6.78363 10.025 7.99315C10.025 9.20267 9.06781 10.1867 7.89153 10.1867ZM7.89151 4.12576C5.79242 4.12576 4.08455 5.86065 4.08455 7.99321C4.08455 10.1258 5.79242 11.8607 7.89151 11.8607C9.99083 11.8607 11.6989 10.1258 11.6989 7.99321C11.6989 5.86065 9.99083 4.12576 7.89151 4.12576ZM7.89066 19.6412C7.24429 18.9238 6.22296 17.7282 5.2057 16.2855C3.05162 13.2306 1.91312 10.4918 1.91312 8.36525C1.91312 2.37838 6.48888 1.91303 7.89138 1.91303C13.4385 1.91303 13.8696 6.85155 13.8696 8.36525C13.8696 12.5756 9.58609 17.7559 7.89066 19.6412ZM13.2595 1.89822C11.886 0.674348 9.97939 0 7.8913 0C5.80322 0 3.89663 0.674348 2.52307 1.89822C0.872348 3.36935 0 5.60546 0 8.36526C0 14.3765 6.9178 21.4203 7.21217 21.7171C7.39176 21.8984 7.63639 22 7.8913 22C8.14622 22 8.39085 21.8984 8.57043 21.7171C8.8648 21.4203 15.7826 14.3765 15.7826 8.36526C15.7826 5.60546 14.9103 3.36935 13.2595 1.89822Z" fill="#002838"/>
</svg>
