<svg width="21" height="21" viewBox="0 0 21 21" fill="none" xmlns="http://www.w3.org/2000/svg">
<path d="M10.5 0C6.42707 0 3.11719 3.30996 3.11719 7.38281C3.11719 8.76094 3.49871 10.1022 4.22465 11.2588L9.99953 20.7094C10.098 20.8694 10.2457 20.9678 10.418 20.9925C10.6517 21.0293 10.9102 20.9309 11.0455 20.6971L16.837 11.1604C17.5259 10.0284 17.8828 8.71176 17.8828 7.38281C17.8828 3.30996 14.5729 0 10.5 0ZM10.5 11.0742C8.43289 11.0742 6.80859 9.40078 6.80859 7.38281C6.80859 5.3525 8.46969 3.69141 10.5 3.69141C12.5303 3.69141 14.1914 5.3525 14.1914 7.38281C14.1914 9.38848 12.5918 11.0742 10.5 11.0742Z" fill="#FDA134"/>
<path d="M10.5 0V3.69141C12.5303 3.69141 14.1914 5.3525 14.1914 7.38281C14.1914 9.38848 12.5918 11.0742 10.5 11.0742V20.9996C10.71 21.0045 10.9259 20.9039 11.0455 20.6971L16.8369 11.1604C17.5259 10.0284 17.8828 8.71176 17.8828 7.38281C17.8828 3.30996 14.5729 0 10.5 0Z" fill="#F7931D"/>
</svg>
