<svg width="80" height="80" viewBox="0 0 80 80" fill="none" xmlns="http://www.w3.org/2000/svg">
<path d="M73.75 42.5H76.25V65H73.75V42.5Z" fill="#002838"/>
<path d="M76.25 78.75H63.75V70H66.25V76.25H73.75V70H76.25V78.75Z" fill="#002838"/>
<path d="M66.25 37.5H63.75V23.75H60V21.25H63.75C65.1287 21.25 66.25 22.3712 66.25 23.75V37.5Z" fill="#002838"/>
<path d="M45 21.25H55V23.75H45V21.25Z" fill="#002838"/>
<path d="M31.6438 21.25H40.0001V23.75H31.6438V21.25Z" fill="#002838"/>
<path d="M31.6438 11.25H40.0001V13.75H31.6438V11.25Z" fill="#002838"/>
<path d="M17.5 33.75C8.54 33.75 1.25 26.46 1.25 17.5C1.25 8.54 8.54 1.25 17.5 1.25C26.46 1.25 33.75 8.54 33.75 17.5C33.75 26.46 26.46 33.75 17.5 33.75Z" fill="#F7931D"/>
<path d="M17.5 28.75C13.3637 28.75 10 25.3862 10 21.25C10 20.2612 10.1837 19.295 10.5475 18.3775L14.595 8.12125C15.1112 6.985 16.2512 6.25 17.5 6.25C18.7487 6.25 19.8887 6.985 20.405 8.12125L24.4775 18.435C24.8238 19.3162 25 20.2425 25 21.1888C25 25.3862 21.6362 28.75 17.5 28.75ZM16.8813 9.13375L12.8725 19.2963C12.625 19.92 12.5 20.5775 12.5 21.25C12.5 24.0075 14.7425 26.25 17.5 26.25C20.2575 26.25 22.5 24.0075 22.5 21.25C22.5 20.5575 22.3825 19.94 22.1513 19.3512L18.105 9.09625C17.935 8.72625 17.1175 8.66125 16.8813 9.13375Z" fill="#002838"/>
<path d="M45 11.25H55V13.75H45V11.25Z" fill="#002838"/>
<path d="M76.25 37.5H73.75V20C73.75 16.5538 70.9462 13.75 67.5 13.75H60V11.25H67.5C72.3237 11.25 76.25 15.1762 76.25 20V37.5Z" fill="#002838"/>
<path d="M43.75 25H41.25C40.56 25 40 24.44 40 23.75V11.25C40 10.56 40.56 10 41.25 10H43.75C44.44 10 45 10.56 45 11.25V23.75C45 24.44 44.44 25 43.75 25Z" fill="#F7931D"/>
<path d="M58.75 25H56.25C55.56 25 55 24.44 55 23.75V11.25C55 10.56 55.56 10 56.25 10H58.75C59.44 10 60 10.56 60 11.25V23.75C60 24.44 59.44 25 58.75 25Z" fill="#F7931D"/>
<path d="M76.25 70H63.75C63.06 70 62.5 69.44 62.5 68.75V66.25C62.5 65.56 63.06 65 63.75 65H76.25C76.94 65 77.5 65.56 77.5 66.25V68.75C77.5 69.44 76.94 70 76.25 70Z" fill="#F7931D"/>
<path d="M18.75 70H6.25C5.56 70 5 69.44 5 68.75V66.25C5 65.56 5.56 65 6.25 65H18.75C19.44 65 20 65.56 20 66.25V68.75C20 69.44 19.44 70 18.75 70Z" fill="#F7931D"/>
<path d="M76.25 42.5H63.75C63.06 42.5 62.5 41.94 62.5 41.25V38.75C62.5 38.06 63.06 37.5 63.75 37.5H76.25C76.94 37.5 77.5 38.06 77.5 38.75V41.25C77.5 41.94 76.94 42.5 76.25 42.5Z" fill="#F7931D"/>
<path d="M18.75 65H16.25V58.75C16.25 57.3712 17.3712 56.25 18.75 56.25H22.5V58.75H18.75V65Z" fill="#002838"/>
<path d="M8.75 65H6.25V55C6.25 50.1762 10.1762 46.25 15 46.25H22.5V48.75H15C11.5538 48.75 8.75 51.5538 8.75 55V65Z" fill="#002838"/>
<path d="M45 46.25V41.25H46.25C48.3175 41.25 50 39.5675 50 37.5C50 35.4325 48.3175 33.75 46.25 33.75H45C45 30.9925 42.7575 28.75 40 28.75C37.2425 28.75 35 30.9925 35 33.75H33.75C31.6825 33.75 30 35.4325 30 37.5C30 39.5675 31.6825 41.25 33.75 41.25H35V46.25H27.5V48.75H52.5V46.25H45ZM40 31.25C41.3787 31.25 42.5 32.3712 42.5 33.75H37.5C37.5 32.3712 38.6213 31.25 40 31.25ZM32.5 37.5C32.5 36.81 33.06 36.25 33.75 36.25H46.25C46.94 36.25 47.5 36.81 47.5 37.5C47.5 38.19 46.94 38.75 46.25 38.75H33.75C33.06 38.75 32.5 38.19 32.5 37.5ZM37.5 41.25H42.5V46.25H37.5V41.25Z" fill="#002838"/>
<path d="M63.75 42.5V46.25H57.5V48.75H63.75V56.25H57.5V58.75H63.75V65H66.25V42.5H63.75Z" fill="#002838"/>
<path d="M26.25 60H23.75C23.06 60 22.5 59.44 22.5 58.75V46.25C22.5 45.56 23.06 45 23.75 45H26.25C26.94 45 27.5 45.56 27.5 46.25V58.75C27.5 59.44 26.94 60 26.25 60Z" fill="#F7931D"/>
<path d="M56.25 60H53.75C53.06 60 52.5 59.44 52.5 58.75V46.25C52.5 45.56 53.06 45 53.75 45H56.25C56.94 45 57.5 45.56 57.5 46.25V58.75C57.5 59.44 56.94 60 56.25 60Z" fill="#F7931D"/>
<path d="M27.5 56.25H52.5V58.75H27.5V56.25Z" fill="#002838"/>
<path d="M71.25 61.25H68.75V58.75H71.25V61.25ZM71.25 56.25H68.75V53.75H71.25V56.25ZM71.25 51.25H68.75V48.75H71.25V51.25Z" fill="#002838"/>
<path d="M43.75 53.75H41.25V51.25H43.75V53.75ZM38.75 53.75H36.25V51.25H38.75V53.75ZM33.75 53.75H31.25V51.25H33.75V53.75Z" fill="#002838"/>
<path d="M71.25 33.75H68.75V31.25H71.25V33.75ZM71.25 28.75H68.75V26.25H71.25V28.75ZM71.25 23.75H68.75V21.25H71.25V23.75Z" fill="#002838"/>
<path d="M18.75 78.75H6.25V70H8.75V76.25H16.25V70H18.75V78.75Z" fill="#002838"/>
</svg>
