<svg width="13" height="13" viewBox="0 0 13 13" fill="none" xmlns="http://www.w3.org/2000/svg">
<path fill-rule="evenodd" clip-rule="evenodd" d="M13 6.62264C13 7.23217 12.5058 7.72642 11.8962 7.72642H7.48113V11.8962C7.48113 12.5058 6.98689 13 6.37736 13C5.76783 13 5.27358 12.5058 5.27358 11.8962V7.72642H1.10377C0.494245 7.72642 0 7.23217 0 6.62264C0 6.01311 0.494245 5.51887 1.10377 5.51887H5.27358V1.10377C5.27358 0.494245 5.76783 0 6.37736 0C6.98689 0 7.48113 0.494245 7.48113 1.10377V5.51887H11.8962C12.5058 5.51887 13 6.01311 13 6.62264" fill="black"/>
</svg>
