<svg width="172" height="172" viewBox="0 0 172 172" fill="none" xmlns="http://www.w3.org/2000/svg">
<path d="M67.1875 110.188H13.4375V75.25H83.3125V88.6875H67.1875V110.188Z" fill="#EBEBEB"/>
<path d="M67.1875 16.125H115.562V40.3125H67.1875V16.125Z" fill="#EBEBEB"/>
<path d="M123.625 112.875V99.4375C123.625 94.9843 127.234 91.375 131.688 91.375C136.141 91.375 139.75 94.9843 139.75 99.4375V112.875H150.5V99.4375C150.5 89.0476 142.077 80.625 131.688 80.625C121.298 80.625 112.875 89.0476 112.875 99.4375V112.875H123.625Z" fill="#00A651"/>
<path d="M67.1875 13.4375H115.562V18.8125H67.1875V13.4375Z" fill="#002838"/>
<path d="M67.1875 24.1875H115.562V29.5625H67.1875V24.1875Z" fill="#002838"/>
<path d="M110.188 34.9375H115.562V40.3125H110.188V34.9375Z" fill="#002838"/>
<path d="M99.4375 34.9375H104.812V40.3125H99.4375V34.9375Z" fill="#002838"/>
<path d="M67.1875 34.9375H94.0625V40.3125H67.1875V34.9375Z" fill="#002838"/>
<path d="M131.688 120.938C125.759 120.938 120.938 125.759 120.938 131.688C120.938 134.284 121.902 136.796 123.625 138.756V147.812H139.75V138.756C141.473 136.796 142.438 134.284 142.438 131.688C142.438 125.759 137.616 120.938 131.688 120.938ZM135.262 135.662L134.375 136.463V142.438H129V136.463L128.113 135.662C126.952 134.617 126.312 133.203 126.312 131.688C126.312 128.723 128.723 126.312 131.688 126.312C134.652 126.312 137.062 128.723 137.062 131.688C137.062 133.203 136.423 134.617 135.262 135.662Z" fill="#002838"/>
<path d="M169.312 61.8125H163.938V45.6875H126.312V2.6875H36.5124L2.6875 36.5124V169.312H126.312V158.562H150.5C154.945 158.562 158.562 154.945 158.562 150.5V142.438H169.312V61.8125ZM158.562 61.8125H110.188V51.0625H158.562V61.8125ZM34.9375 11.8626V34.9375H11.8626L34.9375 11.8626ZM120.938 163.938H8.0625V40.3125H40.3125V8.0625H120.938V45.6875H104.812V61.8125H99.4375V94.0625H72.5625V142.438H104.812V150.5C104.812 154.945 108.43 158.562 112.875 158.562H120.938V163.938ZM153.188 150.5C153.188 151.984 151.984 153.188 150.5 153.188H112.875C111.392 153.188 110.188 151.984 110.188 150.5V118.25C110.188 116.767 111.392 115.562 112.875 115.562H150.5C151.984 115.562 153.188 116.767 153.188 118.25V150.5ZM163.938 137.062H158.562V118.25C158.562 113.805 154.945 110.188 150.5 110.188H112.875C108.43 110.188 104.812 113.805 104.812 118.25V137.062H77.9375V99.4375H104.812V67.1875H163.938V137.062Z" fill="#002838"/>
<path d="M83.3125 131.688H99.4375V104.812H83.3125V131.688ZM88.6875 110.188H94.0625V126.312H88.6875V110.188Z" fill="#002838"/>
<path d="M83.3125 45.6875H13.4375V67.1875H83.3125V45.6875ZM51.0625 51.0625H61.8125V61.8125H51.0625V51.0625ZM45.6875 61.8125H34.9375V51.0625H45.6875V61.8125ZM18.8125 51.0625H29.5625V61.8125H18.8125V51.0625ZM77.9375 61.8125H67.1875V51.0625H77.9375V61.8125Z" fill="#00A651"/>
<path d="M13.4375 72.5625H83.3125V77.9375H13.4375V72.5625Z" fill="#002838"/>
<path d="M13.4375 83.3125H72.5625V88.6875H13.4375V83.3125Z" fill="#002838"/>
<path d="M77.9375 83.3125H83.3125V88.6875H77.9375V83.3125Z" fill="#002838"/>
<path d="M13.4375 94.0625H67.1875V99.4375H13.4375V94.0625Z" fill="#002838"/>
<path d="M13.4375 104.812H45.6875V110.188H13.4375V104.812Z" fill="#002838"/>
<path d="M51.0625 104.812H56.4375V110.188H51.0625V104.812Z" fill="#002838"/>
<path d="M61.8125 104.812H67.1875V110.188H61.8125V104.812Z" fill="#002838"/>
<path d="M13.4375 158.562H67.1875V115.562H13.4375V158.562ZM18.8125 120.938H61.8125V153.188H18.8125V120.938Z" fill="#00A651"/>
</svg>
