<svg width="171" height="171" viewBox="0 0 171 171" fill="none" xmlns="http://www.w3.org/2000/svg">
<path d="M48.0938 106.875V125.578H38.9078L37.27 119.331C34.0557 118.444 30.9697 117.164 28.0574 115.508L22.4731 118.768L9.47981 105.78L12.7422 100.195C11.0883 97.2856 9.80578 94.1996 8.91872 90.9827L2.67188 89.3422V70.9703L8.91872 69.3325C9.80578 66.1156 11.0883 63.0295 12.7422 60.1199L9.47981 54.5356L22.4705 41.545L28.0547 44.8073C30.9644 43.1535 34.0504 41.871 37.2673 40.9839L38.9078 34.7344H48.0938V53.4375C33.337 53.4375 21.375 65.3995 21.375 80.1562C21.375 94.913 33.337 106.875 48.0938 106.875Z" fill="#00A651"/>
<path d="M136.266 58.7812H98.8594V133.594H114.891V112.219H136.266V58.7812Z" fill="#EBEBEB"/>
<path d="M56.1094 48.0938H93.5156V13.3594H56.1094V48.0938Z" fill="#EBEBEB"/>
<path d="M168.328 168.328H66.7969V157.641H56.1094V146.953H45.4219V109.411C30.4647 108.056 18.7031 95.4607 18.7031 80.1562C18.7031 64.8518 30.4647 52.2565 45.4219 50.9019V2.67188H146.953V13.3594H157.641V24.0469H168.328V168.328ZM24.0469 80.1562C24.0469 92.511 33.4171 102.712 45.4219 104.045V95.947C37.8525 94.6699 32.0625 88.0864 32.0625 80.1562C32.0625 72.2261 37.8525 65.6453 45.4219 64.3655V56.267C33.4171 57.6003 24.0469 67.7988 24.0469 80.1562ZM45.4219 90.4643V69.8482C40.8236 71.0425 37.4062 75.1892 37.4062 80.1562C37.4062 85.1206 40.8236 89.27 45.4219 90.4643ZM50.7656 8.01562V141.609H120.234V120.234H141.609V8.01562H50.7656ZM125.578 137.831L137.831 125.578H125.578V137.831ZM152.297 18.7031H146.953V124.012L124.012 146.953H61.4531V152.297H152.297V18.7031ZM162.984 29.3906H157.641V157.641H72.1406V162.984H162.984V29.3906Z" fill="#002838"/>
<path d="M56.1094 56.1094H93.5156V93.5156H56.1094V56.1094ZM61.4531 88.1719H88.1719V61.4531H61.4531V88.1719Z" fill="#00A651"/>
<path d="M98.8594 82.8281H136.266V77.4844H98.8594V82.8281Z" fill="#002838"/>
<path d="M98.8594 93.5156H136.266V88.1719H98.8594V93.5156Z" fill="#002838"/>
<path d="M130.922 72.1406H136.266V66.7969H130.922V72.1406Z" fill="#002838"/>
<path d="M98.8594 72.1406H125.578V66.7969H98.8594V72.1406Z" fill="#002838"/>
<path d="M98.8594 114.891H136.266V109.547H98.8594V114.891Z" fill="#002838"/>
<path d="M98.8594 125.578H114.891V120.234H98.8594V125.578Z" fill="#002838"/>
<path d="M98.8594 136.266H114.891V130.922H98.8594V136.266Z" fill="#002838"/>
<path d="M109.547 104.203H136.266V98.8594H109.547V104.203Z" fill="#002838"/>
<path d="M98.8594 104.203H104.203V98.8594H98.8594V104.203Z" fill="#002838"/>
<path d="M98.8594 61.4531H136.266V56.1094H98.8594V61.4531Z" fill="#002838"/>
<path d="M98.8594 13.3594H136.266V50.7656H98.8594V13.3594ZM104.203 45.4219H130.922V18.7031H104.203V45.4219Z" fill="#002838"/>
<path d="M56.1094 40.0781H61.4531V34.7344H56.1094V40.0781Z" fill="#002838"/>
<path d="M66.7969 40.0781H93.5156V34.7344H66.7969V40.0781Z" fill="#002838"/>
<path d="M56.1094 50.7656H93.5156V45.4219H56.1094V50.7656Z" fill="#002838"/>
<path d="M56.1094 29.3906H93.5156V24.0469H56.1094V29.3906Z" fill="#002838"/>
<path d="M56.1094 18.7031H82.8281V13.3594H56.1094V18.7031Z" fill="#002838"/>
<path d="M88.1719 18.7031H93.5156V13.3594H88.1719V18.7031Z" fill="#002838"/>
<path d="M74.8125 136.266C64.5017 136.266 56.1094 127.876 56.1094 117.562C56.1094 107.249 64.5017 98.8594 74.8125 98.8594C85.1233 98.8594 93.5156 107.249 93.5156 117.562C93.5156 127.876 85.1233 136.266 74.8125 136.266ZM74.8125 104.203C67.4461 104.203 61.4531 110.196 61.4531 117.562C61.4531 124.929 67.4461 130.922 74.8125 130.922C82.1789 130.922 88.1719 124.929 88.1719 117.562C88.1719 110.196 82.1789 104.203 74.8125 104.203Z" fill="#00A651"/>
</svg>
