<svg width="16" height="12" viewBox="0 0 16 12" fill="none" xmlns="http://www.w3.org/2000/svg">
<path fill-rule="evenodd" clip-rule="evenodd" d="M15.7542 6.58447L10.5051 11.7569C10.3407 11.9189 10.1247 12 9.90888 12C9.69372 12 9.47856 11.9195 9.31414 11.7583C8.98487 11.4356 8.98424 10.9117 9.31266 10.5881L13.1287 6.82758H0.842108C0.377054 6.82758 0 6.45702 0 5.99999C0 5.54295 0.377054 5.1724 0.842108 5.1724H13.1287L9.31266 1.41205C8.98424 1.08846 8.98487 0.56439 9.31414 0.241631C9.6434 -0.0811287 10.1767 -0.080508 10.5051 0.243286L15.7542 5.41571C16.0819 5.73868 16.0819 6.2613 15.7542 6.58447Z" fill="#00A651"/>
</svg>
