<svg width="110" height="112" viewBox="0 0 110 112" fill="none" xmlns="http://www.w3.org/2000/svg">
<path d="M46.4829 94.5127V81.2544L43.2184 80.103C43.1075 79.8223 42.9913 79.5416 42.868 79.261L44.3626 76.1341L34.9909 66.7624L31.864 68.257C31.5851 68.1337 31.3044 68.0157 31.022 67.9066L29.8706 64.6421H16.6123L15.4609 67.9066C15.1802 68.0175 14.8996 68.1337 14.6189 68.257L11.492 66.7624L2.12034 76.1341L3.61494 79.261C3.49158 79.5399 3.37359 79.8205 3.26453 80.103L0 81.2544V94.5127L3.26453 95.6641C3.37537 95.9447 3.49158 96.2254 3.61494 96.5061L2.12034 99.633L11.492 109.005L14.6189 107.51C14.8978 107.633 15.1785 107.751 15.4609 107.86L16.6123 111.125H29.8706L31.022 107.86C31.3027 107.75 31.5833 107.633 31.864 107.51L34.9909 109.005L44.3626 99.633L42.868 96.5061C42.9913 96.2272 43.1093 95.9465 43.2184 95.6641L46.4829 94.5127ZM23.2415 100.398C16.3298 100.398 10.7268 94.7952 10.7268 87.8835C10.7268 80.9719 16.3298 75.3689 23.2415 75.3689C30.1531 75.3689 35.7561 80.9719 35.7561 87.8835C35.7561 94.7952 30.1531 100.398 23.2415 100.398Z" fill="#00A651"/>
<path d="M23.2414 80.7324C19.2975 80.7324 16.0902 83.9397 16.0902 87.8836C16.0902 91.8275 19.2975 95.0349 23.2414 95.0349C27.1853 95.0349 30.3926 91.8275 30.3926 87.8836C30.3926 83.9397 27.1853 80.7324 23.2414 80.7324ZM23.2414 91.4592C21.2695 91.4592 19.6658 89.8556 19.6658 87.8836C19.6658 85.9117 21.2695 84.308 23.2414 84.308C25.2134 84.308 26.817 85.9117 26.817 87.8836C26.817 89.8556 25.2134 91.4592 23.2414 91.4592Z" fill="#002838"/>
<path d="M23.2414 73.5811C15.3554 73.5811 8.93896 79.9975 8.93896 87.8835C8.93896 95.7695 15.3554 102.186 23.2414 102.186C31.1274 102.186 37.5438 95.7695 37.5438 87.8835C37.5438 79.9975 31.1274 73.5811 23.2414 73.5811ZM23.2414 98.6103C17.3256 98.6103 12.5146 93.7993 12.5146 87.8835C12.5146 81.9676 17.3256 77.1567 23.2414 77.1567C29.1572 77.1567 33.9682 81.9676 33.9682 87.8835C33.9682 93.7993 29.1572 98.6103 23.2414 98.6103Z" fill="#002838"/>
<path d="M39.3317 7.43237H71.5121V11.008H39.3317V7.43237Z" fill="black"/>
<path d="M87.7597 82.5201H110L108.906 80.0172C107.266 76.2682 104.054 73.0895 100.117 70.9763V12.7958C100.117 9.83876 97.7106 7.43237 94.7536 7.43237H85.8146V11.008H94.7536C95.7405 11.008 96.5414 11.8089 96.5414 12.7958V21.7348H14.3024V12.7958C14.3024 11.8089 15.1034 11.008 16.0902 11.008H25.0292V7.43237H16.0902C13.1332 7.43237 10.7268 9.83876 10.7268 12.7958V67.5294L11.4938 66.7624L14.3024 68.1069V25.3104H96.5414V69.428C95.3793 69.0347 94.1833 68.7326 92.9658 68.5288V32.4616C92.9658 30.4897 91.3621 28.886 89.3902 28.886H21.4536C19.4817 28.886 17.878 30.4897 17.878 32.4616V64.6421H21.4536V61.0665H32.1805V68.1069L34.9891 66.7642L35.7561 67.5294V61.0665H46.4829V77.1567H43.8727L42.8662 79.2628C42.9895 79.5417 43.1075 79.8223 43.2166 80.1048L45.0008 80.7323H46.4829H50.0585H60.7853H64.3609H74.9537L75.4703 79.8402C78.3451 74.8773 83.6799 71.7933 89.3902 71.7933C95.1558 71.7933 101.013 74.7343 104.159 78.9445H84.0268V82.8866L89.9998 96.8226H104.159C101.013 101.033 95.1558 103.974 89.3902 103.974C83.6799 103.974 78.3451 100.89 75.4703 95.9269L74.9537 95.0348H45.0008L43.2166 95.6641C43.1057 95.9448 42.9895 96.2254 42.8662 96.5061L43.8727 98.6104H72.9245C76.5394 104.151 82.7556 107.549 89.3902 107.549C97.7088 107.549 105.917 102.588 108.906 95.7499L110 93.247H92.3561L87.7597 82.5201ZM89.3902 43.1884H78.6634V32.4616H89.3902V43.1884ZM64.3609 46.7641H75.0877V57.4909H64.3609V46.7641ZM60.7853 57.4909H50.0585V46.7641H60.7853V57.4909ZM78.6634 46.7641H89.3902V57.4909H78.6634V46.7641ZM75.0877 32.4616V43.1884H64.3609V32.4616H75.0877ZM60.7853 32.4616V43.1884H50.0585V32.4616H60.7853ZM46.4829 32.4616V43.1884H35.7561V32.4616H46.4829ZM32.1805 32.4616V43.1884H21.4536V32.4616H32.1805ZM21.4536 57.4909V46.7641H32.1805V57.4909H21.4536ZM35.7561 57.4909V46.7641H46.4829V57.4909H35.7561ZM50.0585 77.1567V61.0665H60.7853V77.1567H50.0585ZM72.9245 77.1567H64.3609V61.0665H75.0877V74.4643C74.3029 75.301 73.561 76.1824 72.9245 77.1567ZM78.6634 71.4626V61.0665H89.3902V68.2177C85.5232 68.2177 81.8135 69.4012 78.6634 71.4626Z" fill="#002838"/>
<path d="M80.4512 18.1593H76.8756C73.9186 18.1593 71.5122 15.7529 71.5122 12.7959V5.64466C71.5122 2.68763 73.9186 0.28125 76.8756 0.28125H80.4512C83.4083 0.28125 85.8146 2.68763 85.8146 5.64466V12.7959C85.8146 15.7529 83.4083 18.1593 80.4512 18.1593Z" fill="#F0BC5E"/>
<path d="M33.9683 18.1593H30.3927C27.4357 18.1593 25.0293 15.7529 25.0293 12.7959V5.64466C25.0293 2.68763 27.4357 0.28125 30.3927 0.28125H33.9683C36.9253 0.28125 39.3317 2.68763 39.3317 5.64466V12.7959C39.3317 15.7529 36.9253 18.1593 33.9683 18.1593Z" fill="#F7931D"/>
<path d="M80.4512 18.1593H76.8756C73.9186 18.1593 71.5122 15.7529 71.5122 12.7959V5.64466C71.5122 2.68763 73.9186 0.28125 76.8756 0.28125H80.4512C83.4083 0.28125 85.8146 2.68763 85.8146 5.64466V12.7959C85.8146 15.7529 83.4083 18.1593 80.4512 18.1593Z" fill="#F7931D"/>
</svg>
