<svg width="74" height="74" viewBox="0 0 74 74" fill="none" xmlns="http://www.w3.org/2000/svg">
<path d="M10.949 26.2416L10.8819 26.2081L10.8148 26.2416L6.53113 28.3846L0.150665 25.1948L0.149522 11.412L54.203 0.150977H73.8502V25.9688H54.9256H54.8902L54.8586 25.9847L50.0589 28.3844L45.773 26.2415L45.7059 26.2079L45.6388 26.2415L41.3528 28.3844L37.0678 26.2416L37.0007 26.2081L36.9336 26.2416L32.6487 28.3846L28.3633 26.2415L28.2962 26.2079L28.2291 26.2415L23.9438 28.3844L19.6573 26.2413L19.5902 26.2078L19.5232 26.2413L15.2348 28.3843L10.949 26.2416ZM41.2858 23.8195L41.3529 23.8531L41.42 23.8195L45.7059 21.6766L49.9918 23.8195L50.0589 23.8531L50.1259 23.8195L52.3024 22.7313L52.3854 22.6898V22.5971V4.85411V4.66964L52.2048 4.70726L4.32218 14.6828L4.20277 14.7077L4.20278 14.8297L4.20336 22.597L4.20336 22.6897L4.28628 22.7311L6.46335 23.8195L6.53045 23.8531L6.59754 23.8195L10.8812 21.6765L15.168 23.8197L15.235 23.8532L15.3021 23.8197L19.5906 21.6767L23.8764 23.8195L23.9435 23.8531L24.0106 23.8195L28.296 21.6766L32.5813 23.8194L32.6484 23.8529L32.7155 23.8194L37.0005 21.6764L41.2858 23.8195ZM69.6472 21.9158H69.7972V21.7659V4.35381V4.20381H69.6472H56.5883H56.4383V4.35381V21.7659V21.9158H56.5883H69.6472Z" fill="#00A651" stroke="white" stroke-width="0.3"/>
<path d="M61.0914 8.85508H65.1444V17.261H61.0914V8.85508Z" fill="#00A651" stroke="white" stroke-width="0.3"/>
<path d="M36.3947 39.6952L36.5134 39.5172L36.3056 39.4663C29.1441 37.7123 21.8579 41.2889 18.7484 47.817L18.6462 48.0315H18.8838H25.0259L29.3343 54.4942L29.3788 54.561H29.4591H34.1648H34.2102L34.248 54.5358L45.851 46.8006L45.9693 46.7217L45.8969 46.5994C44.5724 44.3611 42.6973 42.486 40.459 41.1615L40.3367 41.0891L40.2578 41.2073L36.5931 46.7044L33.2207 44.4562L36.3947 39.6952ZM46.9882 59.3568L47.1594 59.528L47.2365 59.2985C48.1736 56.5084 48.2723 53.5318 47.5919 50.7526L47.541 50.5448L47.363 50.6635L42.0744 54.1893L41.9222 54.2908L42.0515 54.4201L46.9882 59.3568ZM26.1459 68.1313L25.9942 68.283L26.1888 68.3734C32.7428 71.417 40.7203 69.4963 45.1238 63.4026L45.1987 63.299L45.1083 63.2087L38.57 56.6703L38.4831 56.5834L38.3808 56.6516L35.4372 58.614H27.2097L22.9012 52.1513L22.8567 52.0845H22.7764H17.5679H17.438L17.4195 52.2132C16.6839 57.3323 18.5466 62.4509 22.4365 65.9092L22.5422 66.0032L22.6422 65.9031L26.7552 61.7902L29.621 64.656L26.1459 68.1313ZM13.2088 54.4111C13.2088 43.6929 21.9289 34.9728 32.6472 34.9728C43.3654 34.9728 52.0856 43.6928 52.0856 54.4111C52.0856 65.1295 43.3656 73.8495 32.6472 73.8495C21.9289 73.8495 13.2088 65.1293 13.2088 54.4111Z" fill="#00A651" stroke="white" stroke-width="0.3"/>
</svg>
