<svg width="248" height="239" viewBox="0 0 248 239" fill="none" xmlns="http://www.w3.org/2000/svg">
<path d="M156.753 19.4812H132.971V23.2135H156.753V19.4812Z" fill="#E6E6E6"/>
<path d="M156.753 15.7485H138.781V19.4808H156.753V15.7485Z" fill="#C9C9C9"/>
<path d="M123.988 238.959C192.465 238.959 247.977 230.971 247.977 221.117C247.977 211.263 192.465 203.275 123.988 203.275C55.5114 203.275 0 211.263 0 221.117C0 230.971 55.5114 238.959 123.988 238.959Z" fill="#F4F4F4"/>
<path d="M182.531 52.9809V69.7308H193.333L195.602 76.3761L198.416 69.7308H209.217V52.9809H182.531Z" fill="#E6E6E6"/>
<path d="M194.514 65.088C194.241 65.088 194.06 64.997 193.878 64.8149L191.065 61.1737C190.792 60.8095 190.883 60.2634 191.155 59.9903C191.518 59.7172 192.063 59.8082 192.335 60.0813L194.514 62.9033L199.96 56.9862C200.232 56.6221 200.777 56.6221 201.14 56.9862C201.503 57.2593 201.503 57.8055 201.231 58.1696L195.058 64.7239C194.968 64.997 194.786 65.088 194.514 65.088Z" fill="white"/>
<path d="M38.6646 56.895V73.5539H49.466L51.8259 80.1992L54.549 73.5539H65.3503V56.895H38.6646Z" fill="#E6E6E6"/>
<path d="M50.6493 69.0021C50.377 69.0021 50.1954 68.9111 50.0139 68.729L47.2001 65.0877C46.9278 64.7236 47.0186 64.1774 47.3816 63.9043C47.7447 63.6312 48.1986 63.7222 48.4709 64.0864L50.6493 66.9084L56.0953 60.9913C56.4584 60.6271 56.9122 60.6271 57.2753 60.9913C57.6384 61.3554 57.6384 61.8106 57.2753 62.1747L51.1031 68.82C51.1031 68.9111 50.8308 69.0021 50.6493 69.0021Z" fill="white"/>
<path d="M178.63 23.0557H69.9817V218.501H178.63V23.0557Z" fill="#77869E"/>
<path d="M169.008 45.516H79.0576V183.065H169.008V45.516Z" fill="white"/>
<path d="M124.712 211.376C130.577 211.376 135.331 206.608 135.331 200.726C135.331 194.843 130.577 190.075 124.712 190.075C118.847 190.075 114.092 194.843 114.092 200.726C114.092 206.608 118.847 211.376 124.712 211.376Z" fill="white"/>
<path opacity="0.12" d="M145.681 30.9511H115.183V35.4117H145.681V30.9511Z" fill="black"/>
<path d="M104.108 38.5975C106.865 38.5975 109.1 36.3559 109.1 33.5907C109.1 30.8256 106.865 28.584 104.108 28.584C101.351 28.584 99.1156 30.8256 99.1156 33.5907C99.1156 36.3559 101.351 38.5975 104.108 38.5975Z" fill="white"/>
<path d="M190.881 93.8541C190.609 95.8568 190.609 97.8596 190.881 99.7712C191.063 100.773 192.061 101.319 192.969 101.137C194.512 100.864 195.783 99.7712 196.146 98.3147L197.326 95.2196C197.689 93.9452 197.144 92.4887 196.055 91.7604C194.24 90.3039 191.063 91.7604 190.881 93.8541Z" fill="#F9CAC0"/>
<path opacity="0.08" d="M69.8886 156.211L70.3424 166.134L79.873 164.131L83.9575 146.926C85.5006 140.281 91.1282 135.274 97.9357 134.546C105.197 133.726 114.183 132.998 119.992 133.362C130.794 134.09 153.667 131.542 161.382 138.096C169.097 144.65 169.914 162.492 178.809 168.956V156.575L176.177 123.258L166.374 119.889L131.61 125.078L127.889 125.715L124.077 127.809L115.908 123.713L68.8901 121.71L69.8886 156.211Z" fill="black"/>
<path d="M197.236 95.8569L198.597 107.509L192.153 107.782L193.787 99.134L197.236 95.8569Z" fill="#F9CAC0"/>
<path d="M58.7238 107.873L119.901 121.801L118.812 126.99C118.812 126.99 88.2232 126.171 65.4406 130.631C42.658 135.092 58.7238 107.873 58.7238 107.873Z" fill="#68E1FD"/>
<path d="M58.7238 107.873L119.901 121.801L118.812 126.99C118.812 126.99 88.2232 126.171 65.4406 130.631C42.658 135.092 58.7238 107.873 58.7238 107.873Z" fill="#FDA134"/>
<path d="M190.702 96.1298L189.704 97.4952C189.522 97.7683 189.522 98.1325 189.794 98.3145C189.885 98.3145 189.885 98.4056 189.976 98.4056L191.337 98.6787L190.702 96.1298Z" fill="#F9CAC0"/>
<path d="M189.523 107.873L128.708 122.893L130.342 126.171C130.342 126.171 160.114 126.171 182.987 130.54C205.861 134.91 189.523 107.873 189.523 107.873Z" fill="#F9CAC0"/>
<path opacity="0.31" d="M193.335 101.045C194.151 100.863 194.878 100.499 195.513 99.8619C195.241 101.501 194.242 103.048 192.881 104.049L193.335 101.045Z" fill="#CE8172"/>
<path d="M161.928 127.809L163.471 114.336L184.982 108.783L187.433 131.086C178.81 131.723 170.097 130.631 161.928 127.809Z" fill="#68E1FD"/>
<path d="M161.928 127.809L163.471 114.336L184.982 108.783L187.433 131.086C178.81 131.723 170.097 130.631 161.928 127.809Z" fill="#FDA134"/>
<path d="M184.984 108.783C184.984 108.783 212.578 102.593 222.471 108.146C232.365 113.699 212.941 166.134 212.941 166.134L182.443 165.132C182.443 165.132 155.757 114.063 184.984 108.783Z" fill="#F7931D"/>
<path d="M191.154 215.382C191.154 215.382 189.701 217.931 187.251 217.749C184.8 217.567 183.711 219.842 185.798 220.844C187.886 221.845 194.058 219.933 194.058 219.933L194.603 215.382H191.154Z" fill="#77869E"/>
<path d="M213.485 214.836C213.485 214.836 214.484 217.566 217.025 217.749C219.566 217.931 220.202 220.388 217.933 221.026C215.663 221.663 209.945 218.841 209.945 218.841L210.127 214.289L213.485 214.836Z" fill="#77869E"/>
<path d="M182.44 165.132L190.246 215.291H195.329C195.329 215.291 190.609 177.512 198.869 172.961C207.129 168.409 208.763 215.291 208.763 215.291L214.209 214.835L214.118 163.038L182.44 165.132Z" fill="#002838"/>
<path d="M57.3651 93.8541C57.6374 95.8568 57.6374 97.8596 57.3651 99.7712C57.1835 100.773 56.1851 101.319 55.2774 101.137C53.7344 100.955 52.4637 99.7712 52.1006 98.3147L50.9206 95.2196C50.5575 93.9452 51.1021 92.4887 52.1914 91.7604C54.0067 90.3039 57.1835 91.7604 57.3651 93.8541Z" fill="#F9CAC0"/>
<path d="M51.0084 95.8569L49.7377 107.509L56.1822 107.782L54.5483 99.134L51.0084 95.8569Z" fill="#F9CAC0"/>
<path d="M57.5471 96.1298L58.6363 97.4952C58.8179 97.7683 58.8179 98.1325 58.5456 98.3145C58.4548 98.4056 58.364 98.4056 58.364 98.4056L57.0025 98.6787L57.5471 96.1298Z" fill="#F9CAC0"/>
<path opacity="0.31" d="M54.914 101.045C54.0971 100.863 53.371 100.499 52.8264 99.8619C53.0987 101.501 54.0971 103.048 55.4586 104.049L54.914 101.045Z" fill="#CE8172"/>
<path d="M63.2643 108.783C63.2643 108.783 35.671 102.593 25.7774 108.146C15.8837 113.699 35.308 166.134 35.308 166.134L65.8058 165.132C65.8058 165.132 92.4914 114.063 63.2643 108.783Z" fill="#F7931D"/>
<path d="M57.0901 215.382C57.0901 215.382 58.5424 217.931 60.9931 217.749C63.4438 217.567 64.5331 219.842 62.4454 220.844C60.3577 221.845 54.1855 219.933 54.1855 219.933L53.6409 215.382H57.0901Z" fill="#77869E"/>
<path d="M34.764 214.836C34.764 214.836 33.7655 217.566 31.3148 217.749C28.8641 217.931 28.138 220.388 30.4071 221.026C32.6763 221.663 38.3947 218.841 38.3947 218.841L38.2131 214.289L34.764 214.836Z" fill="#77869E"/>
<path opacity="0.08" d="M39.3021 112.971C39.3021 112.971 48.0158 118.615 43.5682 131.632C39.1206 144.65 38.3945 153.844 48.9235 150.658C59.4525 147.472 58.6356 132.907 58.6356 132.907L69.3462 134.545L70.3446 155.119L65.8062 165.223L39.3021 163.585L28.5008 160.854L24.507 147.199L31.8592 124.168L39.3021 112.971Z" fill="black"/>
<path d="M65.8064 165.132L58.0004 215.291H52.9174C52.9174 215.291 57.6373 177.512 49.3775 172.961C41.1176 168.409 39.4838 215.291 39.4838 215.291L34.0378 214.835L34.1285 163.038L65.8064 165.132Z" fill="#002838"/>
<path d="M33.9465 106.508C33.9465 106.508 16.7915 103.595 16.7915 130.722C16.7915 157.85 20.9668 181.973 60.6321 157.759L57.6368 153.116C57.6368 153.116 36.3065 162.583 31.7681 154.3C27.2297 146.016 49.4677 111.059 33.9465 106.508Z" fill="#68E1FD"/>
<path d="M33.9465 106.508C33.9465 106.508 16.7915 103.595 16.7915 130.722C16.7915 157.85 20.9668 181.973 60.6321 157.759L57.6368 153.116C57.6368 153.116 36.3065 162.583 31.7681 154.3C27.2297 146.016 49.4677 111.059 33.9465 106.508Z" fill="#FDA134"/>
<path d="M65.3011 130.663L59.8307 152.469L74.3551 156.134L79.8254 134.328L65.3011 130.663Z" fill="#FFD200"/>
<path opacity="0.08" d="M212.486 114.336C212.486 114.336 205.86 119.616 209.854 131.086C213.848 142.556 210.036 162.037 198.508 164.131L214.029 163.13L221.926 137.003L212.486 114.336Z" fill="black"/>
<path d="M56.7273 94.0362C56.455 94.1272 56.1827 94.2183 55.9104 94.2183C55.5473 94.3093 55.1843 94.4003 54.8212 94.5824L54.5489 94.6734C54.0951 94.8555 53.8228 95.3107 53.8228 95.7658C54.0043 97.4954 52.7335 99.043 51.009 99.225C50.9182 99.225 50.8274 99.225 50.7367 99.225C50.7367 99.225 47.9229 95.0376 50.1921 91.7604C51.5536 89.9398 53.5504 88.8474 55.8196 88.7563C57.2719 88.7563 58.5427 89.9398 58.5427 91.3963C58.4519 92.6707 57.7257 93.6721 56.7273 94.0362Z" fill="#002838"/>
<path d="M53.7325 97.7685C53.9141 97.4954 54.0048 97.1313 53.8233 96.8582C53.6418 96.403 53.1879 95.7658 52.5525 95.8569C51.9172 95.9479 51.7356 97.0403 52.1895 97.6775C52.4618 98.0416 53.0972 98.1327 53.4602 97.8596C53.551 97.7685 53.551 97.7685 53.6418 97.6775L53.7325 97.7685Z" fill="#F9CAC0"/>
<path d="M189.157 90.2128C189.611 90.9411 189.974 91.6693 190.065 92.4886C190.065 93.399 190.791 94.1272 191.608 94.1272C191.79 94.1272 191.971 94.1272 192.153 94.0362C194.876 93.581 193.968 98.6788 197.508 98.1326C198.597 98.1326 199.596 97.3133 199.868 96.221C200.14 95.1286 200.866 94.2182 201.865 93.6721C202.591 93.3079 203.226 92.5797 202.863 91.1231C202.046 87.846 199.505 91.9424 198.597 88.3922C197.689 84.8419 196.237 85.3881 195.511 86.0253C194.785 86.6626 194.059 87.6639 192.879 86.4805C191.699 85.2971 187.523 87.6639 189.157 90.2128Z" fill="#002838"/>
<path d="M194.605 97.7685C194.423 97.4954 194.332 97.1313 194.514 96.8582C194.695 96.403 195.058 95.7658 195.785 95.8569C196.511 95.9479 196.601 97.0403 196.148 97.6775C195.875 98.0416 195.24 98.1327 194.877 97.8596C194.786 97.7685 194.786 97.7685 194.695 97.6775L194.605 97.7685Z" fill="#F9CAC0"/>
<path d="M119.722 122.529L122.082 123.257C123.443 123.621 124.442 124.714 124.714 126.079C124.986 127.354 124.986 128.719 123.988 129.083C122.082 129.903 118.996 125.806 118.996 125.806L119.722 122.529Z" fill="#F9CAC0"/>
<path d="M129.979 122.529L127.801 123.166C126.349 123.621 125.259 124.805 124.987 126.352C124.806 127.536 124.896 128.628 125.713 128.992C127.619 129.812 130.705 125.715 130.705 125.715L129.979 122.529Z" fill="#F9CAC0"/>
<path d="M123.897 112.971C138.134 112.971 149.675 101.396 149.675 87.1176C149.675 72.8393 138.134 61.2645 123.897 61.2645C109.66 61.2645 98.1191 72.8393 98.1191 87.1176C98.1191 101.396 109.66 112.971 123.897 112.971Z" fill="#00A651"/>
<path d="M114.456 87.4819L120.719 97.5865L133.335 79.4711" stroke="white" stroke-width="5" stroke-linecap="round" stroke-linejoin="round"/>
<path d="M219.839 106.963C225.648 107.509 233.091 112.516 238.083 131.814L220.383 138.187L212.85 116.066C211.67 112.516 213.576 108.601 217.116 107.327C218.023 106.963 218.931 106.872 219.839 106.963Z" fill="#68E1FD"/>
<path d="M219.839 106.963C225.648 107.509 233.091 112.516 238.083 131.814L220.383 138.187L212.85 116.066C211.67 112.516 213.576 108.601 217.116 107.327C218.023 106.963 218.931 106.872 219.839 106.963Z" fill="#FDA134"/>
<path d="M47.3808 106.963C47.3808 106.963 47.7439 102.411 53.0992 104.05C58.4545 105.688 58.7268 107.873 58.7268 107.873L47.3808 106.963Z" fill="#68E1FD"/>
<path d="M47.3808 106.963C47.3808 106.963 47.7439 102.411 53.0992 104.05C58.4545 105.688 58.7268 107.873 58.7268 107.873L47.3808 106.963Z" fill="#F7931D"/>
<path d="M237.173 131.814L241.257 146.47C243.254 153.662 239.26 161.218 232.18 163.493L219.745 166.588C218.384 166.953 217.294 167.954 216.931 169.319C216.568 170.594 215.933 172.05 214.844 171.959C210.396 171.595 214.662 165.223 214.662 165.223L226.825 157.667C229.911 155.756 231 151.75 229.367 148.473L223.557 137.185L237.173 131.814Z" fill="#F9CAC0"/>
<path d="M145.047 141.828H104.11V160.763H145.047V141.828Z" fill="#FFD200"/>
<path opacity="0.34" d="M137.694 167.863H111.644V173.416H137.694V167.863Z" fill="#C9C9C9"/>
<path d="M58.09 154.117C58.09 154.117 60.9946 149.657 63.7176 151.932C66.4406 154.208 59.7238 156.757 59.7238 156.757L58.09 154.117Z" fill="#F9CAC0"/>
<path opacity="0.46" d="M140.962 145.014H119.178V149.748H140.962V145.014Z" fill="white"/>
<path d="M154.757 14.8382C154.757 14.8382 148.131 13.0176 146.678 6.82742C146.678 6.82742 156.935 4.73369 157.298 15.3844L154.757 14.8382Z" fill="#20CE6A"/>
<path d="M155.572 14.201C155.572 14.201 150.943 6.8274 155.028 0C155.028 0 162.834 5.00676 159.385 14.292L155.572 14.201Z" fill="#0ABF5B"/>
<path d="M156.755 14.201C156.755 14.201 159.206 6.46332 166.649 4.91577C166.649 4.91577 168.01 9.92253 161.838 14.201H156.755Z" fill="#00A651"/>
<path d="M151.942 14.0191L153.303 23.2133L161.745 23.3043L163.016 14.0191H151.942Z" fill="#002838"/>
</svg>
