<svg width="74" height="74" viewBox="0 0 74 74" fill="none" xmlns="http://www.w3.org/2000/svg">
<path d="M0.15 30.3206V0.15H43.3794V4.35294V4.50294H43.5294H52.0853V8.70588V8.85588H52.2353H60.7912V13.0588V13.2088H60.9412H73.85V17.2618H60.9412H60.7912V17.4118V21.6147H52.2353H52.0853V21.7647V25.9676H43.5294H43.3794V26.1176V30.3206H34.8235H34.6735V30.4706V38.275V38.3371L34.7175 38.381L38.3269 41.9904L35.4611 44.8562L31.8516 41.2469L31.8077 41.2029H31.7456H26.1176H25.9676V41.3529V52.2353V52.3853H26.1176H28.2941C36.612 52.3853 43.3794 59.1527 43.3794 67.4706V73.85H0.15V51.8782L7.91605 30.5219L7.98923 30.3206H7.77508H0.15ZM39.1765 69.7971H39.3265V69.6471V67.4706C39.3265 61.3872 34.3775 56.4382 28.2941 56.4382H4.35294H4.20294V56.5882V60.9412V61.0912H4.35294H28.1441V65.1441H4.35294H4.20294V65.2941V69.6471V69.7971H4.35294H39.1765ZM4.35141 52.184L4.27823 52.3853H4.49238H21.7647H21.9147V52.2353V30.4706V30.3206H21.7647H12.4068H12.3017L12.2658 30.4193L4.35141 52.184ZM30.4706 37.15H30.6206V37V30.4706V30.3206H30.4706H26.1176H25.9676V30.4706V37V37.15H26.1176H30.4706ZM39.1765 26.2676H39.3265V26.1176V4.35294V4.20294H39.1765H4.35294H4.20294V4.35294V26.1176V26.2676H4.35294H39.1765ZM47.8824 21.9147H48.0324V21.7647V8.70588V8.55588H47.8824H43.5294H43.3794V8.70588V21.7647V21.9147H43.5294H47.8824ZM56.5882 17.5618H56.7382V17.4118V13.0588V12.9088H56.5882H52.2353H52.0853V13.0588V17.4118V17.5618H52.2353H56.5882Z" fill="#00A651" stroke="white" stroke-width="0.3"/>
<path d="M21.6146 15.2353C21.6146 18.7528 18.7527 21.6148 15.2352 21.6148C11.7176 21.6148 8.85581 18.7528 8.85581 15.2353C8.85581 11.7179 11.7176 8.85592 15.2352 8.85592C18.7527 8.85592 21.6146 11.7179 21.6146 15.2353ZM17.5617 15.2353C17.5617 13.9524 16.5182 12.9089 15.2352 12.9089C13.9521 12.9089 12.9088 13.9524 12.9088 15.2353C12.9088 16.5183 13.9521 17.5618 15.2352 17.5618C16.5182 17.5618 17.5617 16.5183 17.5617 15.2353Z" fill="#00A651" stroke="white" stroke-width="0.3"/>
<path d="M26.2677 8.85592H34.6736V12.9089H26.2677V8.85592Z" fill="#00A651" stroke="white" stroke-width="0.3"/>
<path d="M26.2677 17.5618H34.6736V21.6147H26.2677V17.5618Z" fill="#00A651" stroke="white" stroke-width="0.3"/>
</svg>
