<svg width="48" height="74" viewBox="0 0 48 74" fill="none" xmlns="http://www.w3.org/2000/svg">
<path d="M0.208594 41.5175V0.15H47.7909V0.151348V0.20252V0.254052V0.305941V0.358186V0.410787V0.463741V0.517047V0.570703V0.624709V0.679062V0.733762V0.788807V0.844195V0.899926V0.955997V1.01241V1.06915V1.12624V1.18366V1.24141V1.2995V1.35791V1.41666V1.47573V1.53513V1.59485V1.6549V1.71527V1.77596V1.83697V1.8983V1.95994V2.0219V2.08417V2.14676V2.20966V2.27286V2.33637V2.40019V2.46432V2.52874V2.59348V2.65851V2.72384V2.78946V2.85539V2.92161V2.98812V3.05493V3.12203V3.18941V3.25708V3.32505V3.39329V3.46182V3.53063V3.59972V3.6691V3.73875V3.80867V3.87887V3.94935V4.0201V4.09111V4.1624V4.23396V4.30578V4.37787V4.45022V4.52283V4.59571V4.66884V4.74223V4.81588V4.88979V4.96394V5.03835V5.11301V5.18792V5.26308V5.33849V5.41414V5.49003V5.56617V5.64255V5.71916V5.79602V5.87311V5.95044V6.028V6.10579V6.18382V6.26207V6.34055V6.41926V6.4982V6.57735V6.65673V6.73634V6.81616V6.8962V6.97645V7.05692V7.13761V7.21851V7.29962V7.38094V7.46246V7.5442V7.62613V7.70828V7.79062V7.87317V7.95591V8.03886V8.122V8.20534V8.28887V8.37259V8.4565V8.54061V8.6249V8.70938V8.79404V8.87889V8.96392V9.04914V9.13453V9.2201V9.30584V9.39177V9.47786V9.56413V9.65057V9.73718V9.82396V9.91091V9.99802V10.0853V10.1727V10.2603V10.3481V10.436V10.5241V10.6123V10.7007V10.7892V10.8779V10.9668V11.0557V11.1449V11.2341V11.3236V11.4131V11.5028V11.5927V11.6827V11.7728V11.863V11.9534V12.044V12.1346V12.2254V12.3163V12.4074V12.4985V12.5898V12.6812V12.7728V12.8644V12.9562V13.0481V13.1401V13.2322V13.3244V13.4168V13.5092V13.6018V13.6945V13.7872V13.8801V13.9731V14.0662V14.1594V14.2527V14.346V14.4395V14.5331V14.6267V14.7205V14.8143V14.9083V15.0023V15.0964V15.1906V15.2849V15.3792V15.4736V15.5682V15.6627V15.7574V15.8522V15.947V16.0419V16.1368V16.2318V16.3269V16.4221V16.5173V16.6126V16.7079V16.8033V16.8988V16.9943V17.0899V17.1855V17.2812V17.3769V17.4727V17.5686V17.6644V17.7604V17.8563V17.9524V18.0484V18.1445V18.2406V18.3368V18.433V18.5293V18.6256V18.7219V18.8182V18.9146V19.011V19.1074V19.2038V19.3003V19.3968V19.4933V19.5898V19.6864V19.7829V19.8795V19.9761V20.0727V20.1693V20.2659V20.3626V20.4592V20.5558V20.6525V20.7491V20.8458V20.9424V21.039V21.1357V21.2323V21.3289V21.4255V21.5221V21.6187V21.7153V21.8119V21.9084V22.005V22.1015V22.198V22.2945V22.3909V22.4874V22.5838V22.6801V22.7765V22.8728V22.9691V23.0654V23.1616V23.2578V23.3539V23.45V23.5461V23.6421V23.7381V23.8341V23.93V24.0258V24.1216V24.2174V24.3131V24.4088V24.5044V24.5999V24.6954V24.7908V24.8862V24.9815V25.0767V25.1719V25.267V25.3621V25.4571V25.552V25.6468V25.7416V25.8363V25.9309V26.0255V26.1199V26.2143V26.3086V26.4028V26.497V26.591V26.685V26.7789V26.8727V26.9664V27.06V27.1535V27.2469V27.3402V27.4335V27.5266V27.6196V27.7125V27.8054V27.8981V27.9907V28.0832V28.1756V28.2679V28.36V28.4521V28.544V28.6358V28.7275V28.8191V28.9106V29.0019V29.0931V29.1842V29.2752V29.366V29.4567V29.5473V29.6378V29.7281V29.8183V29.9083V29.9982V30.088V30.1776V30.2671V30.3564V30.4456V30.5347V30.6236V30.7123V30.8009V30.8893V30.9776V31.0658V31.1538V31.2416V31.3292V31.4167V31.5041V31.5913V31.6783V31.7651V31.8518V31.9383V32.0247V32.1108V32.1968V32.2826V32.3683V32.4538V32.539V32.6241V32.7091V32.7938V32.8784V32.9627V33.0469V33.1309V33.2147V33.2983V33.3817V33.465V33.548V33.6308V33.7134V33.7959V33.8781V33.9601V34.0419V34.1236V34.205V34.2862V34.3671V34.4479V34.5285V34.6088V34.6889V34.7689V34.8485V34.928V35.0073V35.0863V35.1651V35.2437V35.322V35.4001V35.478V35.5557V35.6331V35.7103V35.7873V35.864V35.9404V36.0167V36.0927V36.1684V36.2439V36.3192V36.3942V36.469V36.5435V36.6177V36.6918V36.7655V36.839V36.9123V36.9852V37.058V37.1304V37.2026V37.2745V37.3462V37.4176V37.4887V37.5596V37.6302V37.7005V37.7705V37.8403V37.9098V37.979V38.0479V38.1166V38.1849V38.253V38.3208V38.3883V38.4555V38.5224V38.5891V38.6554V38.7215V38.7872V38.8527V38.9178V38.9827V39.0472V39.1115V39.1754V39.2391V39.3024V39.3654V39.4281V39.4905V39.5526V39.6144V39.6759V39.737V39.7978V39.8583V39.9185V39.9784V40.0379V40.0971V40.156V40.2145V40.2728V40.3307V40.3882V40.4454V40.5023V40.5589V40.6151V40.671V40.7265V40.7817V40.8365V40.891V40.9452V40.999V41.0524V41.1055V41.1583V41.2107V41.2627V41.3144V41.3657V41.4166V41.4672V41.5175C47.7909 46.2351 43.9526 50.0734 39.2351 50.0734H30.7448H30.5799L30.5955 50.2375L32.0064 65.1483C32.0064 65.1485 32.0064 65.1488 32.0065 65.149C32.1922 67.3814 31.4288 69.6073 29.9121 71.2558C28.3952 72.9043 26.2401 73.85 23.9998 73.85C21.7595 73.85 19.6043 72.9043 18.0874 71.2558C16.5707 69.6073 15.8073 67.3814 15.9931 65.1491C17.3167 51.1616 17.3814 50.4772 17.3977 50.3047L17.4041 50.2375L17.4196 50.0734H17.2547H8.76448C4.0469 50.0734 0.208594 46.2351 0.208594 41.5175ZM43.738 4.35294V4.20294H43.588H4.41154H4.26154V4.35294V8.70588V8.85588H4.41154H5.22699C8.69484 8.85588 11.5164 11.6775 11.5164 15.1453C11.5164 15.7781 11.755 16.3795 12.1882 16.8374C13.1132 17.8171 14.5742 17.77 15.4653 16.9027L15.3606 16.7952L15.4653 16.9027C15.8831 16.4961 16.1283 15.9614 16.1647 15.3853H20.2223V23.8512C20.2223 25.144 21.2299 26.2324 22.4827 26.267L22.4827 26.267C23.7951 26.3028 24.8753 25.2527 24.8753 23.9412V19.7382H28.9329C29.0117 20.9818 30.0631 21.9502 31.3218 21.9141C32.5737 21.8795 33.5811 20.7909 33.5811 19.4983V15.1453C33.5811 11.6775 36.4027 8.85588 39.8706 8.85588H43.588H43.738V8.70588V4.35294ZM27.9684 65.4964L27.9682 65.4943L26.5219 50.2092L26.509 50.0734H26.3726H21.6271H21.4907L21.4778 50.2092L20.0313 65.4943L20.0311 65.4964C19.8429 67.8341 21.6917 69.7971 23.9998 69.7971C26.3442 69.7971 28.1537 67.7979 27.9684 65.4964ZM4.41154 39.0265H4.26154V39.1765V41.5175C4.26154 44.0005 6.28142 46.0204 8.76448 46.0204H39.2351C41.7181 46.0204 43.738 44.0005 43.738 41.5175V39.1765V39.0265H43.588H4.41154ZM4.26154 34.8235V34.9735H4.41154H43.588H43.738V34.8235V13.0588V12.9088H43.588H39.8706C38.6373 12.9088 37.6341 13.912 37.6341 15.1453V19.4983C37.6341 22.9712 34.8493 25.8713 31.4323 25.9655L31.4322 25.9655C30.5533 25.9906 29.6969 25.8372 28.9058 25.524L28.7497 25.4622L28.7058 25.6242C27.9913 28.2592 25.5592 30.3207 22.551 30.321C19.0317 30.321 16.1694 27.3687 16.1694 23.8514V21.3957V21.1838L15.9695 21.2543C13.6875 22.059 11.0417 21.5267 9.24267 19.6214L9.24257 19.6213C8.09573 18.409 7.4635 16.8192 7.4635 15.1453C7.4635 13.912 6.46031 12.9088 5.22699 12.9088H4.41154H4.26154V13.0588V34.8235Z" fill="#00A651" stroke="white" stroke-width="0.3"/>
</svg>
