<svg width="26" height="26" viewBox="0 0 26 26" fill="none" xmlns="http://www.w3.org/2000/svg">
<g clip-path="url(#clip0)">
<path d="M7.1973 7.24829C8.68445 5.7486 10.744 4.818 13.0081 4.82019C15.0955 4.82223 17.0001 5.60595 18.4445 6.89474C18.6515 7.07939 18.9837 7.06726 19.1798 6.87113L21.83 4.22102C22.0457 4.00522 22.0398 3.65259 21.8155 3.44561C19.4534 1.26533 16.2816 -0.0503212 12.8019 0.00147488C9.28383 0.0538317 6.10153 1.51518 3.78977 3.84076C3.53201 4.10004 3.83351 7.23906 3.83351 7.23906C3.83351 7.23906 5.74624 8.71163 7.1973 7.24829Z" fill="url(#paint0_linear)"/>
<path d="M7.19812 7.24826C8.68527 5.74857 10.7448 4.81798 13.0089 4.82017C15.0964 4.82221 17.0009 5.60593 18.4454 6.89471C18.6523 7.07936 18.9845 7.06723 19.1807 6.87111L20.7015 5.35031C20.569 5.24794 20.4384 5.14048 20.3109 5.02761C18.3283 3.27169 15.7487 2.15435 12.8851 2.18443C9.91533 2.21563 7.24788 3.42692 5.31914 5.36917C5.10823 5.58156 5.02539 7.2424 5.02539 7.2424C5.02539 7.2424 5.27285 7.22002 7.19812 7.24826Z" fill="url(#paint1_linear)"/>
<path d="M4.82072 12.926C4.80033 15.2273 5.73021 17.3114 7.24127 18.8097L6.08146 21.3126L3.83323 22.2177C1.46978 19.867 0.00511144 16.614 1.34048e-05 13.0188C-0.00508463 9.44866 1.44429 6.19968 3.7899 3.84082L7.19742 7.24835C5.74652 8.71149 4.84009 10.7165 4.82072 12.926Z" fill="url(#paint2_linear)"/>
<path d="M4.82018 12.9262C4.79979 15.2274 5.72967 17.3115 7.24073 18.8098L5.3774 20.6737C3.4432 18.7527 2.2314 16.1053 2.185 13.175C2.13657 10.1269 3.33818 7.36321 5.31826 5.36987L7.19689 7.2485C5.74599 8.71164 4.83955 10.7167 4.82018 12.9262Z" fill="url(#paint3_linear)"/>
<path d="M18.7659 18.8163C17.2753 20.2933 15.2175 21.1939 12.9475 21.1796C10.7226 21.1655 8.70883 20.2628 7.24233 18.8091L3.83398 22.2174C6.17557 24.5461 9.39906 25.989 12.9597 25.9999C16.5276 26.0109 19.7724 24.5437 22.1331 22.1836L21.159 20.1008L18.7659 18.8163Z" fill="url(#paint4_linear)"/>
<path d="M18.7653 18.8161C17.2746 20.2931 15.2169 21.194 12.947 21.1797C10.7221 21.1657 8.70838 20.2629 7.24188 18.8091L5.37793 20.673C7.33318 22.6154 10.0264 23.8159 13 23.8159C15.9737 23.8159 18.6668 22.6154 20.6221 20.673L18.7653 18.8161Z" fill="#28A265"/>
<path d="M26 11.665C26 11.4087 25.7922 11.2009 25.5359 11.2009H13.4352C13.2057 11.2009 13.0195 11.3871 13.0195 11.6166V15.6176C13.0195 15.8472 13.2057 16.0333 13.4352 16.0333H19.3449C19.9536 16.0333 20.3316 16.6976 20.0185 17.2196C19.6691 17.8022 19.2487 18.3361 18.7702 18.811C18.7684 18.8128 18.7672 18.8146 18.7654 18.8164L22.1331 22.1842C22.2921 22.0252 22.4535 21.8661 22.6161 21.7066C24.7203 19.373 26 16.2769 26 12.8994V11.665Z" fill="url(#paint5_linear)"/>
<path d="M23.2694 16.4045C23.7451 14.9669 22.6796 13.4844 21.1655 13.4844H13.0195V15.6176C13.0195 15.8472 13.2057 16.0333 13.4352 16.0333H19.3449C19.9536 16.0333 20.3316 16.6976 20.0185 17.2196C19.6702 17.8003 19.2514 18.3325 18.7748 18.8063C18.7715 18.8097 18.7688 18.813 18.7654 18.8164L20.6221 20.6731C21.6091 19.6938 22.4074 18.5248 22.9595 17.2258C23.0732 16.9572 23.1767 16.6834 23.2694 16.4045Z" fill="url(#paint6_linear)"/>
</g>
<defs>
<linearGradient id="paint0_linear" x1="3.68557" y1="3.94812" x2="21.9878" y2="3.94812" gradientUnits="userSpaceOnUse">
<stop stop-color="#FF637B"/>
<stop offset="1" stop-color="#F90217"/>
</linearGradient>
<linearGradient id="paint1_linear" x1="17.5468" y1="10.9799" x2="6.04801" y2="-0.519013" gradientUnits="userSpaceOnUse">
<stop stop-color="#FF637B"/>
<stop offset="1" stop-color="#F90217"/>
</linearGradient>
<linearGradient id="paint2_linear" x1="0.309159" y1="9.52692" x2="7.37851" y2="16.5963" gradientUnits="userSpaceOnUse">
<stop stop-color="#FFD833"/>
<stop offset="1" stop-color="#F2B631"/>
</linearGradient>
<linearGradient id="paint3_linear" x1="8.98436" y1="16.6584" x2="1.43085" y2="9.10485" gradientUnits="userSpaceOnUse">
<stop stop-color="#FFD833"/>
<stop offset="1" stop-color="#F2B631"/>
</linearGradient>
<linearGradient id="paint4_linear" x1="11.8807" y1="20.5432" x2="15.8251" y2="24.4876" gradientUnits="userSpaceOnUse">
<stop stop-color="#28A265"/>
<stop offset="1" stop-color="#28895E"/>
</linearGradient>
<linearGradient id="paint5_linear" x1="18.556" y1="12.6775" x2="24.6061" y2="18.7276" gradientUnits="userSpaceOnUse">
<stop stop-color="#7FAEF4"/>
<stop offset="1" stop-color="#4C8DF1"/>
</linearGradient>
<linearGradient id="paint6_linear" x1="23.6228" y1="20.7082" x2="15.7685" y2="12.8539" gradientUnits="userSpaceOnUse">
<stop stop-color="#7FAEF4"/>
<stop offset="1" stop-color="#4C8DF1"/>
</linearGradient>
<clipPath id="clip0">
<rect width="26" height="26" fill="white"/>
</clipPath>
</defs>
</svg>
