<svg width="17" height="22" viewBox="0 0 17 22" fill="none" xmlns="http://www.w3.org/2000/svg">
<path d="M14.4375 22H2.0625C0.925833 22 0 21.0751 0 19.9375V10.3125C0 9.17492 0.925833 8.25 2.0625 8.25H14.4375C15.5742 8.25 16.5 9.17492 16.5 10.3125V19.9375C16.5 21.0751 15.5742 22 14.4375 22ZM2.0625 9.625C1.68392 9.625 1.375 9.933 1.375 10.3125V19.9375C1.375 20.317 1.68392 20.625 2.0625 20.625H14.4375C14.8161 20.625 15.125 20.317 15.125 19.9375V10.3125C15.125 9.933 14.8161 9.625 14.4375 9.625H2.0625Z" fill="#77869E" fill-opacity="0.52"/>
<path d="M13.0625 9.625C12.683 9.625 12.375 9.317 12.375 8.9375V5.5C12.375 3.22575 10.5243 1.375 8.25 1.375C5.97575 1.375 4.125 3.22575 4.125 5.5V8.9375C4.125 9.317 3.817 9.625 3.4375 9.625C3.058 9.625 2.75 9.317 2.75 8.9375V5.5C2.75 2.46675 5.21675 0 8.25 0C11.2832 0 13.75 2.46675 13.75 5.5V8.9375C13.75 9.317 13.442 9.625 13.0625 9.625Z" fill="#77869E" fill-opacity="0.52"/>
<path d="M8.25032 15.5837C7.23924 15.5837 6.41699 14.7614 6.41699 13.7503C6.41699 12.7392 7.23924 11.917 8.25032 11.917C9.26141 11.917 10.0837 12.7392 10.0837 13.7503C10.0837 14.7614 9.26141 15.5837 8.25032 15.5837ZM8.25032 13.292C7.99824 13.292 7.79199 13.4973 7.79199 13.7503C7.79199 14.0033 7.99824 14.2087 8.25032 14.2087C8.50241 14.2087 8.70866 14.0033 8.70866 13.7503C8.70866 13.4973 8.50241 13.292 8.25032 13.292Z" fill="#77869E" fill-opacity="0.52"/>
<path d="M8.25 18.3333C7.8705 18.3333 7.5625 18.0253 7.5625 17.6458V15.125C7.5625 14.7455 7.8705 14.4375 8.25 14.4375C8.6295 14.4375 8.9375 14.7455 8.9375 15.125V17.6458C8.9375 18.0253 8.6295 18.3333 8.25 18.3333Z" fill="#77869E" fill-opacity="0.52"/>
</svg>
