<svg width="27" height="27" viewBox="0 0 27 27" fill="none" xmlns="http://www.w3.org/2000/svg">
<path d="M25.5096 4.77151e-08H1.48913C0.666595 0.000412035 -0.000205946 0.667625 4.77151e-08 1.49036V25.5109C0.000412035 26.3334 0.667625 27.0002 1.49036 27H25.5096C26.3326 27.0002 26.9998 26.3332 27 25.5103V25.5096V1.48913C26.9996 0.666595 26.3324 -0.000205946 25.5096 4.77151e-08Z" fill="white"/>
<path d="M18.6416 27V16.5586H22.1616L22.689 12.4717H18.6416V9.86874C18.6416 8.68819 18.9693 7.88378 20.6622 7.88378H22.8076V4.23831C22.4344 4.18867 21.1537 4.07764 19.6635 4.07764C16.5522 4.07764 14.4229 5.97607 14.4229 9.46396V12.4717H10.916V16.5586H14.4229V27H18.6416Z" fill="#4267B2"/>
</svg>
