<svg xmlns="http://www.w3.org/2000/svg" width="24" height="24" viewBox="0 0 24 24">
  <g id="Group_4539" data-name="Group 4539" transform="translate(-293 -839)">
    <g id="Color" transform="translate(293 839)">
      <g id="Group_4496" data-name="Group 4496">
        <path id="Path_9218" data-name="Path 9218" d="M22.25,0H1.75A1.752,1.752,0,0,0,0,1.75v2.5A1.752,1.752,0,0,0,1.75,6h20.5A1.752,1.752,0,0,0,24,4.25V1.75A1.752,1.752,0,0,0,22.25,0Z" fill="#f7941d"/>
      </g>
      <g id="Group_4497" data-name="Group 4497">
        <path id="Path_9226" data-name="Path 9226" d="M3,0A3,3,0,1,1,0,3,3,3,0,0,1,3,0Z" transform="translate(18 9)" fill="#f7941d"/>
      </g>
      <g id="Group_4498" data-name="Group 4498">
        <circle id="Ellipse_89" data-name="Ellipse 89" cx="3" cy="3" r="3" transform="translate(18 18)" fill="#f7941d"/>
      </g>
    </g>
    <g id="regular" transform="translate(293 839)">
      <g id="Group_4499" data-name="Group 4499">
        <path id="Path_9219" data-name="Path 9219" d="M22.25,6H1.75A1.752,1.752,0,0,1,0,4.25V1.75A1.752,1.752,0,0,1,1.75,0h20.5A1.752,1.752,0,0,1,24,1.75v2.5A1.752,1.752,0,0,1,22.25,6ZM1.75,1.5a.25.25,0,0,0-.25.25v2.5a.25.25,0,0,0,.25.25h20.5a.25.25,0,0,0,.25-.25V1.75a.25.25,0,0,0-.25-.25Z" fill="#002838"/>
      </g>
      <g id="Group_4500" data-name="Group 4500">
        <path id="Path_9220" data-name="Path 9220" d="M15.25,11.5H.75a.75.75,0,0,1,0-1.5h14.5a.75.75,0,0,1,0,1.5Z" fill="#002838"/>
      </g>
      <g id="Group_4501" data-name="Group 4501">
        <path id="Path_9221" data-name="Path 9221" d="M15.25,14.5H.75a.75.75,0,0,1,0-1.5h14.5a.75.75,0,0,1,0,1.5Z" fill="#002838"/>
      </g>
      <g id="Group_4502" data-name="Group 4502">
        <path id="Path_9222" data-name="Path 9222" d="M15.25,20.5H.75a.75.75,0,0,1,0-1.5h14.5a.75.75,0,0,1,0,1.5Z" fill="#002838"/>
      </g>
      <g id="Group_4503" data-name="Group 4503">
        <path id="Path_9223" data-name="Path 9223" d="M15.25,23.5H.75a.75.75,0,0,1,0-1.5h14.5a.75.75,0,0,1,0,1.5Z" fill="#002838"/>
      </g>
      <g id="Group_4504" data-name="Group 4504">
        <path id="Path_9224" data-name="Path 9224" d="M21,15a3,3,0,1,1,3-3A3,3,0,0,1,21,15Zm0-4.5A1.5,1.5,0,1,0,22.5,12,1.5,1.5,0,0,0,21,10.5Z" fill="#002838"/>
      </g>
      <g id="Group_4505" data-name="Group 4505">
        <path id="Path_9225" data-name="Path 9225" d="M21,24a3,3,0,1,1,3-3A3,3,0,0,1,21,24Zm0-4.5A1.5,1.5,0,1,0,22.5,21,1.5,1.5,0,0,0,21,19.5Z" fill="#002838"/>
      </g>
    </g>
  </g>
</svg>
