<svg xmlns="http://www.w3.org/2000/svg" width="19.292" height="19.039" viewBox="0 0 19.292 19.039">
  <g id="Group_4748" data-name="Group 4748" transform="translate(-39.354 -410.391)">
    <g id="Group_4623" data-name="Group 4623" transform="translate(39.354 414.344)">
      <g id="Group_4622" data-name="Group 4622" transform="translate(0 0)">
        <path id="Path_9413" data-name="Path 9413" d="M17.068,69.067a.283.283,0,0,0-.4,0l-.294.294-.724-.724a.283.283,0,0,0-.341-.045,4.511,4.511,0,0,1-1.076.445.283.283,0,0,0-.209.273v1.024H12.072V69.31a.283.283,0,0,0-.209-.273,4.513,4.513,0,0,1-1.076-.445.283.283,0,0,0-.341.045l-.724.724-1.38-1.38.724-.724a.283.283,0,0,0,.045-.341,4.512,4.512,0,0,1-.445-1.075.283.283,0,0,0-.273-.209H7.37V65.6s0,0,0,0V63.679H8.394a.283.283,0,0,0,.273-.209,4.513,4.513,0,0,1,.445-1.075.283.283,0,0,0-.045-.341l-.724-.724,1.38-1.38.724.724a.283.283,0,0,0,.341.045,4.511,4.511,0,0,1,1.076-.445A.283.283,0,0,0,12.072,60V58.977h.572a.283.283,0,0,0,0-.565h-.593a.545.545,0,0,0-.544.544v.833a5.078,5.078,0,0,0-.81.336l-.447-.447-.332-1.026a.5.5,0,0,0-.628-.32l-.62.2a4.235,4.235,0,0,0-.428-.5l.3-.58a.5.5,0,0,0-.217-.671l-1.465-.748a.5.5,0,0,0-.671.217l-.3.58a4.23,4.23,0,0,0-.657-.052l-.2-.619a.5.5,0,0,0-.628-.321l-1.565.507a.5.5,0,0,0-.32.628l.2.619a4.232,4.232,0,0,0-.5.428l-.58-.3a.5.5,0,0,0-.671.217L.22,59.406a.5.5,0,0,0,.217.671l.58.3a4.251,4.251,0,0,0-.052.657l-.62.2a.5.5,0,0,0-.32.628l.507,1.564a.5.5,0,0,0,.628.321l.62-.2a4.235,4.235,0,0,0,.428.5l-.3.58a.5.5,0,0,0,.217.671l1.465.748a.5.5,0,0,0,.67-.217l.3-.58a4.24,4.24,0,0,0,.657.052l.2.62a.5.5,0,0,0,.628.32l.855-.277a.544.544,0,0,0,.448.236h.833a5.079,5.079,0,0,0,.336.81l-.589.589a.544.544,0,0,0,0,.77l1.41,1.41a.545.545,0,0,0,.77,0l.589-.589a5.079,5.079,0,0,0,.81.336v.833a.545.545,0,0,0,.544.544h1.994a.545.545,0,0,0,.544-.544v-.833a5.08,5.08,0,0,0,.81-.336l.589.589a.545.545,0,0,0,.77,0l.309-.309A.283.283,0,0,0,17.068,69.067ZM6.8,63.659V65.4l-.87.282-.245-.756a.283.283,0,0,0-.283-.2,3.67,3.67,0,0,1-.944-.075.283.283,0,0,0-.31.148l-.362.709-1.346-.687.362-.709a.283.283,0,0,0-.062-.338,3.675,3.675,0,0,1-.615-.721.283.283,0,0,0-.324-.115l-.757.245L.583,61.748l.757-.245a.283.283,0,0,0,.2-.283,3.683,3.683,0,0,1,.075-.944.283.283,0,0,0-.148-.31L.753,59.6l.687-1.346.709.362a.283.283,0,0,0,.338-.062,3.663,3.663,0,0,1,.721-.615.283.283,0,0,0,.115-.324l-.245-.757L4.514,56.4l.246.757a.283.283,0,0,0,.283.2,3.674,3.674,0,0,1,.944.075.283.283,0,0,0,.31-.148l.362-.709L8,57.253l-.362.709a.283.283,0,0,0,.062.338,3.672,3.672,0,0,1,.615.721.283.283,0,0,0,.324.115L9.4,58.89l.165.509a.541.541,0,0,0-.228.136l-1.41,1.41a.544.544,0,0,0,0,.77l.589.589a5.079,5.079,0,0,0-.336.81H7.349A.545.545,0,0,0,6.8,63.659Z" transform="translate(0 -55.813)" fill="#696767"/>
      </g>
    </g>
    <g id="Group_4625" data-name="Group 4625" transform="translate(52.766 416.942)">
      <g id="Group_4624" data-name="Group 4624" transform="translate(0 0)">
        <path id="Path_9414" data-name="Path 9414" d="M361.263,129.471h-.833a5.083,5.083,0,0,0-.336-.81l.589-.589a.544.544,0,0,0,0-.77l-1.41-1.41a.545.545,0,0,0-.77,0l-.589.589a5.076,5.076,0,0,0-.81-.336v-.833a.545.545,0,0,0-.544-.544h-.351a.283.283,0,1,0,0,.565h.33v1.024a.283.283,0,0,0,.209.273,4.51,4.51,0,0,1,1.075.445.283.283,0,0,0,.341-.045l.724-.724,1.38,1.38-.724.724a.283.283,0,0,0-.045.341,4.514,4.514,0,0,1,.445,1.076.283.283,0,0,0,.273.209h1.024v1.952h-1.024a.283.283,0,0,0-.273.209,4.514,4.514,0,0,1-.445,1.076.283.283,0,0,0,.045.341l.724.724-.344.344a.283.283,0,0,0,.4.4l.359-.359a.544.544,0,0,0,0-.77l-.589-.589a5.084,5.084,0,0,0,.336-.81h.833a.545.545,0,0,0,.544-.544v-1.994A.545.545,0,0,0,361.263,129.471Z" transform="translate(-355.927 -124.768)" fill="#696767"/>
      </g>
    </g>
    <g id="Group_4627" data-name="Group 4627" transform="translate(49.936 420.72)">
      <g id="Group_4626" data-name="Group 4626" transform="translate(0 0)">
        <path id="Path_9415" data-name="Path 9415" d="M285.036,225.736a2.468,2.468,0,1,0,.723,1.745A2.471,2.471,0,0,0,285.036,225.736Zm-.4,3.09a1.9,1.9,0,1,1,0-2.691h0a1.9,1.9,0,0,1,0,2.691Z" transform="translate(-280.825 -225.015)" fill="#696767"/>
      </g>
    </g>
    <g id="Group_4628" data-name="Group 4628" transform="translate(42.713 417.617)">
      <g id="Group_4626-2" data-name="Group 4626" transform="translate(0 0)">
        <path id="Path_9415-2" data-name="Path 9415" d="M283.937,225.548a1.824,1.824,0,1,0,.534,1.29A1.826,1.826,0,0,0,283.937,225.548Zm-.3,2.284a1.405,1.405,0,1,1,0-1.988h0a1.406,1.406,0,0,1,0,1.988Z" transform="translate(-280.825 -225.015)" fill="#696767"/>
      </g>
    </g>
    <path id="Path_9416" data-name="Path 9416" d="M-1524.745,6481.907a10.339,10.339,0,0,1,10.113,4.343" transform="translate(1571.219 -6070.166)" fill="none" stroke="#696767" stroke-width="0.8"/>
    <g id="Polygon_2" data-name="Polygon 2" transform="matrix(-0.799, 0.602, -0.602, -0.799, 58.403, 416.307)" fill="#fff">
      <path d="M 2.274007797241211 2.047616958618164 L 0.3482057452201843 2.047616958618164 L 1.31110680103302 0.3969273269176483 L 2.274007797241211 2.047616958618164 Z" stroke="none"/>
      <path d="M 1.31110680103302 0.7938505411148071 L 0.6964105367660522 1.847616910934448 L 1.925803065299988 1.847616910934448 L 1.31110680103302 0.7938505411148071 M 1.31110680103302 -3.099441528320313e-06 L 2.622216701507568 2.24761700630188 L -3.099441528320313e-06 2.24761700630188 L 1.31110680103302 -3.099441528320313e-06 Z" stroke="none" fill="#696767"/>
    </g>
    <g id="Polygon_3" data-name="Polygon 3" transform="matrix(-0.799, 0.602, -0.602, -0.799, 48.289, 412.186)" fill="#fff">
      <path d="M 2.274007797241211 2.047616958618164 L 0.3482057452201843 2.047616958618164 L 1.31110680103302 0.3969273269176483 L 2.274007797241211 2.047616958618164 Z" stroke="none"/>
      <path d="M 1.31110680103302 0.7938505411148071 L 0.6964105367660522 1.847616910934448 L 1.925803065299988 1.847616910934448 L 1.31110680103302 0.7938505411148071 M 1.31110680103302 -3.099441528320313e-06 L 2.622216701507568 2.24761700630188 L -3.099441528320313e-06 2.24761700630188 L 1.31110680103302 -3.099441528320313e-06 Z" stroke="none" fill="#696767"/>
    </g>
  </g>
</svg>
