<svg xmlns="http://www.w3.org/2000/svg" width="16.778" height="21.204" viewBox="0 0 16.778 21.204">
  <path id="bell" d="M69.866,16.875a3.294,3.294,0,0,1-1-1.363,15.775,15.775,0,0,1-1.044-6.233c0-.008,0-.016,0-.024A6.016,6.016,0,0,0,64.279,3.8V2.362A2.363,2.363,0,0,0,61.921,0h-.2a2.363,2.363,0,0,0-2.358,2.362V3.8a6.016,6.016,0,0,0-3.542,5.481,15.775,15.775,0,0,1-1.044,6.233,3.294,3.294,0,0,1-1,1.363.6.6,0,0,0-.332.687.632.632,0,0,0,.623.486h4.553a3.2,3.2,0,0,0,6.4,0h4.553a.632.632,0,0,0,.623-.486A.6.6,0,0,0,69.866,16.875ZM60.61,2.362a1.118,1.118,0,0,1,1.116-1.118h.2a1.118,1.118,0,0,1,1.116,1.118V3.394a6.017,6.017,0,0,0-2.427,0V2.362Zm1.213,17.6a1.96,1.96,0,0,1-1.956-1.913h3.911A1.96,1.96,0,0,1,61.823,19.96Zm2.5-3.157H55.488a6.512,6.512,0,0,0,.326-.571,15.728,15.728,0,0,0,1.255-6.953,4.755,4.755,0,1,1,9.511,0c0,.008,0,.015,0,.023a15.7,15.7,0,0,0,1.255,6.928,6.516,6.516,0,0,0,.326.571Z" transform="translate(-53.434 0)" fill="#002838"/>
</svg>
