<svg xmlns="http://www.w3.org/2000/svg" width="12.483" height="11.262" viewBox="0 0 12.483 11.262">
  <path id="calendar" d="M5.385,2.321H7.1a.543.543,0,1,0,0-1.085H5.385a.543.543,0,1,0,0,1.085Zm-4.3,8.141H11.4V5.577H1.086Zm11.4-8.634V11a.543.543,0,0,1-.543.543H.543A.543.543,0,0,1,0,11V1.828a.588.588,0,0,1,.543-.593H1.811a.543.543,0,0,1,0,1.085H1.085V4.627H11.4V2.321h-.726a.543.543,0,0,1,0-1.085H11.94A.588.588,0,0,1,12.483,1.828ZM8.819,3.38A.678.678,0,0,0,9.5,2.7V.964a.678.678,0,1,0-1.357,0V2.7A.678.678,0,0,0,8.819,3.38ZM2.985,2.7V.964a.678.678,0,1,1,1.357,0V2.7a.678.678,0,1,1-1.357,0Z" transform="translate(0 -0.285)" fill-rule="evenodd"/>
</svg>
