<svg xmlns="http://www.w3.org/2000/svg" width="156.135" height="293.37" viewBox="0 0 156.135 293.37">
  <g id="Group_4514" data-name="Group 4514" transform="translate(-360.524 -167.246)">
    <path id="Path_9234" data-name="Path 9234" d="M386.942,201.8s-14.6,9.779-21.43,27.006.1,19.906,4.65,17.576,28.647-25.694,28.647-25.694Z" transform="translate(0.637 10.375)" fill="#f2ae40"/>
    <path id="Path_9235" data-name="Path 9235" d="M468.552,244.69a9.675,9.675,0,0,0,.381-.913s-.858-.583-1.876.543a1.174,1.174,0,0,0-.073.1,9.813,9.813,0,0,0,.378-.908s-.858-.581-1.876.545c-.567.628.045,1.312-1.312,1.909a2.831,2.831,0,0,0-.7-.72,3.026,3.026,0,0,1-.9-.969v.551a1.677,1.677,0,0,0-.289-.233,3.023,3.023,0,0,1-.9-.969v1.381a2.734,2.734,0,0,0-.668-.677,3.026,3.026,0,0,1-.9-.969v5.254c.531.069,1.055.1,1.572.117v.148c.4.052.8.068,1.191.09v.56a15.723,15.723,0,0,0,1.76.131c4.02.069,5.794-5.233,5.794-5.233A1.333,1.333,0,0,0,468.552,244.69Zm-1.733.066c-.134.452-.048.917-.809,1.342A10.847,10.847,0,0,0,466.819,244.756Zm.551,1.889c.2-.257.378-.517.537-.772A1.174,1.174,0,0,1,467.37,246.646Z" transform="translate(29.808 22.851)" fill="#d86"/>
    <path id="Path_9236" data-name="Path 9236" d="M451.293,396.557v-3.041c0-3.5-3.27-9.861-3.27-12.2s-9.038,1.9-9.038,1.9a11.257,11.257,0,0,1-3.108,6.795,8.659,8.659,0,0,0-2.195,6.545Z" transform="translate(21.951 64.059)" fill="#11393d"/>
    <path id="Path_9237" data-name="Path 9237" d="M404.45,396.751l1.564-.731.729.731h5.967c.593-1.716,2.612-8.241.789-12.767-2.113-5.248-8.653-3.847-8.653-3.847s-4.439,6.192-7.008,7.3-12.378,5.079-13.547,7.649c-.348.767.246,1.286.075,1.664Z" transform="translate(7.102 63.864)" fill="#11393d"/>
    <path id="Path_9238" data-name="Path 9238" d="M420.413,242.456c-3.388,49.107-12.636,113.468-22.669,181.168,0,0,1.967,3.2,13.127,1.526L445.241,281.4a.989.989,0,0,1,1.911.313c.4,10.835,3.871,43.977,2,143.9a13.736,13.736,0,0,0,12.122,0s22.16-147.79,17.055-176.085Z" transform="translate(11.175 22.58)" fill="#935c8f"/>
    <path id="Path_9239" data-name="Path 9239" d="M484.242,262.811c.079,4.378-8.936,21.142-36.444,16.787-15.625-2.474-22.719-10.1-22.719-10.1s-49.874-42.08-45.758-60.73c1.42-6.431,17.82-16.24,30.183-15.634a84.346,84.346,0,0,1,32.012,8.293C454.614,206.371,483.94,246.179,484.242,262.811Z" transform="translate(5.571 7.764)" fill="#ffc24e"/>
    <path id="Path_9240" data-name="Path 9240" d="M392.183,201.39a29.954,29.954,0,0,0,5.635,12.026,389.869,389.869,0,0,1,3.36,61.328l2.227,4.033,6.314-4.683s-4.442-42.257-8.767-60.786c0,0,2.645-8.825,6.4-11.472s-2.366-3.612-2.366-3.612Z" transform="translate(9.505 9.3)" fill="#a5729f"/>
    <path id="Path_9241" data-name="Path 9241" d="M396.355,193.232c-3.985,1.688-7.73,8.172-4.371,16.928,0,0,.508-3.62,2.483-3.654s3.223,2.353,3.223,2.353l5.67-4.758S403.547,190.188,396.355,193.232Z" transform="translate(9.054 7.671)" fill="#f2ae40"/>
    <g id="Group_4510" data-name="Group 4510" transform="translate(374.91 167.246)">
      <path id="Path_9242" data-name="Path 9242" d="M405.091,186.4c3.078,16.775-14.505,22.073-19.765,16.59-1.686-1.757-3.563-5.167-5-8.995-.329-.867-.632-1.751-.9-2.645-1.853-6.062-2.333-12.442.841-14.7C391.307,168.782,402.013,169.627,405.091,186.4Z" transform="translate(-369.677 -165.864)" fill="#f3a17a"/>
      <path id="Path_9243" data-name="Path 9243" d="M379.768,182.333s5.562-7.227,17.267-6.869c0,0,4.707,8.764,6.4,12.816,0,0,4.458.415,2.617,9.774,0,0,5.2-1.771,2.866-16.3-2.027-12.6-9.713-10.091-9.713-10.091s-3.929-6.846-12.008-3.485S376.2,175.467,373.675,172,368.89,183.39,379.768,182.333Z" transform="translate(-371.588 -167.246)" fill="#145b6b"/>
      <path id="Path_9244" data-name="Path 9244" d="M382.177,185.119c.247.915.036,1.768-.472,1.906s-1.122-.493-1.369-1.408-.036-1.768.472-1.906S381.929,184.2,382.177,185.119Z" transform="translate(-368.993 -162.308)" fill="#1a4850"/>
      <path id="Path_9245" data-name="Path 9245" d="M383.978,185.575S383,189.6,381.227,189.5s.494,3.442,4.66.906A5.337,5.337,0,0,0,383.978,185.575Z" transform="translate(-368.878 -161.743)" fill="#dd774e"/>
      <path id="Path_9246" data-name="Path 9246" d="M392.076,184.1a1.809,1.809,0,1,1-2.245-.235A1.618,1.618,0,0,1,392.076,184.1Z" transform="translate(-366.384 -162.356)" fill="#ed7d66"/>
      <path id="Path_9247" data-name="Path 9247" d="M381.667,188.149a1.573,1.573,0,0,1-1.679,1.382c-.329-.867-.632-1.751-.9-2.645a2.146,2.146,0,0,1,.836-.165A1.614,1.614,0,0,1,381.667,188.149Z" transform="translate(-369.338 -161.399)" fill="#ed7d66"/>
      <path id="Path_9248" data-name="Path 9248" d="M384.068,182.192a4.758,4.758,0,0,1,3.058-1.562" transform="translate(-367.842 -163.228)" fill="none" stroke="#1a4850" stroke-linecap="round" stroke-miterlimit="10" stroke-width="0.587"/>
      <path id="Path_9249" data-name="Path 9249" d="M380.493,180.85s-2.028.228-1.993,1.351" transform="translate(-369.513 -163.162)" fill="none" stroke="#1a4850" stroke-linecap="round" stroke-miterlimit="10" stroke-width="0.587"/>
      <path id="Path_9250" data-name="Path 9250" d="M396.08,184.081s1.832-3.854,4.826-2.6.38,8.138-2.355,8.643S396.08,184.081,396.08,184.081Z" transform="translate(-364.237 -163.048)" fill="#f3a17a"/>
      <path id="Path_9251" data-name="Path 9251" d="M385.714,184.21s.492-2.178,3.036-.947C388.75,183.263,386.593,182.908,385.714,184.21Z" transform="translate(-367.347 -162.55)" fill="#1a4850"/>
      <path id="Path_9252" data-name="Path 9252" d="M389.672,189.139s-4.141,1.671-4.956,4.6" transform="translate(-367.647 -160.673)" fill="none" stroke="#1a4850" stroke-miterlimit="10" stroke-width="0.5"/>
    </g>
    <path id="Path_9253" data-name="Path 9253" d="M402.9,188.472s.675,3.209,7.339,8.125c0,0-3.883,9.172-12.48,10.96,0,0-3.632-6-7.3-7.852,0,0,7.3-1.412,10.308-10.671A2.376,2.376,0,0,0,402.9,188.472Z" transform="translate(8.987 6.373)" fill="#d86"/>
    <path id="Path_9254" data-name="Path 9254" d="M403.221,191.529s1.922,4.7,0,8.705a13.623,13.623,0,0,1-5.157,5.755s3.551,2.438,4.526,4.551c0,0,7.151-6.664,7.476-12.352S403.221,191.529,403.221,191.529Z" transform="translate(11.271 7.29)" fill="#f2ae40"/>
    <path id="Path_9255" data-name="Path 9255" d="M428.355,199.53c-11.162.532-2.463,18.314,2.507,21.88s47.552,5.679,47.552,5.679l-10.274,19.744s-2.095,8.682,7.007,8.541c0,0,21.788-26.679,22.763-36.176S457.61,198.139,428.355,199.53Z" transform="translate(18.733 9.658)" fill="#f2ae40"/>
    <path id="Path_9256" data-name="Path 9256" d="M458,237.544s-2.522,1.356-1.872,6.387,4.876,7.631,8.777,8.606,6.826-3.791,6.826-3.791-.7-.759-1.95.107c-.909.632.14,1.819-3.678,1.643a6.751,6.751,0,0,0-1.035-2.456c-1.4-1.377-1.191-5.9-1.191-5.9Z" transform="translate(28.67 21.105)" fill="#f3a17a"/>
    <path id="Path_9257" data-name="Path 9257" d="M372.287,200.165s-1.463,27.99,0,33.287,2.251,15.276-4.807,14.187-8.068-16.919-6.019-25.419,5.436-22.8,5.436-22.8Z" transform="translate(0 9.658)" fill="#ffc24e"/>
    <g id="Group_4513" data-name="Group 4513" transform="translate(366.497 186.695)">
      <path id="Path_9258" data-name="Path 9258" d="M365.118,203.631s.741,4.734,5.313,1.464a3.069,3.069,0,0,0,2.506-1.686c.437-.924,1.407-4.182,2.1-5.218,1.149-1.725,1.3-2.587.484-2.669a16.236,16.236,0,0,1-4.141-.707C370.035,194.187,365.8,197.732,365.118,203.631Z" transform="translate(-365.118 -178.44)" fill="#d86"/>
      <g id="Group_4512" data-name="Group 4512" transform="translate(4.529)">
        <path id="Path_9259" data-name="Path 9259" d="M374.471,189.48l-5.859,12.448a1.906,1.906,0,0,0,.962,1.917c1.047.512,1.633-.17,2.308-1.539,1.092-2.218,4.72-9.81,4.72-9.81Z" transform="translate(-368.601 -180.02)" fill="#145b6b"/>
        <g id="Group_4511" data-name="Group 4511" transform="translate(4.234)">
          <path id="Path_9260" data-name="Path 9260" d="M375.735,182.264l-1.671.39.164.7c-1.051,1.433-1.407,4.035-.757,6.822s2.123,4.96,3.7,5.779l.163.7,1.671-.39c2.153-.5,3.167-4.045,2.264-7.911S377.888,181.762,375.735,182.264Z" transform="translate(-371.471 -182.204)" fill="#145b6b"/>
          <path id="Path_9261" data-name="Path 9261" d="M379.985,188.654c.9,3.866-.111,7.407-2.264,7.911s-4.63-2.223-5.534-6.089.111-7.409,2.264-7.912S379.082,184.788,379.985,188.654Z" transform="translate(-371.857 -182.114)" fill="#208191"/>
          <path id="Path_9262" data-name="Path 9262" d="M378.521,188.438c.632,2.706-.077,5.184-1.584,5.536s-3.24-1.556-3.872-4.261.077-5.185,1.584-5.536S377.889,185.732,378.521,188.438Z" transform="translate(-371.564 -181.625)" fill="#fff"/>
        </g>
      </g>
      <path id="Path_9263" data-name="Path 9263" d="M373.944,192.51a19.282,19.282,0,0,0,0,4.886c.38,1.892-.382,2.421-.568,2.346a8.028,8.028,0,0,1-.944-1.309s.978,1.655-.1,2.676c-.28.267-1.416-1.442-1.416-1.442s.629,1.5.176,2-1.16-.636-1.16-.636.282.986-.274,1.061a4.259,4.259,0,0,1-2.151-1.179c-.122-.189-.852-.108-.852-.108l-.934.274c1.455-4.412,2.814-5,2.814-5s.468-1.152,1.122-.974c0,0,.8-1.982,2.015-1.545C371.676,193.556,373.11,190.649,373.944,192.51Z" transform="translate(-364.936 -179.297)" fill="#f3a17a"/>
    </g>
  </g>
</svg>
