<svg id="clock" xmlns="http://www.w3.org/2000/svg" width="26" height="26" viewBox="0 0 26 26">
  <path id="Path_9215" data-name="Path 9215" d="M13,0A13,13,0,1,0,26,13,13.014,13.014,0,0,0,13,0Zm0,0" fill="#f7941d"/>
  <path id="Path_9216" data-name="Path 9216" d="M13,26A13,13,0,1,1,26,13,13.014,13.014,0,0,1,13,26ZM13,1.625A11.375,11.375,0,1,0,24.375,13,11.388,11.388,0,0,0,13,1.625Zm0,0" fill="#002838"/>
  <path id="Path_9217" data-name="Path 9217" d="M245.056,112.918a.627.627,0,0,1-.447-.185l-4.424-4.424a.632.632,0,0,1-.185-.446v-5.9a.632.632,0,1,1,1.264,0V107.6l4.238,4.238a.632.632,0,0,1-.447,1.079Zm0,0" transform="translate(-228 -94.531)" fill="#fff"/>
</svg>
