<svg xmlns="http://www.w3.org/2000/svg" width="12.65" height="12.123" viewBox="0 0 12.65 12.123">
  <g id="coin" transform="translate(0 -8)">
    <g id="Group_4577" data-name="Group 4577" transform="translate(0 8)">
      <g id="Group_4576" data-name="Group 4576" transform="translate(0 0)">
        <path id="Path_9324" data-name="Path 9324" d="M6.325,8C2.763,8,0,10.319,0,12.314V16.1c0,1.9,2.6,4.023,6.325,4.023S12.65,18,12.65,16.1V12.314C12.65,10.319,9.888,8,6.325,8ZM2.9,18.278c-1.173-.619-1.845-1.486-1.845-2.177v-1.56l.026.024c.109.113.224.224.348.332a6.619,6.619,0,0,0,1.471.956Zm2.9.775h0a7.658,7.658,0,0,1-1.845-.338V16.283l.013,0,.133.043q.12.038.24.072l.13.037c.087.023.173.045.259.065l.1.024c.118.026.236.05.353.069l.069.01c.094.015.188.029.282.04l.123.013c.047,0,.094.011.141.014Zm2.9-.338a7.658,7.658,0,0,1-1.845.338V16.676c.047,0,.094-.01.14-.014l.125-.013c.093-.011.186-.025.279-.039l.072-.011c.117-.02.234-.043.352-.069l.1-.025c.085-.02.17-.041.255-.064l.132-.037c.079-.023.158-.047.237-.072l.135-.044.013,0v2.432Zm.321-3.682h0a6.794,6.794,0,0,1-2.692.61,6.8,6.8,0,0,1-2.693-.61h0A5.734,5.734,0,0,1,2.12,14.1a2.668,2.668,0,0,1-1.066-1.786c0-1.313,2.213-3.26,5.271-3.26S11.6,11,11.6,12.314A2.67,2.67,0,0,1,10.531,14.1a5.745,5.745,0,0,1-1.511.932ZM11.6,16.1h0c0,.691-.672,1.558-1.845,2.177V15.853a6.629,6.629,0,0,0,1.471-.956c.124-.108.24-.219.349-.332l.025-.024Z" transform="translate(0 -8)" fill="#f7931d"/>
      </g>
    </g>
    <g id="Group_4579" data-name="Group 4579" transform="translate(2.899 10.109)">
      <g id="Group_4578" data-name="Group 4578">
        <path id="Path_9325" data-name="Path 9325" d="M90.422,72.113a.528.528,0,0,0-.738.105L88.1,74.327a.527.527,0,1,0,.843.633l1.581-2.108A.527.527,0,0,0,90.422,72.113Z" transform="translate(-87.997 -72.008)" fill="#f7931d"/>
      </g>
    </g>
    <g id="Group_4581" data-name="Group 4581" transform="translate(4.48 10.899)">
      <g id="Group_4580" data-name="Group 4580" transform="translate(0 0)">
        <path id="Path_9326" data-name="Path 9326" d="M138.422,96.107a.527.527,0,0,0-.738.105L136.1,98.321a.527.527,0,1,0,.843.633l1.581-2.108A.527.527,0,0,0,138.422,96.107Z" transform="translate(-135.997 -96.002)" fill="#f7931d"/>
      </g>
    </g>
  </g>
</svg>
