<svg xmlns="http://www.w3.org/2000/svg" width="17.384" height="17.257" viewBox="0 0 17.384 17.257">
  <g id="XMLID_1_" transform="translate(0.1 -0.079)">
    <path id="Path_9618" data-name="Path 9618" d="M13.858,9.09l6.308,1.253a1.058,1.058,0,0,1,.852,1.045v7.3a1.073,1.073,0,0,1-1.074,1.074H13.5a.355.355,0,0,0,.358-.358V19.05h6.086a.359.359,0,0,0,.358-.358v-7.3a.36.36,0,0,0-.279-.351L13.858,9.82Z" transform="translate(-3.834 -2.53)" stroke="#000" stroke-width="0.2"/>
    <path id="Path_9619" data-name="Path 9619" d="M18.79,14a.358.358,0,0,1,0,.716H17.358a.358.358,0,1,1,0-.716Z" transform="translate(-4.828 -3.924)" stroke="#000" stroke-width="0.2"/>
    <path id="Path_9620" data-name="Path 9620" d="M18.79,17a.358.358,0,0,1,0,.716H17.358a.358.358,0,0,1,0-.716Z" transform="translate(-4.828 -4.776)" stroke="#000" stroke-width="0.2"/>
    <path id="Path_9621" data-name="Path 9621" d="M18.79,20a.358.358,0,0,1,0,.716H17.358a.358.358,0,0,1,0-.716Z" transform="translate(-4.828 -5.628)" stroke="#000" stroke-width="0.2"/>
    <path id="Path_9622" data-name="Path 9622" d="M13.716,19.382a.358.358,0,1,1-.716,0V9.358a.381.381,0,0,1,.129-.279.376.376,0,0,1,.3-.072l.286.057V19.382Z" transform="translate(-3.692 -2.505)" stroke="#000" stroke-width="0.2"/>
    <path id="Path_9623" data-name="Path 9623" d="M12.006,23v.358a.355.355,0,0,0,.358.358H9.5a.355.355,0,0,0,.358-.358V23Z" transform="translate(-2.698 -6.48)" stroke="#000" stroke-width="0.2"/>
    <path id="Path_9624" data-name="Path 9624" d="M9.79,5a.358.358,0,0,1,0,.716H8.358a.358.358,0,1,1,0-.716Z" transform="translate(-2.272 -1.369)" stroke="#000" stroke-width="0.2"/>
    <path id="Path_9625" data-name="Path 9625" d="M10.148,8.358a.355.355,0,0,1-.358.358H8.358a.358.358,0,0,1,0-.716H9.79A.355.355,0,0,1,10.148,8.358Z" transform="translate(-2.272 -2.221)" stroke="#000" stroke-width="0.2"/>
    <path id="Path_9626" data-name="Path 9626" d="M9.79,11a.358.358,0,0,1,0,.716H8.358a.358.358,0,0,1,0-.716Z" transform="translate(-2.272 -3.073)" stroke="#000" stroke-width="0.2"/>
    <path id="Path_9627" data-name="Path 9627" d="M9.79,14a.358.358,0,1,1,0,.716H8.358a.358.358,0,1,1,0-.716Z" transform="translate(-2.272 -3.924)" stroke="#000" stroke-width="0.2"/>
    <path id="Path_9628" data-name="Path 9628" d="M5.148,14.358a.355.355,0,0,1-.358.358H3.358a.358.358,0,1,1,0-.716H4.79A.355.355,0,0,1,5.148,14.358Z" transform="translate(-0.852 -3.924)" stroke="#000" stroke-width="0.2"/>
    <path id="Path_9629" data-name="Path 9629" d="M4.79,5a.358.358,0,0,1,0,.716H3.358a.358.358,0,0,1,0-.716Z" transform="translate(-0.852 -1.369)" stroke="#000" stroke-width="0.2"/>
    <path id="Path_9630" data-name="Path 9630" d="M4.79,8a.358.358,0,0,1,0,.716H3.358a.358.358,0,0,1,0-.716Z" transform="translate(-0.852 -2.221)" stroke="#000" stroke-width="0.2"/>
    <path id="Path_9631" data-name="Path 9631" d="M4.79,11a.358.358,0,1,1,0,.716H3.358a.358.358,0,1,1,0-.716Z" transform="translate(-0.852 -3.073)" stroke="#000" stroke-width="0.2"/>
    <path id="Path_9632" data-name="Path 9632" d="M7.58,18.074a.359.359,0,0,0-.358-.358H5.074a.355.355,0,0,0-.358.358V21.3H4V18.074A1.073,1.073,0,0,1,5.074,17H7.222A1.073,1.073,0,0,1,8.3,18.074V21.3H7.58Z" transform="translate(-1.136 -4.776)" stroke="#000" stroke-width="0.2"/>
    <path id="Path_9633" data-name="Path 9633" d="M4.716,23H8.3v.358a.355.355,0,0,1-.358.358H4.358A.355.355,0,0,1,4,23.358V23Z" transform="translate(-1.136 -6.48)" stroke="#000" stroke-width="0.2"/>
    <path id="Path_9634" data-name="Path 9634" d="M1.253.194l7.869,1.2a1.07,1.07,0,0,1,.9,1.06V6.56L9.738,6.5a.376.376,0,0,0-.3.072.381.381,0,0,0-.129.279V2.45a.362.362,0,0,0-.3-.358L1.138.9A.2.2,0,0,0,1.074.9.338.338,0,0,0,.845.982a.342.342,0,0,0-.129.272V16.162a.359.359,0,0,0,.358.358h1.79v.358a.355.355,0,0,0,.358.358H1.074A1.073,1.073,0,0,1,0,16.162V1.254A1.054,1.054,0,0,1,.379.438,1.075,1.075,0,0,1,1.253.194Z" transform="translate(0 0)" stroke="#000" stroke-width="0.2"/>
  </g>
</svg>
