<svg xmlns="http://www.w3.org/2000/svg" width="51.42" height="51.42" viewBox="0 0 51.42 51.42">
  <g id="Group_4749" data-name="Group 4749" transform="translate(-490.707 -121)">
    <g id="Group_4526" data-name="Group 4526" transform="translate(492.314 129.034)">
      <path id="Path_9282" data-name="Path 9282" d="M35.674,9.75H31.389v2.142a2.143,2.143,0,0,1-2.142,2.142H17.462a2.143,2.143,0,0,1-2.142-2.142V9.75H11.035A4.3,4.3,0,0,0,6.75,14.035V40.816A4.3,4.3,0,0,0,11.035,45.1H35.674a4.3,4.3,0,0,0,4.285-4.285V14.035A4.3,4.3,0,0,0,35.674,9.75Z" transform="translate(-6.75 -9.75)" fill="#f3f3f1"/>
    </g>
    <g id="Group_4527" data-name="Group 4527" transform="translate(500.884 122.607)">
      <path id="Path_9283" data-name="Path 9283" d="M26.819,11.035V15.32a2.143,2.143,0,0,1-2.142,2.142H12.892A2.143,2.143,0,0,1,10.75,15.32V11.035H14.5a4.285,4.285,0,0,1,8.57,0Z" transform="translate(-10.75 -6.75)" fill="#f7931d"/>
    </g>
    <g id="Group_4528" data-name="Group 4528" transform="translate(515.881 146.174)">
      <ellipse id="Ellipse_153" data-name="Ellipse 153" cx="12.319" cy="12.319" rx="12.319" ry="12.319" transform="translate(0 0)" fill="#f7931d"/>
    </g>
    <g id="Group_4529" data-name="Group 4529" transform="translate(514.81 129.034)">
      <path id="Path_9284" data-name="Path 9284" d="M24.213,11.892V9.8a4.014,4.014,0,0,0-.536-.054H19.392v2.142a2.143,2.143,0,0,1-2.142,2.142h4.821A2.143,2.143,0,0,0,24.213,11.892Z" transform="translate(-17.25 -9.75)" fill="#f7931d"/>
    </g>
    <g id="Group_4530" data-name="Group 4530" transform="translate(492.314 129.034)">
      <path id="Path_9285" data-name="Path 9285" d="M11.571,40.816V14.035A4.288,4.288,0,0,1,15.32,9.8V9.75H11.035A4.3,4.3,0,0,0,6.75,14.035V40.816A4.3,4.3,0,0,0,11.035,45.1h4.821A4.3,4.3,0,0,1,11.571,40.816Z" transform="translate(-6.75 -9.75)" fill="#f7931d"/>
    </g>
    <g id="Group_4531" data-name="Group 4531" transform="translate(500.884 122.607)">
      <path id="Path_9286" data-name="Path 9286" d="M15.571,15.32V11.035H19.32A4.288,4.288,0,0,1,21.195,7.5a4.25,4.25,0,0,0-2.41-.75A4.3,4.3,0,0,0,14.5,11.035H10.75V15.32a2.143,2.143,0,0,0,2.142,2.142h4.821A2.143,2.143,0,0,1,15.571,15.32Z" transform="translate(-10.75 -6.75)" fill="#f7931d"/>
    </g>
    <g id="Group_4532" data-name="Group 4532" transform="translate(515.881 146.174)">
      <path id="Path_9287" data-name="Path 9287" d="M22.571,30.069A12.32,12.32,0,0,1,32.48,17.99a12.319,12.319,0,1,0-2.41,24.4,12.245,12.245,0,0,0,2.41-.24A12.32,12.32,0,0,1,22.571,30.069Z" transform="translate(-17.75 -17.75)" fill="#f7931d"/>
    </g>
    <g id="Group_4533" data-name="Group 4533" transform="translate(518.335 148.637)">
      <path id="Path_9288" data-name="Path 9288" d="M0,0H24.667V3.214H0Z" transform="translate(0 17.439) rotate(-45)" fill="#002838"/>
    </g>
    <g id="Group_4534" data-name="Group 4534" transform="translate(514.274 144.568)">
      <path id="Path_9289" data-name="Path 9289" d="M30.926,44.852A13.926,13.926,0,1,1,44.852,30.926,13.942,13.942,0,0,1,30.926,44.852Zm0-24.639A10.712,10.712,0,1,0,41.639,30.926,10.725,10.725,0,0,0,30.926,20.214Z" transform="translate(-17 -17)" fill="#002838"/>
    </g>
    <g id="Group_4535" data-name="Group 4535" transform="translate(490.707 127.427)">
      <path id="Path_9290" data-name="Path 9290" d="M25.69,47.565h-13.8A5.9,5.9,0,0,1,6,41.673V14.892A5.9,5.9,0,0,1,11.892,9H15.92v3.214H11.892a2.682,2.682,0,0,0-2.678,2.678V41.673a2.682,2.682,0,0,0,2.678,2.678h13.8Z" transform="translate(-6 -9)" fill="#002838"/>
    </g>
    <g id="Group_4536" data-name="Group 4536" transform="translate(517.231 127.427)">
      <path id="Path_9291" data-name="Path 9291" d="M28.278,21.512H25.065v-6.62a2.682,2.682,0,0,0-2.678-2.678H18.38V9h4.006a5.9,5.9,0,0,1,5.892,5.892Z" transform="translate(-18.38 -9)" fill="#002838"/>
    </g>
    <g id="Group_4537" data-name="Group 4537" transform="translate(499.277 121)">
      <path id="Path_9292" data-name="Path 9292" d="M25.533,19.926H13.749A3.753,3.753,0,0,1,10,16.177V11.892a1.607,1.607,0,0,1,1.607-1.607h2.365a5.893,5.893,0,0,1,11.338,0h2.365a1.607,1.607,0,0,1,1.607,1.607v4.285A3.753,3.753,0,0,1,25.533,19.926ZM13.214,13.5v2.678a.536.536,0,0,0,.536.536H25.533a.536.536,0,0,0,.536-.536V13.5H23.926a1.607,1.607,0,0,1-1.607-1.607,2.678,2.678,0,0,0-5.356,0A1.607,1.607,0,0,1,15.356,13.5Z" transform="translate(-10 -6)" fill="#002838"/>
    </g>
    <g id="Group_4538" data-name="Group 4538" transform="translate(498.741 138.14)">
      <path id="Path_9293" data-name="Path 9293" d="M9.75,14H30.1v3.214H9.75Z" transform="translate(-9.75 -14)" fill="#002838"/>
    </g>
    <g id="Group_4539" data-name="Group 4539" transform="translate(498.741 144.568)">
      <path id="Path_9294" data-name="Path 9294" d="M9.75,17H25.09v3.214H9.75Z" transform="translate(-9.75 -17)" fill="#002838"/>
    </g>
    <g id="Group_4540" data-name="Group 4540" transform="translate(498.741 150.995)">
      <path id="Path_9295" data-name="Path 9295" d="M9.75,20H21.405v3.214H9.75Z" transform="translate(-9.75 -20)" fill="#002838"/>
    </g>
  </g>
</svg>
