<svg xmlns="http://www.w3.org/2000/svg" width="40.412" height="32" viewBox="0 0 40.412 32">
  <g id="Group_4524" data-name="Group 4524" transform="translate(-1040 -268)">
    <g id="Union_1" data-name="Union 1" transform="translate(1092 2545)" fill="#fff">
      <path d="M -25.00020027160645 -2245.999755859375 L -46.99980163574219 -2245.999755859375 C -49.20563125610352 -2245.999755859375 -51.00020217895508 -2247.794189453125 -51.00020217895508 -2250 L -51.00020217895508 -2271.999755859375 C -51.00020217895508 -2274.20556640625 -49.20563125610352 -2276 -46.99980163574219 -2276 L -25.00020027160645 -2276 C -22.79437065124512 -2276 -20.99980163574219 -2274.20556640625 -20.99980163574219 -2271.999755859375 L -20.99980163574219 -2265.68212890625 L -20.99980163574219 -2265.088623046875 L -20.47869110107422 -2264.80419921875 L -12.58839130401611 -2260.5 C -12.58840560913086 -2260.5 -12.58840560913086 -2260.5 -12.58840656280518 -2260.5 L -20.47871017456055 -2256.195556640625 L -20.99980163574219 -2255.9111328125 L -20.99980163574219 -2255.317626953125 L -20.99980163574219 -2250 C -20.99980163574219 -2247.794189453125 -22.79437065124512 -2245.999755859375 -25.00020027160645 -2245.999755859375 Z" stroke="none"/>
      <path d="M -25.00020027160645 -2246.999755859375 C -23.34577178955078 -2246.999755859375 -21.99980163574219 -2248.345703125 -21.99980163574219 -2250 L -21.99980163574219 -2255.317626953125 L -21.99980163574219 -2256.5048828125 L -20.95761108398438 -2257.0732421875 L -14.67641735076904 -2260.5 L -20.95757102966309 -2263.92626953125 L -21.99980163574219 -2264.494873046875 L -21.99980163574219 -2265.68212890625 L -21.99980163574219 -2271.999755859375 C -21.99980163574219 -2273.654052734375 -23.34577178955078 -2275 -25.00020027160645 -2275 L -46.99980163574219 -2275 C -48.65423202514648 -2275 -50.00020217895508 -2273.654052734375 -50.00020217895508 -2271.999755859375 L -50.00020217895508 -2250 C -50.00020217895508 -2248.345703125 -48.65423202514648 -2246.999755859375 -46.99980163574219 -2246.999755859375 L -25.00020027160645 -2246.999755859375 M -25.00020027160645 -2244.999755859375 L -46.99980163574219 -2244.999755859375 C -49.76100158691406 -2244.999755859375 -52.00020217895508 -2247.23876953125 -52.00020217895508 -2250 L -52.00020217895508 -2271.999755859375 C -52.00020217895508 -2274.76171875 -49.76100158691406 -2277 -46.99980163574219 -2277 L -25.00020027160645 -2277 C -22.23900032043457 -2277 -19.99980163574219 -2274.76171875 -19.99980163574219 -2271.999755859375 L -19.99980163574219 -2265.68212890625 L -12.10950088500977 -2261.3779296875 C -11.41470050811768 -2260.9990234375 -11.41470050811768 -2260.0009765625 -12.10950088500977 -2259.6220703125 L -19.99980163574219 -2255.317626953125 L -19.99980163574219 -2250 C -19.99980163574219 -2247.23876953125 -22.23900032043457 -2244.999755859375 -25.00020027160645 -2244.999755859375 Z" stroke="none" fill="#002838"/>
    </g>
    <g id="contact" transform="translate(1048.208 259.265)">
      <g id="Group_4485" data-name="Group 4485" transform="translate(0 16.73)">
        <g id="Group_4484" data-name="Group 4484" transform="translate(0 0)">
          <path id="Path_9202" data-name="Path 9202" d="M15.365,117.184l-3.4-2.267a.35.35,0,0,0-.468.076l-.99,1.273a1.061,1.061,0,0,1-1.36.28l-.183-.1A11.961,11.961,0,0,1,5.848,114a11.946,11.946,0,0,1-2.441-3.115l-.1-.183a1.061,1.061,0,0,1,.28-1.36l1.273-.991a.35.35,0,0,0,.076-.468l-2.267-3.4a.348.348,0,0,0-.468-.106l-1.423.853a1.369,1.369,0,0,0-.627.807c-.467,1.7-.074,4.681,4.452,9.208s7.5,4.92,9.208,4.452a1.369,1.369,0,0,0,.807-.627l.853-1.423A.348.348,0,0,0,15.365,117.184Z" transform="translate(0 -104.332)" fill="#f7931d" stroke="#002838" stroke-width="1"/>
        </g>
      </g>
    </g>
  </g>
</svg>
