<svg xmlns="http://www.w3.org/2000/svg" width="18.242" height="18.242" viewBox="0 0 18.242 18.242">
  <g id="discount" transform="translate(-0.01 0)">
    <path id="Path_9394" data-name="Path 9394" d="M17.414,9.121l.8-2.087a.571.571,0,0,0-.173-.648L16.306,4.979l-.351-2.208A.57.57,0,0,0,15.48,2.3l-2.208-.351L11.866.211A.571.571,0,0,0,11.22.037l-2.089.8L7.044.038A.569.569,0,0,0,6.4.212L4.99,1.948,2.782,2.3a.571.571,0,0,0-.473.473L1.958,4.981.222,6.387a.57.57,0,0,0-.173.646l.8,2.087-.8,2.087a.569.569,0,0,0,.173.646l1.736,1.406.351,2.208a.57.57,0,0,0,.473.474l2.208.351L6.4,18.03a.567.567,0,0,0,.648.173l2.086-.8,2.087.8a.57.57,0,0,0,.648-.174l1.406-1.735,2.208-.351a.571.571,0,0,0,.474-.474l.351-2.208,1.735-1.406a.569.569,0,0,0,.173-.646Z" transform="translate(0 0)" fill="#fff"/>
    <g id="Group_4608" data-name="Group 4608" transform="translate(5.711 4.56)">
      <path id="Path_9395" data-name="Path 9395" d="M161.732,131.455a1.71,1.71,0,1,1,1.71-1.71A1.712,1.712,0,0,1,161.732,131.455Zm0-2.28a.57.57,0,1,0,.57.57A.57.57,0,0,0,161.732,129.175Z" transform="translate(-160.022 -128.034)" fill="#e81e38"/>
      <path id="Path_9396" data-name="Path 9396" d="M257.732,291.455a1.71,1.71,0,1,1,1.71-1.71A1.712,1.712,0,0,1,257.732,291.455Zm0-2.28a.57.57,0,1,0,.57.57A.572.572,0,0,0,257.732,289.175Z" transform="translate(-252.602 -282.334)" fill="#c2192f"/>
      <path id="Path_9397" data-name="Path 9397" d="M160.606,137.138a.57.57,0,0,1-.463-.9l5.7-7.98a.57.57,0,0,1,.928.662l-5.7,7.98A.573.573,0,0,1,160.606,137.138Z" transform="translate(-160.036 -128.017)" fill="#f7203c"/>
    </g>
  </g>
</svg>
