<svg xmlns="http://www.w3.org/2000/svg" width="19.603" height="19.505" viewBox="0 0 19.603 19.505">
  <g id="edit_1_" data-name="edit (1)" transform="translate(0 -0.261)">
    <path id="Path_9270" data-name="Path 9270" d="M18.093,49.512A.488.488,0,0,0,17.6,50v4.335A1.466,1.466,0,0,1,16.14,55.8H2.441A1.466,1.466,0,0,1,.976,54.336V41.613a1.466,1.466,0,0,1,1.465-1.465H6.776a.488.488,0,0,0,0-.976H2.441A2.444,2.444,0,0,0,0,41.613V54.336a2.444,2.444,0,0,0,2.441,2.441h13.7a2.444,2.444,0,0,0,2.441-2.441V50A.488.488,0,0,0,18.093,49.512Zm0,0" transform="translate(0 -37.011)" fill="#f7931d"/>
    <path id="Path_9271" data-name="Path 9271" d="M121.3.9a2.2,2.2,0,0,0-3.107,0l-8.71,8.71a.488.488,0,0,0-.125.215l-1.145,4.135a.488.488,0,0,0,.6.6l4.135-1.146a.488.488,0,0,0,.215-.125l8.71-8.71a2.2,2.2,0,0,0,0-3.107ZM110.542,9.932,117.671,2.8l2.3,2.3-7.129,7.129Zm-.459.922,1.837,1.837-2.541.7Zm11.1-6.959-.518.518-2.3-2.3.518-.518a1.22,1.22,0,0,1,1.726,0l.573.573A1.222,1.222,0,0,1,121.178,3.894Zm0,0" transform="translate(-102.908)" fill="#f7931d"/>
  </g>
</svg>
