<svg xmlns="http://www.w3.org/2000/svg" width="16.568" height="16.485" viewBox="0 0 16.568 16.485">
  <g id="edit_1_" data-name="edit (1)" transform="translate(0 -0.261)">
    <path id="Path_9270" data-name="Path 9270" d="M15.292,47.911a.413.413,0,0,0-.413.413v3.664a1.239,1.239,0,0,1-1.238,1.238H2.063A1.239,1.239,0,0,1,.825,51.988V41.235A1.239,1.239,0,0,1,2.063,40H5.727a.413.413,0,1,0,0-.825H2.063A2.065,2.065,0,0,0,0,41.235V51.988a2.065,2.065,0,0,0,2.063,2.063H13.641A2.065,2.065,0,0,0,15.7,51.988V48.324A.413.413,0,0,0,15.292,47.911Zm0,0" transform="translate(0 -37.306)" fill="#9d9d9d"/>
    <path id="Path_9271" data-name="Path 9271" d="M119.266.8a1.857,1.857,0,0,0-2.626,0l-7.362,7.362a.412.412,0,0,0-.106.182l-.968,3.495a.413.413,0,0,0,.508.508l3.495-.968a.413.413,0,0,0,.182-.106l7.361-7.362a1.859,1.859,0,0,0,0-2.626Zm-9.088,7.63L116.2,2.409l1.943,1.943-6.025,6.025Zm-.388.779,1.552,1.553-2.147.595Zm9.377-5.882-.438.438-1.943-1.943.438-.438a1.031,1.031,0,0,1,1.459,0l.484.484A1.033,1.033,0,0,1,119.167,3.331Zm0,0" transform="translate(-103.726)" fill="#9d9d9d"/>
  </g>
</svg>
