<svg xmlns="http://www.w3.org/2000/svg" width="175.228" height="26.595" viewBox="0 0 175.228 26.595">
  <g id="empty-star" transform="translate(-79.386 -67.5)">
    <g id="star_1_" data-name="star (1)" transform="translate(79.386 67.5)">
      <g id="Group_4483" data-name="Group 4483" transform="translate(0 0)">
        <g id="Path_9193" data-name="Path 9193" transform="translate(0 -11.203)" fill="#fff">
          <path d="M 21.42922973632812 36.16242218017578 L 14.29589080810547 30.24444580078125 L 13.97664070129395 29.97958564758301 L 13.65739154815674 30.24444580078125 L 6.524097919464111 36.16241073608398 L 9.94796085357666 27.54832649230957 L 10.10113143920898 27.16296577453613 L 9.750741004943848 26.94116592407227 L 1.921895980834961 21.98566627502441 L 11.16674137115479 22.58076477050781 L 11.58069133758545 22.60740661621094 L 11.68332099914551 22.20549583435059 L 13.97664546966553 13.22398376464844 L 16.27001190185547 22.20549583435059 L 16.37272071838379 22.60774612426758 L 16.78700065612793 22.58073616027832 L 25.91477584838867 21.98566436767578 L 18.19972038269043 26.94299507141113 L 17.85325050354004 27.16562652587891 L 18.00537109375 27.54832649230957 L 21.42922973632812 36.16242218017578 Z" stroke="none"/>
          <path d="M 20.24120903015137 34.52714538574219 L 17.23650169372559 26.96759605407715 L 24.01755905151367 22.61041069030762 L 15.99098110198975 23.13369560241699 L 13.97665023803711 15.24495315551758 L 11.96253108978271 23.13302612304688 L 3.843725681304932 22.61040306091309 L 10.71895122528076 26.96227645874023 L 7.712130546569824 34.52711868286133 L 13.97664070129395 29.32991600036621 L 20.24120903015137 34.52714538574219 M 22.61725044250488 37.79769515991211 L 13.97664070129395 30.6292552947998 L 5.336071014404297 37.79769515991211 L 9.483321189880371 27.36364555358887 L 3.111816477030516e-05 21.36091613769531 L 11.19886112213135 22.08179664611816 L 13.97664070129395 11.20297527313232 L 16.75447082519531 22.08179664611816 L 27.81201171875 21.36091613769531 L 18.47001075744629 27.36364555358887 L 22.61725044250488 37.79769515991211 Z" stroke="none" fill="#bfbfbf"/>
        </g>
      </g>
    </g>
    <g id="star_1_2" data-name="star (1)" transform="translate(116.24 67.5)">
      <g id="Group_4483-2" data-name="Group 4483" transform="translate(0 0)">
        <g id="Path_9193-2" data-name="Path 9193" transform="translate(0 -11.203)" fill="#fff">
          <path d="M 21.42922973632812 36.16242218017578 L 14.29589080810547 30.24444580078125 L 13.97664070129395 29.97958564758301 L 13.65739154815674 30.24444580078125 L 6.524097919464111 36.16241073608398 L 9.94796085357666 27.54832649230957 L 10.10113143920898 27.16296577453613 L 9.750741004943848 26.94116592407227 L 1.921895980834961 21.98566627502441 L 11.16674137115479 22.58076477050781 L 11.58069133758545 22.60740661621094 L 11.68332099914551 22.20549583435059 L 13.97664546966553 13.22398376464844 L 16.27001190185547 22.20549583435059 L 16.37272071838379 22.60774612426758 L 16.78700065612793 22.58073616027832 L 25.91477584838867 21.98566436767578 L 18.19972038269043 26.94299507141113 L 17.85325050354004 27.16562652587891 L 18.00537109375 27.54832649230957 L 21.42922973632812 36.16242218017578 Z" stroke="none"/>
          <path d="M 20.24120903015137 34.52714538574219 L 17.23650169372559 26.96759605407715 L 24.01755905151367 22.61041069030762 L 15.99098110198975 23.13369560241699 L 13.97665023803711 15.24495315551758 L 11.96253108978271 23.13302612304688 L 3.843725681304932 22.61040306091309 L 10.71895122528076 26.96227645874023 L 7.712130546569824 34.52711868286133 L 13.97664070129395 29.32991600036621 L 20.24120903015137 34.52714538574219 M 22.61725044250488 37.79769515991211 L 13.97664070129395 30.6292552947998 L 5.336071014404297 37.79769515991211 L 9.483321189880371 27.36364555358887 L 3.111816477030516e-05 21.36091613769531 L 11.19886112213135 22.08179664611816 L 13.97664070129395 11.20297527313232 L 16.75447082519531 22.08179664611816 L 27.81201171875 21.36091613769531 L 18.47001075744629 27.36364555358887 L 22.61725044250488 37.79769515991211 Z" stroke="none" fill="#bfbfbf"/>
        </g>
      </g>
    </g>
    <g id="star_1_3" data-name="star (1)" transform="translate(153.094 67.5)">
      <g id="Group_4483-3" data-name="Group 4483" transform="translate(0 0)">
        <g id="Path_9193-3" data-name="Path 9193" transform="translate(0 -11.203)" fill="#fff">
          <path d="M 21.42922973632812 36.16242218017578 L 14.29589080810547 30.24444580078125 L 13.97664070129395 29.97958564758301 L 13.65739154815674 30.24444580078125 L 6.524097919464111 36.16241073608398 L 9.94796085357666 27.54832649230957 L 10.10113143920898 27.16296577453613 L 9.750741004943848 26.94116592407227 L 1.921895980834961 21.98566627502441 L 11.16674137115479 22.58076477050781 L 11.58069133758545 22.60740661621094 L 11.68332099914551 22.20549583435059 L 13.97664546966553 13.22398376464844 L 16.27001190185547 22.20549583435059 L 16.37272071838379 22.60774612426758 L 16.78700065612793 22.58073616027832 L 25.91477584838867 21.98566436767578 L 18.19972038269043 26.94299507141113 L 17.85325050354004 27.16562652587891 L 18.00537109375 27.54832649230957 L 21.42922973632812 36.16242218017578 Z" stroke="none"/>
          <path d="M 20.24120903015137 34.52714538574219 L 17.23650169372559 26.96759605407715 L 24.01755905151367 22.61041069030762 L 15.99098110198975 23.13369560241699 L 13.97665023803711 15.24495315551758 L 11.96253108978271 23.13302612304688 L 3.843725681304932 22.61040306091309 L 10.71895122528076 26.96227645874023 L 7.712130546569824 34.52711868286133 L 13.97664070129395 29.32991600036621 L 20.24120903015137 34.52714538574219 M 22.61725044250488 37.79769515991211 L 13.97664070129395 30.6292552947998 L 5.336071014404297 37.79769515991211 L 9.483321189880371 27.36364555358887 L 3.111816477030516e-05 21.36091613769531 L 11.19886112213135 22.08179664611816 L 13.97664070129395 11.20297527313232 L 16.75447082519531 22.08179664611816 L 27.81201171875 21.36091613769531 L 18.47001075744629 27.36364555358887 L 22.61725044250488 37.79769515991211 Z" stroke="none" fill="#bfbfbf"/>
        </g>
      </g>
    </g>
    <g id="star_1_4" data-name="star (1)" transform="translate(189.948 67.5)">
      <g id="Group_4483-4" data-name="Group 4483" transform="translate(0 0)">
        <g id="Path_9193-4" data-name="Path 9193" transform="translate(0 -11.203)" fill="#fff">
          <path d="M 21.42922973632812 36.16242218017578 L 14.29589080810547 30.24444580078125 L 13.97664070129395 29.97958564758301 L 13.65739154815674 30.24444580078125 L 6.524097919464111 36.16241073608398 L 9.94796085357666 27.54832649230957 L 10.10113143920898 27.16296577453613 L 9.750741004943848 26.94116592407227 L 1.921895980834961 21.98566627502441 L 11.16674137115479 22.58076477050781 L 11.58069133758545 22.60740661621094 L 11.68332099914551 22.20549583435059 L 13.97664546966553 13.22398376464844 L 16.27001190185547 22.20549583435059 L 16.37272071838379 22.60774612426758 L 16.78700065612793 22.58073616027832 L 25.91477584838867 21.98566436767578 L 18.19972038269043 26.94299507141113 L 17.85325050354004 27.16562652587891 L 18.00537109375 27.54832649230957 L 21.42922973632812 36.16242218017578 Z" stroke="none"/>
          <path d="M 20.24120903015137 34.52714538574219 L 17.23650169372559 26.96759605407715 L 24.01755905151367 22.61041069030762 L 15.99098110198975 23.13369560241699 L 13.97665023803711 15.24495315551758 L 11.96253108978271 23.13302612304688 L 3.843725681304932 22.61040306091309 L 10.71895122528076 26.96227645874023 L 7.712130546569824 34.52711868286133 L 13.97664070129395 29.32991600036621 L 20.24120903015137 34.52714538574219 M 22.61725044250488 37.79769515991211 L 13.97664070129395 30.6292552947998 L 5.336071014404297 37.79769515991211 L 9.483321189880371 27.36364555358887 L 3.111816477030516e-05 21.36091613769531 L 11.19886112213135 22.08179664611816 L 13.97664070129395 11.20297527313232 L 16.75447082519531 22.08179664611816 L 27.81201171875 21.36091613769531 L 18.47001075744629 27.36364555358887 L 22.61725044250488 37.79769515991211 Z" stroke="none" fill="#bfbfbf"/>
        </g>
      </g>
    </g>
    <g id="star_1_5" data-name="star (1)" transform="translate(226.802 67.5)">
      <g id="Group_4483-5" data-name="Group 4483" transform="translate(0 0)">
        <g id="Path_9193-5" data-name="Path 9193" transform="translate(0 -11.203)" fill="#fff">
          <path d="M 21.42922973632812 36.16242218017578 L 14.29589080810547 30.24444580078125 L 13.97664070129395 29.97958564758301 L 13.65739154815674 30.24444580078125 L 6.524097919464111 36.16241073608398 L 9.94796085357666 27.54832649230957 L 10.10113143920898 27.16296577453613 L 9.750741004943848 26.94116592407227 L 1.921895980834961 21.98566627502441 L 11.16674137115479 22.58076477050781 L 11.58069133758545 22.60740661621094 L 11.68332099914551 22.20549583435059 L 13.97664546966553 13.22398376464844 L 16.27001190185547 22.20549583435059 L 16.37272071838379 22.60774612426758 L 16.78700065612793 22.58073616027832 L 25.91477584838867 21.98566436767578 L 18.19972038269043 26.94299507141113 L 17.85325050354004 27.16562652587891 L 18.00537109375 27.54832649230957 L 21.42922973632812 36.16242218017578 Z" stroke="none"/>
          <path d="M 20.24120903015137 34.52714538574219 L 17.23650169372559 26.96759605407715 L 24.01755905151367 22.61041069030762 L 15.99098110198975 23.13369560241699 L 13.97665023803711 15.24495315551758 L 11.96253108978271 23.13302612304688 L 3.843725681304932 22.61040306091309 L 10.71895122528076 26.96227645874023 L 7.712130546569824 34.52711868286133 L 13.97664070129395 29.32991600036621 L 20.24120903015137 34.52714538574219 M 22.61725044250488 37.79769515991211 L 13.97664070129395 30.6292552947998 L 5.336071014404297 37.79769515991211 L 9.483321189880371 27.36364555358887 L 3.111816477030516e-05 21.36091613769531 L 11.19886112213135 22.08179664611816 L 13.97664070129395 11.20297527313232 L 16.75447082519531 22.08179664611816 L 27.81201171875 21.36091613769531 L 18.47001075744629 27.36364555358887 L 22.61725044250488 37.79769515991211 Z" stroke="none" fill="#bfbfbf"/>
        </g>
      </g>
    </g>
  </g>
</svg>
