<svg xmlns="http://www.w3.org/2000/svg" width="44.078" height="44.077" viewBox="0 0 44.078 44.077">
  <g id="Group_4463" data-name="Group 4463" transform="translate(-1044.379 -121.923)">
    <g id="Group_4426" data-name="Group 4426" transform="translate(1053.103 123.3)">
      <path id="Path_9128" data-name="Path 9128" d="M24.524,10.423V14.1a1.837,1.837,0,0,1-1.837,1.837h-10.1A1.837,1.837,0,0,1,10.75,14.1V10.423h3.214a3.673,3.673,0,0,1,7.346,0Z" transform="translate(-10.75 -6.75)" fill="#f6921c"/>
    </g>
    <g id="Group_4427" data-name="Group 4427" transform="translate(1065.959 143.502)">
      <ellipse id="Ellipse_56" data-name="Ellipse 56" cx="10.56" cy="10.56" rx="10.56" ry="10.56" fill="#f6921c"/>
    </g>
    <g id="Group_4428" data-name="Group 4428" transform="translate(1045.757 128.81)">
      <path id="Path_9129" data-name="Path 9129" d="M10.882,36.38V13.423A3.676,3.676,0,0,1,14.1,9.8V9.75H10.423A3.684,3.684,0,0,0,6.75,13.423V36.38a3.684,3.684,0,0,0,3.673,3.673h4.132A3.684,3.684,0,0,1,10.882,36.38Z" transform="translate(-6.75 -9.75)" fill="#f6921c"/>
    </g>
    <g id="Group_4429" data-name="Group 4429" transform="translate(1065.04 128.81)">
      <path id="Path_9130" data-name="Path 9130" d="M23.219,11.587V9.8a3.44,3.44,0,0,0-.459-.046H19.087v1.837a1.837,1.837,0,0,1-1.837,1.837h4.132A1.837,1.837,0,0,0,23.219,11.587Z" transform="translate(-17.25 -9.75)" fill="#f6921c"/>
    </g>
    <g id="Group_4430" data-name="Group 4430" transform="translate(1053.103 123.3)">
      <path id="Path_9131" data-name="Path 9131" d="M14.882,14.1V10.423H18.1A3.676,3.676,0,0,1,19.7,7.393a3.643,3.643,0,0,0-2.066-.643,3.684,3.684,0,0,0-3.673,3.673H10.75V14.1a1.837,1.837,0,0,0,1.837,1.837h4.132A1.837,1.837,0,0,1,14.882,14.1Z" transform="translate(-10.75 -6.75)" fill="#f6921c"/>
    </g>
    <g id="Group_4431" data-name="Group 4431" transform="translate(1065.959 143.502)">
      <path id="Path_9132" data-name="Path 9132" d="M21.882,28.31a10.561,10.561,0,0,1,8.494-10.355A10.559,10.559,0,1,0,28.31,38.87a10.5,10.5,0,0,0,2.066-.206A10.561,10.561,0,0,1,21.882,28.31Z" transform="translate(-17.75 -17.75)" fill="#f6921c"/>
    </g>
    <g id="Group_4432" data-name="Group 4432" transform="translate(1064.581 142.125)">
      <path id="Path_9133" data-name="Path 9133" d="M28.938,40.875A11.938,11.938,0,1,1,40.875,28.938,11.951,11.951,0,0,1,28.938,40.875Zm0-21.12a9.183,9.183,0,1,0,9.183,9.183A9.193,9.193,0,0,0,28.938,19.755Z" transform="translate(-17 -17)" fill="#002838"/>
    </g>
    <g id="Group_4433" data-name="Group 4433" transform="translate(1070.036 149.482)">
      <path id="Path_9134" data-name="Path 9134" d="M24.616,30.637a1.372,1.372,0,0,1-.973-.4L19.97,26.56l1.949-1.949,2.632,2.632,5.458-6.237,2.073,1.815-6.428,7.346a1.381,1.381,0,0,1-.992.47Z" transform="translate(-19.97 -21.006)" fill="#002838"/>
    </g>
    <g id="Group_4434" data-name="Group 4434" transform="translate(1044.379 127.432)">
      <path id="Path_9135" data-name="Path 9135" d="M22.878,42.058H11.051A5.056,5.056,0,0,1,6,37.008V14.051A5.056,5.056,0,0,1,11.051,9H14.5v2.755H11.051a2.3,2.3,0,0,0-2.3,2.3V37.008a2.3,2.3,0,0,0,2.3,2.3H22.878Z" transform="translate(-6 -9)" fill="#002838"/>
    </g>
    <g id="Group_4435" data-name="Group 4435" transform="translate(1067.116 127.432)">
      <path id="Path_9136" data-name="Path 9136" d="M26.865,19.725H24.11V14.051a2.3,2.3,0,0,0-2.3-2.3H18.38V9h3.434a5.056,5.056,0,0,1,5.051,5.051Z" transform="translate(-18.38 -9)" fill="#002838"/>
    </g>
    <g id="Group_4436" data-name="Group 4436" transform="translate(1051.725 121.923)">
      <path id="Path_9137" data-name="Path 9137" d="M23.315,17.938h-10.1A3.218,3.218,0,0,1,10,14.724V11.051a1.378,1.378,0,0,1,1.377-1.377H13.4a5.051,5.051,0,0,1,9.719,0h2.028a1.378,1.378,0,0,1,1.377,1.377v3.673A3.218,3.218,0,0,1,23.315,17.938Zm-10.56-5.51v2.3a.459.459,0,0,0,.459.459h10.1a.459.459,0,0,0,.459-.459v-2.3H21.938a1.378,1.378,0,0,1-1.377-1.377,2.3,2.3,0,0,0-4.591,0,1.378,1.378,0,0,1-1.377,1.377Z" transform="translate(-10 -6)" fill="#002838"/>
    </g>
    <g id="Group_4437" data-name="Group 4437" transform="translate(1051.266 136.615)">
      <path id="Path_9138" data-name="Path 9138" d="M9.75,14H27.2v2.755H9.75Z" transform="translate(-9.75 -14)" fill="#002838"/>
    </g>
    <g id="Group_4438" data-name="Group 4438" transform="translate(1051.266 142.125)">
      <path id="Path_9139" data-name="Path 9139" d="M9.75,17H22.918v2.755H9.75Z" transform="translate(-9.75 -17)" fill="#002838"/>
    </g>
    <g id="Group_4439" data-name="Group 4439" transform="translate(1051.266 147.634)">
      <path id="Path_9140" data-name="Path 9140" d="M9.75,20h9.991v2.755H9.75Z" transform="translate(-9.75 -20)" fill="#002838"/>
    </g>
  </g>
</svg>
