<svg id="Layer_1" data-name="Layer 1" xmlns="http://www.w3.org/2000/svg" viewBox="0 0 982 151.45"><defs><style>.cls-1{fill:#f7941d;}.cls-2{fill:#00a651;}</style></defs><title>logo</title><polygon class="cls-1" points="671.77 93.48 710.75 93.48 691.26 47.57 671.77 93.48"/><path class="cls-1" d="M1160.3,439.12l-83.32,94-62.68-58,60.75,19.12,80.77-58.19a75.33,75.33,0,0,0-40.55-11.79H832.57a75.56,75.56,0,0,0-59.54,29h81.9v15.65H822.15v87.7H804.73v-87.7h-41.2A75.49,75.49,0,0,0,756.84,500h0a75.74,75.74,0,0,0,75.73,75.73h282.7A75.73,75.73,0,0,0,1191,500h0A75.6,75.6,0,0,0,1160.3,439.12Zm-100.73,14.12H1077V476l-2.69,10.5-14.73-6ZM936.29,556.59l-9.9-23.33H874.27l-9.89,23.33H846.22l45.62-103.35h17.87l45.18,103.35Zm63.93.59A63.55,63.55,0,0,1,958,540.79l7.53-15.06c10.63,9.75,23.92,15.06,35,15.06,12.11,0,19.34-4.57,19.34-12.55,0-23-55.81-10.19-55.81-46.95,0-17.71,15.21-28.79,37.65-28.79a67.46,67.46,0,0,1,16.93,2.21l-13.41,14.5a38.4,38.4,0,0,0-4.85-.32c-10.18,0-16.83,3.84-16.83,10.78,0,22.59,55.81,10.48,55.66,47.69C1039.19,545.81,1023,557.18,1000.22,557.18Zm76.77-.59h-17.42V528L1077,544.07Zm51.53,0-29.06-38.9,12-13.57,38,52.47Z" transform="translate(-209 -424.27)"/><path class="cls-2" d="M271.22,476.4c-3.16-5.28-11.86-10.29-21.88-10.29-12.92,0-19.12,5.41-19.12,12.26,0,8,9.49,10.29,20.57,11.6C270,492.35,288,497.36,288,519.37c0,20.56-18.19,29.4-38.75,29.4-18.85,0-33.36-5.8-40.21-22.68l14.5-7.51c4.09,10.15,14.76,14.63,26,14.63,10.94,0,21.22-3.82,21.22-13.84,0-8.7-9.09-12.26-21.35-13.58-18.85-2.24-36.25-7.25-36.25-27.94,0-19,18.72-26.76,35.72-26.9,14.37,0,29.26,4.09,36.25,18.33Z" transform="translate(-209 -424.27)"/><path class="cls-2" d="M376.81,546.39H307.74V454.12h69.07V471H325v21.22h50v16.22H325v20.83h51.8Z" transform="translate(-209 -424.27)"/><path class="cls-2" d="M414.25,454.12v76.19H461.7v16.08H396.85V454.12Z" transform="translate(-209 -424.27)"/><path class="cls-2" d="M549.37,546.39H480.29V454.12h69.08V471H497.56v21.22h50v16.22h-50v20.83h51.81Z" transform="translate(-209 -424.27)"/><path class="cls-2" d="M650.74,534.79c-9.49,9.36-21.75,13.71-35.06,13.71-34.28,0-48.78-23.59-48.91-47.59s15.56-48.64,48.91-48.64a47.59,47.59,0,0,1,33.87,14.11L638,477.58a31.69,31.69,0,0,0-22.27-8.7c-22.28,0-31.9,16.61-31.77,32s9,31.25,31.77,31.25a34,34,0,0,0,23.2-9.36Z" transform="translate(-209 -424.27)"/><path class="cls-2" d="M689.63,469.94H660.37V454.12h75.92v15.82H707v76.45h-17.4Z" transform="translate(-209 -424.27)"/></svg>