<svg xmlns="http://www.w3.org/2000/svg" width="13.392" height="19.824" viewBox="0 0 13.392 19.824">
  <path id="man" d="M91.125,17.165v1.909a.323.323,0,1,1-.646,0V17.165a2.688,2.688,0,0,0-2.69-2.69,1.985,1.985,0,0,1-1.708-.959.323.323,0,0,1,.552-.336,1.343,1.343,0,0,0,1.155.649A3.335,3.335,0,0,1,91.125,17.165Zm-5.641-3.24a.323.323,0,0,1-.247.385,3.094,3.094,0,0,1-2.4-.47,1.96,1.96,0,0,1-1.462.636,2.688,2.688,0,0,0-2.69,2.69v1.909a.323.323,0,0,1-.646,0V17.165a3.335,3.335,0,0,1,3.336-3.336,1.348,1.348,0,0,0,1.351-1.347V12.4a4.33,4.33,0,0,1-2.462-3.743,1.319,1.319,0,0,1-1.013-1.278V5.7a5.922,5.922,0,0,1,1.6-4.318c1.85-1.783,4.816-1.67,7-.62a.324.324,0,0,1,.068.538,4.363,4.363,0,0,1,2.67,1.921.357.357,0,0,1,.074.254.327.327,0,0,1-.093.205,2.111,2.111,0,0,0-.611,1.491v2.2a.323.323,0,1,1-.646,0V5.17a2.752,2.752,0,0,1,.628-1.757,3.734,3.734,0,0,0-2.68-1.574l-.568-.061a.324.324,0,0,1-.089-.62l.258-.106c-3.365-1.173-6.964.13-6.964,4.644V7.375a.667.667,0,0,0,.364.591v-2.1a2.265,2.265,0,0,1,2.263-2.263H86.64A2.265,2.265,0,0,1,88.9,5.871V8.518a4.329,4.329,0,0,1-5.543,4.124,1.976,1.976,0,0,1-.169.66,2.448,2.448,0,0,0,1.908.376A.323.323,0,0,1,85.484,13.925Zm-.9-1.755a3.681,3.681,0,0,0,3.677-3.677V5.871A1.618,1.618,0,0,0,86.64,4.255H82.518A1.618,1.618,0,0,0,80.9,5.871V8.493A3.681,3.681,0,0,0,84.579,12.17Zm3.273,5.571h-.97a.323.323,0,1,0,0,.646h.97a.323.323,0,0,0,0-.646Z" transform="translate(-77.883 0.277)" stroke="#000" stroke-width="0.3"/>
</svg>
