<svg xmlns="http://www.w3.org/2000/svg" width="14.541" height="20.68" viewBox="0 0 14.541 20.68">
  <g id="home_1_" data-name="home (1)" transform="translate(-76)">
    <path id="Path_8438" data-name="Path 8438" d="M88.415,16.737a8.793,8.793,0,0,0-2.166-.65c.249-.258.5-.534.759-.827a16.713,16.713,0,0,0,2.418-3.552A10.04,10.04,0,0,0,90.541,7.27,7.27,7.27,0,0,0,76,7.27a10.04,10.04,0,0,0,1.114,4.438,16.713,16.713,0,0,0,2.418,3.552c.255.293.51.569.759.827a8.793,8.793,0,0,0-2.166.65c-1.089.52-1.318,1.113-1.318,1.52,0,.514.356,1.246,2.051,1.811a16.2,16.2,0,0,0,8.824,0c1.695-.565,2.051-1.3,2.051-1.811,0-.406-.229-1-1.318-1.52ZM76.808,7.27a6.462,6.462,0,0,1,12.925,0c0,3-1.806,5.7-3.322,7.445a22.283,22.283,0,0,1-3.141,2.957,22.283,22.283,0,0,1-3.141-2.957c-1.515-1.741-3.322-4.447-3.322-7.446ZM87.427,19.3a15.419,15.419,0,0,1-8.313,0c-1.106-.369-1.5-.793-1.5-1.045,0-.42,1.053-1.142,3.386-1.465.346.328.667.614.949.854-.428.148-.7.367-.7.611,0,.446.9.808,2.02.808s2.02-.361,2.02-.808c0-.244-.271-.463-.7-.611.281-.239.6-.525.949-.854,2.334.323,3.386,1.046,3.386,1.465C88.925,18.508,88.533,18.933,87.427,19.3Z" fill="#fff"/>
    <path id="Path_8439" data-name="Path 8439" d="M127.309,45.655a5.655,5.655,0,1,0-5.655,5.655A5.661,5.661,0,0,0,127.309,45.655Zm-10.5,0a4.847,4.847,0,1,1,4.847,4.847A4.852,4.852,0,0,1,116.808,45.655Z" transform="translate(-38.384 -38.384)" fill="#fff"/>
    <path id="Path_8440" data-name="Path 8440" d="M160.442,106.059a.4.4,0,0,0,.4.4h1.616a.4.4,0,0,0,.4-.4v-2.02h.808a.4.4,0,0,0,.268-.706l-3.635-3.231a.4.4,0,0,0-.537,0l-3.635,3.231a.4.4,0,0,0,.268.706h.808v2.02a.4.4,0,0,0,.4.4h1.616a.4.4,0,0,0,.4-.4v-1.212h.808Zm-1.212-2.02a.4.4,0,0,0-.4.4v1.212h-.808v-2.02a.4.4,0,0,0-.4-.4h-.149l2.573-2.287,2.573,2.287h-.149a.4.4,0,0,0-.4.4v2.02h-.808v-1.212a.4.4,0,0,0-.4-.4Z" transform="translate(-76.768 -95.961)" fill="#fff"/>
  </g>
</svg>
