<svg xmlns="http://www.w3.org/2000/svg" width="19.309" height="19.865" viewBox="0 0 19.309 19.865">
  <g id="messenger" transform="translate(-14.8 -7.8)">
    <path id="Path_9158" data-name="Path 9158" d="M31.127,10.47a10.249,10.249,0,0,0-13.345,0,8,8,0,0,0-2.782,6,7.826,7.826,0,0,0,1.794,4.968l-1.083,5.643a.314.314,0,0,0,.448.341l5.672-2.809a10.471,10.471,0,0,0,2.623.331,9.977,9.977,0,0,0,6.672-2.47,7.87,7.87,0,0,0,0-12.009ZM24.455,24.32a9.846,9.846,0,0,1-2.575-.339.313.313,0,0,0-.221.022l-5.211,2.581.991-5.167a.314.314,0,0,0-.068-.261,7.223,7.223,0,0,1-1.743-4.681c0-4.326,3.96-7.846,8.827-7.846s8.827,3.52,8.827,7.846S29.322,24.32,24.455,24.32Z" fill="#002838" stroke="#002838" stroke-width="0.4"/>
    <path id="Path_9159" data-name="Path 9159" d="M233.942,201.883a.942.942,0,1,1,.942-.942A.942.942,0,0,1,233.942,201.883Zm0-1.255a.314.314,0,1,0,.314.314A.314.314,0,0,0,233.942,200.628Z" transform="translate(-209.448 -184.468)" fill="#002838" stroke="#002838" stroke-width="0.4"/>
    <path id="Path_9160" data-name="Path 9160" d="M153.942,201.883a.942.942,0,1,1,.942-.942A.942.942,0,0,1,153.942,201.883Zm0-1.255a.314.314,0,1,0,.314.314A.314.314,0,0,0,153.942,200.628Z" transform="translate(-132.586 -184.468)" fill="#002838" stroke="#002838" stroke-width="0.4"/>
    <path id="Path_9161" data-name="Path 9161" d="M313.942,200a.942.942,0,1,0,.942.942A.942.942,0,0,0,313.942,200Zm0,1.255a.314.314,0,1,1,.314-.314A.314.314,0,0,1,313.942,201.255Z" transform="translate(-286.309 -184.468)" fill="#002838" stroke="#002838" stroke-width="0.4"/>
  </g>
</svg>
