<svg xmlns="http://www.w3.org/2000/svg" width="54.732" height="54.703" viewBox="0 0 54.732 54.703">
  <g id="Group_4748" data-name="Group 4748" transform="translate(-297.009 -118.987)">
    <g id="Group_4543" data-name="Group 4543" transform="translate(307.838 120.697)">
      <path id="Path_9298" data-name="Path 9298" d="M27.848,11.31v4.56a2.281,2.281,0,0,1-2.28,2.28H13.03a2.281,2.281,0,0,1-2.28-2.28V11.31h3.99a4.56,4.56,0,0,1,9.119,0Z" transform="translate(-10.75 -6.75)" fill="#f3f3f1"/>
    </g>
    <g id="Group_4544" data-name="Group 4544" transform="translate(320.276 149.622)">
      <path id="Path_9299" data-name="Path 9299" d="M44.071,26.118l-5.962-6.05a2.15,2.15,0,0,0-3.041,3.041l-2.024-2.024A2.15,2.15,0,0,0,30,24.125l.506.506L30,24.125l-1.012-1.012a2.15,2.15,0,0,0-3.041,3.041l-6.073-6.073a2.15,2.15,0,0,0-3.041,3.041L27.19,33.477c-1.571-.233-4.192-.321-5.8,1.288-1.521,1.521-1.48,2.574-1.014,3.039,1.274,1.274,2.268-.75,8.1,2.022s9.58,2.526,12.153-.007l2.027-2.027.009-.009c3.465-3.465,4.512-8.1,1.411-11.666Z" transform="translate(-16.206 -19.438)" fill="#f3f3f1"/>
    </g>
    <g id="Group_4545" data-name="Group 4545" transform="translate(322.656 127.536)">
      <path id="Path_9300" data-name="Path 9300" d="M24.659,12.03V9.807a4.271,4.271,0,0,0-.57-.057H19.53v2.28a2.281,2.281,0,0,1-2.28,2.28h5.129A2.281,2.281,0,0,0,24.659,12.03Z" transform="translate(-17.25 -9.75)" fill="#f7931c"/>
    </g>
    <g id="Group_4546" data-name="Group 4546" transform="translate(298.719 127.536)">
      <path id="Path_9301" data-name="Path 9301" d="M11.879,42.806V14.31a4.563,4.563,0,0,1,3.99-4.5V9.75H11.31a4.573,4.573,0,0,0-4.56,4.56v28.5a4.573,4.573,0,0,0,4.56,4.56h5.129A4.573,4.573,0,0,1,11.879,42.806Z" transform="translate(-6.75 -9.75)" fill="#f7931c"/>
    </g>
    <g id="Group_4547" data-name="Group 4547" transform="translate(307.838 120.697)">
      <path id="Path_9302" data-name="Path 9302" d="M15.879,15.869V11.31h3.99a4.563,4.563,0,0,1,1.995-3.762,4.522,4.522,0,0,0-2.565-.8,4.573,4.573,0,0,0-4.56,4.56H10.75v4.56a2.281,2.281,0,0,0,2.28,2.28h5.129A2.281,2.281,0,0,1,15.879,15.869Z" transform="translate(-10.75 -6.75)" fill="#f7931c"/>
    </g>
    <g id="Group_4548" data-name="Group 4548" transform="translate(331.49 150.634)">
      <path id="Path_9303" data-name="Path 9303" d="M24.786,25.582a2.15,2.15,0,0,1,3.041-3.041l1.012,1.012a2.131,2.131,0,0,1-.62-1.571l-1.47-1.47a2.15,2.15,0,0,0-3.041,3.041L22.7,22.541a2.131,2.131,0,0,0-1.571-.62Z" transform="translate(-21.125 -19.882)" fill="#d5dbe1"/>
    </g>
    <g id="Group_4549" data-name="Group 4549" transform="translate(338.527 149.62)">
      <path id="Path_9304" data-name="Path 9304" d="M24.889,21.086a2.147,2.147,0,0,1,3.039,0l2.024,2.024a2.132,2.132,0,0,1-.622-1.553l-1.466-1.489a2.136,2.136,0,0,0-3.538,2.2A2.077,2.077,0,0,1,24.889,21.086Z" transform="translate(-24.212 -19.437)" fill="#d5dbe1"/>
    </g>
    <g id="Group_4550" data-name="Group 4550" transform="translate(320.279 149.63)">
      <path id="Path_9305" data-name="Path 9305" d="M33.6,39.815c-5.832-2.772-6.826-.745-8.1-2.022-.465-.465-.506-1.518,1.014-3.039,1.612-1.612,4.234-1.521,5.8-1.288L21.968,23.111a2.131,2.131,0,0,1-.62-1.571l-1.47-1.47a2.15,2.15,0,0,0-3.041,3.041L27.191,33.466c-1.571-.233-4.192-.321-5.8,1.288-1.521,1.521-1.48,2.574-1.014,3.039,1.274,1.274,2.268-.75,8.1,2.022,4.094,1.945,7.145,2.378,9.5,1.6a22.89,22.89,0,0,1-4.366-1.6Z" transform="translate(-16.207 -19.441)" fill="#f7931c"/>
    </g>
    <g id="Group_4551" data-name="Group 4551" transform="translate(297.009 125.826)">
      <path id="Path_9306" data-name="Path 9306" d="M26.609,50.036H12.269A6.276,6.276,0,0,1,6,43.766v-28.5A6.276,6.276,0,0,1,12.269,9h4.286v3.42H12.269a2.854,2.854,0,0,0-2.85,2.85v28.5a2.854,2.854,0,0,0,2.85,2.85h14.34Z" transform="translate(-6 -9)" fill="#002838"/>
    </g>
    <g id="Group_4552" data-name="Group 4552" transform="translate(325.232 125.826)">
      <path id="Path_9307" data-name="Path 9307" d="M28.912,27.147h-3.42V15.269a2.854,2.854,0,0,0-2.85-2.85H18.38V9h4.263a6.276,6.276,0,0,1,6.269,6.269Z" transform="translate(-18.38 -9)" fill="#002838"/>
    </g>
    <g id="Group_4554" data-name="Group 4554" transform="translate(305.558 137.225)">
      <path id="Path_9309" data-name="Path 9309" d="M9.75,14H31.408v3.42H9.75Z" transform="translate(-9.75 -14)" fill="#002838"/>
    </g>
    <g id="Group_4555" data-name="Group 4555" transform="translate(305.558 144.064)">
      <path id="Path_9310" data-name="Path 9310" d="M9.75,17H19.941v3.42H9.75Z" transform="translate(-9.75 -17)" fill="#002838"/>
    </g>
    <g id="Group_4556" data-name="Group 4556" transform="translate(305.558 150.904)">
      <path id="Path_9311" data-name="Path 9311" d="M9.75,20h7.934v3.42H9.75Z" transform="translate(-9.75 -20)" fill="#002838"/>
    </g>
    <g id="Group_4557" data-name="Group 4557" transform="translate(327.683 150.955)">
      <path id="Path_9312" data-name="Path 9312" d="M23.116,29.14,20.586,26.61a3.859,3.859,0,0,1,5.458-5.458l1.014,1.012-2.421,2.419-1.012-1.012a.437.437,0,0,0-.62,0,.494.494,0,0,0,0,.62l2.531,2.531Z" transform="translate(-19.455 -20.023)" fill="#002838"/>
    </g>
    <g id="Group_4558" data-name="Group 4558" transform="translate(331.734 148.932)">
      <path id="Path_9313" data-name="Path 9313" d="M24.893,28.249l-2.531-2.531a3.859,3.859,0,0,1,5.46-5.455l2.024,2.024-2.419,2.419L25.4,22.682a.437.437,0,0,0-.62,0,.5.5,0,0,0,0,.62l2.531,2.531Z" transform="translate(-21.232 -19.135)" fill="#002838"/>
    </g>
    <g id="Group_4559" data-name="Group 4559" transform="translate(336.797 147.912)">
      <path id="Path_9314" data-name="Path 9314" d="M33.694,28.306l-6.071-6.071a.438.438,0,0,0-.62.62l1.521,1.518L26.1,26.793l-1.518-1.518a3.86,3.86,0,0,1,2.729-6.586h0a3.836,3.836,0,0,1,2.729,1.133l6.076,6.073Z" transform="translate(-23.453 -18.688)" fill="#002838"/>
    </g>
    <g id="Group_4560" data-name="Group 4560" transform="translate(318.571 147.915)">
      <path id="Path_9315" data-name="Path 9315" d="M36.612,44.464A18.887,18.887,0,0,1,28.7,42.323c-3.126-1.482-4.605-1.416-5.583-1.393a3.541,3.541,0,0,1-2.991-.962C19.1,38.94,18.752,36.9,21.141,34.51a6.372,6.372,0,0,1,3.018-1.657l-7.571-7.571a3.858,3.858,0,0,1,5.455-5.455L28.12,25.9,25.7,28.319l-6.073-6.073a.434.434,0,0,0-.618,0,.429.429,0,0,0-.132.31.437.437,0,0,0,.128.31L29.36,33.222a1.709,1.709,0,0,1-1.457,2.9c-1.154-.171-3.249-.292-4.345.807a5.247,5.247,0,0,0-.511.581c1.242-.043,3.3-.093,7.122,1.723,6.372,3.03,8.884,1.635,10.218.321L42.4,37.538c2.485-2.485,4.24-6.513,1.04-9.716l-5.588-5.585a.438.438,0,0,0-.62.62L34.82,25.275a3.858,3.858,0,0,1,2.727-6.586h0a3.836,3.836,0,0,1,2.729,1.133l5.565,5.563c4.06,4.06,3.648,9.906-1.01,14.563l-2.038,2.036a8.463,8.463,0,0,1-6.183,2.48Z" transform="translate(-15.458 -18.689)" fill="#002838"/>
    </g>
    <g id="Group_4561" data-name="Group 4561" transform="translate(308.884 120.607)">
      <path id="Path_9283" data-name="Path 9283" d="M26.819,11.035V15.32a2.143,2.143,0,0,1-2.142,2.142H12.892A2.143,2.143,0,0,1,10.75,15.32V11.035H14.5a4.285,4.285,0,0,1,8.57,0Z" transform="translate(-10.75 -6.75)" fill="#f7931d"/>
    </g>
    <g id="Group_4553" data-name="Group 4553" transform="translate(306.128 118.987)">
      <path id="Path_9308" data-name="Path 9308" d="M26.528,20.818H13.99A3.994,3.994,0,0,1,10,16.829v-4.56a1.71,1.71,0,0,1,1.71-1.71h2.517a6.27,6.27,0,0,1,12.064,0h2.517a1.71,1.71,0,0,1,1.71,1.71v4.56A3.994,3.994,0,0,1,26.528,20.818ZM13.42,13.979v2.85a.57.57,0,0,0,.57.57H26.528a.57.57,0,0,0,.57-.57v-2.85h-2.28a1.71,1.71,0,0,1-1.71-1.71,2.85,2.85,0,0,0-5.7,0,1.71,1.71,0,0,1-1.71,1.71Z" transform="translate(-10 -6)" fill="#002838"/>
    </g>
  </g>
</svg>
