<svg id="dashboard" xmlns="http://www.w3.org/2000/svg" width="16" height="16" viewBox="0 0 16 16">
  <path id="Path_9272" data-name="Path 9272" d="M6.167,5.333h-5A1.168,1.168,0,0,1,0,4.167v-3A1.168,1.168,0,0,1,1.167,0h5A1.168,1.168,0,0,1,7.333,1.167v3A1.168,1.168,0,0,1,6.167,5.333ZM1.167,1A.167.167,0,0,0,1,1.167v3a.167.167,0,0,0,.167.167h5a.167.167,0,0,0,.167-.167v-3A.167.167,0,0,0,6.167,1Zm0,0" fill="#696767"/>
  <path id="Path_9273" data-name="Path 9273" d="M6.167,222.665h-5A1.168,1.168,0,0,1,0,221.5v-7a1.168,1.168,0,0,1,1.167-1.167h5A1.168,1.168,0,0,1,7.333,214.5v7A1.168,1.168,0,0,1,6.167,222.665Zm-5-8.333A.167.167,0,0,0,1,214.5v7a.167.167,0,0,0,.167.167h5a.167.167,0,0,0,.167-.167v-7a.167.167,0,0,0-.167-.167Zm0,0" transform="translate(0 -206.665)" fill="#696767"/>
  <path id="Path_9274" data-name="Path 9274" d="M283.5,346.665h-5a1.168,1.168,0,0,1-1.167-1.167v-3a1.168,1.168,0,0,1,1.167-1.167h5a1.168,1.168,0,0,1,1.167,1.167v3A1.168,1.168,0,0,1,283.5,346.665Zm-5-4.333a.167.167,0,0,0-.167.167v3a.167.167,0,0,0,.167.167h5a.167.167,0,0,0,.167-.167v-3a.167.167,0,0,0-.167-.167Zm0,0" transform="translate(-268.665 -330.665)" fill="#696767"/>
  <path id="Path_9275" data-name="Path 9275" d="M283.5,9.333h-5a1.168,1.168,0,0,1-1.167-1.167v-7A1.168,1.168,0,0,1,278.5,0h5a1.168,1.168,0,0,1,1.167,1.167v7A1.168,1.168,0,0,1,283.5,9.333ZM278.5,1a.167.167,0,0,0-.167.167v7a.167.167,0,0,0,.167.167h5a.167.167,0,0,0,.167-.167v-7A.167.167,0,0,0,283.5,1Zm0,0" transform="translate(-268.665)" fill="#696767"/>
</svg>
