<svg xmlns="http://www.w3.org/2000/svg" width="45.17" height="45.17" viewBox="0 0 45.17 45.17">
  <g id="Group_4460" data-name="Group 4460" transform="translate(-490.831 -121)">
    <g id="Group_4390" data-name="Group 4390" transform="translate(528.943 133.704)">
      <path id="Path_9093" data-name="Path 9093" d="M31.5,33.306l-2.426,4.852-2.426-4.852a3.762,3.762,0,0,1-.4-1.683V15.573a2.823,2.823,0,0,1,5.646,0v16.05A3.756,3.756,0,0,1,31.5,33.306Z" transform="translate(-26.25 -12.75)" fill="#f7931d"/>
    </g>
    <g id="Group_4392" data-name="Group 4392" transform="translate(499.771 122.412)">
      <path id="Path_9095" data-name="Path 9095" d="M26.748,10.514v3.764a1.883,1.883,0,0,1-1.882,1.882H12.632a1.883,1.883,0,0,1-1.882-1.882V10.514h4.235a3.764,3.764,0,0,1,7.528,0Z" transform="translate(-10.75 -6.75)" fill="#f7931d"/>
    </g>
    <g id="Group_4393" data-name="Group 4393" transform="translate(513.887 128.058)">
      <path id="Path_9096" data-name="Path 9096" d="M24.367,11.632V9.8A3.867,3.867,0,0,0,23.9,9.75H20.132v1.882a1.883,1.883,0,0,1-1.882,1.882h4.235A1.883,1.883,0,0,0,24.367,11.632Z" transform="translate(-18.25 -9.75)" fill="#f7931d"/>
    </g>
    <g id="Group_4394" data-name="Group 4394" transform="translate(492.243 128.058)">
      <path id="Path_9097" data-name="Path 9097" d="M10.985,42.686V13.514A3.752,3.752,0,0,1,14.278,9.8V9.75H10.514A3.763,3.763,0,0,0,6.75,13.514V42.686a3.763,3.763,0,0,0,3.764,3.764h4.235A3.763,3.763,0,0,1,10.985,42.686Z" transform="translate(-6.75 -9.75)" fill="#f7931d"/>
    </g>
    <g id="Group_4395" data-name="Group 4395" transform="translate(499.771 126.176)">
      <path id="Path_9098" data-name="Path 9098" d="M14.985,12.514V8.75H10.75v3.764A1.883,1.883,0,0,0,12.632,14.4h4.235A1.883,1.883,0,0,1,14.985,12.514Z" transform="translate(-10.75 -8.75)" fill="#f7931d"/>
    </g>
    <g id="Group_4396" data-name="Group 4396" transform="translate(504.006 122.412)">
      <path id="Path_9099" data-name="Path 9099" d="M18.882,7.409a3.733,3.733,0,0,0-2.117-.659A3.775,3.775,0,0,0,13,10.514h4.235A3.767,3.767,0,0,1,18.882,7.409Z" transform="translate(-13 -6.75)" fill="#f7931d"/>
    </g>
    <g id="Group_4397" data-name="Group 4397" transform="translate(527.532 132.292)">
      <path id="Path_9100" data-name="Path 9100" d="M29.735,40.231a1.413,1.413,0,0,1-1.263-.781L26.046,34.6a5.231,5.231,0,0,1-.546-2.315V16.235a4.235,4.235,0,0,1,8.469,0v16.05a5.217,5.217,0,0,1-.546,2.313L31,39.45A1.413,1.413,0,0,1,29.735,40.231Zm0-25.408a1.413,1.413,0,0,0-1.412,1.412v16.05a2.383,2.383,0,0,0,.248,1.054l1.163,2.326L30.9,33.339a2.383,2.383,0,0,0,.248-1.054V16.235A1.413,1.413,0,0,0,29.735,14.823Z" transform="translate(-25.5 -12)" fill="#002838"/>
    </g>
    <g id="Group_4398" data-name="Group 4398" transform="translate(497.889 137.939)">
      <path id="Path_9101" data-name="Path 9101" d="M9.75,15H29.512v2.823H9.75Z" transform="translate(-9.75 -15)" fill="#002838"/>
    </g>
    <g id="Group_4399" data-name="Group 4399" transform="translate(497.889 143.585)">
      <path id="Path_9102" data-name="Path 9102" d="M9.75,18H29.512v2.823H9.75Z" transform="translate(-9.75 -18)" fill="#002838"/>
    </g>
    <g id="Group_4400" data-name="Group 4400" transform="translate(497.889 149.231)">
      <path id="Path_9103" data-name="Path 9103" d="M9.75,21H29.512v2.823H9.75Z" transform="translate(-9.75 -21)" fill="#002838"/>
    </g>
    <g id="Group_4401" data-name="Group 4401" transform="translate(497.889 154.877)">
      <path id="Path_9104" data-name="Path 9104" d="M9.75,24H29.512v2.823H9.75Z" transform="translate(-9.75 -24)" fill="#002838"/>
    </g>
    <g id="Group_4402" data-name="Group 4402" transform="translate(490.831 126.646)">
      <path id="Path_9105" data-name="Path 9105" d="M34.7,48.524H11.176A5.18,5.18,0,0,1,6,43.348V14.176A5.18,5.18,0,0,1,11.176,9H14.72v2.823H11.176a2.356,2.356,0,0,0-2.353,2.353V43.348A2.356,2.356,0,0,0,11.176,45.7H34.7a2.356,2.356,0,0,0,2.353-2.353V14.176A2.356,2.356,0,0,0,34.7,11.823H31.158V9H34.7a5.18,5.18,0,0,1,5.176,5.176V43.348A5.18,5.18,0,0,1,34.7,48.524Z" transform="translate(-6 -9)" fill="#002838"/>
    </g>
    <g id="Group_4403" data-name="Group 4403" transform="translate(498.359 121)">
      <path id="Path_9106" data-name="Path 9106" d="M25.527,18.234H13.294A3.3,3.3,0,0,1,10,14.94V11.176a1.412,1.412,0,0,1,1.412-1.412H14.43a5.176,5.176,0,0,1,9.96,0h3.019a1.412,1.412,0,0,1,1.412,1.412V14.94A3.3,3.3,0,0,1,25.527,18.234Zm-12.7-5.646V14.94a.471.471,0,0,0,.471.471H25.527A.471.471,0,0,0,26,14.94V12.587H23.175a1.412,1.412,0,0,1-1.412-1.412,2.353,2.353,0,0,0-4.705,0,1.412,1.412,0,0,1-1.412,1.412Z" transform="translate(-10 -6)" fill="#002838"/>
    </g>
  </g>
</svg>
