<svg xmlns="http://www.w3.org/2000/svg" width="125.472" height="31.825" viewBox="0 0 125.472 31.825">
  <g id="Group_4481" data-name="Group 4481" transform="translate(-3276.857 -2342.68)">
    <path id="Path_9167" data-name="Path 9167" d="M36.119-88.371c-1.474-1.68-4.137-2.4-7.545-2.4h-9.89a1.416,1.416,0,0,0-1.4,1.195l-4.116,26.12a.849.849,0,0,0,.193.684.849.849,0,0,0,.646.3h6.106L21.645-72.2l-.048.3a1.412,1.412,0,0,1,1.394-1.195h2.9c5.7,0,10.163-2.315,11.467-9.013q.058-.3.1-.579c.387-2.475,0-4.16-1.342-5.686" transform="translate(3263.702 2433.451)" fill="#003087"/>
    <path id="Path_9168" data-name="Path 9168" d="M228.283-64.48c-.373,2.451-2.245,2.451-4.055,2.451H223.2l.723-4.576a.569.569,0,0,1,.562-.48h.473c1.232,0,2.4,0,3,.7a2.282,2.282,0,0,1,.331,1.9m-.788-6.395h-6.828a.951.951,0,0,0-.938.8L216.97-52.566a.569.569,0,0,0,.13.458.57.57,0,0,0,.432.2h3.5a.664.664,0,0,0,.656-.56l.783-4.965a.949.949,0,0,1,.937-.8h2.16c4.5,0,7.094-2.175,7.771-6.49a5.258,5.258,0,0,0-.871-4.406c-.971-1.141-2.692-1.745-4.976-1.745" transform="translate(3146.288 2421.989)" fill="#009cde"/>
    <path id="Path_9169" data-name="Path 9169" d="M113.4-64.48c-.373,2.451-2.245,2.451-4.056,2.451h-1.03l.723-4.576a.569.569,0,0,1,.562-.48h.473c1.232,0,2.4,0,3,.7a2.279,2.279,0,0,1,.332,1.9m-.788-6.395h-6.828a.95.95,0,0,0-.938.8l-2.76,17.507a.569.569,0,0,0,.129.458.569.569,0,0,0,.432.2h3.261a.949.949,0,0,0,.937-.8l.746-4.723a.948.948,0,0,1,.937-.8h2.16c4.5,0,7.094-2.176,7.771-6.491a5.258,5.258,0,0,0-.871-4.406c-.971-1.141-2.692-1.745-4.976-1.745M128.46-58.194a3.646,3.646,0,0,1-3.69,3.122,2.76,2.76,0,0,1-2.2-.883,2.775,2.775,0,0,1-.512-2.3,3.658,3.658,0,0,1,3.664-3.146,2.756,2.756,0,0,1,2.18.891,2.814,2.814,0,0,1,.555,2.312m4.557-6.365h-3.269a.57.57,0,0,0-.563.482l-.143.914-.229-.331c-.708-1.027-2.286-1.372-3.862-1.372a7.518,7.518,0,0,0-7.3,6.576,6.173,6.173,0,0,0,1.217,5.024,5.116,5.116,0,0,0,4.117,1.662,6.26,6.26,0,0,0,4.527-1.87l-.146.908a.569.569,0,0,0,.13.459.569.569,0,0,0,.433.2h2.944a.949.949,0,0,0,.938-.8L133.58-63.9a.57.57,0,0,0-.13-.459.57.57,0,0,0-.433-.2" transform="translate(3212.474 2421.989)" fill="#003087"/>
    <path id="Path_9170" data-name="Path 9170" d="M264.383-50.028a3.646,3.646,0,0,1-3.69,3.122,2.76,2.76,0,0,1-2.2-.883,2.775,2.775,0,0,1-.512-2.3,3.657,3.657,0,0,1,3.664-3.146,2.756,2.756,0,0,1,2.18.891,2.814,2.814,0,0,1,.555,2.312m4.557-6.365h-3.27a.57.57,0,0,0-.563.482l-.143.914-.229-.331c-.708-1.027-2.286-1.372-3.862-1.372a7.52,7.52,0,0,0-7.3,6.576,6.173,6.173,0,0,0,1.218,5.024,5.116,5.116,0,0,0,4.117,1.662,6.261,6.261,0,0,0,4.527-1.87l-.146.908a.567.567,0,0,0,.128.459.567.567,0,0,0,.433.2H266.8a.951.951,0,0,0,.938-.8L269.5-55.734a.569.569,0,0,0-.13-.459.57.57,0,0,0-.433-.2" transform="translate(3125.251 2413.822)" fill="#009cde"/>
    <path id="Path_9171" data-name="Path 9171" d="M195.443-55.974h-3.287a.945.945,0,0,0-.783.416l-4.534,6.676L184.917-55.3a.951.951,0,0,0-.909-.678h-3.23a.57.57,0,0,0-.463.238.57.57,0,0,0-.076.515L183.857-44.6l-3.4,4.8a.57.57,0,0,0-.04.59.57.57,0,0,0,.505.308H184.2a.951.951,0,0,0,.779-.408L195.91-55.08a.569.569,0,0,0,.037-.588.569.569,0,0,0-.5-.305" transform="translate(3167.462 2413.404)" fill="#003087"/>
    <path id="Path_9172" data-name="Path 9172" d="M295.225-70.392l-2.8,17.827a.569.569,0,0,0,.13.458.57.57,0,0,0,.433.2H295.8a.95.95,0,0,0,.938-.8L299.5-70.216a.569.569,0,0,0-.13-.459.569.569,0,0,0-.433-.2h-3.153a.568.568,0,0,0-.563.481" transform="translate(3102.819 2421.988)" fill="#009cde"/>
    <path id="Path_9173" data-name="Path 9173" d="M36.119-88.371c-1.474-1.68-4.137-2.4-7.545-2.4h-9.89a1.416,1.416,0,0,0-1.4,1.195l-4.116,26.12a.849.849,0,0,0,.193.684.849.849,0,0,0,.646.3h6.106L21.645-72.2l-.048.3a1.412,1.412,0,0,1,1.394-1.195h2.9c5.7,0,10.163-2.315,11.467-9.013q.058-.3.1-.579c.387-2.475,0-4.16-1.342-5.686" transform="translate(3263.702 2433.451)" fill="#003087"/>
    <path id="Path_9174" data-name="Path 9174" d="M23.291-82.65A1.24,1.24,0,0,1,24.514-83.7h7.754a16.3,16.3,0,0,1,2.557.185,10.746,10.746,0,0,1,1.268.283,7,7,0,0,1,1.365.544c.389-2.476,0-4.16-1.341-5.687-1.475-1.679-4.137-2.4-7.545-2.4H18.681a1.416,1.416,0,0,0-1.4,1.195L13.165-63.457a.849.849,0,0,0,.193.684.849.849,0,0,0,.645.3H20.11L21.643-72.2Z" transform="translate(3263.703 2433.449)" fill="#003087"/>
    <path id="Path_9175" data-name="Path 9175" d="M46.325-71.7q-.045.291-.1.579c-1.3,6.7-5.767,9.013-11.467,9.013h-2.9a1.41,1.41,0,0,0-1.393,1.195l-1.486,9.421-.423,2.673a.743.743,0,0,0,.169.6.743.743,0,0,0,.565.26h5.147A1.239,1.239,0,0,0,35.657-49l.05-.262.97-6.148.062-.34A1.239,1.239,0,0,1,37.963-56.8h.77c4.986,0,8.89-2.025,10.031-7.884.475-2.447.229-4.492-1.03-5.928A4.915,4.915,0,0,0,46.325-71.7" transform="translate(3254.837 2422.461)" fill="#009cde"/>
    <path id="Path_9176" data-name="Path 9176" d="M47.566-73.615q-.3-.088-.615-.158c-.211-.047-.43-.088-.653-.123a15.988,15.988,0,0,0-2.558-.188H35.986a1.236,1.236,0,0,0-1.223,1.046L33.116-62.589l-.048.3a1.41,1.41,0,0,1,1.393-1.195h2.9c5.7,0,10.163-2.315,11.467-9.013.039-.2.071-.39.1-.579a7.04,7.04,0,0,0-1.072-.452c-.1-.032-.194-.062-.293-.092" transform="translate(3252.231 2423.837)" fill="#012169"/>
  </g>
</svg>
