<svg id="gift" xmlns="http://www.w3.org/2000/svg" width="15.529" height="15.529" viewBox="0 0 15.529 15.529">
  <path id="Path_8241" data-name="Path 8241" d="M13.97,19.764h-11A.972.972,0,0,1,2,18.794v-6.47A.324.324,0,0,1,2.324,12H14.617a.324.324,0,0,1,.324.324v6.47A.972.972,0,0,1,13.97,19.764ZM2.647,12.647v6.147a.324.324,0,0,0,.324.324h11a.324.324,0,0,0,.324-.324V12.647Z" transform="translate(-0.706 -4.236)" fill="#696767"/>
  <path id="Path_8242" data-name="Path 8242" d="M14.558,10.882H.971A.972.972,0,0,1,0,9.912V7.971A.972.972,0,0,1,.971,7H14.558a.972.972,0,0,1,.971.971V9.912A.972.972,0,0,1,14.558,10.882ZM.971,7.647a.324.324,0,0,0-.324.324V9.912a.324.324,0,0,0,.324.324H14.558a.324.324,0,0,0,.324-.324V7.971a.324.324,0,0,0-.324-.324Z" transform="translate(0 -2.471)" fill="#696767"/>
  <path id="Path_8243" data-name="Path 8243" d="M11.823,5.176a.324.324,0,0,1-.32-.369C11.51,4.759,12.234,0,16.029,0c1.672,0,2.265.9,2.265,1.676C18.294,3.13,16.287,5.176,11.823,5.176ZM16.029.647c-2.661,0-3.568,2.837-3.81,3.876,3.545-.11,5.429-1.693,5.429-2.846a.842.842,0,0,0-.358-.7,2.109,2.109,0,0,0-1.26-.327Z" transform="translate(-4.059 0)" fill="#696767"/>
  <path id="Path_8244" data-name="Path 8244" d="M8.471,5.176C4.008,5.176,2,3.13,2,1.676A1.5,1.5,0,0,1,2.617.457,2.733,2.733,0,0,1,4.265,0c3.8,0,4.519,4.759,4.526,4.807a.324.324,0,0,1-.32.369ZM4.265.647c-1,0-1.618.394-1.618,1.029,0,1.154,1.885,2.737,5.432,2.847C7.844,3.478,6.959.647,4.265.647Z" transform="translate(-0.706)" fill="#696767"/>
  <path id="Path_8245" data-name="Path 8245" d="M11.824,18a.324.324,0,0,1-.324-.324V7.324a.324.324,0,1,1,.647,0V17.676A.324.324,0,0,1,11.824,18Z" transform="translate(-4.059 -2.471)" fill="#696767"/>
</svg>
