<svg xmlns="http://www.w3.org/2000/svg" width="18.231" height="18.231" viewBox="0 0 18.231 18.231">
  <g id="setting_2_" data-name="setting (2)" transform="translate(-7.95 -7.95)">
    <path id="Path_9276" data-name="Path 9276" d="M25.839,15.6H24.23a7.332,7.332,0,0,0-1.064-2.569L24.3,11.9a.293.293,0,0,0,0-.414L22.649,9.828a.293.293,0,0,0-.414,0L21.1,10.966A7.332,7.332,0,0,0,18.528,9.9V8.292A.292.292,0,0,0,18.235,8H15.9a.292.292,0,0,0-.292.292V9.9a7.332,7.332,0,0,0-2.569,1.064L11.9,9.828a.293.293,0,0,0-.414,0L9.828,11.482a.293.293,0,0,0,0,.414l1.138,1.138A7.332,7.332,0,0,0,9.9,15.6H8.292A.292.292,0,0,0,8,15.9v2.34a.292.292,0,0,0,.292.292H9.9A7.332,7.332,0,0,0,10.966,21.1L9.828,22.235a.293.293,0,0,0,0,.414L11.482,24.3a.293.293,0,0,0,.414,0l1.138-1.138A7.332,7.332,0,0,0,15.6,24.23v1.609a.292.292,0,0,0,.292.292h2.34a.292.292,0,0,0,.292-.292V24.23A7.332,7.332,0,0,0,21.1,23.165L22.235,24.3a.293.293,0,0,0,.414,0L24.3,22.649a.293.293,0,0,0,0-.414L23.165,21.1a7.332,7.332,0,0,0,1.064-2.569h1.609a.292.292,0,0,0,.292-.292V15.9A.292.292,0,0,0,25.839,15.6Zm-.292,2.34h-1.56a.292.292,0,0,0-.288.244,6.737,6.737,0,0,1-1.15,2.776.292.292,0,0,0,.031.377l1.1,1.1-1.241,1.241-1.1-1.1a.292.292,0,0,0-.377-.031,6.737,6.737,0,0,1-2.776,1.15.292.292,0,0,0-.244.288v1.56H16.188v-1.56a.292.292,0,0,0-.244-.288,6.737,6.737,0,0,1-2.776-1.15.292.292,0,0,0-.377.031l-1.1,1.1-1.241-1.241,1.1-1.1a.292.292,0,0,0,.031-.377,6.737,6.737,0,0,1-1.15-2.776.292.292,0,0,0-.288-.244H8.585V16.188h1.56a.292.292,0,0,0,.288-.244,6.737,6.737,0,0,1,1.15-2.776.292.292,0,0,0-.031-.377l-1.1-1.1,1.241-1.241,1.1,1.1a.292.292,0,0,0,.377.031,6.737,6.737,0,0,1,2.776-1.15.292.292,0,0,0,.244-.288V8.585h1.755v1.56a.292.292,0,0,0,.244.288,6.737,6.737,0,0,1,2.776,1.15.292.292,0,0,0,.377-.031l1.1-1.1,1.241,1.241-1.1,1.1a.292.292,0,0,0-.031.377,6.737,6.737,0,0,1,1.15,2.776.292.292,0,0,0,.288.244h1.56Z" fill="#696767" stroke="#707070" stroke-width="0.1"/>
    <path id="Path_9277" data-name="Path 9277" d="M101.849,96a5.849,5.849,0,1,0,1.227,11.569h0A5.849,5.849,0,0,0,101.849,96Zm1.04,6.775a.293.293,0,0,0-.162.262v4a5.342,5.342,0,0,1-1.572.028h-.009l-.118-.017-.024,0-.031-.005v-4a.293.293,0,0,0-.162-.262,2.34,2.34,0,0,1-.13-4.123v2.027a.294.294,0,0,0,.13.243l.877.585a.293.293,0,0,0,.325,0l.877-.585a.294.294,0,0,0,.13-.243V98.652a2.34,2.34,0,0,1-.13,4.123Zm3.037,2.4a5.291,5.291,0,0,1-2.615,1.728v-3.694a2.925,2.925,0,0,0-.487-5.291.292.292,0,0,0-.39.276v2.326l-.585.39-.585-.39V98.2a.292.292,0,0,0-.39-.276,2.925,2.925,0,0,0-.487,5.291v3.694a5.265,5.265,0,1,1,5.539-1.728Z" transform="translate(-84.783 -84.783)" fill="#696767" stroke="#707070" stroke-width="0.1"/>
    <path id="Path_9278" data-name="Path 9278" d="M33.462,248h-1.17a.292.292,0,1,0,0,.585h1.17a.292.292,0,1,0,0-.585Z" transform="translate(-23.123 -231.227)" fill="#696767" stroke="#707070" stroke-width="0.1"/>
    <path id="Path_9279" data-name="Path 9279" d="M248.292,274.632a.292.292,0,0,0,.292-.292v-2.047a.292.292,0,0,0-.585,0v2.047A.292.292,0,0,0,248.292,274.632Z" transform="translate(-231.227 -254.349)" fill="#696767" stroke="#707070" stroke-width="0.1"/>
    <path id="Path_9280" data-name="Path 9280" d="M248.292,352.877a.292.292,0,0,0,.292-.292v-.292a.292.292,0,0,0-.585,0v.292A.292.292,0,0,0,248.292,352.877Z" transform="translate(-231.227 -331.425)" fill="#696767" stroke="#707070" stroke-width="0.1"/>
  </g>
</svg>
