<svg xmlns="http://www.w3.org/2000/svg" width="18.132" height="18.132" viewBox="0 0 18.132 18.132">
  <g id="setting" transform="translate(-1.503 -1.499)">
    <path id="Path_9163" data-name="Path 9163" d="M11.641,19.381H9.5a.25.25,0,0,1-.247-.212l-.275-1.784a6.918,6.918,0,0,1-2.1-.87L5.416,17.582a.25.25,0,0,1-.325-.025L3.576,16.042a.25.25,0,0,1-.025-.325l1.067-1.46a6.918,6.918,0,0,1-.87-2.1l-1.783-.276a.25.25,0,0,1-.212-.247V9.492a.25.25,0,0,1,.212-.247L3.749,8.97a6.918,6.918,0,0,1,.87-2.1L3.551,5.413a.25.25,0,0,1,.025-.325L5.092,3.572a.25.25,0,0,1,.325-.025l1.46,1.067a6.918,6.918,0,0,1,2.1-.869l.275-1.784a.25.25,0,0,1,.247-.212H11.64a.25.25,0,0,1,.247.212l.275,1.784a6.918,6.918,0,0,1,2.1.87L15.72,3.548a.25.25,0,0,1,.325.025l1.516,1.516a.25.25,0,0,1,.025.325l-1.067,1.46a6.918,6.918,0,0,1,.87,2.1l1.784.275a.25.25,0,0,1,.212.247v2.146a.25.25,0,0,1-.212.247l-1.784.275a6.918,6.918,0,0,1-.87,2.1l1.066,1.462a.25.25,0,0,1-.025.325l-1.516,1.516a.25.25,0,0,1-.325.025l-1.46-1.067a6.918,6.918,0,0,1-2.1.87l-.275,1.784a.25.25,0,0,1-.248.211Zm-1.931-.5h1.717l.27-1.741a.25.25,0,0,1,.2-.207A6.424,6.424,0,0,0,14.132,16a.25.25,0,0,1,.285.007l1.426,1.042,1.213-1.213-1.042-1.426a.25.25,0,0,1-.007-.285,6.424,6.424,0,0,0,.929-2.238.25.25,0,0,1,.207-.2l1.741-.27V9.707l-1.741-.27a.25.25,0,0,1-.207-.2A6.424,6.424,0,0,0,16.006,7a.25.25,0,0,1,.007-.285L17.055,5.29,15.842,4.078,14.417,5.119a.25.25,0,0,1-.285.007A6.424,6.424,0,0,0,11.894,4.2a.25.25,0,0,1-.2-.207l-.27-1.741H9.71L9.44,3.991a.25.25,0,0,1-.2.207A6.424,6.424,0,0,0,7,5.127a.25.25,0,0,1-.285-.007L5.293,4.078,4.081,5.291,5.122,6.716A.25.25,0,0,1,5.129,7,6.424,6.424,0,0,0,4.2,9.24a.25.25,0,0,1-.207.2l-1.741.27v1.717l1.741.27a.25.25,0,0,1,.207.2,6.424,6.424,0,0,0,.929,2.239.25.25,0,0,1-.007.285L4.081,15.84l1.213,1.213,1.426-1.042A.25.25,0,0,1,7,16a6.424,6.424,0,0,0,2.238.929.25.25,0,0,1,.2.207Z" stroke="#000" stroke-width="0.5"/>
    <path id="Path_9164" data-name="Path 9164" d="M22,27a5,5,0,1,1,5-5,5,5,0,0,1-5,5Zm0-9.5A4.5,4.5,0,1,0,26.5,22,4.5,4.5,0,0,0,22,17.5Z" transform="translate(-11.434 -11.437)" stroke="#000" stroke-width="0.5"/>
    <path id="Path_9165" data-name="Path 9165" d="M29.22,31.814a2.595,2.595,0,1,1,2.595-2.595A2.595,2.595,0,0,1,29.22,31.814Zm0-4.689a2.095,2.095,0,1,0,2.095,2.095A2.095,2.095,0,0,0,29.22,27.125Z" transform="translate(-18.652 -18.655)" stroke="#000" stroke-width="0.5"/>
  </g>
</svg>
