<svg xmlns="http://www.w3.org/2000/svg" width="96.997" height="14.954" viewBox="0 0 96.997 14.954">
  <g id="Group_4734" data-name="Group 4734" transform="translate(-139 -523.876)">
    <g id="Group_6" data-name="Group 6" transform="translate(139 524.003)">
      <path id="Path_26" data-name="Path 26" d="M12.282,25.645,7.59,21.752,2.9,25.645l2.25-5.666L0,16.719l6.081.391L7.59,11.2,9.1,17.111l6-.391-5.073,3.26Z" transform="translate(0 -11.203)" fill="#ffa700"/>
    </g>
    <g id="Group_6-2" data-name="Group 6" transform="translate(159 524.003)">
      <path id="Path_26-2" data-name="Path 26" d="M12.282,25.645,7.59,21.752,2.9,25.645l2.25-5.666L0,16.719l6.081.391L7.59,11.2,9.1,17.111l6-.391-5.073,3.26Z" transform="translate(0 -11.203)" fill="#ffa700"/>
    </g>
    <g id="Group_6-3" data-name="Group 6" transform="translate(179 524.003)">
      <path id="Path_26-3" data-name="Path 26" d="M12.282,25.645,7.59,21.752,2.9,25.645l2.25-5.666L0,16.719l6.081.391L7.59,11.2,9.1,17.111l6-.391-5.073,3.26Z" transform="translate(0 -11.203)" fill="#ffa700"/>
    </g>
    <g id="Group_6-4" data-name="Group 6" transform="translate(199 524.003)">
      <path id="Path_26-4" data-name="Path 26" d="M12.282,25.645,7.59,21.752,2.9,25.645l2.25-5.666L0,16.719l6.081.391L7.59,11.2,9.1,17.111l6-.391-5.073,3.26Z" transform="translate(0 -11.203)" fill="#ffa700"/>
    </g>
    <g id="Group_6-5" data-name="Group 6" transform="translate(219 524.003)">
      <path id="Path_26-5" data-name="Path 26" d="M12.282,25.645,7.59,21.752,2.9,25.645l2.25-5.666L0,16.719l6.081.391L7.59,11.2,9.1,17.111l6-.391-5.073,3.26Z" transform="translate(0 -11.203)" fill="#fff" stroke="#ccc" stroke-width="1"/>
    </g>
  </g>
</svg>
