<svg xmlns="http://www.w3.org/2000/svg" width="177.125" height="27.103" viewBox="0 0 177.125 27.103">
  <g id="Group_4537" data-name="Group 4537" transform="translate(-432.386 -250.376)">
    <g id="star_1_" data-name="star (1)" transform="translate(432.386 250.5)">
      <g id="Group_4483" data-name="Group 4483" transform="translate(0 0)">
        <path id="Path_9193" data-name="Path 9193" d="M22.617,37.8l-8.641-7.168L5.336,37.8,9.483,27.364,0,21.361l11.2.721L13.977,11.2l2.778,10.879,11.058-.721-9.342,6Z" transform="translate(0 -11.203)" fill="#ffa700"/>
      </g>
    </g>
    <g id="star_1_2" data-name="star (1)" transform="translate(469.24 250.5)">
      <g id="Group_4483-2" data-name="Group 4483" transform="translate(0 0)">
        <path id="Path_9193-2" data-name="Path 9193" d="M22.617,37.8l-8.641-7.168L5.336,37.8,9.483,27.364,0,21.361l11.2.721L13.977,11.2l2.778,10.879,11.058-.721-9.342,6Z" transform="translate(0 -11.203)" fill="#ffa700"/>
      </g>
    </g>
    <g id="star_1_3" data-name="star (1)" transform="translate(506.094 250.5)">
      <g id="Group_4483-3" data-name="Group 4483" transform="translate(0 0)">
        <path id="Path_9193-3" data-name="Path 9193" d="M22.617,37.8l-8.641-7.168L5.336,37.8,9.483,27.364,0,21.361l11.2.721L13.977,11.2l2.778,10.879,11.058-.721-9.342,6Z" transform="translate(0 -11.203)" fill="#ffa700"/>
      </g>
    </g>
    <g id="star_1_4" data-name="star (1)" transform="translate(542.948 250.5)">
      <g id="Group_4483-4" data-name="Group 4483" transform="translate(0 0)">
        <path id="Path_9193-4" data-name="Path 9193" d="M22.617,37.8l-8.641-7.168L5.336,37.8,9.483,27.364,0,21.361l11.2.721L13.977,11.2l2.778,10.879,11.058-.721-9.342,6Z" transform="translate(0 -11.203)" fill="#fff" stroke="#bfbfbf" stroke-width="1"/>
      </g>
    </g>
    <g id="star_1_5" data-name="star (1)" transform="translate(579.802 250.5)">
      <g id="Group_4483-5" data-name="Group 4483" transform="translate(0 0)">
        <path id="Path_9193-5" data-name="Path 9193" d="M22.617,37.8l-8.641-7.168L5.336,37.8,9.483,27.364,0,21.361l11.2.721L13.977,11.2l2.778,10.879,11.058-.721-9.342,6Z" transform="translate(0 -11.203)" fill="#fff" stroke="#bfbfbf" stroke-width="1"/>
      </g>
    </g>
  </g>
</svg>
