<svg xmlns="http://www.w3.org/2000/svg" xmlns:xlink="http://www.w3.org/1999/xlink" width="139.086" height="321.041" viewBox="0 0 139.086 321.041">
  <defs>
    <filter id="Path_9343" x="14.177" y="137.505" width="72.349" height="166.489" filterUnits="userSpaceOnUse">
      <feOffset input="SourceAlpha"/>
      <feGaussianBlur stdDeviation="3" result="blur"/>
      <feFlood flood-opacity="0.161"/>
      <feComposite operator="in" in2="blur"/>
      <feComposite in="SourceGraphic"/>
    </filter>
  </defs>
  <g id="Group_4633" data-name="Group 4633" transform="translate(-977.928 -337)">
    <path id="Path_9338" data-name="Path 9338" d="M306.774,259.313c0,4.9-31.136,8.873-69.544,8.873s-69.542-3.972-69.542-8.873,31.135-8.873,69.542-8.873S306.774,254.412,306.774,259.313Z" transform="translate(810.24 389.856)" fill="#c3cddd"/>
    <g id="Group_4594" data-name="Group 4594" transform="translate(987.886 337)">
      <g id="Group_4590" data-name="Group 4590" transform="translate(27.529 289.338)">
        <g id="Group_4588" data-name="Group 4588">
          <path id="Path_9339" data-name="Path 9339" d="M223.489,253.313s-4.657,7.031-7.551,12.426a7.561,7.561,0,0,1-6.67,3.978l-18.009-.006s-.907-7.006,4.87-9.765a2.46,2.46,0,0,1,.367-.15,11.316,11.316,0,0,1,4.431-.952s6.565-8.671,2.624-14.026L218.8,241.8A16.246,16.246,0,0,1,223.489,253.313Z" transform="translate(-190.689 -241.802)" fill="#11393d"/>
          <path id="Path_9340" data-name="Path 9340" d="M210.856,263.162l-19.966-.006s-.341-7.006,5.436-9.765a2.468,2.468,0,0,1,.367-.15C198.664,252.467,208.124,249.571,210.856,263.162Z" transform="translate(-190.887 -235.247)" fill="#11393d"/>
        </g>
        <g id="Group_4589" data-name="Group 4589" transform="translate(30.159 6.588)">
          <path id="Path_9341" data-name="Path 9341" d="M213.695,259.165s5.281-6.066,5.366-13.286h14.1s4.757,14.1,2.463,21.321h-16.9Z" transform="translate(-206.999 -245.879)" fill="#11393d"/>
          <path id="Path_9342" data-name="Path 9342" d="M231.806,262.314s-3-8.75-12.374-8.495-9.881,8.495-9.881,8.495Z" transform="translate(-209.551 -240.992)" fill="#11393d"/>
        </g>
      </g>
      <g transform="matrix(1, 0, 0, 1, -9.96, 0)" filter="url(#Path_9343)">
        <path id="Path_9343-2" data-name="Path 9343" d="M198.884,153.408s-18.738,60.6-16.7,76.678S206.324,301.9,206.324,301.9l21.632-6.759s-7.26-41.04-13.15-62.56c0,0,17.442-26.73,20.614-39.414S232.9,158.5,232.9,158.5Z" transform="translate(-158.85 -6.9)" fill="#81597e"/>
      </g>
      <path id="Path_9344" data-name="Path 9344" d="M206.94,160.155l12.686,146.109h20.16s9.062-62.974,4.3-89.477c0,0,10.873-32.846,7.249-65.692Z" transform="translate(-153.471 -8.328)" fill="#935c8f"/>
      <g id="Group_4591" data-name="Group 4591" transform="translate(15.64 51.541)">
        <path id="Path_9345" data-name="Path 9345" d="M263.46,163.425l2.3,22.44a28.025,28.025,0,0,1-5.518,5.192c-5.45,4.049-15.141,9.052-29.982,9.241-25.145.354-32.295-10.7-32.295-10.7l1.319-12.94.9-8.807-1.821-3.3-14.827-26.925s1.359-15.128,8.562-28.556c5.177-9.65,16.459-12.681,22.412-13.619a32.175,32.175,0,0,1,3.846-.422,40.45,40.45,0,0,0,16.147,0,30.056,30.056,0,0,1,12.98.8c7.352,1.9,15.058,6.09,19.476,12.559,7.3,10.712,7.746,47.232,7.746,47.232l-11.825,2.038Z" transform="translate(-183.529 -94.639)" fill="#ffc24e"/>
        <path id="Path_9346" data-name="Path 9346" d="M260.106,175.572a28.024,28.024,0,0,1-5.518,5.192c-30,4.4-52.723-8.7-60.959-14.394l.9-8.806-1.821-3.3,4.036-15.9,1.687-27.008,7.963,30.921s23.147-2.773,27.32-7.312,6.85-23.609,6.85-23.609l3.235,28.04,13.754,13.237.258.5Z" transform="translate(-177.878 -84.346)" fill="#f2ae40" opacity="0.5"/>
      </g>
      <path id="Path_9347" data-name="Path 9347" d="M191.641,122.65s1.133-2.435,0-4.02a2.308,2.308,0,0,0-2.944-.624s-2.209-4.361-8.325-2.1-11.5,8.495,1.3,16.593S191.641,122.65,191.641,122.65Z" transform="translate(-173.85 -30.399)" fill="#f49187"/>
      <path id="Path_9348" data-name="Path 9348" d="M183.72,124.285l-5.126-15.957a1.256,1.256,0,0,0-1.529-.829h0a1.257,1.257,0,0,0-.847,1.655l5.8,15.472A1.153,1.153,0,0,0,183.72,124.285Z" transform="translate(-172.441 -35.205)" fill="#208191"/>
      <g id="Group_4592" data-name="Group 4592" transform="translate(4.243 91.69)">
        <path id="Path_9349" data-name="Path 9349" d="M217.855,160.26H189.83a2.024,2.024,0,0,1-1.944-1.454l-11.322-36.671a2.055,2.055,0,0,1,1.958-2.65h26.8a2.033,2.033,0,0,1,1.929,1.386L219.8,157.542A2.062,2.062,0,0,1,217.855,160.26Z" transform="translate(-176.476 -119.485)" fill="#959aa0"/>
        <path id="Path_9350" data-name="Path 9350" d="M214.349,160.26H189.83a2.024,2.024,0,0,1-1.944-1.454l-11.322-36.671a2.055,2.055,0,0,1,1.958-2.65h20.672a5.69,5.69,0,0,1,5.4,3.86l11.689,34.2A2.047,2.047,0,0,1,214.349,160.26Z" transform="translate(-176.476 -119.485)"/>
        <path id="Path_9351" data-name="Path 9351" d="M192.664,134.106c.417,2.307-.477,4.4-2,4.676s-3.086-1.375-3.5-3.684.477-4.4,2-4.676S192.247,131.8,192.664,134.106Z" transform="translate(-169.956 -112.767)" fill="#dfe6ed"/>
      </g>
      <path id="Path_9352" data-name="Path 9352" d="M214.883,132.576s-6.229-7.023-11.1-7.136l2.152,6a27.984,27.984,0,0,1-11.893,3.738c-6.455.341-9.74,1.926-4.757,3.852s6.229,6.682,10.986,8.947,15.743-3.624,15.743-3.624,17.556,5.323,32.846,5.777,26.164-4.3,23.786-13.478-18.235-10.76-29.334-7.816S214.883,132.576,214.883,132.576Z" transform="translate(-165.832 -24.128)" fill="#feb19e"/>
      <path id="Path_9353" data-name="Path 9353" d="M236.44,95.833c-2.366,6.389-11.376,22.23-26.6,19.518-10.931-1.947-8.944-15.032-6.375-19.9a32.176,32.176,0,0,1,3.846-.422,40.45,40.45,0,0,0,16.147,0A30.056,30.056,0,0,1,236.44,95.833Z" transform="translate(-156.852 -43.097)" fill="#f2d972"/>
      <g id="Group_4593" data-name="Group 4593" transform="translate(21.055)">
        <path id="Path_9354" data-name="Path 9354" d="M227.145,100.332s-2.2,16.05-14.477,16.566c-6.646.289-8.283-3.311-8.37-6.659a16.238,16.238,0,0,1,.918-5.5A4.886,4.886,0,0,0,207.433,103a6.065,6.065,0,0,0,1.144-2.807,9.069,9.069,0,0,0,.076-2.379c-.176-1.965,1.322-4.117,3.35-6.068a49.083,49.083,0,0,1,9.479-6.735h.439a80.644,80.644,0,0,0,2.82,12.727c.328.932.667,1.813,1.032,2.593Z" transform="translate(-176.157 -49.026)" fill="#feb19e"/>
        <path id="Path_9355" data-name="Path 9355" d="M204.3,110.239a16.238,16.238,0,0,1,.918-5.5A4.886,4.886,0,0,0,207.433,103a6.065,6.065,0,0,0,1.144-2.807,9.069,9.069,0,0,0,.076-2.379c-.176-1.965,1.322-4.117,3.35-6.068a49.083,49.083,0,0,1,9.479-6.735h.439C223.116,106.224,209.357,109.685,204.3,110.239Z" transform="translate(-176.157 -49.026)" fill="#ff856a"/>
        <path id="Path_9356" data-name="Path 9356" d="M235.236,89.556s3.482-3.993,1.614-13-8.836-7.391-8.836-7.391,1.275-5.691-7.645-6.371-16.905,5.182-22,2.379-8.155-1.273-6.541,6.2c0,0-4.5-4.418-4.927,2.548s5.946,10.618,5.946,10.618-.255,9.939,11.3,12.487l27.523-2.207Z" transform="translate(-186.88 -62.742)" fill="#145b6b"/>
        <path id="Path_9357" data-name="Path 9357" d="M195.2,80.069s6.344,27.984,15.8,29.221c8.275,1.084,14.839-10.136,15.971-14.044a42.707,42.707,0,0,0,1.052-5.324s4.469.086,4.129-5.521-4.927-8.239-5.946-.17c0,0-4.416-.679-4.671-9.259,0,0-5.946,4.5-11.723,4.077s-3.822-4.077-3.822-4.077S203.354,79.05,195.2,80.069Z" transform="translate(-181.757 -55.209)" fill="#feb19e"/>
      </g>
    </g>
    <path id="Path_9389" data-name="Path 9389" d="M382.291,185.2c.262.969.039,1.872-.5,2.018s-1.188-.522-1.45-1.491-.039-1.872.5-2.018S382.028,184.234,382.291,185.2Z" transform="translate(650.451 187.861)" fill="#1a4850"/>
    <path id="Path_9390" data-name="Path 9390" d="M384.068,182.283a5.037,5.037,0,0,1,3.238-1.653" transform="translate(654.013 185.649)" fill="none" stroke="#1a4850" stroke-linecap="round" stroke-miterlimit="10" stroke-width="0.587"/>
    <path id="Path_9391" data-name="Path 9391" d="M380.61,180.85s-2.147.241-2.11,1.43" transform="translate(650.857 188.908)" fill="none" stroke="#1a4850" stroke-linecap="round" stroke-miterlimit="10" stroke-width="0.587"/>
    <path id="Path_9392" data-name="Path 9392" d="M382.291,185.2c.262.969.039,1.872-.5,2.018s-1.188-.522-1.45-1.491-.039-1.872.5-2.018S382.028,184.234,382.291,185.2Z" transform="translate(658.921 184.685)" fill="#1a4850"/>
    <path id="Path_9393" data-name="Path 9393" d="M5.248,4.866S.863,3.1,0,0" transform="matrix(0.545, -0.839, 0.839, 0.545, 1036.009, 382.359)" fill="none" stroke="#1a4850" stroke-miterlimit="10" stroke-width="0.5"/>
  </g>
</svg>
