<svg xmlns="http://www.w3.org/2000/svg" width="54.735" height="30.052" viewBox="0 0 54.735 30.052">
  <g id="Group_4755" data-name="Group 4755" transform="translate(-761.134 -204.582)">
    <g id="Group_4753" data-name="Group 4753" transform="translate(758.634 189.634)">
      <path id="Path_9648" data-name="Path 9648" d="M27.5,25.432l3.53,3.53L52.2,7.8l3.535,3.535-24.7,24.7-15.91-15.91,3.535-3.535L23.972,21.9l3.533,3.53Zm.005-7.07L39.89,5.979,43.415,9.5,31.035,21.886ZM20.442,32.5,16.91,36.032,1,20.121l3.535-3.535,3.533,3.532,0,0L20.442,32.5Z" transform="translate(1.5 8.969)" fill="#00a651"/>
    </g>
    <g id="Group_4754" data-name="Group 4754" transform="translate(758.634 189.634)">
      <path id="Path_9648-2" data-name="Path 9648" d="M27.51,18.361,39.89,5.979,43.415,9.5,31.035,21.886ZM20.442,32.5,16.91,36.032,1,20.121l3.535-3.535,3.533,3.532,0,0L20.442,32.5Z" transform="translate(1.5 8.969)" fill="#f7941d"/>
    </g>
  </g>
</svg>
