<svg xmlns="http://www.w3.org/2000/svg" width="29.314" height="35.398" viewBox="0 0 29.314 35.398">
  <g id="approved_1_" data-name="approved (1)" transform="translate(0 0)">
    <ellipse id="Ellipse_58" data-name="Ellipse 58" cx="7.5" cy="10" rx="7.5" ry="10" transform="translate(6.657 2.869)" fill="#f7931d"/>
    <path id="Path_9182" data-name="Path 9182" d="M44.691,168.383a.692.692,0,1,1,.489-.2A.7.7,0,0,1,44.691,168.383Z" transform="translate(-44 -155.454)"/>
    <path id="Path_9183" data-name="Path 9183" d="M71.24,35.4H46.074A2.076,2.076,0,0,1,44,33.324V14.818a.691.691,0,1,1,1.383,0V33.324a.692.692,0,0,0,.691.691H71.24a.692.692,0,0,0,.691-.691V2.074a.692.692,0,0,0-.691-.691H57.251a.691.691,0,0,1,0-1.383H71.24a2.076,2.076,0,0,1,2.074,2.074v31.25A2.076,2.076,0,0,1,71.24,35.4Z" transform="translate(-44 0)" fill="#002838"/>
    <path id="Path_9184" data-name="Path 9184" d="M222.393,120.947v.674a2.7,2.7,0,0,1-2.7,2.7h0a2.7,2.7,0,0,1-2.7-2.7v-.674a2.7,2.7,0,0,1,2.7-2.7h0A2.7,2.7,0,0,1,222.393,120.947Z" transform="translate(-205.039 -110.075)" fill="#f7931d"/>
    <path id="Path_9185" data-name="Path 9185" d="M178.041,206h0a6.223,6.223,0,0,0-5.79,3.944,8.5,8.5,0,0,0,11.58,0A6.223,6.223,0,0,0,178.041,206Z" transform="translate(-163.384 -191.759)" fill="#f7931d"/>
    <path id="Path_9186" data-name="Path 9186" d="M133.774,40a9.306,9.306,0,0,0-1.405.107.691.691,0,0,0,.21,1.367,7.909,7.909,0,0,1,1.2-.091,7.808,7.808,0,0,1,5.975,12.84,6.927,6.927,0,0,0-3.609-3.02,3.377,3.377,0,0,0,1.022-2.421v-.674a3.388,3.388,0,1,0-6.775,0v.674a3.377,3.377,0,0,0,1.022,2.421,6.928,6.928,0,0,0-3.617,3.033,7.787,7.787,0,0,1-1.722-3.737.691.691,0,0,0-1.364.229A9.2,9.2,0,1,0,133.774,40Zm-2.005,8.781v-.674a2,2,0,1,1,4.01,0v.674a2,2,0,1,1-4.01,0Zm-2.952,6.466a5.53,5.53,0,0,1,9.908-.012,7.825,7.825,0,0,1-9.908.012Z" transform="translate(-119.117 -37.234)" fill="#002838"/>
    <path id="Path_9187" data-name="Path 9187" d="M206.866,399.385h-9.818a.691.691,0,1,1,0-1.383h9.818a.691.691,0,0,1,0,1.383Z" transform="translate(-185.823 -370.485)" fill="#002838"/>
    <path id="Path_9188" data-name="Path 9188" d="M154.331,343.383a.692.692,0,1,1,.489-.2A.7.7,0,0,1,154.331,343.383Z" transform="translate(-146.06 -318.355)" fill="#002838"/>
    <path id="Path_9189" data-name="Path 9189" d="M154.331,399.383a.692.692,0,1,1,.489-.2A.7.7,0,0,1,154.331,399.383Z" transform="translate(-146.06 -370.483)" fill="#002838"/>
    <path id="Path_9190" data-name="Path 9190" d="M206.866,343.385h-9.818a.691.691,0,1,1,0-1.383h9.818a.691.691,0,0,1,0,1.383Z" transform="translate(-185.823 -318.357)" fill="#002838"/>
    <circle id="Ellipse_59" data-name="Ellipse 59" cx="4.5" cy="4.5" r="4.5" transform="translate(0.657 2.869)" fill="#f7931d"/>
    <path id="Path_9191" data-name="Path 9191" d="M88.666,58.824a.689.689,0,0,1-.489-.2l-1.258-1.258a.691.691,0,1,1,.978-.978l.769.769L90.918,54.9a.691.691,0,0,1,.978.978l-2.74,2.74A.69.69,0,0,1,88.666,58.824Z" transform="translate(-83.763 -50.919)" fill="#002838"/>
    <path id="Path_9192" data-name="Path 9192" d="M49.669,11.339a5.669,5.669,0,1,1,5.669-5.669A5.676,5.676,0,0,1,49.669,11.339Zm0-9.956a4.287,4.287,0,1,0,4.287,4.287A4.291,4.291,0,0,0,49.669,1.383Z" transform="translate(-44 0)" fill="#002838"/>
  </g>
</svg>
