<svg xmlns="http://www.w3.org/2000/svg" width="38.701" height="58.572" viewBox="0 0 38.701 58.572">
  <g id="trash" transform="translate(-99.41 -19.026)">
    <path id="Path_9640" data-name="Path 9640" d="M151.549,29.939l10.6-4.113a1.6,1.6,0,0,0-1.951-.682l-12.356,4.795A1.6,1.6,0,0,0,146.934,32l3.868,9.963h3.707L150.642,32A1.6,1.6,0,0,1,151.549,29.939Z" transform="translate(-41.557 -5.269)" fill="#fff7ee"/>
    <path id="Path_9641" data-name="Path 9641" d="M210.428,44.3a1.589,1.589,0,0,0-1.946-.685l-1.362.53-7.566,2.936-2.38,4.774,2.45,6.3h3.707l-4.243-9.625Z" transform="translate(-85.682 -21.455)" fill="#fff7ee"/>
    <g id="Group_4748" data-name="Group 4748" transform="translate(104.526 19.026)">
      <path id="Path_9642" data-name="Path 9642" d="M158.823,21.466l-.674.261-.47-1.213a2.338,2.338,0,0,0-3.022-1.331L142.3,23.978A2.338,2.338,0,0,0,140.968,27l3.865,9.963,1.383-.536-3.866-9.963a.855.855,0,0,1,.487-1.1l12.357-4.795a.853.853,0,0,1,1.1.485l.47,1.213-6.876,2.668a.741.741,0,0,0-.394.358L147.1,30.055a.741.741,0,0,0-.032.592l.007.018,2.443,6.3,1.383-.536-2.175-5.605,2.994-1.162a.741.741,0,0,0,.423-.959l-1.029-2.653,8.242-3.2a.853.853,0,0,1,1.1.485l5.288,13.628,1.383-.536L161.844,22.8a2.338,2.338,0,0,0-3.022-1.331Zm-9.537,7.548.785-1.564.425,1.1Z" transform="translate(-140.81 -19.026)" fill="#f7941d"/>
      <path id="Path_9643" data-name="Path 9643" d="M238.6,94.221a.741.741,0,0,0-.96-.423l-7.664,2.974a.742.742,0,1,0,.537,1.383l7.664-2.974A.741.741,0,0,0,238.6,94.221Z" transform="translate(-218.538 -84.514)" fill="#f7941d"/>
      <path id="Path_9644" data-name="Path 9644" d="M247,115.532a.741.741,0,0,0-.961-.42l-7.656,2.994a.741.741,0,1,0,.54,1.381l7.656-2.994A.741.741,0,0,0,247,115.532Z" transform="translate(-225.909 -103.193)" fill="#f7941d"/>
      <path id="Path_9645" data-name="Path 9645" d="M269.327,136.971a.741.741,0,0,0-.961-.42l-6.161,2.41.54,1.381,6.161-2.41A.741.741,0,0,0,269.327,136.971Z" transform="translate(-247.204 -121.983)" fill="#f7941d"/>
    </g>
    <path id="Path_9646" data-name="Path 9646" d="M135.207,156h-6.587a.741.741,0,0,0,0,1.483h6.587a1.409,1.409,0,0,1,1.405,1.409,1.426,1.426,0,0,1-.412,1.008,1.41,1.41,0,0,1-.993.426H102.314a1.421,1.421,0,1,1,0-2.842h22.1a.741.741,0,0,0,0-1.483h-22.1a2.9,2.9,0,1,0,0,5.808h.382l2.291,32.5a4.458,4.458,0,0,0,4.33,3.338h19.258a4.392,4.392,0,0,0,4.267-3.34l2.231-32.5h.135a2.9,2.9,0,0,0,0-5.808Zm-20.666,22.83,4.4-2.136,4.4,2.136-4.4,2.136Zm8.811,5.921-4.406,2.137-4.406-2.137,4.406-2.137Zm-8.812-11.841,4.405-2.137,4.406,2.137-4.406,2.136Zm0-5.921,4.406-2.137,4.406,2.137-4.406,2.136Zm2.706,2.96-4.406,2.137-4.406-2.136,4.406-2.137Zm0,5.921-4.4,2.136-4.406-2.136,4.4-2.136Zm0,5.919-4.406,2.137-4.4-2.136,4.406-2.136Zm0,5.921-4.4,2.136-4.406-2.136,4.4-2.136Zm1.7.824,4.4,2.136-4.4,2.136-4.4-2.136Zm1.7-.824,4.406-2.137,4.4,2.136-4.406,2.137Zm4.406-3.785-4.406-2.136,4.4-2.136,4.406,2.137Zm-4.406-8.056,4.405-2.137,4.4,2.136-4.406,2.136Zm0-5.921,4.405-2.136,4.406,2.136-4.406,2.136Zm0-5.921,4.405-2.137,4.406,2.137-4.406,2.136Zm1.234-2.221-2.933,1.422-2.933-1.422Zm-4.632,2.221-4.405,2.137-4.406-2.137,4.406-2.136Zm-13-2.221h5.426l-2.933,1.41-2.478-1.2Zm.13,1.9.664.321-.622.3Zm.149,2.22,2.214-1.074,4.405,2.137-4.405,2.136-2.066-1Zm.262,3.9.252.122-.236.114Zm.124,1.833,1.828-.887,4.406,2.137-4.405,2.136-1.656-.8Zm.386,5.734,1.443-.7,4.406,2.137-4.407,2.137-1.243-.6Zm.386,5.734,1.057-.513,4.4,2.136-4.4,2.136-.832-.4Zm.386,5.733.672-.326,4.406,2.137-4.406,2.136-.42-.2Zm3.252,7.3a2.947,2.947,0,0,1-2.656-1.668l.075-.036,3.511,1.7Zm-.881-2.53,4.406-2.136,4.4,2.136-4.405,2.136Zm7,2.53,3.512-1.7,3.512,1.7Zm5.211-2.531,4.405-2.136,4.406,2.136-4.406,2.136Zm7.93,2.531h-.931l3.511-1.7.076.038A2.947,2.947,0,0,1,128.575,196.162Zm3-3.558-.42.2-4.406-2.136,4.406-2.137.672.326Zm.412-6.121-.832.4-4.4-2.136,4.4-2.136,1.057.513Zm.411-6.119-1.243.6-4.406-2.137,4.406-2.137,1.443.7Zm.412-6.121-1.655.8-4.4-2.136,4.406-2.137,1.828.887Zm.281-4.179-.236-.114.252-.122Zm.13-1.94-2.066,1-4.406-2.137,4.4-2.136,2.214,1.074Zm.255-3.794-.622-.3.664-.321Zm.157-2.314-2.478,1.208-2.933-1.416h5.426Z" transform="translate(0 -120.048)" fill="#00a651"/>
  </g>
</svg>
