<svg xmlns="http://www.w3.org/2000/svg" width="24" height="23.999" viewBox="0 0 24 23.999">
  <g id="Group_4535" data-name="Group 4535" transform="translate(-998 -418)">
    <g id="verify_1_" data-name="verify (1)" transform="translate(998 417.999)">
      <path id="Path_9177" data-name="Path 9177" d="M17.5,24A6.5,6.5,0,1,1,24,17.5,6.508,6.508,0,0,1,17.5,24Zm0-11.5a5,5,0,1,0,5,5A5.006,5.006,0,0,0,17.5,12.5Z" fill="#bf0707"/>
      <path id="Path_9179" data-name="Path 9179" d="M8.5,21a.687.687,0,0,1-.143-.014A10.891,10.891,0,0,1,0,9.93V3.75a.749.749,0,0,1,.479-.7l7.75-3a.753.753,0,0,1,.541,0l7.75,3a.748.748,0,0,1,.48.7v4.5a.75.75,0,0,1-1.5,0V4.264l-7-2.709-7,2.709V9.93c0,7.594,6.01,9.32,7.012,9.555h0a.75.75,0,0,1,.293,1.471l-.186.034A.7.7,0,0,1,8.5,21Z" fill="#bf0707"/>
    </g>
    <g id="cancel" transform="translate(1013.766 433.765)">
      <g id="Group_4482" data-name="Group 4482" transform="translate(0 0)">
        <path id="Path_9180" data-name="Path 9180" d="M2.482,2.235,4.418.3A.175.175,0,0,0,4.172.051L2.235,1.988.3.051A.175.175,0,0,0,.051.3L1.988,2.235.051,4.172A.175.175,0,0,0,.3,4.418L2.235,2.482,4.172,4.418a.175.175,0,0,0,.247-.247Z" transform="translate(0 0)" fill="#bf0707" stroke="#bf0707" stroke-width="1"/>
      </g>
    </g>
  </g>
</svg>
