<svg xmlns="http://www.w3.org/2000/svg" width="24" height="23.999" viewBox="0 0 24 23.999">
  <g id="verify_1_" data-name="verify (1)" transform="translate(0 -0.001)">
    <path id="Path_9177" data-name="Path 9177" d="M17.5,24A6.5,6.5,0,1,1,24,17.5,6.508,6.508,0,0,1,17.5,24Zm0-11.5a5,5,0,1,0,5,5A5.006,5.006,0,0,0,17.5,12.5Z" fill="#00a52c"/>
    <path id="Path_9178" data-name="Path 9178" d="M16.5,20a.749.749,0,0,1-.53-.22l-2-2a.75.75,0,1,1,1.061-1.061l1.434,1.433,2.972-3.4a.75.75,0,1,1,1.129.987l-3.5,4a.755.755,0,0,1-.541.257Z" fill="#00a52c"/>
    <path id="Path_9179" data-name="Path 9179" d="M8.5,21a.687.687,0,0,1-.143-.014A10.891,10.891,0,0,1,0,9.93V3.75a.749.749,0,0,1,.479-.7l7.75-3a.753.753,0,0,1,.541,0l7.75,3a.748.748,0,0,1,.48.7v4.5a.75.75,0,0,1-1.5,0V4.264l-7-2.709-7,2.709V9.93c0,7.594,6.01,9.32,7.012,9.555h0a.75.75,0,0,1,.293,1.471l-.186.034A.7.7,0,0,1,8.5,21Z" fill="#00a52c"/>
  </g>
</svg>
