<svg width="116" height="116" viewBox="0 0 116 116" fill="none" xmlns="http://www.w3.org/2000/svg">
<path d="M58 92.4375C45.008 92.4375 34.4375 81.867 34.4375 68.875C34.4375 55.883 45.008 45.3125 58 45.3125C70.992 45.3125 81.5625 55.883 81.5625 68.875C81.5625 81.867 70.992 92.4375 58 92.4375Z" fill="#F7931D"/>
<path d="M50.75 10.875V15.0673C50.75 17.7534 52.9341 19.9375 55.6202 19.9375H60.3816C63.0659 19.9375 65.25 17.7534 65.25 15.0673V10.875H50.75Z" fill="#F7931D"/>
<path d="M62.7922 61.625L60.2583 52.5625H55.3192L52.8234 61.6159L42.7695 61.6323L41.0603 65.9097L49.8745 71.7043L45.8036 81.0749L49.5482 83.8626L57.7915 77.0893L66.0311 83.8626L69.7794 81.0749L65.7085 71.7043L74.5245 65.9097L72.8062 61.6286L62.7922 61.625ZM61.1664 70.3522L64.4252 77.8487L57.7915 72.3949L51.1577 77.8487L54.413 70.3522L46.6555 65.2518L55.5857 65.2373L57.7969 57.2188L60.0408 65.25L68.9257 65.2518L61.1664 70.3522Z" fill="#002838"/>
<path d="M43.5 103.312H47.125V106.938H43.5V103.312Z" fill="#002838"/>
<path d="M32.7792 98.5513L32.6668 97.6523L29.0708 98.0982L29.1832 98.999C29.7505 103.525 33.6147 106.938 38.1768 106.938H39.8751V103.313H38.175C35.4399 103.313 33.1181 101.265 32.7792 98.5513Z" fill="#002838"/>
<path d="M72.326 34.5209L72.6722 30.9122C71.9834 30.8469 71.282 30.8125 70.5751 30.8125H68.875V34.4375H70.5751C71.166 34.4375 71.7496 34.4665 72.326 34.5209Z" fill="#002838"/>
<path d="M88.1002 47.6268L91.5838 46.6208C89.5175 39.4614 83.7864 33.7303 76.627 31.6641L75.6211 35.1477C81.5969 36.8714 86.3765 41.6528 88.1002 47.6268Z" fill="#002838"/>
<path d="M107.238 68.875L113.765 58H99.2489L99.4628 56.2854C99.6114 55.0891 99.6876 53.8729 99.6876 52.6749C99.6876 37.2723 87.6544 24.6591 72.5001 23.6604V10.4473L68.1827 1.8125H47.8174L43.5001 10.4473V23.6604C28.3457 24.6591 16.3126 37.2723 16.3126 52.6767C16.3126 53.8747 16.3887 55.0891 16.5373 56.2872L16.7512 58H2.23486L8.76168 68.875L2.23486 79.75H19.4699L21.9893 99.8978C23.0061 108.043 29.9643 114.188 38.1767 114.188H77.8252C86.0358 114.188 92.994 108.043 94.0126 99.8978L96.5302 79.75H113.765L107.238 68.875ZM103.012 68.875L107.36 76.125H90.1466C91.5929 74.0515 92.4376 71.5539 92.4376 68.875C92.4376 66.1961 91.5929 63.6985 90.1484 61.625H107.362L103.012 68.875ZM81.3741 80.0962C83.2119 83.6306 82.5739 87.8754 79.7863 90.6612C77.0005 93.4489 72.7538 94.0887 69.2212 92.249L67.2982 91.2503L66.6547 93.3202C65.4712 97.1283 61.993 99.6875 58.0001 99.6875C54.0071 99.6875 50.5289 97.1283 49.3454 93.3202L48.7019 91.2503L46.7789 92.249C43.2463 94.0869 38.9996 93.4471 36.2138 90.6612C33.4262 87.8754 32.7882 83.6306 34.6261 80.0962L35.6247 78.1731L33.5549 77.5297C29.7468 76.3461 27.1876 72.8679 27.1876 68.875C27.1876 64.8821 29.7468 61.4039 33.5549 60.2203L35.6247 59.5769L34.6261 57.6538C32.7882 54.1213 33.428 49.8746 36.2138 47.0887C38.9996 44.3011 43.2481 43.6668 46.7789 45.501L48.7019 46.5015L49.3454 44.4316C50.5289 40.6217 54.0071 38.0625 58.0001 38.0625C61.993 38.0625 65.4712 40.6217 66.6547 44.4298L67.2982 46.4997L69.2212 45.4992C72.7538 43.6631 77.0005 44.2993 79.7863 47.0869C82.5721 49.8727 83.2119 54.1194 81.3741 57.652L80.3754 59.5751L82.4452 60.2185C86.2533 61.4039 88.8126 64.8821 88.8126 68.875C88.8126 72.8679 86.2533 76.3461 82.4452 77.5297L80.3754 78.1731L81.3741 80.0962ZM68.8751 12.6875V23.5625H47.1251V12.6875H68.8751ZM65.9424 5.4375L67.7549 9.0625H48.2452L50.0577 5.4375H65.9424ZM20.1333 55.8377C20.0028 54.7882 19.9376 53.7243 19.9376 52.6749C19.9376 38.6208 31.3726 27.1875 45.4267 27.1875H70.5752C84.6275 27.1875 96.0626 38.6226 96.0626 52.6767C96.0626 53.7261 95.9973 54.7901 95.8668 55.8377L95.5949 58H86.2424C85.9542 57.8278 85.6751 57.6429 85.3706 57.4943C86.8986 52.9739 85.7857 47.9606 82.3492 44.5241C78.9127 41.0876 73.9047 39.9747 69.3807 41.5026C67.2728 37.207 62.9156 34.4375 58.0001 34.4375C53.0846 34.4375 48.7273 37.207 46.6194 41.5026C42.0972 39.9711 37.0838 41.0876 33.6509 44.5241C30.2144 47.9606 29.1016 52.9739 30.6295 57.4943C30.325 57.6429 30.0459 57.8296 29.7577 58H20.4052L20.1333 55.8377ZM12.9884 68.875L8.64024 61.625H25.8536C24.4072 63.6985 23.5626 66.1961 23.5626 68.875C23.5626 71.5539 24.4072 74.0515 25.8517 76.125H8.64024L12.9884 68.875ZM90.4148 99.4482C89.6227 105.785 84.2106 110.562 77.8252 110.562H38.1767C31.7913 110.562 26.3774 105.785 25.5871 99.4482L23.1239 79.75H29.7577C30.0459 79.9222 30.325 80.1071 30.6295 80.2557C29.0997 84.7761 30.2126 89.7894 33.6509 93.2241C37.0874 96.6606 42.0972 97.7789 46.6194 96.2456C48.7273 100.543 53.0846 103.312 58.0001 103.312C62.9156 103.312 67.2728 100.543 69.3807 96.2474C73.9047 97.7808 78.9127 96.6624 82.3492 93.2259C85.7857 89.7894 86.9004 84.7779 85.3706 80.2575C85.6751 80.1089 85.9542 79.9222 86.2424 79.7518H92.8762L90.4148 99.4482Z" fill="#002838"/>
</svg>
