<svg width="122" height="123" viewBox="0 0 122 123" fill="none" xmlns="http://www.w3.org/2000/svg">
<path d="M52.0781 42.2344C52.0781 28.3289 59.8829 16.2557 71.3438 10.1293V10.125C71.3438 6.58441 68.4625 3.70312 64.9219 3.70312H9.26564C5.72505 3.70312 2.84377 6.58441 2.84377 10.125V86.875C2.84377 90.4156 2.84374 86.5 2.84376 93.2969H71.3438C71.3438 82.5 71.3438 90.4156 71.3438 86.875V74.3395C59.8829 68.213 52.0781 56.1399 52.0781 42.2344Z" fill="#F7931D"/>
<path d="M7.82458 86.9299H70.4214V90.8422H7.82458V86.9299Z" fill="#002838"/>
<rect x="8.09589" y="93.9407" width="62.1399" height="20.1041" rx="4" fill="#00A651"/>
<path d="M43.0353 98.5098H35.2107C33.0531 98.5098 31.2984 100.264 31.2984 102.422V106.334C31.2984 108.492 33.0531 110.247 35.2107 110.247H43.0353C45.1929 110.247 46.9476 108.492 46.9476 106.334V102.422C46.9476 100.264 45.1929 98.5098 43.0353 98.5098ZM35.2107 106.334V102.422H43.0353L43.0392 106.334H35.2107Z" fill="#002838"/>
<path d="M23.4738 98.5098H19.5615C17.4039 98.5098 15.6492 100.264 15.6492 102.422V106.334C15.6492 108.492 17.4039 110.247 19.5615 110.247H23.4738C25.6314 110.247 27.3861 108.492 27.3861 106.334V102.422C27.3861 100.264 25.6314 98.5098 23.4738 98.5098ZM19.5615 106.334V102.422H23.4738L23.4777 106.334H19.5615Z" fill="#002838"/>
<path d="M58.6845 98.5098H54.7722C52.6145 98.5098 50.8599 100.264 50.8599 102.422V106.334C50.8599 108.492 52.6145 110.247 54.7722 110.247H58.6845C60.8421 110.247 62.5968 108.492 62.5968 106.334V102.422C62.5968 100.264 60.8421 98.5098 58.6845 98.5098ZM54.7722 106.334V102.422H58.6845L58.6884 106.334H54.7722Z" fill="#002838"/>
<path d="M70.6927 33.1716L74.3479 42.3098L75.7187 40.939L76.1756 37.2838L78.9171 34.9992L85.7707 31.3439L89.426 33.1716L95.3658 36.8268L96.2797 40.939L100.849 39.1114L102.219 34.0854L99.9349 26.7748L95.3658 20.835C91.1013 20.2258 82.481 19.0073 82.1154 19.0073C81.7499 19.0073 77.394 20.835 75.2618 21.7488L70.6927 33.1716Z" fill="#00A651"/>
<path d="M86.0706 8.68397C83.2478 8.68397 80.5151 9.05368 77.8821 9.68552C76.5852 4.58584 71.9706 0.859375 66.5091 0.859375H11.7369C5.264 0.859375 0 6.12337 0 12.5963V110.404C0 116.877 5.264 122.141 11.7369 122.141H66.5091C72.982 122.141 78.246 116.877 78.246 110.404V78.1977C80.7674 78.7728 83.3789 79.1053 86.0706 79.1053C105.485 79.1053 121.281 63.3094 121.281 43.8947C121.281 24.4799 105.485 8.68397 86.0706 8.68397ZM74.3337 110.404C74.3337 114.719 70.8243 118.228 66.5091 118.228H11.7369C7.42163 118.228 3.9123 114.719 3.9123 110.404V12.5963C3.9123 8.281 7.42163 4.77167 11.7369 4.77167H66.5091C70.2082 4.77167 73.3126 7.33618 74.1185 10.8162C60.578 15.7261 50.8599 28.6797 50.8599 43.8947C50.8599 44.1411 50.8912 44.3798 50.897 44.6243C49.6373 44.147 48.2993 43.8947 46.9476 43.8947C43.9468 43.8947 41.0087 45.1114 38.8863 47.2338L36.1888 49.9313L33.4912 47.2338C31.3688 45.1114 28.4307 43.8947 25.4299 43.8947C22.4292 43.8947 19.4911 45.1114 17.3686 47.2338L8.39775 56.2047L11.1637 58.9707L20.1346 49.9998C21.5294 48.6051 23.4581 47.807 25.4299 47.807C27.4017 47.807 29.3305 48.6051 30.7252 49.9998L41.6523 60.9268L44.4183 58.1609L38.9548 52.6973L41.6523 49.9998C44.1503 47.5038 48.3873 47.1908 51.3215 49.3151C53.3266 62.2081 62.3307 72.787 74.3337 77.0514V110.404ZM68.4652 69.751V68.4306C68.4652 65.7448 69.5098 63.2214 71.4092 61.322C72.5477 60.1835 73.9503 59.358 75.48 58.8709L79.4881 68.8923L86.0706 62.3098L92.653 68.8923L96.6612 58.8709C98.1909 59.3561 99.5934 60.1835 100.732 61.322C102.631 63.2214 103.676 65.7448 103.676 68.4306V69.751C98.6564 73.1802 92.5943 75.193 86.0706 75.193C79.5468 75.193 73.4847 73.1802 68.4652 69.751ZM77.0097 33.7677C75.4096 34.3017 74.3337 35.7923 74.3337 37.4804V39.0278C73.1013 37.4648 72.3775 35.5282 72.3775 33.529C72.3775 30.5615 73.3967 27.6547 75.2511 25.3406C77.7511 22.2147 81.4814 20.4209 85.4857 20.4209H86.6554C90.6597 20.4209 94.3901 22.2147 96.892 25.3425C98.7445 27.6547 99.7636 30.5635 99.7636 33.529C99.7636 35.5263 99.0398 37.4648 97.8075 39.0278V37.4804C97.8075 35.7942 96.7316 34.3017 95.1334 33.7716C92.4554 32.8776 89.9848 31.3518 87.9895 29.3546L86.0706 27.4356L84.1535 29.3526C82.1563 31.3499 79.6857 32.8757 77.0097 33.7677ZM78.246 37.4804C81.1274 36.5219 83.8112 34.9551 86.0706 32.9246C88.3299 34.9551 91.0138 36.52 93.8952 37.4804V41.9385C93.8952 46.2538 90.3858 49.7631 86.0706 49.7631C81.7553 49.7631 78.246 46.2538 78.246 41.9385V37.4804ZM92.3048 57.7383L92.8467 57.8733L91.2231 61.9304L89.1398 59.8471L92.3048 57.7383ZM86.0706 53.6754C87.1973 53.6754 88.2849 53.5072 89.3178 53.2079L89.707 54.7669L86.0706 57.1926L82.4341 54.7689L82.8234 53.2098C83.8562 53.5072 84.9438 53.6754 86.0706 53.6754ZM79.8363 57.7383L82.9994 59.8471L80.9161 61.9304L79.2925 57.8733L79.8363 57.7383ZM107.467 66.674C107.085 63.6107 105.718 60.7743 103.5 58.556C101.71 56.7661 99.4663 55.4966 97.0133 54.8843L93.5528 54.0197L92.9132 51.4571C95.0258 49.9333 96.6123 47.7326 97.3478 45.1662L99.926 42.588C102.309 40.2034 103.676 36.9034 103.676 33.529C103.676 29.6774 102.352 25.902 99.9475 22.8954C96.6983 18.8364 91.8529 16.5086 86.6554 16.5086H85.4857C80.2882 16.5086 75.4428 18.8364 72.1956 22.8974C69.7895 25.902 68.4652 29.6774 68.4652 33.529C68.4652 36.9034 69.8326 40.2034 72.2171 42.588L74.7953 45.1662C75.5308 47.7307 77.1173 49.9333 79.2299 51.4571L78.5902 54.0197L75.1298 54.8843C72.6749 55.4966 70.4331 56.7661 68.6432 58.556C66.425 60.7743 65.0576 63.6107 64.6762 66.674C58.5964 60.9621 54.7722 52.8753 54.7722 43.8947C54.7722 26.6375 68.8134 12.5963 86.0706 12.5963C103.328 12.5963 117.369 26.6375 117.369 43.8947C117.369 52.8753 113.545 60.9621 107.467 66.674Z" fill="#002838"/>
<path d="M33.2545 39.9824C38.6476 39.9824 43.0353 35.5947 43.0353 30.2016C43.0353 24.8085 38.6476 20.4209 33.2545 20.4209C27.8614 20.4209 23.4738 24.8085 23.4738 30.2016C23.4738 35.5947 27.8614 39.9824 33.2545 39.9824ZM33.2545 24.3332C36.49 24.3332 39.123 26.9662 39.123 30.2016C39.123 33.4371 36.49 36.0701 33.2545 36.0701C30.0191 36.0701 27.3861 33.4371 27.3861 30.2016C27.3861 26.9662 30.0191 24.3332 33.2545 24.3332Z" fill="black"/>
<path d="M19.5615 71.2808H58.6845V75.1931H19.5615V71.2808Z" fill="#002838"/>
<path d="M23.4738 79.1052H35.2107V83.0175H23.4738V79.1052Z" fill="#002838"/>
<path d="M43.0353 79.1052H54.7722V83.0175H43.0353V79.1052Z" fill="#002838"/>
</svg>
