<svg width="114" height="114" viewBox="0 0 114 114" fill="none" xmlns="http://www.w3.org/2000/svg">
<path d="M16.0312 3.5625V7.125C16.0312 12.0359 20.0266 16.0312 24.9375 16.0312H89.0625C93.9734 16.0312 97.9688 12.0359 97.9688 7.125V3.5625H16.0312Z" fill="#F7931D"/>
<path d="M90.8438 90.8438H65.9062C63.938 90.8438 62.3438 89.2495 62.3438 87.2812V58.7812C62.3438 56.813 63.938 55.2188 65.9062 55.2188H90.8438C92.812 55.2188 94.4062 56.813 94.4062 58.7812V87.2812C94.4062 89.2495 92.812 90.8438 90.8438 90.8438Z" fill="#00A651"/>
<path d="M103.312 1.78125H10.6875C5.77659 1.78125 1.78125 5.77659 1.78125 10.6875V46.7329L6.02419 55.2188H58.7812V51.6562H97.9688V94.4062H58.7812V58.7812H55.2188V103.312C55.2188 108.223 59.2141 112.219 64.125 112.219H92.625C97.5359 112.219 101.531 108.223 101.531 103.312V55.2188H107.976L112.219 46.7329V10.6875C112.219 5.77659 108.223 1.78125 103.312 1.78125ZM10.6875 5.34375H103.312C106.259 5.34375 108.656 7.74131 108.656 10.6875V44.5312H101.531V42.75C101.531 37.8391 97.5359 33.8438 92.625 33.8438H64.125C59.2141 33.8438 55.2188 37.8391 55.2188 42.75V44.5312H5.34375V10.6875C5.34375 7.74131 7.74131 5.34375 10.6875 5.34375ZM8.22581 51.6562L6.44456 48.0938H55.2188V51.6562H8.22581ZM58.7812 48.0938V42.75C58.7812 39.8038 61.1788 37.4062 64.125 37.4062H92.625C95.5712 37.4062 97.9688 39.8038 97.9688 42.75V48.0938H58.7812ZM92.625 108.656H64.125C61.1788 108.656 58.7812 106.259 58.7812 103.312V97.9688H97.9688V103.312C97.9688 106.259 95.5712 108.656 92.625 108.656ZM101.531 51.6562V48.0938H107.555L105.774 51.6562H101.531Z" fill="#002838"/>
<path d="M83.7188 40.9688H73.0312V44.5312H83.7188V40.9688Z" fill="#002838"/>
<path d="M81.9375 101.531H74.8125V105.094H81.9375V101.531Z" fill="#002838"/>
<path d="M90.8438 40.9688H87.2812V44.5312H90.8438V40.9688Z" fill="#002838"/>
<path d="M69.4688 40.9688H65.9062V44.5312H69.4688V40.9688Z" fill="#002838"/>
<path d="M87.2812 73.0312C87.2812 68.1203 83.2859 64.125 78.375 64.125C73.4641 64.125 69.4688 68.1203 69.4688 73.0312C69.4688 77.9422 73.4641 81.9375 78.375 81.9375C83.2859 81.9375 87.2812 77.9422 87.2812 73.0312ZM73.0312 73.0312C73.0312 70.0851 75.4288 67.6875 78.375 67.6875C81.3212 67.6875 83.7188 70.0851 83.7188 73.0312C83.7188 75.3504 82.2243 77.3098 80.1562 78.0473V71.25H76.5938V78.0473C74.5257 77.3098 73.0312 75.3504 73.0312 73.0312Z" fill="#002838"/>
<path d="M17.8125 40.9688C22.7234 40.9688 26.7188 36.9734 26.7188 32.0625C26.7188 27.1516 22.7234 23.1562 17.8125 23.1562C12.9016 23.1562 8.90625 27.1516 8.90625 32.0625C8.90625 36.9734 12.9016 40.9688 17.8125 40.9688ZM17.8125 26.7188C20.7587 26.7188 23.1562 29.1163 23.1562 32.0625C23.1562 34.3817 21.6618 36.3411 19.5938 37.0785V30.2812H16.0312V37.0785C13.9632 36.3411 12.4688 34.3817 12.4688 32.0625C12.4688 29.1163 14.8663 26.7188 17.8125 26.7188Z" fill="#002838"/>
<path d="M105.094 19.5938H83.7188V23.1562H105.094V19.5938Z" fill="#002838"/>
<path d="M105.094 26.7188H83.7188V30.2812H105.094V26.7188Z" fill="#002838"/>
<path d="M15.39 66.0862C17.2621 64.5258 19.5938 62.5842 19.5938 58.7812H16.0312C16.0312 60.8154 14.975 61.7933 13.11 63.3466C11.2379 64.907 8.90625 66.8485 8.90625 70.6515C8.90625 74.4545 11.2361 76.3978 13.1082 77.9582C14.975 79.5132 16.0312 80.4911 16.0312 82.5289C16.0312 84.5648 14.975 85.5445 13.11 87.0996C11.2379 88.6599 8.90625 90.6033 8.90625 94.4062H12.4688C12.4688 92.3703 13.525 91.3906 15.39 89.8356C17.2621 88.2752 19.5938 86.3318 19.5938 82.5289C19.5938 78.7241 17.2621 76.7826 15.39 75.2204C13.525 73.6654 12.4688 72.6875 12.4688 70.6515C12.4688 68.6173 13.525 67.6394 15.39 66.0862Z" fill="#002838"/>
<path d="M27.8588 66.0862C29.7308 64.5258 32.0625 62.5842 32.0625 58.7812H28.5C28.5 60.8154 27.4437 61.7933 25.5787 63.3466C23.7067 64.907 21.375 66.8485 21.375 70.6497C21.375 74.4527 23.7049 76.396 25.577 77.9564C27.4437 79.5132 28.5 80.4911 28.5 82.5289C28.5 84.5648 27.4437 85.5445 25.5787 87.0996C23.7067 88.6599 21.375 90.6033 21.375 94.4062H24.9375C24.9375 92.3703 25.9938 91.3906 27.8588 89.8356C29.7308 88.2752 32.0625 86.3318 32.0625 82.5289C32.0625 78.7241 29.7308 76.7826 27.8588 75.2204C25.9938 73.6654 24.9375 72.6875 24.9375 70.6515C24.9375 68.6173 25.9938 67.6394 27.8588 66.0862Z" fill="#002838"/>
<path d="M40.3275 66.0862C42.1996 64.5258 44.5312 62.5842 44.5312 58.7812H40.9688C40.9688 60.8154 39.9125 61.7933 38.0475 63.3466C36.1754 64.907 33.8438 66.8485 33.8438 70.6497C33.8438 74.4527 36.1736 76.396 38.0457 77.9564C39.9125 79.5132 40.9688 80.4911 40.9688 82.5289C40.9688 84.5648 39.9125 85.5445 38.0475 87.0996C36.1754 88.6599 33.8438 90.6033 33.8438 94.4062H37.4062C37.4062 92.3703 38.4625 91.3906 40.3275 89.8356C42.1996 88.2752 44.5312 86.3318 44.5312 82.5289C44.5312 78.7241 42.1996 76.7826 40.3275 75.2204C38.4625 73.6654 37.4062 72.6875 37.4062 70.6515C37.4062 68.6173 38.4625 67.6394 40.3275 66.0862Z" fill="#002838"/>
</svg>
