<svg width="101" height="94" viewBox="0 0 101 94" fill="none" xmlns="http://www.w3.org/2000/svg">
<path d="M32.582 68.2588H68.4208V77.2467H32.582V68.2588Z" fill="#F7931D"/>
<path d="M83.0812 57.7734H73.307C70.6129 57.7734 68.4199 55.7568 68.4199 53.2793V47.2871C68.4199 44.8096 70.6129 42.793 73.307 42.793H83.0812C85.7753 42.793 87.9683 44.8096 87.9683 47.2871V53.2793C87.9683 55.7568 85.7753 57.7734 83.0812 57.7734Z" fill="#00A651"/>
<path d="M27.6945 57.7734H17.9203C15.2262 57.7734 13.0332 55.7568 13.0332 53.2793V47.2871C13.0332 44.8096 15.2262 42.793 17.9203 42.793H27.6945C30.3886 42.793 32.5815 44.8096 32.5815 47.2871V53.2793C32.5815 55.7568 30.3886 57.7734 27.6945 57.7734Z" fill="#00A651"/>
<path d="M32.5801 48.7852H68.4188V51.7797H32.5801V48.7852Z" fill="#002838"/>
<path d="M19.5488 48.7852H26.0649V51.7797H19.5488V48.7852Z" fill="#002838"/>
<path d="M74.9355 48.7852H81.4517V51.7797H74.9355V48.7852Z" fill="#002838"/>
<path d="M101 38.3003C101 32.5185 95.883 27.8149 89.5968 27.8149H84.4098C84.5928 27.3446 84.7097 26.8443 84.7097 26.317V20.3254C84.7097 9.58839 75.2091 0.852539 63.5323 0.852539H37.4677C25.7909 0.852539 16.2903 9.58839 16.2903 20.3254V26.317C16.2903 26.8443 16.4072 27.3446 16.5902 27.8149H11.4032C5.11697 27.8149 0 32.5185 0 38.3003V51.7814H3.25806V86.2334C3.25806 90.3628 6.91225 93.7229 11.4032 93.7229H89.5968C94.0877 93.7229 97.7419 90.3628 97.7419 86.2334V51.7814H101V38.3003ZM19.5484 26.317V20.3254C19.5484 11.2406 27.5878 3.84836 37.4677 3.84836H63.5323C73.4122 3.84836 81.4516 11.2406 81.4516 20.3254V26.317C81.4516 27.142 80.7214 27.8149 79.8226 27.8149H62.2031C62.8776 26.0756 64.6697 24.8191 66.7903 24.8191H78.1936V21.8233C78.1936 13.5636 70.886 6.84418 61.9032 6.84418H39.0968C30.114 6.84418 22.8065 13.5636 22.8065 21.8233V24.8191H34.2097C36.3303 24.8191 38.1224 26.0756 38.7969 27.8149H21.1774C20.2786 27.8149 19.5484 27.142 19.5484 26.317ZM42.1902 27.8149C41.4329 24.4015 38.1439 21.8233 34.2097 21.8233H26.0645C26.0645 15.2158 31.9109 9.83999 39.0968 9.83999H61.9032C69.0891 9.83999 74.9355 15.2158 74.9355 21.8233H66.7903C62.8577 21.8233 59.5671 24.4015 58.8098 27.8149H42.1902ZM97.7419 48.7856H87.9677V51.7814H94.4839V86.2334C94.4839 88.7106 92.2909 90.7271 89.5968 90.7271H11.4032C8.70912 90.7271 6.51613 88.7106 6.51613 86.2334V51.7814H13.0323V48.7856H3.25806V38.3003C3.25806 34.1708 6.91225 30.8107 11.4032 30.8107H89.5968C94.0877 30.8107 97.7419 34.1708 97.7419 38.3003V48.7856Z" fill="#002838"/>
<path d="M77.6098 60.7705C72.7617 60.7705 68.2476 63.0932 65.8319 66.7615H35.1715C32.7558 63.0932 28.2401 60.7705 23.3936 60.7705C19.6225 60.7705 16.1075 62.1154 13.5009 64.5566L13.0332 64.9939V69.757H21.273L22.6642 72.7526L21.273 75.7481H13.0332V80.5112L13.4993 80.9485C16.1075 83.3897 19.6209 84.7346 23.392 84.7346C28.2401 84.7346 32.7542 82.4119 35.1699 78.7436H65.8288C68.2445 82.4119 72.7601 84.7346 77.6066 84.7346C81.3777 84.7346 84.8927 83.3897 87.4993 80.9485L87.9686 80.5112V75.7481H79.7288L78.3376 72.7526L79.7288 69.757H87.9686V64.9939L87.5025 64.5566C84.8943 62.1154 81.3809 60.7705 77.6098 60.7705ZM84.7106 66.7615H77.5788L74.7932 72.7526L77.5788 78.7436H84.7106V79.2606C82.7769 80.8644 80.2793 81.7391 77.6098 81.7391C73.6303 81.7391 69.9546 79.7126 68.2492 76.5767L67.7982 75.7481H61.9041V72.7526H58.6461V75.7481H48.8719V72.7526H45.6138V75.7481H35.8396V72.7526H32.5816V76.8399C30.8157 79.8208 27.2562 81.7391 23.392 81.7391C20.721 81.7391 18.2234 80.8644 16.2913 79.2606V78.7436H23.423L26.2086 72.7526L23.423 66.7615H16.2913V66.2445C18.2249 64.6407 20.7226 63.766 23.392 63.766C27.3715 63.766 31.0472 65.7925 32.7526 68.9285L33.2036 69.757H39.0977V72.7526H42.3558V69.757H52.1299V72.7526H55.388V69.757H65.1622V72.7526H68.4203V68.6652C70.1861 65.6843 73.7456 63.766 77.6098 63.766C80.2808 63.766 82.7785 64.6407 84.7106 66.2445V66.7615Z" fill="#002838"/>
</svg>
