<svg width="120" height="120" viewBox="0 0 120 120" fill="none" xmlns="http://www.w3.org/2000/svg">
<path d="M97.5 50.625H82.5V88.125H97.5V50.625Z" fill="#00A651"/>
<path d="M37.5 43.125H22.5V76.875H37.5V43.125Z" fill="#F7931D"/>
<path d="M52.5 21.4093C52.5 13.2136 47.7881 5.80363 40.2019 2.06863L37.5 0.739258V19.2305L22.5 23.7305V0.739258L19.7981 2.06863C12.2119 5.80363 7.5 13.2136 7.5 21.4093C7.5 29.9893 12.6094 37.6018 20.625 41.1361V78.863C12.6094 82.3993 7.5 90.0099 7.5 98.5899C7.5 106.786 12.2119 114.196 19.7981 117.931L22.5 119.262V96.2705L37.5 100.771V119.262L40.2019 117.932C47.7881 114.197 52.5 106.787 52.5 98.5918C52.5 90.0118 47.3906 82.3993 39.375 78.8649V41.1361C47.3906 37.6018 52.5 29.9893 52.5 21.4093ZM36.8381 81.878C44.0756 84.6005 48.75 91.1611 48.75 98.5918C48.75 104.32 45.9412 109.591 41.25 112.951V97.9805L18.75 91.2305V112.951C14.0587 109.591 11.25 104.318 11.25 98.5918C11.25 91.1611 15.9244 84.6005 23.1619 81.878L24.375 81.4224V38.5786L23.1619 38.123C15.9244 35.4005 11.25 28.8399 11.25 21.4093C11.25 15.6811 14.0587 10.4105 18.75 7.05051V28.7705L41.25 22.0205V7.05051C45.9412 10.4105 48.75 15.683 48.75 21.4093C48.75 28.8399 44.0756 35.4005 36.8381 38.123L35.625 38.5786V81.4224L36.8381 81.878Z" fill="#002838"/>
<path d="M112.5 21.4093C112.5 13.2136 107.788 5.80363 100.202 2.06863L97.5 0.739258V19.2305L82.5 23.7305V0.739258L79.7981 2.06863C72.2119 5.80363 67.5 13.2136 67.5 21.4093C67.5 29.9893 72.6094 37.6018 80.625 41.1361V91.4236C77.085 94.2661 75 98.5674 75 103.124C75 111.394 81.7294 118.124 90 118.124C98.2706 118.124 105 111.394 105 103.124C105 98.5655 102.915 94.2642 99.375 91.4236V41.1361C107.391 37.6018 112.5 29.9893 112.5 21.4093ZM96.4275 93.8986C99.4463 96.0099 101.25 99.4599 101.25 103.126C101.25 109.33 96.2044 114.375 90 114.375C83.7956 114.375 78.75 109.33 78.75 103.126C78.75 99.4599 80.5537 96.0099 83.5725 93.8986L84.375 93.3399V38.5786L83.1619 38.123C75.9244 35.4005 71.25 28.8399 71.25 21.4093C71.25 15.6811 74.0588 10.4105 78.75 7.05051V28.7705L101.25 22.0205V7.05051C105.941 10.4105 108.75 15.683 108.75 21.4093C108.75 28.8399 104.076 35.4005 96.8381 38.123L95.625 38.5786V93.3399L96.4275 93.8986Z" fill="#002838"/>
<path d="M90 95.625C85.8637 95.625 82.5 98.9887 82.5 103.125C82.5 107.261 85.8637 110.625 90 110.625C94.1363 110.625 97.5 107.261 97.5 103.125C97.5 98.9887 94.1363 95.625 90 95.625ZM90 106.875C87.9319 106.875 86.25 105.193 86.25 103.125C86.25 101.057 87.9319 99.375 90 99.375C92.0681 99.375 93.75 101.057 93.75 103.125C93.75 105.193 92.0681 106.875 90 106.875Z" fill="#002838"/>
<path d="M91.875 48.75H88.125V52.5H91.875V48.75Z" fill="#002838"/>
<path d="M91.875 56.25H88.125V90H91.875V56.25Z" fill="#002838"/>
<path d="M31.875 48.75H28.125V78.75H31.875V48.75Z" fill="#002838"/>
<path d="M31.875 41.25H28.125V45H31.875V41.25Z" fill="#002838"/>
</svg>
