<svg width="128" height="128" viewBox="0 0 128 128" fill="none" xmlns="http://www.w3.org/2000/svg">
<path d="M84 116H76C73.79 116 72 114.21 72 112V105.046C72 108.886 68.886 112 65.046 112C64.352 112 63.664 111.896 63 111.692L15.824 97.176C13.55 96.478 12 94.378 12 92V116C12 118.21 13.79 120 16 120C18.21 120 20 118.21 20 116V112C20 109.79 21.79 108 24 108C26.21 108 28 109.79 28 112V120C28 122.21 29.79 124 32 124H84C86.21 124 88 122.21 88 120C88 117.79 86.21 116 84 116Z" fill="#00A651"/>
<path d="M114 44V2H2V86H10V92C10 95.276 12.104 98.124 15.234 99.088L62.414 113.606C63.27 113.868 64.154 114 65.044 114C69.982 114 74 109.982 74 105.044V97.044V94V90H80C83.254 90 86.122 88.414 87.948 86H114V60H110V66H90V58H96V54H90C87.794 54 86 55.794 86 58V80C86 83.308 83.308 86 80 86H64.226C63.146 86 62.182 85.276 62.028 84.352C61.928 83.748 62.086 83.166 62.474 82.71C62.858 82.258 63.412 82 64 82H78C80.206 82 82 80.206 82 78V56C82 52.692 84.692 50 88 50H96V46H88C87.316 46 86.646 46.07 86 46.202V38H98V44H102V38H110V44H114ZM110 70V82H89.798C89.93 81.354 90 80.684 90 80V70H110ZM110 18H102V6H110V18ZM62 62.522L50.696 66H50V54H62V62.522ZM82 18H70V6H82V18ZM86 6H98V18H86V6ZM50 34V22H62V34H50ZM38 50V38H50V50H38ZM34 34V22H46V34H34ZM30 34H18V22H30V34ZM34 38V50H22V38H34ZM66 18H54V6H66V18ZM50 18H38V6H50V18ZM34 18H22V6H34V18ZM14 34H6V22H14V34ZM18 38V50H6V38H18ZM14 54V66H6V54H14ZM18 54H30V66H18V54ZM34 54H46V66H34V54ZM54 50V38H66V50H54ZM66 34V22H78V34H66ZM82 22H94V34H82V22ZM18 6V18H6V6H18ZM6 70H37.696L15.234 76.912C12.766 77.672 10.954 79.612 10.29 82H6V70ZM65.044 110C64.55 110 64.06 109.926 63.586 109.782L16.41 95.264C14.968 94.82 14 93.508 14 92V90.574C14.392 90.776 14.8 90.954 15.234 91.088L62.414 105.606C63.27 105.868 64.154 106 65.044 106C66.876 106 68.578 105.442 70 104.494V105.044C70 107.778 67.778 110 65.044 110ZM59.424 80.124C58.282 81.47 57.794 83.248 58.084 85.004C58.552 87.852 61.194 90 64.226 90H70V94V97.044C70 99.778 67.778 102 65.044 102C64.55 102 64.06 101.926 63.586 101.782L16.41 87.264C14.968 86.82 14 85.508 14 84C14 82.492 14.968 81.18 16.41 80.736L63.586 66.218C64.06 66.074 64.55 66 65.044 66C67.778 66 70 68.222 70 70.956V78H64C62.236 78 60.568 78.774 59.424 80.124ZM78 78H74V70.956C74 66.346 70.484 62.582 66 62.098V54H78.202C78.07 54.646 78 55.316 78 56V78ZM82 48.052C81.262 48.61 80.61 49.264 80.052 50H70V38H82V48.052ZM98 34V22H110V34H98Z" fill="#002838"/>
<path d="M116 62H94V42H116C121.514 42 126 46.486 126 52C126 57.514 121.514 62 116 62Z" fill="#F7931D"/>
</svg>
