<svg id="post-task-icon" xmlns="http://www.w3.org/2000/svg" width="111" height="112" viewBox="0 0 111 112">
  <path id="Path_1" data-name="Path 1" d="M12.532,0H5.371L3.581,16.113l1.79,1.79V55.5h7.161V17.9l1.79-1.79Z" fill="#00a651"/>
  <path id="Path_2" data-name="Path 2" d="M0,53.71v48.339a8.952,8.952,0,0,0,17.9,0V53.71Zm14.323,48.339a5.363,5.363,0,0,1-3.581,5.041V91.307H7.161V107.09a5.363,5.363,0,0,1-3.581-5.041V57.291H7.161V73.4h3.581V57.291h3.581Z" fill="#002838"/>
  <path id="Path_3" data-name="Path 3" d="M38.863,79.3,36.331,81.83l4.846,4.846L53.185,74.669l-2.532-2.531-9.476,9.476Z" fill="#002838"/>
  <path id="Path_4" data-name="Path 4" d="M66.242,73.4H59.081v3.581h7.161Z" fill="#002838"/>
  <path id="Path_5" data-name="Path 5" d="M66.242,80.564H59.081v3.581h7.161Z" fill="#002838"/>
  <path id="Path_6" data-name="Path 6" d="M50.654,54.234,41.178,63.71,38.863,61.4l-2.531,2.532,4.846,4.846L53.185,56.766Z" fill="#002838"/>
  <path id="Path_7" data-name="Path 7" d="M71.613,55.5H59.081v3.581H71.613Z" fill="#002838"/>
  <path id="Path_8" data-name="Path 8" d="M71.613,62.661H59.081v3.581H71.613Z" fill="#002838"/>
  <path id="Path_9" data-name="Path 9" d="M87.726,10.742H82.355V7.161H70.394a12.517,12.517,0,0,0-22.626,0H35.806v3.581H30.435a8.962,8.962,0,0,0-8.952,8.952V91.307a8.962,8.962,0,0,0,8.952,8.951H74.524V96.677H30.435a5.378,5.378,0,0,1-5.371-5.371V19.694a5.378,5.378,0,0,1,5.371-5.371h5.371V17.9H28.645V93.1H69.823V89.516h-37.6V21.484h3.581v3.581H71.613V21.484H39.387V10.742h10.84L50.65,9.55a8.937,8.937,0,0,1,16.859,0l.424,1.192h10.84V21.484H75.194v3.581h7.161V21.484h3.581v37.6h3.581V17.9H82.355V14.323h5.371A5.378,5.378,0,0,1,93.1,19.694V74.347h3.581V19.694A8.962,8.962,0,0,0,87.726,10.742Z" fill="#002838"/>
  <path id="Path_10" data-name="Path 10" d="M35.806,50.129H82.355V28.646H35.806Zm3.581-17.9H78.774V46.549H39.387Z" fill="#002838"/>
  <path id="Path_11" data-name="Path 11" d="M89.516,62.661H85.936v7.161h3.581Z" fill="#002838"/>
  <g id="Group_1" data-name="Group 1" transform="translate(13 -46)">
    <path id="Path_21" data-name="Path 21" d="M67.646,38.066v-10.2l-3.89-.957a18.142,18.142,0,0,0-.735-1.755L65.1,21.723l-7.209-7.21-3.435,2.079a17.753,17.753,0,0,0-1.756-.735l-.957-3.889h-10.2l-.957,3.89a18.016,18.016,0,0,0-1.756.735L35.4,14.514l-7.209,7.21,2.079,3.435a18.425,18.425,0,0,0-.735,1.755l-3.89.957v10.2l3.89.957a18.157,18.157,0,0,0,.735,1.755l-2.079,3.435,7.209,7.21,3.435-2.079a17.746,17.746,0,0,0,1.756.735l.957,3.889h10.2l.957-3.89a18.009,18.009,0,0,0,1.756-.735l3.435,2.079,7.209-7.21-2.079-3.435a18.408,18.408,0,0,0,.735-1.755Zm-21,7.5a12.6,12.6,0,1,1,12.6-12.6A12.6,12.6,0,0,1,46.646,45.568Z" transform="translate(30.354 104.032)" fill="#00a651"/>
    <path id="Path_22" data-name="Path 22" d="M46.646,42a9.032,9.032,0,1,1,9.032-9.032A9.043,9.043,0,0,1,46.646,42Zm0-16.675a7.643,7.643,0,1,0,7.643,7.643A7.652,7.652,0,0,0,46.646,25.325Z" transform="translate(30 104)" fill="#fff"/>
    <ellipse id="Ellipse_2" data-name="Ellipse 2" cx="11" cy="11" rx="11" ry="11" transform="translate(66 126)" fill="#f7931d"/>
  </g>
</svg>
