<svg width="111" height="111" viewBox="0 0 111 111" fill="none" xmlns="http://www.w3.org/2000/svg">
<path d="M12.5322 0H5.37089L3.58057 16.1129L5.37089 17.9032V55.5H12.5322V17.9032L14.3225 16.1129L12.5322 0Z" fill="#00A651"/>
<path d="M0 53.71V102.049C0 106.985 4.01569 111 8.95161 111C13.8875 111 17.9032 106.985 17.9032 102.049V53.71H0ZM14.3226 102.049C14.3226 104.38 12.8205 106.349 10.7419 107.09V91.3067H7.16129V107.09C5.08273 106.349 3.58065 104.38 3.58065 102.049V57.2906H7.16129V73.4035H10.7419V57.2906H14.3226V102.049Z" fill="#002838"/>
<path d="M38.8626 79.299L36.3311 81.8305L41.1775 86.6769L53.1851 74.6692L50.6536 72.1377L41.1775 81.6139L38.8626 79.299Z" fill="#002838"/>
<path d="M66.2419 73.4033H59.0806V76.984H66.2419V73.4033Z" fill="#002838"/>
<path d="M66.2419 80.5645H59.0806V84.1451H66.2419V80.5645Z" fill="#002838"/>
<path d="M50.6536 54.2344L41.1775 63.7105L38.8626 61.3957L36.3311 63.9272L41.1775 68.7736L53.1851 56.7659L50.6536 54.2344Z" fill="#002838"/>
<path d="M71.6128 55.5H59.0806V59.0806H71.6128V55.5Z" fill="#002838"/>
<path d="M71.6128 62.6611H59.0806V66.2418H71.6128V62.6611Z" fill="#002838"/>
<path d="M87.7258 10.7419H82.3549V7.16129H70.3937C68.3366 2.8305 63.9396 0 59.0807 0C54.2217 0 49.8247 2.8305 47.7676 7.16129H35.8065V10.7419H30.4355C25.4996 10.7419 21.4839 14.7576 21.4839 19.6936V91.3065C21.4839 96.2424 25.4996 100.258 30.4355 100.258H74.524V96.6774H30.4355C27.4743 96.6774 25.0645 94.2676 25.0645 91.3065V19.6936C25.0645 16.7324 27.4743 14.3226 30.4355 14.3226H35.8065V17.9032H28.6452V93.0968H69.8226V89.5161H32.2258V21.4839H35.8065V25.0645H71.6129V21.4839H39.3871V10.7419H50.2275L50.65 9.54958C51.9158 5.97968 55.3031 3.58065 59.0807 3.58065C62.8582 3.58065 66.2455 5.97968 67.5095 9.54958L67.9338 10.7419H78.7742V21.4839H75.1936V25.0645H82.3549V21.4839H85.9355V59.0806H89.5162V17.9032H82.3549V14.3226H87.7258C90.687 14.3226 93.0968 16.7324 93.0968 19.6936V74.3467H96.6774V19.6936C96.6774 14.7576 92.6618 10.7419 87.7258 10.7419Z" fill="#002838"/>
<path d="M35.8064 50.1294H82.3548V28.6455H35.8064V50.1294ZM39.387 32.2262H78.7741V46.5487H39.387V32.2262Z" fill="#002838"/>
<path d="M89.5162 62.6611H85.9355V69.8224H89.5162V62.6611Z" fill="#002838"/>
<path d="M109.643 84.1988L106.329 83.3699C106.155 82.8937 105.962 82.4282 105.751 81.9717L107.507 79.0427C107.93 78.3373 107.819 77.4368 107.238 76.8549L102.175 71.7919C101.594 71.2083 100.693 71.1008 99.9877 71.5234L97.0587 73.2797C96.6022 73.0684 96.1349 72.8733 95.6605 72.7014L94.8316 69.3875C94.6346 68.5908 93.9185 68.0322 93.0967 68.0322H85.9355C85.1137 68.0322 84.3976 68.5908 84.1988 69.3893L83.3699 72.7032C82.8937 72.8768 82.4282 73.0702 81.9717 73.2815L79.0427 71.5234C78.3373 71.1026 77.4368 71.2118 76.8549 71.7919L71.7919 76.8549C71.2118 77.435 71.0991 78.3373 71.5234 79.0427L73.2797 81.9717C73.0684 82.4282 72.8733 82.8955 72.7014 83.3699L69.3875 84.1988C68.5908 84.3976 68.0322 85.1137 68.0322 85.9355V93.0967C68.0322 93.9185 68.5908 94.6346 69.3893 94.8334L72.7032 95.6623C72.8768 96.1385 73.0702 96.604 73.2815 97.0605L71.5234 99.9895C71.1008 100.695 71.2118 101.595 71.7919 102.177L76.8549 107.24C77.435 107.822 78.3355 107.93 79.0427 107.509L81.9717 105.753C82.4282 105.964 82.8955 106.159 83.3699 106.331L84.1988 109.645C84.3976 110.441 85.1137 111 85.9355 111H93.0967C93.9185 111 94.6346 110.441 94.8334 109.643L95.6623 106.329C96.1385 106.155 96.604 105.962 97.0605 105.751L99.9895 107.507C100.697 107.928 101.595 107.819 102.177 107.238L107.24 102.175C107.82 101.595 107.933 100.693 107.509 99.9877L105.753 97.0587C105.964 96.6022 106.159 96.1349 106.331 95.6605L109.645 94.8316C110.44 94.6346 111 93.9185 111 93.0967V85.9355C111 85.1137 110.44 84.3976 109.643 84.1988ZM89.5161 98.4677C84.573 98.4677 80.5645 94.4592 80.5645 89.5161C80.5645 84.573 84.573 80.5645 89.5161 80.5645C94.4592 80.5645 98.4677 84.573 98.4677 89.5161C98.4677 94.4592 94.4592 98.4677 89.5161 98.4677Z" fill="#00A651"/>
<path d="M89.5161 100.258C83.5919 100.258 78.7742 95.4405 78.7742 89.5163C78.7742 83.5922 83.5919 78.7744 89.5161 78.7744C95.4403 78.7744 100.258 83.5922 100.258 89.5163C100.258 95.4405 95.4403 100.258 89.5161 100.258ZM89.5161 82.3551C85.5667 82.3551 82.3548 85.5669 82.3548 89.5163C82.3548 93.4658 85.5667 96.6776 89.5161 96.6776C93.4656 96.6776 96.6774 93.4658 96.6774 89.5163C96.6774 85.5669 93.4656 82.3551 89.5161 82.3551Z" fill="#002838"/>
</svg>
