<svg width="106" height="106" viewBox="0 0 106 106" fill="none" xmlns="http://www.w3.org/2000/svg">
<path d="M41.4631 72.3807L16.9258 99.9869C15.4589 101.635 13.3543 102.58 11.1488 102.58C6.88658 102.58 3.41935 99.1132 3.41935 94.851C3.41935 92.6455 4.3648 90.5392 6.01464 89.0723L33.6208 64.5333L31.3486 61.979L23.6414 68.8297C23.3696 68.3955 23.0789 67.9715 22.8242 67.5304C15.7359 55.2532 15.199 40.5294 21.2615 27.7923C21.5436 27.9103 21.8223 28.0351 22.1215 28.1155C22.7113 28.2728 23.308 28.3514 23.903 28.3514C25.0878 28.3514 26.2572 28.0402 27.3121 27.4333C30.5759 25.5458 31.6991 21.3554 29.8133 18.0899C27.9293 14.8262 23.7406 13.7046 20.4717 15.587C18.8902 16.4999 17.7584 17.9737 17.2865 19.7398C16.813 21.5042 17.0557 23.3472 17.9687 24.9286C18.1226 25.1936 18.3123 25.4279 18.497 25.6672C11.6087 39.5686 12.084 55.7695 19.8613 69.2417C20.2323 69.8829 20.6478 70.5052 21.0512 71.1327L3.74077 86.518C1.36432 88.6329 0 91.6693 0 94.851C0 100.999 5.0008 106 11.1488 106C14.3288 106 17.3669 104.635 19.4818 102.259L44.0208 74.6529L41.4631 72.3807ZM20.5879 20.6237C20.8239 19.7415 21.3898 19.0046 22.1813 18.5481C23.8124 17.601 25.9101 18.1652 26.8522 19.7979C27.7942 21.4306 27.2334 23.5267 25.6007 24.4687C24.8108 24.9252 23.8893 25.0466 23.0054 24.8107C22.1232 24.573 21.3863 24.0071 20.9299 23.2155C20.4734 22.424 20.352 21.5076 20.5879 20.6237Z" fill="#002838"/>
<path d="M21.7249 86.6928L19.3074 84.2754L21.6035 81.9793L24.021 84.3967L21.7249 86.6928ZM26.4384 81.9776L24.021 79.5601L26.4384 77.1426L28.8559 79.5601L26.4384 81.9776ZM31.2751 77.1426L28.8576 74.7251L31.2751 72.3076L33.6926 74.7251L31.2751 77.1426Z" fill="#002838"/>
<path d="M94.0331 54.4618V37.8591L87.6987 36.3016C87.3585 35.3476 86.9567 34.3919 86.5019 33.4447L89.8871 27.8524L78.1485 16.112L72.5561 19.4972C71.6072 19.039 70.6515 18.6406 69.6975 18.3004L68.14 11.9678H51.5391L49.9815 18.3021C49.0275 18.6424 48.0718 19.0424 47.123 19.4989L41.5306 16.1137L29.792 27.8541L33.1771 33.4464C32.7223 34.3936 32.3223 35.3493 31.9803 36.3033L25.646 37.8608V54.4635L31.9803 56.021C32.3206 56.975 32.7223 57.9307 33.1771 58.8779L29.792 64.4702L41.5306 76.2106L47.123 72.8254C48.0718 73.2836 49.0275 73.682 49.9815 74.0222L51.5391 80.3548H68.14L69.6975 74.0205C70.6515 73.6803 71.6072 73.2802 72.5561 72.8237L78.1485 76.2089L89.8871 64.4685L86.5019 58.8762C86.9567 57.929 87.3568 56.9733 87.6987 56.0193L94.0331 54.4618ZM59.8395 66.6774C48.5095 66.6774 39.3234 57.4913 39.3234 46.1613C39.3234 34.8313 48.5095 25.6452 59.8395 25.6452C71.1696 25.6452 80.3557 34.8313 80.3557 46.1613C80.3557 57.4913 71.1696 66.6774 59.8395 66.6774Z" fill="#00A651"/>
<path d="M59.8393 68.3871C47.5844 68.3871 37.6135 58.4163 37.6135 46.1613C37.6135 33.9064 47.5844 23.9355 59.8393 23.9355C72.0943 23.9355 82.0651 33.9064 82.0651 46.1613C82.0651 58.4163 72.0943 68.3871 59.8393 68.3871ZM59.8393 27.3549C49.4701 27.3549 41.0329 35.7922 41.0329 46.1613C41.0329 56.5305 49.4701 64.9678 59.8393 64.9678C70.2085 64.9678 78.6458 56.5305 78.6458 46.1613C78.6458 35.7922 70.2085 27.3549 59.8393 27.3549Z" fill="white"/>
<circle cx="59.8386" cy="46.1611" r="19.9462" fill="#F7931D"/>
<path d="M59.8387 44.4518C57.9529 44.4518 56.4194 42.9182 56.4194 41.0325V37.6131H59.8387C61.7245 37.6131 63.2581 39.1467 63.2581 41.0325H66.6774C66.6774 37.8542 64.489 35.2008 61.5484 34.4365V30.7744H58.129V34.1938H53V41.0325C53 44.804 56.0672 47.8712 59.8387 47.8712C61.7245 47.8712 63.2581 49.4048 63.2581 51.2905V54.7099H59.8387C57.9529 54.7099 56.4194 53.1763 56.4194 51.2905H53C53 54.4688 55.1884 57.1222 58.129 57.8865V61.5486H61.5484V58.1292H66.6774V51.2905C66.6774 47.519 63.6103 44.4518 59.8387 44.4518Z" fill="white"/>
<path d="M99.1612 20.5161C98.8534 20.5161 98.5594 20.5674 98.2619 20.6067C89.6639 7.69184 75.3949 0 59.8386 0C58.6504 0 57.4553 0.0444516 56.2876 0.135064L56.5492 3.54416C57.6297 3.46039 58.7359 3.41935 59.8386 3.41935C74.0152 3.41935 87.0361 10.3179 95.034 21.9369C93.3978 23.1883 92.3225 25.1391 92.3225 27.3548C92.3225 31.1264 95.3896 34.1935 99.1612 34.1935C102.933 34.1935 106 31.1264 106 27.3548C106 23.5833 102.933 20.5161 99.1612 20.5161ZM99.1612 30.7742C97.2754 30.7742 95.7418 29.2406 95.7418 27.3548C95.7418 25.4691 97.2754 23.9355 99.1612 23.9355C101.047 23.9355 102.581 25.4691 102.581 27.3548C102.581 29.2406 101.047 30.7742 99.1612 30.7742Z" fill="#002838"/>
<path d="M98.3923 64.623C97.9239 65.5993 97.4058 66.5789 96.8553 67.5329C89.767 79.8118 77.2812 87.6387 63.2191 88.7551C62.9541 86.7121 61.8018 84.8041 59.8853 83.6962C56.6198 81.8138 52.4294 82.9337 50.5436 86.2009C49.6289 87.7823 49.3862 89.6254 49.8597 91.3897C50.3316 93.1541 51.4634 94.6296 53.0466 95.5425C54.1202 96.1615 55.2948 96.4572 56.454 96.4572C58.8184 96.4572 61.1231 95.2297 62.3882 93.0396C62.5421 92.7729 62.6447 92.4925 62.7592 92.2138C78.2438 91.2256 92.0375 82.7148 99.8165 69.2426C100.41 68.2117 100.969 67.1568 101.475 66.1019L98.3923 64.623ZM59.4271 91.3299C58.4851 92.9609 56.3873 93.5251 54.7562 92.5797C53.9647 92.1232 53.3988 91.3863 53.1628 90.5041C52.9269 89.6202 53.0483 88.7004 53.5048 87.9088C54.1373 86.8112 55.2897 86.1992 56.4728 86.1992C57.0523 86.1992 57.6388 86.3462 58.1756 86.6574C59.8066 87.6011 60.3691 89.6972 59.4271 91.3299Z" fill="#002838"/>
</svg>
