<svg width="118" height="118" viewBox="0 0 118 118" fill="none" xmlns="http://www.w3.org/2000/svg">
<path d="M118 19.0323V15.2258H81.8387V11.4194H74.2258V0H43.7742V11.4194H36.1613V15.2258H0V19.0323H36.1613V22.8387H0V26.6452H36.1613V30.4516H9.51613V34.2581H0V38.0645H9.51613V47.5806H13.6728C13.4596 48.1783 13.3226 48.8139 13.3226 49.4839C13.3226 52.6318 15.8843 55.1935 19.0323 55.1935C22.1802 55.1935 24.7419 52.6318 24.7419 49.4839C24.7419 48.8139 24.6049 48.1783 24.3917 47.5806H28.9005C28.6854 48.1783 28.5484 48.8139 28.5484 49.4839C28.5484 52.6318 31.1101 55.1935 34.2581 55.1935C37.406 55.1935 39.9677 52.6318 39.9677 49.4839C39.9677 48.8139 39.8307 48.1783 39.6175 47.5806H43.7742V118H47.5806V47.5806H57.0968V51.3871H60.9032V47.5806H70.4194V118H74.2258V47.5806H78.3824C78.1693 48.1783 78.0323 48.8139 78.0323 49.4839C78.0323 52.6318 80.594 55.1935 83.7419 55.1935C86.8899 55.1935 89.4516 52.6318 89.4516 49.4839C89.4516 48.8139 89.3146 48.1783 89.1014 47.5806H93.6102C93.3951 48.1783 93.2581 48.8139 93.2581 49.4839C93.2581 52.6318 95.8198 55.1935 98.9677 55.1935C102.116 55.1935 104.677 52.6318 104.677 49.4839C104.677 48.8139 104.54 48.1783 104.327 47.5806H108.484V38.0645H118V34.2581H108.484V30.4516H81.8387V26.6452H118V22.8387H81.8387V19.0323H118ZM39.9677 15.2258H43.7742V30.4516H39.9677V15.2258ZM20.9355 49.4839C20.9355 50.5345 20.0809 51.3871 19.0323 51.3871C17.9836 51.3871 17.129 50.5345 17.129 49.4839C17.129 48.4333 17.9836 47.5806 19.0323 47.5806C20.0809 47.5806 20.9355 48.4333 20.9355 49.4839ZM36.1613 49.4839C36.1613 50.5345 35.3067 51.3871 34.2581 51.3871C33.2094 51.3871 32.3548 50.5345 32.3548 49.4839C32.3548 48.4333 33.2094 47.5806 34.2581 47.5806C35.3067 47.5806 36.1613 48.4333 36.1613 49.4839ZM85.6452 49.4839C85.6452 50.5345 84.7906 51.3871 83.7419 51.3871C82.6933 51.3871 81.8387 50.5345 81.8387 49.4839C81.8387 48.4333 82.6933 47.5806 83.7419 47.5806C84.7906 47.5806 85.6452 48.4333 85.6452 49.4839ZM100.871 49.4839C100.871 50.5345 100.016 51.3871 98.9677 51.3871C97.9191 51.3871 97.0645 50.5345 97.0645 49.4839C97.0645 48.4333 97.9191 47.5806 98.9677 47.5806C100.016 47.5806 100.871 48.4333 100.871 49.4839ZM104.677 43.7742H13.3226V34.2581H104.677V43.7742ZM74.2258 30.4516V26.6452H70.4194V30.4516H47.5806V3.80645H70.4194V22.8387H74.2258V15.2258H78.0323V30.4516H74.2258Z" fill="#002838"/>
<path d="M60.9031 59H57.0967V62.8065H60.9031V59Z" fill="#002838"/>
<path d="M60.9031 70.4189H57.0967V74.2254H60.9031V70.4189Z" fill="#002838"/>
<path d="M60.9031 81.8389H57.0967V85.6453H60.9031V81.8389Z" fill="#002838"/>
<path d="M60.9031 93.2578H57.0967V97.0643H60.9031V93.2578Z" fill="#002838"/>
<path d="M60.9031 104.678H57.0967V108.484H60.9031V104.678Z" fill="#002838"/>
<path d="M97.0648 79.9356L106.581 87.5485L94.17 110.597C93.6085 111.64 92.5199 112.29 91.3342 112.29H90.7708C88.9913 112.29 87.5486 110.848 87.5486 109.068C87.5486 108.682 87.6191 108.299 87.7542 107.938L93.2583 93.2582L83.7422 85.6453L96.1531 62.5972C96.7146 61.5542 97.8051 60.9033 98.9908 60.9033H99.5542C101.332 60.9033 102.774 62.346 102.774 64.1255C102.774 64.5118 102.704 64.8944 102.569 65.256L97.0648 79.9356Z" fill="#00A651"/>
<path d="M104.678 39.9678H13.3228V43.7742H104.678V39.9678Z" fill="#F7931D"/>
</svg>
