<svg width="110" height="110" viewBox="0 0 110 110" fill="none" xmlns="http://www.w3.org/2000/svg">
<path d="M101.406 58.4375H104.844V89.375H101.406V58.4375Z" fill="#002838"/>
<path d="M104.844 108.281H87.6562V96.25H91.0938V104.844H101.406V96.25H104.844V108.281Z" fill="#002838"/>
<path d="M91.0938 51.5625H87.6562V32.6562H82.5V29.2188H87.6562C89.552 29.2188 91.0938 30.7605 91.0938 32.6562V51.5625Z" fill="#002838"/>
<path d="M61.875 29.2188H75.625V32.6562H61.875V29.2188Z" fill="#002838"/>
<path d="M43.5103 29.2188H55.0001V32.6562H43.5103V29.2188Z" fill="#002838"/>
<path d="M43.5103 15.4688H55.0001V18.9062H43.5103V15.4688Z" fill="#002838"/>
<path d="M24.0625 46.4062C11.7425 46.4062 1.71875 36.3825 1.71875 24.0625C1.71875 11.7425 11.7425 1.71875 24.0625 1.71875C36.3825 1.71875 46.4062 11.7425 46.4062 24.0625C46.4062 36.3825 36.3825 46.4062 24.0625 46.4062Z" fill="#00A651"/>
<path d="M24.0625 39.5312C18.3752 39.5312 13.75 34.9061 13.75 29.2188C13.75 27.8592 14.0027 26.5306 14.5028 25.2691L20.0681 11.1667C20.778 9.60438 22.3455 8.59375 24.0625 8.59375C25.7795 8.59375 27.347 9.60438 28.0569 11.1667L33.6566 25.3481C34.1327 26.5598 34.375 27.8334 34.375 29.1345C34.375 34.9061 29.7498 39.5312 24.0625 39.5312ZM23.2117 12.5589L17.6997 26.5323C17.3594 27.39 17.1875 28.2941 17.1875 29.2188C17.1875 33.0103 20.2709 36.0938 24.0625 36.0938C27.8541 36.0938 30.9375 33.0103 30.9375 29.2188C30.9375 28.2666 30.7759 27.4175 30.458 26.608L24.8944 12.5073C24.6606 11.9986 23.5366 11.9092 23.2117 12.5589Z" fill="#002838"/>
<path d="M61.875 15.4688H75.625V18.9062H61.875V15.4688Z" fill="#002838"/>
<path d="M104.844 51.5625H101.406V27.5C101.406 22.7614 97.5511 18.9062 92.8125 18.9062H82.5V15.4688H92.8125C99.4452 15.4688 104.844 20.8673 104.844 27.5V51.5625Z" fill="#002838"/>
<path d="M60.1562 34.375H56.7188C55.77 34.375 55 33.605 55 32.6562V15.4688C55 14.52 55.77 13.75 56.7188 13.75H60.1562C61.105 13.75 61.875 14.52 61.875 15.4688V32.6562C61.875 33.605 61.105 34.375 60.1562 34.375Z" fill="#F7931D"/>
<path d="M80.7812 34.375H77.3438C76.395 34.375 75.625 33.605 75.625 32.6562V15.4688C75.625 14.52 76.395 13.75 77.3438 13.75H80.7812C81.73 13.75 82.5 14.52 82.5 15.4688V32.6562C82.5 33.605 81.73 34.375 80.7812 34.375Z" fill="#F7931D"/>
<path d="M104.844 96.25H87.6562C86.7075 96.25 85.9375 95.48 85.9375 94.5312V91.0938C85.9375 90.145 86.7075 89.375 87.6562 89.375H104.844C105.792 89.375 106.562 90.145 106.562 91.0938V94.5312C106.562 95.48 105.792 96.25 104.844 96.25Z" fill="#F7931D"/>
<path d="M25.7812 96.25H8.59375C7.645 96.25 6.875 95.48 6.875 94.5312V91.0938C6.875 90.145 7.645 89.375 8.59375 89.375H25.7812C26.73 89.375 27.5 90.145 27.5 91.0938V94.5312C27.5 95.48 26.73 96.25 25.7812 96.25Z" fill="#F7931D"/>
<path d="M104.844 58.4375H87.6562C86.7075 58.4375 85.9375 57.6675 85.9375 56.7188V53.2812C85.9375 52.3325 86.7075 51.5625 87.6562 51.5625H104.844C105.792 51.5625 106.562 52.3325 106.562 53.2812V56.7188C106.562 57.6675 105.792 58.4375 104.844 58.4375Z" fill="#F7931D"/>
<path d="M25.7812 89.375H22.3438V80.7812C22.3438 78.8855 23.8855 77.3438 25.7812 77.3438H30.9375V80.7812H25.7812V89.375Z" fill="#002838"/>
<path d="M12.0312 89.375H8.59375V75.625C8.59375 68.9923 13.9923 63.5938 20.625 63.5938H30.9375V67.0312H20.625C15.8864 67.0312 12.0312 70.8864 12.0312 75.625V89.375Z" fill="#002838"/>
<path d="M61.875 63.5938V56.7188H63.5938C66.4366 56.7188 68.75 54.4053 68.75 51.5625C68.75 48.7197 66.4366 46.4062 63.5938 46.4062H61.875C61.875 42.6147 58.7916 39.5312 55 39.5312C51.2084 39.5312 48.125 42.6147 48.125 46.4062H46.4062C43.5634 46.4062 41.25 48.7197 41.25 51.5625C41.25 54.4053 43.5634 56.7188 46.4062 56.7188H48.125V63.5938H37.8125V67.0312H72.1875V63.5938H61.875ZM55 42.9688C56.8958 42.9688 58.4375 44.5105 58.4375 46.4062H51.5625C51.5625 44.5105 53.1042 42.9688 55 42.9688ZM44.6875 51.5625C44.6875 50.6138 45.4575 49.8438 46.4062 49.8438H63.5938C64.5425 49.8438 65.3125 50.6138 65.3125 51.5625C65.3125 52.5112 64.5425 53.2812 63.5938 53.2812H46.4062C45.4575 53.2812 44.6875 52.5112 44.6875 51.5625ZM51.5625 56.7188H58.4375V63.5938H51.5625V56.7188Z" fill="#002838"/>
<path d="M87.6562 58.4375V63.5938H79.0625V67.0312H87.6562V77.3438H79.0625V80.7812H87.6562V89.375H91.0938V58.4375H87.6562Z" fill="#002838"/>
<path d="M36.0938 82.5H32.6562C31.7075 82.5 30.9375 81.73 30.9375 80.7812V63.5938C30.9375 62.645 31.7075 61.875 32.6562 61.875H36.0938C37.0425 61.875 37.8125 62.645 37.8125 63.5938V80.7812C37.8125 81.73 37.0425 82.5 36.0938 82.5Z" fill="#F7931D"/>
<path d="M77.3438 82.5H73.9062C72.9575 82.5 72.1875 81.73 72.1875 80.7812V63.5938C72.1875 62.645 72.9575 61.875 73.9062 61.875H77.3438C78.2925 61.875 79.0625 62.645 79.0625 63.5938V80.7812C79.0625 81.73 78.2925 82.5 77.3438 82.5Z" fill="#F7931D"/>
<path d="M37.8125 77.3438H72.1875V80.7812H37.8125V77.3438Z" fill="#002838"/>
<path d="M97.9688 84.2188H94.5312V80.7812H97.9688V84.2188ZM97.9688 77.3438H94.5312V73.9062H97.9688V77.3438ZM97.9688 70.4688H94.5312V67.0312H97.9688V70.4688Z" fill="#002838"/>
<path d="M60.1562 73.9062H56.7188V70.4688H60.1562V73.9062ZM53.2812 73.9062H49.8438V70.4688H53.2812V73.9062ZM46.4062 73.9062H42.9688V70.4688H46.4062V73.9062Z" fill="#002838"/>
<path d="M97.9688 46.4062H94.5312V42.9688H97.9688V46.4062ZM97.9688 39.5312H94.5312V36.0938H97.9688V39.5312ZM97.9688 32.6562H94.5312V29.2188H97.9688V32.6562Z" fill="#002838"/>
<path d="M25.7812 108.281H8.59375V96.25H12.0312V104.844H22.3438V96.25H25.7812V108.281Z" fill="#002838"/>
</svg>
