<svg width="102" height="101" viewBox="0 0 102 101" fill="none" xmlns="http://www.w3.org/2000/svg">
<path d="M101.521 14.0418L96.1021 8.7006C90.8502 3.52385 83.8679 0.671875 76.4407 0.671875H64.3816C63.7617 0.671875 63.1958 1.01688 62.9177 1.56342L61.7352 3.89626H60.4856L59.3014 1.56342C59.025 1.01688 58.4591 0.671875 57.8392 0.671875H48.0257C47.1212 0.671875 46.3901 1.39253 46.3901 2.28407V18.406C46.3901 19.2976 47.1212 20.0182 48.0257 20.0182H57.8392C58.4591 20.0182 59.025 19.6732 59.3031 19.1267L60.4856 16.7938H61.7352L62.9193 19.1267C63.1958 19.6732 63.7617 20.0182 64.3816 20.0182C66.1856 20.0182 67.6527 21.4643 67.6527 23.2426V34.528H70.9239H77.4662H80.7374V19.3798C80.7374 17.0647 82.6478 15.1816 84.9965 15.1816C85.3089 15.1816 85.6196 15.2155 85.9206 15.2816L100.008 18.3673C100.494 18.4689 100.997 18.356 101.387 18.0513C101.774 17.745 102 17.2839 102 16.7938V15.1816C102 14.7528 101.828 14.3433 101.521 14.0418Z" fill="#00A651"/>
<path d="M77.4662 32.916H75.8306H64.3816V92.5681C64.3816 97.0129 68.0502 100.629 72.5595 100.629H75.8306C80.3399 100.629 84.0085 97.0129 84.0085 92.5681V32.916H77.4662ZM77.4662 36.1405H80.7374V42.5893H74.1951V37.7527C74.1951 36.8643 74.9294 36.1405 75.8306 36.1405H77.4662ZM74.1951 55.4871H80.7374V61.9359H75.8306C74.9294 61.9359 74.1951 61.2137 74.1951 60.3237V55.4871ZM74.1951 52.2626V45.8138H80.7374V52.2626H74.1951ZM75.8306 97.4047H72.5595C69.8542 97.4047 67.6528 95.2347 67.6528 92.5681V90.9558H72.5595V87.7314H67.6528V84.507H72.5595V81.2825H67.6528V36.1405H71.2249C71.0417 36.6467 70.9239 37.1852 70.9239 37.7527V60.3237C70.9239 62.9903 73.1254 65.1604 75.8306 65.1604H80.7374V92.5681C80.7374 95.2347 78.5359 97.4047 75.8306 97.4047Z" fill="#002838"/>
<path d="M18.5853 36.1406H12.043V39.3652H18.5853V36.1406Z" fill="#002838"/>
<path d="M18.5853 26.4668H12.043V29.6914H18.5853V26.4668Z" fill="#002838"/>
<path d="M48.0258 36.1406H41.4834V39.3652H48.0258V36.1406Z" fill="#002838"/>
<path d="M48.0258 26.4668H41.4834V29.6914H48.0258V26.4668Z" fill="#002838"/>
<path d="M39.8477 50.6509V42.5898H36.5765V47.4265H23.4919V42.5898H20.2207V50.6509H23.4919V83.7837C21.4032 85.6248 20.2207 88.1947 20.2207 90.9564C20.2207 96.2913 24.622 100.63 30.0342 100.63C35.4463 100.63 39.8477 96.2913 39.8477 90.9564C39.8477 88.1947 38.6651 85.6232 36.5765 83.7837V50.6509H39.8477ZM33.9547 85.8296C35.6213 87.071 36.5765 88.9396 36.5765 90.9564C36.5765 94.513 33.6423 97.4053 30.0342 97.4053C26.4261 97.4053 23.4919 94.513 23.4919 90.9564C23.4919 88.9396 24.447 87.071 26.1137 85.8296L26.763 85.3459V50.6509H33.3053V85.3475L33.9547 85.8296Z" fill="#002838"/>
<path d="M38.2123 44.202H21.8565C19.1512 44.202 16.9497 42.032 16.9497 39.3653V26.4675C16.9497 23.8009 19.1512 21.6309 21.8565 21.6309H38.2123C40.9175 21.6309 43.119 23.8009 43.119 26.4675V39.3653C43.119 42.032 40.9175 44.202 38.2123 44.202Z" fill="#F7931D"/>
<path d="M7.13611 42.589C3.528 42.589 0.59375 39.6966 0.59375 36.1401V29.6911C0.59375 26.1345 3.528 23.2422 7.13611 23.2422C10.7442 23.2422 13.6785 26.1345 13.6785 29.6911V36.1401C13.6785 39.6966 10.7442 42.589 7.13611 42.589Z" fill="#F7931D"/>
<path d="M52.9325 42.589C49.3244 42.589 46.3901 39.6966 46.3901 36.1401V29.6911C46.3901 26.1345 49.3244 23.2422 52.9325 23.2422C56.5406 23.2422 59.4749 26.1345 59.4749 29.6911V36.1401C59.4749 39.6966 56.5406 42.589 52.9325 42.589Z" fill="#F7931D"/>
</svg>
