<svg width="125" height="125" viewBox="0 0 125 125" fill="none" xmlns="http://www.w3.org/2000/svg">
<path d="M62.4999 62.5C60.2726 62.5 58.4686 60.696 58.4686 58.4688V52.4219H14.1249V66.5312H18.1561C20.3834 66.5312 22.1874 68.3352 22.1874 70.5625V78.625C22.1874 80.8523 23.9914 82.6562 26.2186 82.6562C28.4459 82.6562 30.2499 80.8523 30.2499 78.625V64.5156C30.2499 61.1757 32.9569 58.4688 36.2968 58.4688C39.6366 58.4688 42.3436 61.1757 42.3436 64.5156V100.797C42.3436 104.137 45.0506 106.844 48.3905 106.844C51.7304 106.844 54.4374 104.137 54.4374 100.797V78.625C54.4374 76.3977 56.2414 74.5938 58.4686 74.5938C60.6959 74.5938 62.4999 76.3977 62.4999 78.625V84.6719C62.4999 88.0118 65.2069 90.7188 68.5468 90.7188C71.8866 90.7188 74.5936 88.0118 74.5936 84.6719V62.5H62.4999Z" fill="#00A651"/>
<rect x="58.9999" y="39" width="55" height="23" rx="5" fill="#F7931D"/>
<path d="M118.937 48.3904H116.922V42.3435C116.922 39.0096 114.209 36.2966 110.875 36.2966H96.6789L60.6415 1.70042C58.38 -0.472426 54.5261 -0.47041 52.2666 1.6984L1.87393 50.0774C0.708899 51.1961 0.0497901 52.7018 0.0155245 54.3123C-0.0167255 55.9288 0.579899 57.4607 1.69656 58.6197C2.82934 59.8048 4.42168 60.4841 6.0624 60.4841C7.63056 60.4841 9.11809 59.8855 10.2489 58.8011L12.1093 57.0152V116.922H78.764L78.641 118.649C78.6289 118.792 78.6249 118.935 78.6249 119.076C78.6249 122.336 81.2755 124.984 84.5327 124.984H88.8421C92.0994 124.984 94.7499 122.336 94.7499 119.076C94.7499 118.935 94.7459 118.79 94.7358 118.655L92.8633 92.4459C92.7121 90.3456 90.9464 88.7029 88.8421 88.7029H88.703V78.6247C88.703 77.5121 89.608 76.6091 90.7187 76.6091H118.937C122.271 76.6091 124.984 73.8961 124.984 70.5622V54.4372C124.984 51.1034 122.271 48.3904 118.937 48.3904ZM112.891 42.3435V58.4685C112.891 59.5811 111.986 60.4841 110.875 60.4841H62.4999C61.3893 60.4841 60.4843 59.5811 60.4843 58.4685V42.3435C60.4843 41.2309 61.3893 40.3279 62.4999 40.3279H110.875C111.986 40.3279 112.891 41.2309 112.891 42.3435ZM7.45721 55.8925C6.68523 56.6322 5.34887 56.606 4.6051 55.83C4.23423 55.443 4.0367 54.9351 4.04677 54.3949C4.05685 53.8487 4.27051 53.3609 4.66557 52.984L55.0582 4.60493C55.81 3.88536 57.094 3.88334 57.8478 4.60695L90.8577 36.2966H85.0366L56.453 8.85589L7.45721 55.8925ZM88.8421 120.953H84.5327C83.4967 120.953 82.6562 120.11 82.6602 118.943L83.9562 100.797H89.4145L90.7187 119.076C90.7187 120.11 89.8781 120.953 88.8421 120.953ZM89.1283 96.7654H84.2445L84.5327 92.7341H88.8421L89.1283 96.7654ZM120.953 70.5622C120.953 71.6749 120.048 72.5779 118.937 72.5779H90.7187C87.3848 72.5779 84.6718 75.2909 84.6718 78.6247V88.7029H84.5327C82.4284 88.7029 80.6627 90.3456 80.5115 92.4459L79.0522 112.89H16.1405V53.1452L56.453 14.4432L79.2155 36.2966H62.4999C59.1661 36.2966 56.453 39.0096 56.453 42.3435V58.4685C56.453 61.8023 59.1661 64.5154 62.4999 64.5154H110.875C114.209 64.5154 116.922 61.8023 116.922 58.4685V52.4216H118.937C120.048 52.4216 120.953 53.3246 120.953 54.4372V70.5622Z" fill="#002838"/>
</svg>
