<svg width="114" height="114" viewBox="0 0 114 114" fill="none" xmlns="http://www.w3.org/2000/svg">
<path d="M66.1935 62.5166V69.8714H48.0434L45.9677 71.7101H42.2903V69.8714H22.0645V88.2585H91.9354V62.5166H66.1935Z" fill="#00A651"/>
<path d="M7.35474 36.7744V45.968H25.7418V36.7744H7.35474Z" fill="#F7931D"/>
<path d="M91.9351 106.645H69.8706V91.9355H91.9351V106.645Z" fill="#F7931D"/>
<path d="M66.1933 106.645H47.8062V91.9355H66.1933V106.645Z" fill="#00A651"/>
<path d="M44.129 106.645H22.0645V91.9355H44.129V106.645Z" fill="#F7931D"/>
<path d="M99.5974 0H98.9779C95.1308 0 91.5144 1.49665 88.7932 4.2179C86.1051 6.90594 84.5681 10.6291 84.5753 14.4341L84.5771 15.7888L82.5067 17.8592L80.8296 16.7432C78.8365 15.4136 76.5156 14.7097 74.1203 14.7097C70.89 14.7097 67.8518 15.9693 65.5687 18.2524L58.0774 25.7419L61.7548 29.4194H0V95.6129H14.7097V114H99.2903V47.8065H96.3168C98.2327 45.6059 99.2903 42.8272 99.2903 39.8797C99.2903 37.4817 98.5882 35.1635 97.2586 33.1704L96.1408 31.4933L98.2112 29.4212L99.5659 29.4247H99.5956C103.387 29.4247 107.098 27.8877 109.78 25.205C112.502 22.4856 114 18.871 114 15.0221V14.4026C114 6.46152 107.538 0 99.5974 0ZM66.1936 22.8259L91.1741 47.8065L88.2581 50.7225L63.2775 25.7419L66.1936 22.8259ZM70.8711 38.5357L75.4625 43.1271L45.271 69.871H44.129V68.729L70.8711 38.5357ZM3.67742 91.9355V33.0968H65.4322L68.2675 35.9321L57.7488 47.8065H30.4967L26.8193 51.4839H7.35484V88.2581H14.7097V91.9355H3.67742ZM14.7097 84.5807H11.0323V55.1613H23.1419L14.7097 63.5935V84.5807ZM29.4194 54.0839V62.5161H20.9871L29.4194 54.0839ZM95.6129 110.323H18.3871V66.1936H33.0968V51.4839H54.4924L40.4516 67.3356V73.5484H46.6644L78.068 45.7343L88.2581 55.9226L92.6968 51.4839H95.6129V110.323ZM110.323 15.0221C110.323 17.887 109.207 20.5786 107.182 22.605C105.185 24.6035 102.422 25.7473 99.5974 25.7473C99.5902 25.7473 99.583 25.7473 99.5749 25.7473L96.6921 25.7401L91.4076 31.0228L94.1989 35.2093C95.1236 36.5973 95.6129 38.2125 95.6129 39.8797C95.6129 41.8271 94.9216 43.6514 93.7131 45.1436L68.8502 20.2824C71.6486 18.054 75.7803 17.791 78.7889 19.8011L82.9754 22.5924L88.2599 17.3079L88.2545 14.4269C88.2491 11.5934 89.3929 8.82006 91.395 6.81795C93.4214 4.7916 96.113 3.67742 98.9779 3.67742H99.5974C105.51 3.67742 110.323 8.48787 110.323 14.4026V15.0221Z" fill="#002838"/>
<path d="M91.9355 14.7093H95.613C95.613 12.6812 97.2622 11.0319 99.2904 11.0319V7.35449C95.2341 7.35449 91.9355 10.653 91.9355 14.7093Z" fill="#002838"/>
<path d="M22.0645 69.8711H36.7741V73.5485H22.0645V69.8711Z" fill="#002838"/>
<path d="M55.1611 69.8711H91.9353V73.5485H55.1611V69.8711Z" fill="#002838"/>
<path d="M88.2581 77.2256H91.9355V80.903H88.2581V77.2256Z" fill="#002838"/>
<path d="M22.0645 77.2256H84.5806V80.903H22.0645V77.2256Z" fill="#002838"/>
<path d="M66.1931 62.5166H91.9351V66.194H66.1931V62.5166Z" fill="#002838"/>
<path d="M22.0645 84.5811H25.7419V88.2585H22.0645V84.5811Z" fill="#002838"/>
<path d="M29.4194 84.5811H91.9356V88.2585H29.4194V84.5811Z" fill="#002838"/>
<path d="M7.35474 36.7744H11.0322V40.4518H7.35474V36.7744Z" fill="#002838"/>
<path d="M14.7097 36.7744H58.8388V40.4518H14.7097V36.7744Z" fill="#002838"/>
<path d="M7.35474 44.1289H25.7418V47.8063H7.35474V44.1289Z" fill="#002838"/>
</svg>
