<svg width="74" height="70" viewBox="0 0 74 70" fill="none" xmlns="http://www.w3.org/2000/svg">
<path d="M0 0.176758V39.3532H74V0.176758H0ZM69.6471 4.5297V8.88264H4.35294V4.5297H69.6471ZM15.2353 35.0003V30.6474H58.7647V35.0003H15.2353ZM63.1176 35.0003V26.2944H10.8824V35.0003H4.35294V13.2356H69.6471V35.0003H63.1176Z" fill="#00A651"/>
<path d="M8.70557 17.5889H13.0585V21.9418H8.70557V17.5889Z" fill="#00A651"/>
<path d="M17.4116 17.5889H21.7646V21.9418H17.4116V17.5889Z" fill="#00A651"/>
<path d="M34.8235 43.7061H39.1764V69.8237H34.8235V43.7061Z" fill="#00A651"/>
<path d="M26.1175 61.1178C25.9977 64.006 21.8833 64.0037 21.7646 61.1178V58.9414H17.4116V61.1178C17.7712 69.7821 30.1141 69.7754 30.4705 61.1178V43.7061H26.1175V61.1178Z" fill="#00A651"/>
<path d="M52.2352 61.1178C52.1153 64.006 48.0009 64.0037 47.8822 61.1178V43.7061H43.5293V61.1178C43.8889 69.7821 56.2318 69.7754 56.5881 61.1178V58.9414H52.2352V61.1178Z" fill="#00A651"/>
</svg>
