<svg width="301" height="206" viewBox="0 0 301 206" fill="none" xmlns="http://www.w3.org/2000/svg">
<path d="M61.1488 50.2397H0V146.798H61.1488V50.2397Z" fill="#E6E6E6"/>
<path d="M300.505 43.3242H252.137V96.2582H300.505V43.3242Z" fill="#E6E6E6"/>
<path d="M155.044 205.229C219.94 205.229 272.549 199.037 272.549 191.397C272.549 183.758 219.94 177.565 155.044 177.565C90.1478 177.565 37.5391 183.758 37.5391 191.397C37.5391 199.037 90.1478 205.229 155.044 205.229Z" fill="#F4F4F4"/>
<path d="M262.255 173.487H203.414V189.003H262.255V173.487Z" fill="#E6E6E6"/>
<path opacity="0.43" d="M249.388 158.325H190.547V173.841H249.388V158.325Z" fill="#E6E6E6"/>
<path d="M63.8112 178.009C63.8112 178.009 55.1137 175.615 53.25 167.546C53.25 167.546 66.74 164.797 67.095 178.718L63.8112 178.009Z" fill="#20CE6A"/>
<path d="M64.8744 177.211C64.8744 177.211 58.8394 167.635 64.1644 158.679C64.1644 158.679 74.3707 165.152 69.8444 177.299L64.8744 177.211Z" fill="#0ABF5B"/>
<path d="M66.3828 177.211C66.3828 177.211 69.5778 167.103 79.3403 165.152C79.3403 165.152 81.1153 171.713 73.0391 177.211H66.3828Z" fill="#00A651"/>
<path d="M60.082 176.945L61.857 189.003H72.9508L74.637 177.033L60.082 176.945Z" fill="#002838"/>
<path d="M203.236 0.0546875H97.8008V189.092H203.236V0.0546875Z" fill="#77869E"/>
<path d="M193.83 21.6006H106.5V154.601H193.83V21.6006Z" fill="white"/>
<path d="M150.873 181.91C156.559 181.91 161.168 177.305 161.168 171.625C161.168 165.944 156.559 161.339 150.873 161.339C145.187 161.339 140.578 165.944 140.578 171.625C140.578 177.305 145.187 181.91 150.873 181.91Z" fill="white"/>
<path opacity="0.12" d="M171.108 7.41406H141.555V11.7587H171.108V7.41406Z" fill="black"/>
<path d="M130.906 14.8621C133.553 14.8621 135.698 12.7185 135.698 10.0741C135.698 7.42979 133.553 5.28613 130.906 5.28613C128.259 5.28613 126.113 7.42979 126.113 10.0741C126.113 12.7185 128.259 14.8621 130.906 14.8621Z" fill="white"/>
<path d="M128.777 69.8356C135.982 69.8356 141.823 64.0001 141.823 56.8016C141.823 49.6031 135.982 43.7676 128.777 43.7676C121.571 43.7676 115.73 49.6031 115.73 56.8016C115.73 64.0001 121.571 69.8356 128.777 69.8356Z" fill="#002838"/>
<path d="M130.461 50.772C130.639 51.7473 130.728 52.8113 130.639 53.8753C130.639 54.4073 130.195 54.762 129.663 54.6733H129.574C128.775 54.5847 128.065 54.0527 127.799 53.3433L127.089 51.7473C126.823 51.038 127.089 50.3287 127.621 49.8853C128.42 49.2647 129.485 49.3533 130.106 50.1513C130.284 50.3287 130.461 50.506 130.461 50.772Z" fill="#F4A28C"/>
<path d="M127.266 52.0132L127 58.1312L130.373 58.0425L129.219 53.6979L127.266 52.0132Z" fill="#F4A28C"/>
<path d="M130.016 50.9491C129.484 51.0377 128.863 51.0377 128.33 51.0377C128.685 51.4811 128.774 52.1904 128.508 52.7224C128.241 53.2544 127.62 53.5204 127.088 53.4317L126.821 51.0377C126.733 50.3284 126.999 49.7077 127.62 49.2644C127.886 49.0871 128.153 48.9097 128.419 48.7324C129.04 48.3777 130.105 48.7324 130.726 48.2004C130.904 48.023 131.17 48.023 131.348 48.2004C131.436 48.289 131.436 48.2891 131.436 48.3777C131.791 49.2644 131.436 50.2397 130.726 50.7717C130.46 50.8604 130.194 50.8604 130.016 50.9491Z" fill="#FFD200"/>
<path d="M128.685 52.6342C128.685 52.6342 128.596 51.9249 128.064 52.0135C127.531 52.1022 127.709 53.1662 128.419 53.1662L128.685 52.6342Z" fill="#F4A28C"/>
<path d="M130.638 51.9248L131.26 52.5455C131.348 52.6341 131.348 52.9001 131.26 52.9888L131.171 53.0775L130.461 53.2548L130.638 51.9248Z" fill="#F4A28C"/>
<path opacity="0.31" d="M129.486 54.5847C129.042 54.4961 128.687 54.3187 128.332 54.0527C128.598 54.9394 129.131 55.6487 129.841 56.0921L129.486 54.5847Z" fill="#CE8172"/>
<path d="M119.899 66.466C119.899 66.466 119.721 58.22 128.596 57.8654C137.471 57.5107 137.205 66.8207 137.205 66.8207C137.205 66.8207 128.862 74.446 119.899 66.466Z" fill="#FCA342"/>
<path d="M127.71 143.517C134.916 143.517 140.757 137.682 140.757 130.483C140.757 123.285 134.916 117.449 127.71 117.449C120.505 117.449 114.664 123.285 114.664 130.483C114.664 137.682 120.505 143.517 127.71 143.517Z" fill="#002838"/>
<path d="M129.485 124.543C129.662 125.518 129.751 126.582 129.662 127.646C129.662 128.178 129.219 128.533 128.686 128.444H128.597C127.799 128.355 127.089 127.823 126.822 127.114L126.112 125.518C125.846 124.809 126.112 124.099 126.645 123.656C127.444 123.035 128.509 123.124 129.13 123.922C129.307 124.099 129.396 124.277 129.485 124.543Z" fill="#F4A28C"/>
<path d="M126.201 125.784L126.023 131.902L129.396 131.814L128.153 127.38L126.201 125.784Z" fill="#F4A28C"/>
<path d="M129.662 125.695L130.283 126.316C130.372 126.405 130.372 126.671 130.283 126.759L130.194 126.848L129.484 127.025L129.662 125.695Z" fill="#F4A28C"/>
<path opacity="0.31" d="M128.509 128.355C128.065 128.267 127.71 128.089 127.355 127.823C127.622 128.71 128.154 129.419 128.864 129.863L128.509 128.355Z" fill="#CE8172"/>
<path d="M118.922 140.148C118.922 140.148 118.745 131.991 127.62 131.547C136.495 131.104 136.228 140.503 136.228 140.503C136.228 140.503 127.797 148.128 118.922 140.148Z" fill="#F7931D"/>
<path d="M126.111 127.735L125.135 125.873C125.135 125.873 123.448 126.05 123.36 124.809C123.271 123.567 124.602 123.833 124.602 123.035C124.602 122.237 124.425 120.996 125.756 120.996C127.087 120.996 127.442 122.06 128.063 121.439C128.418 121.085 129.04 120.996 129.395 121.351C129.572 121.528 129.75 121.794 129.75 122.06C129.838 122.858 130.726 122.681 130.371 123.833C130.016 124.986 128.152 124.365 128.152 124.365C128.152 124.365 126.466 124.365 126.643 125.163C126.821 125.961 128.152 127.469 126.111 127.735Z" fill="#FFD200"/>
<path d="M127.355 126.139C127.355 126.139 127 125.518 126.557 125.784C126.113 126.05 126.557 127.025 127.267 126.759L127.355 126.139Z" fill="#F4A28C"/>
<path d="M128.242 106.011C135.447 106.011 141.288 100.176 141.288 92.9774C141.288 85.7789 135.447 79.9434 128.242 79.9434C121.036 79.9434 115.195 85.7789 115.195 92.9774C115.195 100.176 121.036 106.011 128.242 106.011Z" fill="#002838"/>
<path d="M130.016 86.9478C130.194 87.9231 130.282 88.9871 130.194 90.0511C130.105 90.5831 129.661 90.9378 129.129 90.8491C128.33 90.7604 127.62 90.2284 127.354 89.5191L126.644 87.9231C126.377 87.2138 126.644 86.5045 127.176 86.0611C127.975 85.4405 129.04 85.5291 129.661 86.3271C129.839 86.5045 129.927 86.6818 130.016 86.9478Z" fill="#F4A28C"/>
<path d="M126.735 88.1895L126.469 94.3075L129.841 94.2188L128.688 89.7855L126.735 88.1895Z" fill="#F4A28C"/>
<path d="M128.243 88.81C128.243 88.81 128.155 88.1006 127.622 88.1893C127.09 88.278 127.267 89.342 127.977 89.342L128.243 88.81Z" fill="#F4A28C"/>
<path d="M130.197 88.1006L130.818 88.7212C130.907 88.8099 130.907 89.0759 130.818 89.1646L130.73 89.2532L130.02 89.5192L130.197 88.1006Z" fill="#F4A28C"/>
<path opacity="0.31" d="M128.955 90.7605C128.511 90.6719 128.156 90.4945 127.801 90.2285C128.067 91.1152 128.6 91.8245 129.31 92.2679L128.955 90.7605Z" fill="#CE8172"/>
<path d="M119.457 102.642C119.457 102.642 119.28 94.3958 128.155 94.0411C137.03 93.6865 136.764 102.996 136.764 102.996C136.764 102.996 128.332 110.622 119.457 102.642Z" fill="#FCA342"/>
<path d="M123.45 91.47C122.917 92.268 122.828 93.2434 123.095 94.13C123.272 94.928 124.071 95.5487 124.958 95.46C127.266 95.3714 126.911 94.6621 127.266 91.3814C127.532 88.2781 127.798 87.3027 129.662 86.8594C131.526 86.416 130.372 84.554 128.775 84.6427C127.177 84.7314 124.337 84.7314 124.426 87.6574C124.426 88.8987 124.16 90.2287 123.45 91.47Z" fill="#FFD200"/>
<path d="M166.85 46.8706H149.012V50.5059H166.85V46.8706Z" fill="#E6E6E6"/>
<path d="M193.83 21.6006H106.5V37.1172H193.83V21.6006Z" fill="#00A651"/>
<path d="M183.091 27.0981H137.207V31.5315H183.091V27.0981Z" fill="white"/>
<path d="M116.528 32.7726C118.783 32.7726 120.61 30.9465 120.61 28.6939C120.61 26.4413 118.783 24.6152 116.528 24.6152C114.273 24.6152 112.445 26.4413 112.445 28.6939C112.445 30.9465 114.273 32.7726 116.528 32.7726Z" fill="#24285B"/>
<path opacity="0.74" d="M120.61 32.7726C122.865 32.7726 124.692 30.9465 124.692 28.6939C124.692 26.4413 122.865 24.6152 120.61 24.6152C118.355 24.6152 116.527 26.4413 116.527 28.6939C116.527 30.9465 118.355 32.7726 120.61 32.7726Z" fill="#24285B"/>
<path opacity="0.31" d="M125.313 32.7726C127.568 32.7726 129.395 30.9465 129.395 28.6939C129.395 26.4413 127.568 24.6152 125.313 24.6152C123.058 24.6152 121.23 26.4413 121.23 28.6939C121.23 30.9465 123.058 32.7726 125.313 32.7726Z" fill="#24285B"/>
<path d="M149.011 54.3188V61.8555L143.863 65.4022H149.011H220.011V54.3188H149.011Z" fill="#F7931D"/>
<path opacity="0.39" d="M209.804 58.1313H155.578V61.678H209.804V58.1313Z" fill="white"/>
<path d="M166.85 81.5396H149.012V85.1749H166.85V81.5396Z" fill="#E6E6E6"/>
<path d="M149.011 88.9873V96.524L143.863 100.159H149.011H220.011V88.9873H149.011Z" fill="#F7931D"/>
<path opacity="0.39" d="M209.804 92.8887H155.578V96.4353H209.804V92.8887Z" fill="white"/>
<path d="M166.85 120.553H149.012V124.188H166.85V120.553Z" fill="#E6E6E6"/>
<path d="M149.011 128V135.537L143.863 139.172H149.011H220.011V128H149.011Z" fill="#F7931D"/>
<path opacity="0.39" d="M209.804 131.902H155.578V135.449H209.804V131.902Z" fill="white"/>
<path d="M284.263 31.7085H235.895V84.6425H284.263V31.7085Z" fill="#002838"/>
<path d="M246.988 49.8855C248.753 49.8855 250.183 48.4564 250.183 46.6935C250.183 44.9306 248.753 43.5015 246.988 43.5015C245.223 43.5015 243.793 44.9306 243.793 46.6935C243.793 48.4564 245.223 49.8855 246.988 49.8855Z" fill="#68E1FD"/>
<path d="M246.988 62.2102C248.753 62.2102 250.183 60.7811 250.183 59.0182C250.183 57.2553 248.753 55.8262 246.988 55.8262C245.223 55.8262 243.793 57.2553 243.793 59.0182C243.793 60.7811 245.223 62.2102 246.988 62.2102Z" fill="white"/>
<path d="M246.988 74.6233C248.753 74.6233 250.183 73.1942 250.183 71.4313C250.183 69.6684 248.753 68.2393 246.988 68.2393C245.223 68.2393 243.793 69.6684 243.793 71.4313C243.793 73.1942 245.223 74.6233 246.988 74.6233Z" fill="#FFD200"/>
<path opacity="0.2" d="M276.279 43.856H256.754V48.378H276.279V43.856Z" fill="white"/>
<path opacity="0.2" d="M276.279 56.8013H256.754V61.3233H276.279V56.8013Z" fill="white"/>
<path opacity="0.2" d="M276.279 69.3921H256.754V73.9141H276.279V69.3921Z" fill="white"/>
<path d="M77.8323 37.3833H16.6836V133.941H77.8323V37.3833Z" fill="#00A651"/>
<path d="M36.2073 66.1115C41.7951 66.1115 46.3248 61.586 46.3248 56.0035C46.3248 50.421 41.7951 45.8955 36.2073 45.8955C30.6196 45.8955 26.0898 50.421 26.0898 56.0035C26.0898 61.586 30.6196 66.1115 36.2073 66.1115Z" fill="#68E1FD"/>
<path d="M68.5126 50.2397H51.4727V54.4071H68.5126V50.2397Z" fill="white"/>
<path opacity="0.21" d="M68.5126 57.5991H51.4727V61.7664H68.5126V57.5991Z" fill="white"/>
<path opacity="0.11" d="M77.8323 75.6875H16.6836V133.942H77.8323V75.6875Z" fill="white"/>
<path d="M65.3183 87.3911H37.8945V92.9771H65.3183V87.3911Z" fill="white"/>
<path opacity="0.57" d="M65.3183 101.844H37.8945V107.43H65.3183V101.844Z" fill="white"/>
<path opacity="0.23" d="M65.3183 116.297H37.8945V121.883H65.3183V116.297Z" fill="white"/>
<path d="M30.5309 93.6867C32.2955 93.6867 33.7259 92.2576 33.7259 90.4947C33.7259 88.7318 32.2955 87.3027 30.5309 87.3027C28.7664 87.3027 27.3359 88.7318 27.3359 90.4947C27.3359 92.2576 28.7664 93.6867 30.5309 93.6867Z" fill="#FFD200"/>
<path opacity="0.36" d="M30.5309 107.784C32.2955 107.784 33.7259 106.355 33.7259 104.592C33.7259 102.829 32.2955 101.4 30.5309 101.4C28.7664 101.4 27.3359 102.829 27.3359 104.592C27.3359 106.355 28.7664 107.784 30.5309 107.784Z" fill="#FFD200"/>
<path opacity="0.36" d="M30.5309 122.326C32.2955 122.326 33.7259 120.897 33.7259 119.134C33.7259 117.371 32.2955 115.942 30.5309 115.942C28.7664 115.942 27.3359 117.371 27.3359 119.134C27.3359 120.897 28.7664 122.326 30.5309 122.326Z" fill="#FFD200"/>
</svg>
