<svg width="95" height="95" viewBox="0 0 95 95" fill="none" xmlns="http://www.w3.org/2000/svg">
<path d="M47.75 1C38.7993 1 31.5162 8.2831 31.5162 17.2339V17.9969C31.5162 20.6327 32.1685 23.2596 33.4023 25.5914L44.2789 46.1361C44.9622 47.4244 46.2919 48.2258 47.75 48.2258C49.2081 48.2258 50.5378 47.4244 51.2211 46.1361L62.0978 25.5914C63.3316 23.2596 63.9839 20.6327 63.9839 17.9969V17.2339C63.9839 8.2831 56.7008 1 47.75 1ZM47.75 26.0887C42.8592 26.0887 38.8952 22.1247 38.8952 17.2339C38.8952 12.343 42.8592 8.37903 47.75 8.37903C52.6409 8.37903 56.6049 12.343 56.6049 17.2339C56.6049 22.1247 52.6409 26.0887 47.75 26.0887Z" fill="#00A651"/>
<path d="M89.0726 83.6452V6.90323C89.0726 3.6476 86.425 1 83.1694 1C79.9137 1 77.2661 3.6476 77.2661 6.90323H60.2634C61.0116 7.8079 61.6521 8.80111 62.1922 9.85484H75.1793L63.5884 21.4458C63.274 22.8862 62.787 24.2867 62.0963 25.5928L61.0529 27.5645H77.2661V33.4677H68.4113V65.9355H62.5081V33.4677H57.9272L56.3643 36.4194H59.5565V65.9355H58.7536L41.3037 47.9041L43.8613 45.3465L42.4164 42.6177L37.164 47.8701L54.6464 65.9355H47.1375L33.3476 51.6866L19.0987 65.9355H18.2339V59.1674L29.5932 47.8082L18.2339 36.0681V28.3083L33.4096 43.9902L39.7747 37.6251L38.3299 34.8963L33.445 39.7812L18.2339 24.0654V9.85484H33.3078C33.8479 8.80111 34.4884 7.8079 35.2366 6.90323H18.2339C18.2339 3.6476 15.5863 1 12.3306 1C9.07502 1 6.42742 3.6476 6.42742 6.90323V83.6452C3.98644 83.6452 2 85.6316 2 88.0726V92.5H22.6613V88.0726C22.6613 85.6316 20.6749 83.6452 18.2339 83.6452V68.8871H77.2661V83.6452C74.8251 83.6452 72.8387 85.6316 72.8387 88.0726V92.5H93.5V88.0726C93.5 85.6316 91.5136 83.6452 89.0726 83.6452ZM18.2339 40.3125L25.455 47.7727L18.2339 54.9939V40.3125ZM19.7097 88.0726V89.5484H4.95161V88.0726C4.95161 87.2579 5.61277 86.5968 6.42742 86.5968H18.2339C19.0485 86.5968 19.7097 87.2579 19.7097 88.0726ZM9.37903 83.6452V6.90323C9.37903 5.27541 10.7028 3.95161 12.3306 3.95161C13.9585 3.95161 15.2823 5.27541 15.2823 6.90323V83.6452H9.37903ZM33.3137 55.8941L43.0304 65.9355H23.2723L33.3137 55.8941ZM64.5949 24.6129L77.2661 11.9416V24.6129H64.5949ZM71.3629 65.9355V36.4194H77.2661V65.9355H71.3629ZM80.2177 6.90323C80.2177 5.27541 81.5415 3.95161 83.1694 3.95161C84.7972 3.95161 86.121 5.27541 86.121 6.90323V83.6452H80.2177V6.90323ZM90.5484 89.5484H75.7903V88.0726C75.7903 87.2579 76.4515 86.5968 77.2661 86.5968H89.0726C89.8872 86.5968 90.5484 87.2579 90.5484 88.0726V89.5484Z" fill="#002838"/>
<path d="M49.2258 30.5159H52.1774V33.4675H49.2258V30.5159Z" fill="white"/>
<path d="M43.3226 30.5159H46.2742V33.4675H43.3226V30.5159Z" fill="white"/>
<path d="M47.461 28.4939C53.6514 28.4939 58.6901 23.4553 58.6901 17.2648C58.6901 11.0743 53.6514 6.03564 47.461 6.03564C41.2705 6.03564 36.2318 11.0743 36.2318 17.2648C36.2318 23.4553 41.2705 28.4939 47.461 28.4939ZM47.461 9.24397C51.8836 9.24397 55.4818 12.8421 55.4818 17.2648C55.4818 21.6875 51.8836 25.2856 47.461 25.2856C43.0383 25.2856 39.4401 21.6875 39.4401 17.2648C39.4401 12.8421 43.0383 9.24397 47.461 9.24397Z" fill="white"/>
<circle cx="47.4609" cy="17.2645" r="7.8604" fill="#F7931D"/>
</svg>
