<svg width="73" height="73" viewBox="0 0 73 73" fill="none" xmlns="http://www.w3.org/2000/svg">
<path d="M56.7377 47.8769L56.7989 47.9381L56.8826 47.9157C60.4236 46.9661 64.2318 47.597 67.3112 49.6958C70.7795 52.0598 72.85 55.9745 72.85 60.168C72.85 61.767 72.5558 63.3265 71.9757 64.8032C71.7304 65.4276 71.1871 65.8861 70.5306 66.0229C69.8738 66.1598 69.1927 65.9565 68.7185 65.4823L64.8103 61.5741C63.9161 60.6797 62.4684 60.6799 61.5742 61.5741C60.682 62.4663 60.682 63.9179 61.5742 64.8102L65.4824 68.7184L65.5885 68.6123L65.4825 68.7184C65.9568 69.1926 66.16 69.8739 66.0231 70.5304C65.8861 71.187 65.4276 71.7303 64.8034 71.9755C63.3265 72.5558 61.767 72.85 60.168 72.85C55.9742 72.85 52.0589 70.779 49.6944 67.3099C47.5962 64.2315 46.9659 60.4238 47.9155 56.8826L47.938 56.7989L47.8767 56.7377L40.0619 48.9228L39.9367 48.7976L39.8337 48.9417L29.5636 63.32C29.0167 64.0856 28.0118 64.3601 27.1547 63.9889C26.2944 63.6162 25.8113 62.6933 25.9952 61.774L29.761 42.9454L29.7969 42.766H29.6139H23.668C22.923 42.766 22.2405 42.3497 21.8998 41.6874L21.8998 41.6873C21.5588 41.025 21.6167 40.2277 22.0497 39.6215L25.6055 34.6436L25.6793 34.5402L25.5895 34.4503L16.2623 25.1231L16.2011 25.0619L16.1174 25.0843C12.5765 26.0339 8.76839 25.403 5.6888 23.3042C2.22047 20.9402 0.15 17.0255 0.15 12.832C0.15 11.233 0.444229 9.67368 1.02431 8.19663C1.26959 7.5723 1.81289 7.11373 2.4694 6.97691C3.12608 6.84008 3.80726 7.04333 4.28149 7.51756L8.1897 11.4259L8.29576 11.3198L8.1897 11.4259C9.08408 12.3203 10.5315 12.3201 11.4258 11.4259L11.4258 11.4259C12.318 10.5335 12.318 9.08208 11.4258 8.18984L7.51756 4.28163L7.51755 4.28162C7.04319 3.80739 6.83995 3.12609 6.9769 2.46957C7.11386 1.81302 7.57246 1.26958 8.19661 1.02446L8.19662 1.02445C9.67367 0.444231 11.233 0.15 12.832 0.15C17.0258 0.15 20.9411 2.22103 23.3056 5.68994C25.4038 8.76837 26.0341 12.5761 25.0845 16.1172L25.062 16.2009L25.1233 16.2622L32.9381 24.0772L33.0633 24.2024L33.1663 24.0583L43.4364 9.67998C43.9813 8.91713 44.9851 8.63845 45.8452 9.01113L45.9049 8.87349L45.8453 9.01113C46.7056 9.38381 47.1887 10.3067 47.0048 11.226L43.239 30.0546L43.2031 30.234H43.3861H49.332C50.077 30.234 50.7595 30.6503 51.1002 31.3126L51.1002 31.3127C51.4412 31.975 51.3833 32.7723 50.9503 33.3785L47.3945 38.3564L47.3207 38.4598L47.4105 38.5497L56.7377 47.8769ZM18.1465 21.3824L18.1465 21.3824L27.8976 31.1338L28.0228 31.259L28.1257 31.1149L30.6456 27.5869L30.7195 27.4835L30.6296 27.3937L21.3824 18.1464C20.8231 17.587 20.6483 16.7494 20.9376 16.0131L20.798 15.9582L20.9376 16.013C22.0041 13.2983 21.6688 10.3508 20.0189 7.92998C18.4753 5.6652 16.0754 4.30448 13.3751 4.14344L12.9807 4.11992L13.2601 4.39924L14.2381 5.37732C16.681 7.82013 16.681 11.7953 14.2381 14.2381C11.7892 16.6871 7.82584 16.6868 5.37733 14.2382L5.27126 14.3442L5.37732 14.2381L4.39924 13.2601L4.11994 12.9808L4.14344 13.3751C4.30434 16.0751 5.66462 18.4744 7.92884 20.0174C10.3506 21.668 13.2985 22.004 16.0132 20.9376L16.0132 20.9376C16.7492 20.6483 17.5873 20.8231 18.1465 21.3824ZM27.7018 38.5515L27.5324 38.7887H27.8238H32.2227C32.8185 38.7887 33.3829 39.0558 33.7606 39.5165C34.1383 39.9774 34.2895 40.5831 34.1726 41.1674L31.8494 52.7834L32.1186 52.9L45.2982 34.4485L45.4676 34.2113H45.1762H40.7773C40.1816 34.2113 39.6173 33.9441 39.2396 33.4833C38.8619 33.0226 38.7106 32.4167 38.8274 31.8326L41.1506 20.2166L40.8814 20.1L27.7018 38.5515ZM59.6248 68.8566L60.0191 68.8801L59.7398 68.6008L58.7617 67.6227C56.319 65.1799 56.319 61.2047 58.7617 58.7619C61.2108 56.3129 65.174 56.3132 67.6227 58.7619L68.6008 59.7399L68.8801 60.0192L68.8566 59.6249C68.6957 56.925 67.3354 54.5257 65.0713 52.9826C62.6495 51.3318 59.7015 50.996 56.987 52.0624C56.2508 52.3515 55.413 52.1769 54.8536 51.6176L45.1023 41.8662L44.9771 41.741L44.8742 41.8851L42.3542 45.4131L42.2804 45.5165L42.3702 45.6063L51.6174 54.8535C52.1768 55.4129 52.3515 56.2506 52.0622 56.9868C50.9958 59.7016 51.3311 62.6491 52.981 65.0699C54.5246 67.3348 56.9245 68.6955 59.6248 68.8566Z" fill="#00A651" stroke="white" stroke-width="0.3"/>
</svg>
