<svg xmlns="http://www.w3.org/2000/svg" width="290.128" height="194.65" viewBox="0 0 290.128 194.65">
  <g id="get-rewarded" transform="translate(-28.79 -40.496)">
    <path id="Path_26" data-name="Path 26" d="M209.838,85.6a13.971,13.971,0,0,1,19.837-16.2c9.289,4.662,21.709,15.048,30.067,38.125,14.861,41.06-80.213,24.026-80.213,24.026s-3.45,2.711-9.8,2.4-4.355-11.353,8.988-10.489,53.052-7.589,53.052-7.589S214.047,100.587,209.838,85.6Z" fill="#f9cac0"/>
    <path id="Path_27" data-name="Path 27" d="M209.838,85.6a13.971,13.971,0,0,1,19.837-16.2c9.289,4.662,21.709,15.048,30.067,38.125,14.861,41.06-80.213,24.026-80.213,24.026s-3.45,2.711-9.8,2.4-4.355-11.353,8.988-10.489,53.052-7.589,53.052-7.589S214.047,100.587,209.838,85.6Z" opacity="0.08"/>
    <path id="Path_28" data-name="Path 28" d="M105.553,127.506l-1.725,8.348c-.785,3.781,9.108,9.022,22.1,11.707s24.15,1.8,24.926-1.977l1.725-8.34Z" fill="#ffd200"/>
    <path id="Path_29" data-name="Path 29" d="M105.553,127.506l-1.725,8.348c-.785,3.781,9.108,9.022,22.1,11.707s24.15,1.8,24.926-1.977l1.725-8.34Z" fill="#fff" opacity="0.46"/>
    <path id="Path_30" data-name="Path 30" d="M152.57,137.223c.781-3.782-9.114-9.027-22.1-11.714s-24.148-1.8-24.929,1.982,9.114,9.027,22.1,11.714S151.789,141.005,152.57,137.223Z" fill="#ffd200"/>
    <path id="Path_31" data-name="Path 31" d="M107.631,117.413l-1.725,8.349c-.785,3.781,9.108,9.022,22.1,11.715s24.15,1.8,24.927-1.985l1.725-8.34Z" fill="#ffd200"/>
    <path id="Path_32" data-name="Path 32" d="M107.631,117.413l-1.725,8.349c-.785,3.781,9.108,9.022,22.1,11.715s24.15,1.8,24.927-1.985l1.725-8.34Z" fill="#fff" opacity="0.46"/>
    <path id="Path_33" data-name="Path 33" d="M154.648,127.166c.781-3.782-9.114-9.026-22.1-11.714s-24.148-1.8-24.929,1.983,9.114,9.026,22.1,11.714S153.867,130.949,154.648,127.166Z" fill="#ffd200"/>
    <path id="Path_34" data-name="Path 34" d="M111.4,107.839l-1.725,8.34c-.785,3.781,9.108,9.022,22.1,11.715s24.15,1.805,24.926-1.977l1.725-8.348Z" fill="#ffd200"/>
    <path id="Path_35" data-name="Path 35" d="M111.4,107.839l-1.725,8.34c-.785,3.781,9.108,9.022,22.1,11.715s24.15,1.805,24.926-1.977l1.725-8.348Z" fill="#fff" opacity="0.46"/>
    <path id="Path_36" data-name="Path 36" d="M158.413,117.553c.781-3.782-9.114-9.026-22.1-11.714s-24.148-1.8-24.929,1.983,9.114,9.026,22.1,11.714S157.632,121.336,158.413,117.553Z" fill="#ffd200"/>
    <path id="Path_37" data-name="Path 37" d="M111.763,97.427l-1.725,8.34c-.785,3.781,9.108,9.03,22.1,11.715s24.15,1.805,24.926-1.977l1.725-8.348Z" fill="#ffd200"/>
    <path id="Path_38" data-name="Path 38" d="M111.763,97.427l-1.725,8.34c-.785,3.781,9.108,9.03,22.1,11.715s24.15,1.805,24.926-1.977l1.725-8.348Z" fill="#fff" opacity="0.46"/>
    <path id="Path_39" data-name="Path 39" d="M158.787,107.15c.782-3.783-9.113-9.027-22.1-11.714s-24.148-1.8-24.929,1.982,9.113,9.027,22.1,11.714S158.006,110.932,158.787,107.15Z" fill="#ffd200"/>
    <path id="Path_40" data-name="Path 40" d="M189.672,51.273a31.658,31.658,0,0,0,.561,8.4,2.587,2.587,0,0,0,3.139,1.778,5.627,5.627,0,0,0,4.313-4.317l1.432-4.472a4.553,4.553,0,0,0-2.088-4.826C194.14,45.869,189.75,48.191,189.672,51.273Z" fill="#f9cac0"/>
    <path id="Path_41" data-name="Path 41" d="M197.13,56l11.419,12.044-7.081,5.819L196,62.76Z" fill="#f9cac0"/>
    <path id="Path_42" data-name="Path 42" d="M199.841,56.6a.488.488,0,0,1-.1.3.494.494,0,0,1-.256.178,3.364,3.364,0,0,1-3.813-1.416,4.219,4.219,0,0,1-.086-4.636,19.806,19.806,0,0,1-4.657.44,4.693,4.693,0,0,1-1.544-.285l-1.363-3.773s-2.148-3.764.069-4.627,3.329,1.658,5.1-.225,2.165-2.59,4.071-1.632-.189,2.5,2.881,2.409,3.166,1.174,3.226,2.59a2.392,2.392,0,0,1-.552,1.3A15.49,15.49,0,0,0,199.841,56.6Z" fill="#002838"/>
    <path id="Path_43" data-name="Path 43" d="M195.132,55.512s0-1.951,1.466-1.822,1.484,2.944-.509,3.237Z" fill="#f9cac0"/>
    <path id="Path_44" data-name="Path 44" d="M189.621,54.476l-1.38,1.977a.813.813,0,0,0-.079.777.82.82,0,0,0,.245.32.81.81,0,0,0,.368.163l1.941.328Z" fill="#f9cac0"/>
    <path id="Path_45" data-name="Path 45" d="M115.644,105.033s8,2.668,5.882,10.2S111,122.956,111,122.956Z" opacity="0.08"/>
    <path id="Path_46" data-name="Path 46" d="M80.135,136.527l7.012,4.835c3.174,2.184,11.851-4.9,19.363-15.833s11.04-21.584,7.857-23.759l-7.012-4.835Z" fill="#ffd200"/>
    <path id="Path_47" data-name="Path 47" d="M80.135,136.527l7.012,4.835c3.174,2.184,11.851-4.9,19.363-15.833s11.04-21.584,7.857-23.759l-7.012-4.835Z" fill="#fff" opacity="0.46"/>
    <path id="Path_48" data-name="Path 48" d="M99.5,120.705c7.519-10.934,11.037-21.574,7.859-23.763s-11.85,4.9-19.369,15.833-11.038,21.574-7.86,23.764S91.983,131.639,99.5,120.705Z" fill="#ffd200"/>
    <path id="Path_49" data-name="Path 49" d="M173.854,235.146c80.116,0,145.064-6.432,145.064-14.366s-64.948-14.366-145.064-14.366S28.79,212.846,28.79,220.78,93.737,235.146,173.854,235.146Z" fill="#e6e6e6" opacity="0.45"/>
    <path id="Path_50" data-name="Path 50" d="M90.77,162.505A22.507,22.507,0,1,0,68.284,140,22.5,22.5,0,0,0,90.77,162.505Z" fill="#ffd200"/>
    <path id="Path_51" data-name="Path 51" d="M90.77,162.505A22.507,22.507,0,1,0,68.284,140,22.5,22.5,0,0,0,90.77,162.505Z" fill="#fff" opacity="0.46"/>
    <path id="Path_52" data-name="Path 52" d="M90.1,155.676a22.507,22.507,0,1,0-22.485-22.507A22.5,22.5,0,0,0,90.1,155.676Z" fill="#ffd200"/>
    <path id="Path_53" data-name="Path 53" d="M88.568,120.34c.6-.132.836.042.971.657l.288,1.315a6,6,0,0,1,5.633,2.667c.448.545.4.949-.242,1.425l-1.147.9c-.537.427-.856.355-1.309-.216a3.42,3.42,0,0,0-1.7-1.3,3.311,3.311,0,0,0-2.116-.023c-2.227.489-3.1,1.383-2.769,2.907a2.047,2.047,0,0,0,2.2,1.4,14.191,14.191,0,0,0,1.955-.12,12.506,12.506,0,0,1,3.645-.066,4.777,4.777,0,0,1,1.734.515,5.312,5.312,0,0,1,1.446,1.5,5.383,5.383,0,0,1,.767,1.946c.641,2.919-.835,5.336-4.109,6.576l.3,1.389c.135.615,0,.871-.606,1l-1.445.317c-.6.132-.86-.037-.995-.652l-.3-1.388a6.141,6.141,0,0,1-6.153-2.972.916.916,0,0,1-.156-.765.9.9,0,0,1,.177-.355.874.874,0,0,1,.312-.241l1.177-.76c.6-.384.928-.288,1.369.343a3.5,3.5,0,0,0,4.033,1.473c2.408-.529,3.44-1.573,3.094-3.152a1.7,1.7,0,0,0-.51-.968,1.637,1.637,0,0,0-.985-.443,9.06,9.06,0,0,0-2.706.059,11.638,11.638,0,0,1-3.72-.047,4.982,4.982,0,0,1-1.725-.529,5.059,5.059,0,0,1-1.445-1.435,5.132,5.132,0,0,1-.769-1.9c-.634-2.888.749-5.214,3.984-6.4l-.289-1.315c-.135-.615.029-.876.631-1.008Z" fill="#fffbf6"/>
    <path id="Path_54" data-name="Path 54" d="M116.291,115.255s-14.016-.734-21.123,9.721c-6.96,10.231-6.15,25.563-6.15,25.563l24.538-3.772Z" opacity="0.08"/>
    <path id="Path_55" data-name="Path 55" d="M122.233,163.714a22.507,22.507,0,1,0-22.485-22.507A22.5,22.5,0,0,0,122.233,163.714Z" fill="#ffd200"/>
    <path id="Path_56" data-name="Path 56" d="M122.233,163.714a22.507,22.507,0,1,0-22.485-22.507A22.5,22.5,0,0,0,122.233,163.714Z" fill="#fff" opacity="0.46"/>
    <path id="Path_57" data-name="Path 57" d="M124.157,157.127a22.508,22.508,0,1,0-22.486-22.507A22.5,22.5,0,0,0,124.157,157.127Z" fill="#ffd200"/>
    <path id="Path_58" data-name="Path 58" d="M128.79,122.513c.583.2.692.47.488,1.065l-.437,1.274a6,6,0,0,1,3.427,5.205c.1.7-.154,1.018-.948,1.092l-1.445.169c-.681.086-.916-.141-1.007-.864a3.419,3.419,0,0,0-.771-2,3.309,3.309,0,0,0-1.8-1.119c-2.157-.739-3.37-.43-3.876,1.045a2.046,2.046,0,0,0,1.153,2.338,14.232,14.232,0,0,0,1.732.913,12.428,12.428,0,0,1,3.148,1.838,4.735,4.735,0,0,1,1.215,1.341,5.3,5.3,0,0,1,.458,2.03,5.4,5.4,0,0,1-.356,2.061c-.97,2.827-3.487,4.125-6.928,3.484l-.461,1.345c-.2.6-.456.741-1.039.542l-1.4-.48c-.583-.2-.716-.478-.512-1.073l.462-1.345a6.139,6.139,0,0,1-3.714-5.736.909.909,0,0,1,.05-.4.906.906,0,0,1,.55-.55.88.88,0,0,1,.391-.044l1.4-.038c.715-.014.941.236.99,1a3.5,3.5,0,0,0,2.681,3.353c2.332.8,3.757.444,4.281-1.086a1.7,1.7,0,0,0,.067-1.091,1.636,1.636,0,0,0-.612-.891,9.081,9.081,0,0,0-2.343-1.356,11.647,11.647,0,0,1-3.154-1.972,4.007,4.007,0,0,1-1.688-3.326,5.136,5.136,0,0,1,.33-2.022c.959-2.8,3.348-4.066,6.729-3.4l.436-1.273c.2-.6.48-.734,1.063-.534Z" fill="#fffbf6"/>
    <path id="Path_59" data-name="Path 59" d="M61.574,149.218l92.589-6.915-2.838,25.684L90.157,191.962Z" fill="#002838"/>
    <path id="Path_60" data-name="Path 60" d="M74.054,215.911a16.749,16.749,0,1,0-16.732-16.749A16.741,16.741,0,0,0,74.054,215.911Z" fill="#002838"/>
    <path id="Path_61" data-name="Path 61" d="M74.054,207.355a8.193,8.193,0,1,0-8.185-8.193A8.189,8.189,0,0,0,74.054,207.355Z" fill="#fff"/>
    <path id="Path_62" data-name="Path 62" d="M74.054,207.355a8.193,8.193,0,1,0-8.185-8.193A8.189,8.189,0,0,0,74.054,207.355Z" fill="#fff" opacity="0.08"/>
    <path id="Path_63" data-name="Path 63" d="M73.968,200.639a1.485,1.485,0,0,1-.449-2.858l80.514-31.667,6.038-35.284a1.474,1.474,0,0,1,1.138-1.192l20.907-4.671a1.485,1.485,0,0,1,.638,2.893l-19.941,4.446-6.037,35.129a1.513,1.513,0,0,1-.923,1.131L74.563,200.509A1.455,1.455,0,0,1,73.968,200.639Z" fill="#002838"/>
    <path id="Path_64" data-name="Path 64" d="M135.24,212.181a7.653,7.653,0,0,1-6.08-3.7l-14.792-24.916a1.479,1.479,0,0,1,2.544-1.511L131.7,206.967a4.615,4.615,0,0,0,4.356,2.262l1.725-.138a4.667,4.667,0,0,0,4.234-4.058l4.365-35.077a1.476,1.476,0,0,1,.56-.984,1.5,1.5,0,0,1,.516-.258,1.477,1.477,0,0,1,1.558.521,1.491,1.491,0,0,1,.258.516,1.473,1.473,0,0,1,.04.576L144.952,205.4a7.619,7.619,0,0,1-6.9,6.639l-1.725.138A6.072,6.072,0,0,1,135.24,212.181Z" fill="#002838"/>
    <path id="Path_65" data-name="Path 65" d="M200.367,71.389l7.081-5.776s18.328-5.871,34.362,5.586,21.675,60.589,21.675,60.589l-30.731,9.376s-7.9-12.95-18.975-18.761S184.144,103.531,200.367,71.389Z" fill="#f7931d"/>
    <path id="Path_66" data-name="Path 66" d="M213.236,78.805s-8.582,14.064,2.587,29.172S228.5,135.163,228.5,135.163l4.313,5.957,30.731-9.375-.708-5.854L232.3,82.88l-17.362-4.075Z" opacity="0.08"/>
    <path id="Path_67" data-name="Path 67" d="M215.038,86.187a13.971,13.971,0,0,1,19.838-16.2c9.28,4.662,21.709,15.048,30.058,38.125,14.87,41.06-80.212,24.026-80.212,24.026s-3.45,2.711-9.8,2.4-4.382-11.327,8.961-10.481,53.052-7.588,53.052-7.588S219.239,101.174,215.038,86.187Z" fill="#f9cac0"/>
    <path id="Path_68" data-name="Path 68" d="M228.839,110.964l30.592-15.376s-15.119-37.616-39.062-27.7C200.35,76.18,228.839,110.964,228.839,110.964Z" fill="#f7931d"/>
    <path id="Path_69" data-name="Path 69" d="M203.55,202.02s-3.355,2.1-6.167.242-5.537.181-3.7,2.728,10.35,4.317,10.35,4.317l3.588-5.008Z" fill="#77869e"/>
    <path id="Path_70" data-name="Path 70" d="M298.425,173.2s3.873.794,4.632,4.083,4.14,3.687,4.554.579-4.537-10.282-4.537-10.282l-6.038,1.148Z" fill="#77869e"/>
    <path id="Path_71" data-name="Path 71" d="M228.839,110.964l30.592-15.376s-15.119-37.616-39.062-27.7C200.35,76.18,228.839,110.964,228.839,110.964Z" fill="#f7931d" opacity="0.46"/>
    <path id="Path_72" data-name="Path 72" d="M232.754,141.121,200.48,201.778l8.219,3.575s24.858-39.9,42.263-50.4,12.532-23.206,12.532-23.206Z" fill="#002838"/>
    <path id="Path_73" data-name="Path 73" d="M246.563,147.69l10.462,19.8a19.832,19.832,0,0,0,20.062,10.36l21.614-2.841-1.656-8.383-16.3-.587a12.734,12.734,0,0,1-11.9-9.643l-4.726-18.873Z" fill="#01161f"/>
    <path id="Path_74" data-name="Path 74" d="M230.831,109.963l28.6-14.375,3.347,7L233.884,113.6Z" opacity="0.08"/>
  </g>
</svg>
