<svg width="66" height="74" viewBox="0 0 66 74" fill="none" xmlns="http://www.w3.org/2000/svg">
<path d="M62.2726 52.7065C61.3981 47.4576 56.9007 43.6484 51.5802 43.6484H43.5197C46.3358 40.8916 48.0866 37.0514 48.0866 32.8086V26.3047H52.4225V19.8008C52.4225 16.9147 50.5323 14.4633 47.9257 13.6153C47.2787 9.91676 44.7296 6.77773 41.2456 5.38887L41.8311 0H23.9905L24.576 5.38887C21.092 6.77773 18.5429 9.91676 17.8959 13.6153C15.2893 14.4633 13.3991 16.9147 13.3991 19.8008V26.3047H17.735V32.8086C17.735 37.0514 19.4857 40.8916 22.3018 43.6484H14.2414C8.92085 43.6484 4.42345 47.4576 3.54892 52.7065L0 74H65.8216L62.2726 52.7065ZM45.9361 59.3713L48.0866 63.6717V69.6641H35.0788V56.2836C37.6018 55.3882 39.4147 52.9786 39.4147 50.1523V47.9844H45.5392L45.9361 59.3713ZM19.903 59.3357V47.9844H26.4069V50.1523C26.4069 52.9786 28.2192 55.3882 30.7428 56.2836V69.6641H17.735V63.6717L19.903 59.3357ZM35.0788 47.9844V50.1523C35.0788 51.3475 34.106 52.3203 32.9108 52.3203C31.7156 52.3203 30.7428 51.3475 30.7428 50.1523V47.9844H35.0788ZM43.3746 13.2969H40.3863L40.746 9.98564C41.9592 10.7653 42.8891 11.9346 43.3746 13.2969ZM36.9983 4.33594L36.025 13.2969H29.7966L28.8233 4.33594H36.9983ZM25.0756 9.98564L25.4352 13.2969H22.4469C22.9319 11.9346 23.8623 10.7653 25.0756 9.98564ZM17.735 19.8008C17.735 18.6056 18.7078 17.6328 19.903 17.6328H45.9186C47.1138 17.6328 48.0866 18.6056 48.0866 19.8008V21.9688H17.735V19.8008ZM22.0709 32.8086V26.3047H43.7506V32.8086C43.7506 38.7858 38.8879 43.6484 32.9108 43.6484C26.9336 43.6484 22.0709 38.7858 22.0709 32.8086ZM7.82558 53.419C8.35063 50.2698 11.0487 47.9844 14.2414 47.9844H15.567V58.3127L13.3991 62.6487V69.6641H5.11844L7.82558 53.419ZM52.4225 69.6641V62.6487L50.237 58.2771L49.878 47.9844H51.5802C54.7728 47.9844 57.4709 50.2698 57.996 53.419L60.7031 69.6641H52.4225Z" fill="#00A651"/>
<path d="M32.911 34.9766C31.7158 34.9766 30.743 34.0038 30.743 32.8086H26.4071C26.4071 36.3948 29.3248 39.3125 32.911 39.3125C36.4972 39.3125 39.4149 36.3948 39.4149 32.8086H35.0789C35.0789 34.0038 34.1062 34.9766 32.911 34.9766Z" fill="#00A651"/>
</svg>
