<svg width="57" height="74" viewBox="0 0 57 74" fill="none" xmlns="http://www.w3.org/2000/svg">
<path d="M20.807 25.2661V25.4161H20.957H56.8314V39.018H52.2842H52.1342V39.168V48.4035H38.7037V39.168V39.018H38.5537H20.957H20.807V39.168V58.3184V58.4684H20.957H23.3363V73.85H0.15V58.4684H2.5293H2.6793V58.3184V0.15H47.4369V10.5095L20.931 15.1849L20.807 15.2067V15.3326V25.2661ZM43.401 4.33594V4.18594H43.251H6.86523H6.71523V4.33594V20.7402V20.8902H6.86523H16.6211H16.7711V20.7402V11.8205L43.277 7.14506L43.401 7.12319V6.99734V4.33594ZM19.1504 69.8141H19.3004V69.6641V62.6543V62.5043H19.1504H4.33594H4.18594V62.6543V69.6641V69.8141H4.33594H19.1504ZM47.9482 44.3676H48.0982V44.2176V39.168V39.018H47.9482H42.8896H42.7396V39.168V44.2176V44.3676H42.8896H47.9482ZM52.6455 34.982H52.7955V34.832V29.602V29.452H52.6455H16.7711V25.0762V24.9262H16.6211H6.86523H6.71523V25.0762V58.3184V58.4684H6.86523H16.6211H16.7711V58.3184V34.982H52.6455Z" fill="#00A651" stroke="white" stroke-width="0.3"/>
<path d="M45.5353 57.0945L45.4213 56.9545L45.3045 57.0922C44.7246 57.7762 44.0835 58.6516 43.5865 59.5778C43.091 60.5013 42.7311 61.4895 42.7311 62.3952C42.7311 63.8774 43.9367 65.0831 45.4189 65.0831C46.9011 65.0831 48.1068 63.8774 48.1068 62.3952C48.1068 61.48 47.7912 60.5593 47.3155 59.6691C46.8395 58.7783 46.1981 57.9089 45.5353 57.0945ZM45.4189 69.119C41.7116 69.119 38.6952 66.1026 38.6952 62.3952C38.6952 60.1793 39.8702 57.8366 41.131 55.9652C42.3885 54.0986 43.7144 52.7253 43.984 52.4526L45.4189 51.0014L46.8538 52.4526C47.1235 52.7253 48.4494 54.0986 49.7069 55.9652C50.9677 57.8366 52.1427 60.1793 52.1427 62.3952C52.1427 66.1026 49.1263 69.119 45.4189 69.119Z" fill="#00A651" stroke="white" stroke-width="0.3"/>
</svg>
