<svg width="271" height="208" viewBox="0 0 271 208" fill="none" xmlns="http://www.w3.org/2000/svg">
<path d="M135.013 207.283C209.579 207.283 270.026 203.123 270.026 197.992C270.026 192.861 209.579 188.701 135.013 188.701C60.4474 188.701 0 192.861 0 197.992C0 203.123 60.4474 207.283 135.013 207.283Z" fill="#F4F4F4"/>
<path d="M226.681 0.0292969H56.2461V131.349H226.681V0.0292969Z" fill="#F4F4F4"/>
<path d="M101.904 187.272C101.904 187.272 94.2504 185.217 92.6484 178.071C92.6484 178.071 104.485 175.659 104.752 187.897L101.904 187.272Z" fill="#20CE6A"/>
<path d="M102.882 186.468C102.882 186.468 97.5418 178.071 102.259 170.12C102.259 170.12 111.248 175.837 107.243 186.468H102.882Z" fill="#0ABF5B"/>
<path d="M104.219 186.468C104.219 186.468 107.067 177.535 115.522 175.837C115.522 175.837 117.124 181.644 110.004 186.468H104.219Z" fill="#00A651"/>
<path d="M98.6992 186.289L100.301 196.83L110.002 196.92L111.426 186.289H98.6992Z" fill="#002838"/>
<path d="M153.97 17.7173H120.773V51.0386H153.97V17.7173Z" fill="#002838"/>
<path opacity="0.4" d="M139.729 12.4468H133.41V24.4174H139.729V12.4468Z" fill="white"/>
<path d="M206.924 18.3428H173.727V51.6641H206.924V18.3428Z" fill="#FFD200"/>
<path opacity="0.76" d="M206.123 71.4067H172.926V104.728H206.123V71.4067Z" stroke="#C9C9C9" stroke-linecap="round" stroke-linejoin="round" stroke-dasharray="2 2"/>
<path d="M153.97 71.4067H120.773V104.728H153.97V71.4067Z" fill="#77869E"/>
<path d="M102.525 71.4067H69.3281V104.728H102.525V71.4067Z" fill="#77869E"/>
<path opacity="0.4" d="M192.596 13.1611H186.277V25.1318H192.596V13.1611Z" fill="white"/>
<path d="M103.326 18.3428H70.1289V51.6641H103.326V18.3428Z" fill="#00A651"/>
<path opacity="0.4" d="M89.0885 13.1611H82.7695V25.1318H89.0885V13.1611Z" fill="white"/>
<path d="M83.48 92.0427L70.397 92.4L66.125 131.349H84.904C85.972 127.776 89.087 125.096 92.825 124.828C107.421 123.577 139.461 116.163 132.786 75.0693L114.986 95.9733L97.364 105.175L83.48 92.0427Z" fill="#F4F4F4"/>
<path d="M49.393 74.8907L51.885 82.484L46.011 86.236L43.875 73.1934L49.393 74.8907Z" fill="#F9CAC0"/>
<path d="M41.8294 65.9574C42.8974 63.5454 45.5674 62.4734 47.9704 63.5454C48.5934 63.8134 49.1274 64.1708 49.5724 64.7068C52.0644 67.3868 55.0904 71.6748 51.7084 73.9974C46.4574 77.5708 41.6514 70.8708 41.6514 70.8708C41.1174 69.2628 41.2064 67.5654 41.8294 65.9574Z" fill="#F9CAC0"/>
<path d="M45.6577 70.6028C45.6577 70.6028 44.3227 69.4414 43.6997 71.0494C43.0767 72.6574 45.4797 73.4614 46.1917 72.6574C46.9037 71.8534 45.6577 70.6028 45.6577 70.6028Z" fill="#F4A28C"/>
<path d="M40.9378 86.3252C40.9378 86.3252 19.7557 99.1892 16.9967 129.473C16.4627 134.655 19.8447 139.479 24.9177 140.64L49.7488 146.625L40.9378 86.3252Z" fill="#68E1FD"/>
<path d="M40.9378 86.3252C40.9378 86.3252 19.7557 99.1892 16.9967 129.473C16.4627 134.655 19.8447 139.479 24.9177 140.64L49.7488 146.625L40.9378 86.3252Z" fill="#FDA134"/>
<path d="M49.8697 122.938L17.2773 137.969L27.0498 159.318L59.6421 144.288L49.8697 122.938Z" fill="#FFD200"/>
<path d="M46.3677 68.6375C46.3677 68.6375 49.1267 76.6775 44.3207 76.1415C39.5147 75.6055 42.0957 72.2108 39.6927 68.6375C37.2897 65.0642 38.5357 62.6522 42.2737 59.5255C43.9647 58.0962 45.1217 57.3815 45.7447 56.6668C46.7237 55.5948 48.4147 55.5055 49.4827 56.4881C49.7497 56.7561 49.9277 57.0242 50.1057 57.2922C51.4407 60.3295 51.4407 64.4388 46.3677 68.6375Z" fill="#002838"/>
<path d="M36.0418 92.5785C38.0888 88.0225 42.0048 84.6278 46.7218 83.1985C55.7998 80.4291 72.9768 74.7118 78.0498 83.2878C84.9918 94.9011 74.3118 140.64 74.3118 140.64L43.8738 143.052C43.8738 143.052 27.1418 112.678 36.0418 92.5785Z" fill="#F7931D"/>
<path d="M74.3133 140.64L70.3083 193.258H63.9893L58.2933 152.432L44.3203 143.052L74.3133 140.64Z" fill="#002838"/>
<path d="M44.3197 143.052L35.5977 193.257H42.3617L57.0467 151.538L44.3197 143.052Z" fill="#002838"/>
<path opacity="0.08" d="M49.3915 82.4839C49.3915 82.4839 35.1515 128.491 76.2695 131.617L74.3115 140.729L43.8735 143.052C36.8425 130.635 33.3715 116.609 33.5495 102.405C33.5495 102.405 33.8165 90.7026 42.0935 85.4319C44.3185 83.9132 46.7215 82.9306 49.3915 82.4839Z" fill="black"/>
<path d="M36.8447 193.257L32.6616 196.384C32.2166 196.563 32.0386 197.099 32.2166 197.545C32.3946 197.903 32.7506 198.081 33.1956 197.992H40.2267C40.7607 197.992 41.1167 197.635 41.1167 197.099V193.257H36.8447Z" fill="#77869E"/>
<path d="M70.1314 193.257L74.1364 196.384C74.5814 196.741 74.5814 197.277 74.3144 197.724C74.1364 197.992 73.8694 198.081 73.6024 198.081H68.5294C67.0164 198.081 65.8594 196.92 65.8594 195.401V193.257H70.1314Z" fill="#77869E"/>
<path d="M131.452 78.2854C131.452 78.2854 134.567 73.372 131.007 72.032C127.447 70.692 127.803 77.2134 127.803 77.2134L131.452 78.2854Z" fill="#F9CAC0"/>
<path d="M132.431 78.5534L127.892 77.2134L107.867 94.7227C104.841 97.3134 100.658 98.1174 96.9199 96.8667C91.4019 94.9907 86.7739 91.2387 83.7479 86.3254C76.5389 74.6227 64.3459 78.8214 64.3459 78.8214C64.3459 78.8214 55.1789 87.9334 73.4239 103.567C84.3709 112.857 95.4959 113.483 102.705 112.411C103.595 112.321 104.485 112.232 105.375 112.232C106.265 112.232 107.066 111.964 107.867 111.696C108.846 111.249 109.825 110.803 110.715 110.267C118.102 106.068 126.023 96.956 132.431 78.5534Z" fill="#68E1FD"/>
<path d="M132.431 78.5534L127.892 77.2134L107.867 94.7227C104.841 97.3134 100.658 98.1174 96.9199 96.8667C91.4019 94.9907 86.7739 91.2387 83.7479 86.3254C76.5389 74.6227 64.3459 78.8214 64.3459 78.8214C64.3459 78.8214 55.1789 87.9334 73.4239 103.567C84.3709 112.857 95.4959 113.483 102.705 112.411C103.595 112.321 104.485 112.232 105.375 112.232C106.265 112.232 107.066 111.964 107.867 111.696C108.846 111.249 109.825 110.803 110.715 110.267C118.102 106.068 126.023 96.956 132.431 78.5534Z" fill="#FDA134"/>
<path opacity="0.4" d="M96.0307 31.7427H77.4297V35.048H96.0307V31.7427Z" fill="white"/>
<path opacity="0.4" d="M203.54 44.0708H191.703V47.3761H203.54V44.0708Z" fill="white"/>
<path d="M149.251 44.0708H137.414V47.3761H149.251V44.0708Z" fill="#FFD200"/>
<path opacity="0.4" d="M96.0307 39.1572H77.4297V42.4626H96.0307V39.1572Z" fill="white"/>
<path d="M198.915 112.857H180.047V117.681H198.915V112.857Z" fill="#C9C9C9"/>
<path d="M146.759 112.857H127.98V117.681H146.759V112.857Z" fill="#C9C9C9"/>
<path d="M246.529 181.555H226.504V184.145H246.529V181.555Z" fill="#ADADAD"/>
<path d="M225.613 158.953L223.121 197.992H225.613L230.953 158.953H225.613Z" fill="#C9C9C9"/>
<path d="M246.442 158.953L248.934 197.992H246.442L241.102 158.953H246.442Z" fill="#C9C9C9"/>
<path d="M248.931 153.951H223.121V160.115H248.931V153.951Z" fill="#E6E6E6"/>
<path d="M243.502 151.806H238.34V150.645H243.502C244.303 150.645 244.837 150.02 244.837 149.305V145.642C244.837 144.838 244.214 144.302 243.502 144.302H238.34V143.141H243.502C244.926 143.141 245.994 144.302 245.994 145.642V149.305C245.994 150.734 244.837 151.806 243.502 151.806Z" fill="#FFD200"/>
<path d="M243.502 151.806H238.34V150.645H243.502C244.303 150.645 244.837 150.02 244.837 149.305V145.642C244.837 144.838 244.214 144.302 243.502 144.302H238.34V143.141H243.502C244.926 143.141 245.994 144.302 245.994 145.642V149.305C245.994 150.734 244.837 151.806 243.502 151.806Z" fill="#00A651"/>
<path d="M241.276 140.551H231.219V154.04H241.276V140.551Z" fill="#00A651"/>
<path d="M236.381 150.467C238.053 150.467 239.407 148.947 239.407 147.072C239.407 145.197 238.053 143.677 236.381 143.677C234.71 143.677 233.355 145.197 233.355 147.072C233.355 148.947 234.71 150.467 236.381 150.467Z" fill="#E6E6E6"/>
<path d="M232.821 140.551C232.821 140.551 231.397 135.816 235.135 135.369C238.873 134.923 244.124 135.816 242.166 130.188C240.208 124.56 237.716 125.721 240.475 119.289C243.234 112.857 250.799 124.292 253.469 118.217C256.139 112.143 259.966 114.287 263.793 117.235C267.62 120.183 268.332 129.473 260.856 130.903C253.38 132.332 251.867 133.94 250.354 138.139C248.841 142.337 241.187 140.551 241.187 140.551H232.821Z" fill="#E6E6E6"/>
</svg>
