<svg xmlns="http://www.w3.org/2000/svg" width="228.451" height="177.661" viewBox="0 0 228.451 177.661">
  <g id="post-a-task" transform="translate(-62.194 -29.33)">
    <path id="Path_1" data-name="Path 1" d="M91.44,109.707s7.326-34.534,25.76-34.534,28.239,54.289-16.6,60.194Z" fill="#f9cac0"/>
    <path id="Path_2" data-name="Path 2" d="M221.608,37.9H106.92V180.419H221.608Z" fill="#002838"/>
    <path id="Path_3" data-name="Path 3" d="M210.1,46.545H118.021V168.472H210.1Z" fill="#fff"/>
    <path id="Path_4" data-name="Path 4" d="M189.956,29.33H139.8V50.667h50.152Z" fill="#77869e"/>
    <path id="Path_5" data-name="Path 5" d="M182.011,101.237h-22.75v5.025h22.75Z" fill="#a8a8a8" opacity="0.21"/>
    <path id="Path_6" data-name="Path 6" d="M195.3,111.223h-36.04v5.026H195.3Z" fill="#a8a8a8" opacity="0.21"/>
    <path id="Path_7" data-name="Path 7" d="M182.011,133.552h-22.75v5.025h22.75Z" fill="#a8a8a8" opacity="0.21"/>
    <path id="Path_8" data-name="Path 8" d="M195.3,143.546h-36.04v5.026H195.3Z" fill="#a8a8a8" opacity="0.21"/>
    <path id="Path_9" data-name="Path 9" d="M150.285,66.114H129.734V86.709h20.551Z" fill="#dadada"/>
    <path id="Path_10" data-name="Path 10" d="M150.285,98.244H129.734v20.594h20.551Z" fill="#dadada"/>
    <path id="Path_11" data-name="Path 11" d="M150.285,130.373H129.734v20.6h20.551Z" fill="#dadada"/>
    <path id="Path_12" data-name="Path 12" d="M136.649,76.383l2.423,3.541,5.023-6.518" fill="none" stroke="#fff" stroke-linecap="round" stroke-linejoin="round" stroke-width="4"/>
    <path id="Path_13" data-name="Path 13" d="M136.649,108.464l2.423,3.542,5.023-6.526" fill="none" stroke="#fff" stroke-linecap="round" stroke-linejoin="round" stroke-width="4"/>
    <path id="Path_14" data-name="Path 14" d="M166.539,131.858l-3.027,5.275,10.191-1.3,10.8-3.937a46.723,46.723,0,0,0,14.788,14.133,48.368,48.368,0,0,1,22.081,25.7l.258.718V123.243l-14.184-14.9Z" opacity="0.1"/>
    <path id="Path_15" data-name="Path 15" d="M136.649,140.779l2.423,3.542L144.1,137.8" fill="none" stroke="#fff" stroke-linecap="round" stroke-linejoin="round" stroke-width="4"/>
    <path id="Path_16" data-name="Path 16" d="M220.071,105.673s-11.576-10.4-28.714-3.226c-13.42,5.646-7.068,12.285.144,12s19.32-5.211,18.475,6.792c-.765,10.575-13.854-4.63-21.356-4.033s-6.642,9.139,2.6,13.826,22.218,14.835,32.32,6.865S230.753,115.773,220.071,105.673Z" fill="#f9cac0"/>
    <path id="Path_17" data-name="Path 17" d="M238.469,99.985l-3.564-7.43-64.763,31.191,3.564,7.43Z" fill="#dadada"/>
    <path id="Path_18" data-name="Path 18" d="M217.044,140.868l40.532,66.123,33.069-28.29-58.161-57.29Z" fill="#00a651"/>
    <path id="Path_19" data-name="Path 19" d="M170.137,123.751l-8.646,8.938L173.7,131.18Z" fill="#24285b"/>
    <path id="Path_20" data-name="Path 20" d="M105.882,96.84s14.232-14.576,20.374-13.286c5.072,1.073,5.08,11.18-5.973,19.6a19.633,19.633,0,0,0-7.768,14.326A20.7,20.7,0,0,1,105.882,132c-10.023,8.873-17.461,1.145-16.495-10.858S91.005,105.593,105.882,96.84Z" fill="#f9cac0"/>
    <path id="Path_21" data-name="Path 21" d="M111.42,130.1l-5.353,74.173-43.873-8.429,22.065-74Z" fill="#00a651"/>
    <path id="Path_22" data-name="Path 22" d="M182.011,68.381h-22.75v5.026h22.75Z" fill="#a8a8a8" opacity="0.21"/>
    <path id="Path_23" data-name="Path 23" d="M195.3,78.368h-36.04v5.025H195.3Z" fill="#a8a8a8" opacity="0.21"/>
    <path id="Path_24" data-name="Path 24" d="M88.944,200.981l9.507-74.818L111.42,130.1l-5.353,74.173Z" opacity="0.1"/>
    <path id="Path_25" data-name="Path 25" d="M217.044,140.868l7.149-9.01,48.01,62.621-14.627,12.512Z" opacity="0.1"/>
  </g>
</svg>
