<svg width="68" height="68" viewBox="0 0 68 68" fill="none" xmlns="http://www.w3.org/2000/svg">
<path d="M23.953 11.8265H23.803V11.9765V15.8187H0.15V4.14217H23.803V7.98434V8.13434H23.953H29.9413H30.0913V7.98434V0.15H34.6184C42.555 0.15 49.8912 3.36635 55.1997 8.67512L56.505 9.98042L55.1996 11.2857L55.3057 11.3918L55.1996 11.2857C49.5876 16.8978 42.1259 19.8109 34.6184 19.8109H30.0913V11.9765V11.8265H29.9413H23.953ZM33.9583 3.84424L33.7834 3.81457V3.99217V15.9687V16.1187H33.9334H34.6185C40.7043 16.1187 46.4643 13.9937 51.0502 10.0947L51.1846 9.98042L51.0502 9.86615C47.0614 6.47491 42.8826 4.98609 39.6507 4.3366C38.0347 4.01186 36.6552 3.89687 35.654 3.85877C35.1533 3.83971 34.7474 3.83989 34.4543 3.84266C34.3807 3.84335 34.3154 3.84419 34.2576 3.84494C34.1988 3.8457 34.1477 3.84636 34.1031 3.84667C34.0596 3.84697 34.0251 3.8469 33.9989 3.84629C33.9858 3.84599 33.9757 3.84557 33.9682 3.84508C33.9612 3.84463 33.9583 3.84423 33.9583 3.84424ZM11.9765 12.1265H12.1265V11.9765V7.98434V7.83434H11.9765H3.99217H3.84217V7.98434V11.9765V12.1265H3.99217H11.9765ZM19.9609 12.1265H20.1109V11.9765V7.98434V7.83434H19.9609H15.9687H15.8187V7.98434V11.9765V12.1265H15.9687H19.9609Z" fill="#00A651" stroke="white" stroke-width="0.3"/>
<path d="M16.1017 40.0718H16.2517V39.9218V28.0953H67.85V28.1137V28.138V28.163V28.1887V28.2151V28.2422V28.2701V28.2986V28.3278V28.3578V28.3884V28.4197V28.4517V28.4843V28.5177V28.5517V28.5864V28.6217V28.6577V28.6944V28.7318V28.7698V28.8084V28.8477V28.8877V28.9283V28.9695V29.0114V29.0539V29.0971V29.1408V29.1852V29.2303V29.2759V29.3222V29.3691V29.4166V29.4647V29.5134V29.5627V29.6126V29.6632V29.7143V29.766V29.8183V29.8711V29.9246V29.9787V30.0333V30.0885V30.1442V30.2006V30.2574V30.3149V30.3729V30.4315V30.4906V30.5503V30.6105V30.6713V30.7326V30.7944V30.8568V30.9197V30.9832V31.0472V31.1117V31.1767V31.2422V31.3082V31.3748V31.4419V31.5094V31.5775V31.6461V31.7152V31.7847V31.8548V31.9253V31.9964V32.0679V32.1399V32.2123V32.2853V32.3587V32.4326V32.5069V32.5817V32.657V32.7327V32.8089V32.8855V32.9625V33.0401V33.118V33.1964V33.2752V33.3545V33.4341V33.5142V33.5948V33.6757V33.7571V33.8389V33.9211V34.0037V34.0867V34.1701V34.2539V34.3381V34.4227V34.5076V34.593V34.6788V34.7649V34.8514V34.9383V35.0256V35.1132V35.2012V35.2895V35.3783V35.4673V35.5568V35.6466V35.7367V35.8272V35.918V36.0091V36.1006V36.1925V36.2846V36.3771V36.4699V36.5631V36.6565V36.7503V36.8444V36.9388V37.0335V37.1285V37.2238V37.3194V37.4153V37.5114V37.6079V37.7047V37.8017V37.8991V37.9967V38.0946V38.1927V38.2911V38.3898V38.4888V38.588V38.6874V38.7871V38.8871V38.9873V39.0878V39.1885V39.2894V39.3906V39.492V39.5937V39.6955V39.7976V39.8999V40.0025V40.1052V40.2082V40.3113V40.4147V40.5183V40.622V40.726V40.8302V40.9345V41.0391V41.1438V41.2487V41.3538V41.4591V41.5645V41.6701V41.7759V41.8819V41.988V42.0943V42.2007V42.3072V42.414V42.5208V42.6279V42.735V42.8423V42.9497V43.0573V43.165V43.2728V43.3807V43.4888V43.597V43.7053V43.8137V43.9222V44.0308V44.1395V44.2483V44.3572V44.4663V44.5753V44.6845V44.7938V44.9032V45.0126V45.1221V45.2317V45.3413V45.451V45.5608V45.6706V45.7805V45.8905V46.0005V46.1105V46.2206V46.3308V46.441V46.5512V46.6614V46.7717V46.882V46.9924V47.1027V47.2131V47.3235V47.4339V47.5443V47.6548V47.7652V47.8756V47.986V48.0965V48.2069V48.3173V48.4277V48.5381V48.6484V48.7588V48.8691V48.9794V49.0896V49.1998V49.31V49.4202V49.5303V49.6403V49.7503V49.8603V49.9702V50.08V50.1898V50.2995V50.4091V50.5187V50.6282V50.7376V50.847V50.9563V51.0655V51.1746V51.2836V51.3925V51.5013V51.61V51.7186V51.8271V51.9355V52.0438V52.152V52.2601V52.368V52.4758V52.5835V52.6911V52.7985V52.9058V53.0129V53.12V53.2268V53.3335V53.4401V53.5465V53.6528V53.7589V53.8649V53.9706V54.0763V54.1817V54.287V54.3921V54.497V54.6017V54.7062V54.8106V54.9148V55.0187V55.1225V55.2261V55.3295V55.4326V55.5356V55.6383V55.7409V55.8432V55.9453V56.0471V56.1488V56.2502V56.3513V56.4523V56.553V56.6534V56.7537V56.8536V56.9533V57.0528V57.152V57.251V57.3496V57.4481V57.5462V57.6441V57.7417V57.839V57.9361V58.0328V58.1293V58.2255V58.3214V58.417V58.5123V58.6073V58.702V58.7964V58.8905V58.9842V59.0777V59.1708V59.2636V59.3561V59.4483V59.5401V59.6316V59.7228V59.8136V59.9041V59.9942V60.084V60.1734V60.2625V60.3512V60.4395V60.5275V60.6152V60.7024V60.7893V60.8758V60.962V61.0477V61.1331V61.2181V61.3027V61.3869V61.4707V61.5541V61.6371V61.7197V61.8018V61.8836V61.965V62.0459V62.1265V62.2066V62.2862V62.3655V62.4443V62.5227V62.6006V62.6782V62.7552V62.8318V62.908V62.9837V63.059V63.1338V63.2081V63.282V63.3554V63.4283V63.5008V63.5728V63.6443V63.7153V63.7859V63.8559V63.9255V63.9946V64.0631V64.1312V64.1988V64.2659V64.3324V64.3985V64.464V64.529V64.5935V64.6575V64.7209V64.7838V64.8462V64.908V64.9693V65.0301V65.0903V65.15V65.2091V65.2677V65.3257V65.3832V65.4401V65.4964V65.5522V65.6073V65.662V65.716V65.7695V65.8223V65.8746V65.9263V65.9774V66.028V66.0779V66.1272V66.1759V66.224V66.2715V66.3184V66.3647V66.4103V66.4553V66.4997V66.5435V66.5867V66.6292V66.6711V66.7123V66.7529V66.7929V66.8322V66.8708V66.9088V66.9461V66.9828V67.0188V67.0542V67.0889V67.1229V67.1562V67.1889V67.2209V67.2522V67.2828V67.3127V67.3419V67.3704V67.3983V67.4254V67.4518V67.4776V67.5026V67.5269V67.5504V67.5733V67.5954V67.6168V67.6375V67.6575V67.6767V67.6952V67.7129V67.717H0.283057V52.0483H8.1174H8.2674V51.8983V40.0718H16.1017ZM36.0626 31.7875H35.9126V31.9375V39.9218V40.0718H36.0626H48.0391H48.1891V39.9218V31.9375V31.7875H48.0391H36.0626ZM56.1734 43.914V43.764H56.0234H44.0469H43.8969V43.914V51.8983V52.0483H44.0469H56.0234H56.1734V51.8983V43.914ZM40.2048 43.914V43.764H40.0548H28.0782H27.9282V43.914V51.8983V52.0483H28.0782H40.0548H40.2048V51.8983V43.914ZM20.0939 31.7875H19.9439V31.9375V39.9218V40.0718H20.0939H32.0704H32.2204V39.9218V31.9375V31.7875H32.0704H20.0939ZM12.1096 43.764H11.9596V43.914V51.8983V52.0483H12.1096H24.0861H24.2361V51.8983V43.914V43.764H24.0861H12.1096ZM16.1017 64.0248H16.2517V63.8748V55.8905V55.7405H16.1017H4.12523H3.97523V55.8905V63.8748V64.0248H4.12523H16.1017ZM32.0704 64.0248H32.2204V63.8748V55.8905V55.7405H32.0704H20.0939H19.9439V55.8905V63.8748V64.0248H20.0939H32.0704ZM48.0391 64.0248H48.1891V63.8748V55.8905V55.7405H48.0391H36.0626H35.9126V55.8905V63.8748V64.0248H36.0626H48.0391ZM64.0078 64.0248H64.1578V63.8748V55.8905V55.7405H64.0078H52.0313H51.8813V55.8905V63.8748V64.0248H52.0313H64.0078ZM64.0078 52.0483H64.1578V51.8983V43.914V43.764H64.0078H60.0156H59.8656V43.914V51.8983V52.0483H60.0156H64.0078ZM64.0078 40.0718H64.1578V39.9218V31.9375V31.7875H64.0078H52.0313H51.8813V31.9375V39.9218V40.0718H52.0313H64.0078Z" fill="#00A651" stroke="white" stroke-width="0.3"/>
</svg>
