<svg xmlns="http://www.w3.org/2000/svg" width="17.744" height="25.613" viewBox="0 0 17.744 25.613">
  <g id="Group_4538" data-name="Group 4538" transform="translate(-293.128 -455.387)">
    <path id="Path_9210" data-name="Path 9210" d="M172.237,110,166,115.544h2.079V119.7h2.772V116.93h2.772V119.7H176.4v-4.158h2.079Z" transform="translate(131.852 347.885)" fill="#f7941d"/>
    <ellipse id="Ellipse_85" data-name="Ellipse 85" cx="7" cy="3" rx="7" ry="3" transform="translate(295 475)" fill="#fff"/>
    <ellipse id="Ellipse_86" data-name="Ellipse 86" cx="3" cy="0.5" rx="3" ry="0.5" transform="translate(299 477)" fill="#f7941d"/>
    <path id="Path_9213" data-name="Path 9213" d="M102.758,18.379c0,7.393-8.379,13.308-8.379,13.308S86,25.772,86,18.379a8.379,8.379,0,0,1,16.758,0Z" transform="translate(207.621 445.88)" fill="#f7941d"/>
    <ellipse id="Ellipse_87" data-name="Ellipse 87" cx="6" cy="6.5" rx="6" ry="6.5" transform="translate(296 458)" fill="#fff"/>
    <path id="Path_9214" data-name="Path 9214" d="M170.436,110,166,113.943h1.479V116.9h1.972v-1.972h1.971V116.9h1.972v-2.957h1.479Z" transform="translate(131.564 350.809)" fill="#f7941d"/>
    <g id="Group_4495" data-name="Group 4495" transform="translate(293.128 455.387)">
      <path id="Path_9211" data-name="Path 9211" d="M91.15,20.424a10.731,10.731,0,0,0-2.643-.793c.3-.315.615-.651.926-1.009a20.394,20.394,0,0,0,2.951-4.334,12.252,12.252,0,0,0,1.36-5.416A8.872,8.872,0,0,0,76,8.872a12.252,12.252,0,0,0,1.36,5.416,20.394,20.394,0,0,0,2.951,4.334c.311.357.622.694.926,1.009a10.731,10.731,0,0,0-2.643.793c-1.329.634-1.608,1.359-1.608,1.854,0,.628.434,1.521,2.5,2.21a19.771,19.771,0,0,0,10.767,0c2.068-.689,2.5-1.582,2.5-2.21,0-.9-.875-1.5-1.608-1.854ZM78.239,13.841a11.273,11.273,0,0,1-1.253-4.969,7.886,7.886,0,0,1,15.772,0A11.273,11.273,0,0,1,91.5,13.841a19.381,19.381,0,0,1-2.8,4.116,27.192,27.192,0,0,1-3.833,3.608,27.192,27.192,0,0,1-3.833-3.608A19.381,19.381,0,0,1,78.239,13.841Zm11.7,9.712a18.816,18.816,0,0,1-10.144,0c-1.35-.45-1.828-.968-1.828-1.275,0-.512,1.285-1.394,4.132-1.788a24.4,24.4,0,0,0,2.484,2.092.493.493,0,0,0,.568,0A24.418,24.418,0,0,0,87.64,20.49c2.847.394,4.132,1.276,4.132,1.788C91.772,22.585,91.293,23.1,89.944,23.553Z" transform="translate(-76)" fill="#002838"/>
      <path id="Path_9212" data-name="Path 9212" d="M161.421,107.393a.493.493,0,0,0,.493.493h1.972a.493.493,0,0,0,.493-.493v-2.464h.986a.493.493,0,0,0,.327-.861l-4.436-3.943a.493.493,0,0,0-.655,0l-4.436,3.943a.493.493,0,0,0,.327.861h.986v2.464a.493.493,0,0,0,.493.493h1.972a.493.493,0,0,0,.493-.493v-1.479h.986Zm-1.479-2.464a.493.493,0,0,0-.493.493V106.9h-.986v-2.464a.493.493,0,0,0-.493-.493h-.182l3.14-2.791,3.14,2.791h-.182a.493.493,0,0,0-.493.493V106.9h-.986v-1.479a.493.493,0,0,0-.493-.493Z" transform="translate(-152.056 -95.071)" fill="#002838"/>
    </g>
  </g>
</svg>
