<svg xmlns="http://www.w3.org/2000/svg" width="22" height="23.837" viewBox="0 0 22 23.837">
  <g id="Group_4540" data-name="Group 4540" transform="translate(-293 -1249.347)">
    <ellipse id="Ellipse_92" data-name="Ellipse 92" cx="2.538" cy="2.538" rx="2.538" ry="2.538" transform="translate(301.597 1267.609)" fill="#f7941d" stroke="#002838" stroke-width="1"/>
    <path id="Path_9232" data-name="Path 9232" d="M62.122,19.536v2.87H60.048v-2.87a1.037,1.037,0,0,1,2.074,0Z" transform="translate(242.915 1231.347)" fill="#f7941d" stroke="#002838" stroke-width="1"/>
    <path id="Path_9233" data-name="Path 9233" d="M46.7,42.9H27.585l.481-.866a13.832,13.832,0,0,0,1.737-6.71v-2a7.436,7.436,0,0,1,7.185-7.486,7.34,7.34,0,0,1,7.494,7.338v2.141a13.831,13.831,0,0,0,1.736,6.709Z" transform="translate(266.856 1225.938)" fill="#f7941d" stroke="#002838" stroke-width="1"/>
    <rect id="Rectangle_3053" data-name="Rectangle 3053" width="21" height="2.297" rx="1.148" transform="translate(293.5 1267.85)" fill="#fff" stroke="#002838" stroke-width="1"/>
  </g>
</svg>
