<svg xmlns="http://www.w3.org/2000/svg" width="46.383" height="46.383" viewBox="0 0 46.383 46.383">
  <g id="Group_4464" data-name="Group 4464" transform="translate(-1224.803 -121.505)">
    <g id="Group_4441" data-name="Group 4441" transform="translate(1226.253 128.752)">
      <path id="Path_9142" data-name="Path 9142" d="M32.84,9.75H28.975v1.933a1.933,1.933,0,0,1-1.933,1.933H16.413a1.933,1.933,0,0,1-1.933-1.933V9.75H10.615A3.877,3.877,0,0,0,6.75,13.615V37.773a3.877,3.877,0,0,0,3.865,3.865H32.84a3.877,3.877,0,0,0,3.865-3.865V13.615A3.877,3.877,0,0,0,32.84,9.75Z" transform="translate(-6.75 -9.75)" fill="#f3f3f1"/>
    </g>
    <g id="Group_4442" data-name="Group 4442" transform="translate(1233.983 122.955)">
      <path id="Path_9143" data-name="Path 9143" d="M25.245,10.615V14.48a1.933,1.933,0,0,1-1.933,1.933H12.683A1.933,1.933,0,0,1,10.75,14.48V10.615h3.382a3.865,3.865,0,0,1,7.73,0Z" transform="translate(-10.75 -6.75)" fill="#f6921c"/>
    </g>
    <g id="Group_4443" data-name="Group 4443" transform="translate(1249.444 153.876)">
      <path id="Path_9144" data-name="Path 9144" d="M21.649,35.312h-.966a1.933,1.933,0,0,1-1.933-1.933v-8.7a1.933,1.933,0,0,1,1.933-1.933h.966a1.933,1.933,0,0,1,1.933,1.933v8.7A1.938,1.938,0,0,1,21.649,35.312Z" transform="translate(-18.75 -22.75)" fill="#f6921c"/>
    </g>
    <g id="Group_4444" data-name="Group 4444" transform="translate(1254.218 146.185)">
      <path id="Path_9145" data-name="Path 9145" d="M33.048,26.462H28.216a6.914,6.914,0,0,0,.908-3.614c0-2.706-1.353-4.078-2.261-4.078-.889,0-1.836.928-1.836,3.189,0,2.532-2.725,4.484-3.807,5.16l.541,9.953c1.082.618,3.981,1.952,9.161,1.952h.986a3.8,3.8,0,0,0,3.749-3.092c.019,0,1.082-5.257,1.082-5.778a3.7,3.7,0,0,0-3.691-3.691Z" transform="translate(-21.22 -18.77)" fill="#f6921c"/>
    </g>
    <g id="Group_4445" data-name="Group 4445" transform="translate(1246.545 128.752)">
      <path id="Path_9146" data-name="Path 9146" d="M23.531,11.683V9.8a3.621,3.621,0,0,0-.483-.048H19.183v1.933a1.933,1.933,0,0,1-1.933,1.933H21.6A1.933,1.933,0,0,0,23.531,11.683Z" transform="translate(-17.25 -9.75)" fill="#f6921c"/>
    </g>
    <g id="Group_4446" data-name="Group 4446" transform="translate(1226.253 128.752)">
      <path id="Path_9147" data-name="Path 9147" d="M11.1,37.773V13.615A3.868,3.868,0,0,1,14.48,9.8V9.75H10.615A3.877,3.877,0,0,0,6.75,13.615V37.773a3.877,3.877,0,0,0,3.865,3.865h4.348A3.877,3.877,0,0,1,11.1,37.773Z" transform="translate(-6.75 -9.75)" fill="#f6921c"/>
    </g>
    <g id="Group_4447" data-name="Group 4447" transform="translate(1233.983 122.955)">
      <path id="Path_9148" data-name="Path 9148" d="M15.1,14.48V10.615H18.48a3.868,3.868,0,0,1,1.691-3.189A3.834,3.834,0,0,0,18,6.75a3.877,3.877,0,0,0-3.865,3.865H10.75V14.48a1.933,1.933,0,0,0,1.933,1.933h4.348A1.933,1.933,0,0,1,15.1,14.48Z" transform="translate(-10.75 -6.75)" fill="#f6921c"/>
    </g>
    <g id="Group_4448" data-name="Group 4448" transform="translate(1254.218 146.185)">
      <path id="Path_9149" data-name="Path 9149" d="M26.11,37.072l-.541-9.953A8.855,8.855,0,0,0,29.1,23.287c.008-.145.021-.284.021-.439,0-2.706-1.353-4.078-2.261-4.078-.889,0-1.836.928-1.836,3.189,0,2.532-2.725,4.484-3.807,5.16l.541,9.953c1.082.618,3.981,1.952,9.161,1.952h.986a3.839,3.839,0,0,0,.895-.12A16.693,16.693,0,0,1,26.11,37.072Z" transform="translate(-21.22 -18.77)" fill="#f6921c"/>
    </g>
    <g id="Group_4449" data-name="Group 4449" transform="translate(1247.995 152.427)">
      <path id="Path_9150" data-name="Path 9150" d="M22.348,37.461h-.966A3.386,3.386,0,0,1,18,34.079v-8.7A3.386,3.386,0,0,1,21.382,22h.966a3.386,3.386,0,0,1,3.382,3.382v8.7A3.386,3.386,0,0,1,22.348,37.461ZM21.382,24.9a.483.483,0,0,0-.483.483v8.7a.483.483,0,0,0,.483.483h.966a.488.488,0,0,0,.483-.483v-8.7a.483.483,0,0,0-.483-.483Z" transform="translate(-18 -22)" fill="#002838"/>
    </g>
    <g id="Group_4450" data-name="Group 4450" transform="translate(1253.453 144.737)">
      <path id="Path_9151" data-name="Path 9151" d="M32.277,41.172h-.986c-5.33,0-8.478-1.341-9.879-2.141l1.438-2.518c.926.53,3.606,1.761,8.442,1.761h.986A2.356,2.356,0,0,0,34.6,36.4a1.387,1.387,0,0,1,.037-.16c.139-.6.984-4.866,1.028-5.436a2.239,2.239,0,0,0-2.244-2.19H28.585a1.449,1.449,0,0,1-1.2-2.257,4.4,4.4,0,0,0,.663-2.806c0-1.734-.682-2.545-.928-2.644a7.883,7.883,0,0,0-.269,1.755c0,3.239-3.14,5.547-4.491,6.391l-1.533-2.46c1.509-.941,3.125-2.468,3.125-3.929,0-3.2,1.65-4.638,3.284-4.638,1.822,0,3.711,2.068,3.711,5.527a9.4,9.4,0,0,1-.247,2.165h2.721a5.146,5.146,0,0,1,5.141,5.141A22.641,22.641,0,0,1,38,34.214c-.24,1.231-.4,2.072-.564,2.648l.025,0a5.25,5.25,0,0,1-5.181,4.306Z" transform="translate(-20.824 -18.021)" fill="#002838"/>
    </g>
    <g id="Group_4451" data-name="Group 4451" transform="translate(1224.803 127.303)">
      <path id="Path_9152" data-name="Path 9152" d="M24.843,43.787H11.315A5.319,5.319,0,0,1,6,38.472V14.315A5.319,5.319,0,0,1,11.315,9h3.633v2.9H11.315A2.419,2.419,0,0,0,8.9,14.315V38.472a2.419,2.419,0,0,0,2.416,2.416H24.843Z" transform="translate(-6 -9)" fill="#002838"/>
    </g>
    <g id="Group_4452" data-name="Group 4452" transform="translate(1248.729 127.303)">
      <path id="Path_9153" data-name="Path 9153" d="M27.309,23.127h-2.9V14.315A2.419,2.419,0,0,0,21.994,11.9H18.38V9h3.614a5.319,5.319,0,0,1,5.315,5.315Z" transform="translate(-18.38 -9)" fill="#002838"/>
    </g>
    <g id="Group_4453" data-name="Group 4453" transform="translate(1232.534 121.505)">
      <path id="Path_9154" data-name="Path 9154" d="M24.011,18.562H13.382A3.386,3.386,0,0,1,10,15.18V11.315a1.45,1.45,0,0,1,1.449-1.449h2.134a5.315,5.315,0,0,1,10.227,0h2.134a1.45,1.45,0,0,1,1.449,1.449V15.18A3.386,3.386,0,0,1,24.011,18.562ZM12.9,12.764V15.18a.483.483,0,0,0,.483.483H24.011a.483.483,0,0,0,.483-.483V12.764H22.562a1.45,1.45,0,0,1-1.449-1.449,2.416,2.416,0,0,0-4.832,0,1.45,1.45,0,0,1-1.449,1.449Z" transform="translate(-10 -6)" fill="#002838"/>
    </g>
    <g id="Group_4454" data-name="Group 4454" transform="translate(1232.051 136.966)">
      <path id="Path_9155" data-name="Path 9155" d="M9.75,14H28.11v2.9H9.75Z" transform="translate(-9.75 -14)" fill="#002838"/>
    </g>
    <g id="Group_4455" data-name="Group 4455" transform="translate(1232.051 142.764)">
      <path id="Path_9156" data-name="Path 9156" d="M9.75,17H28.11v2.9H9.75Z" transform="translate(-9.75 -17)" fill="#002838"/>
    </g>
    <g id="Group_4456" data-name="Group 4456" transform="translate(1232.051 148.562)">
      <path id="Path_9157" data-name="Path 9157" d="M9.75,20h14.2v2.9H9.75Z" transform="translate(-9.75 -20)" fill="#002838"/>
    </g>
  </g>
</svg>
