<svg width="910" height="591" viewBox="0 0 910 591" fill="none" xmlns="http://www.w3.org/2000/svg">
<path d="M46.9594 49.0633C25.6417 54.3475 6.16888 66.2369 1.88648 89.5033C-4.41592 123.284 12.9965 161.244 27.8233 190.684C64.9374 264.447 115.909 333.936 179.727 386.522C248.407 443.138 333.247 479.938 421.912 488.323C452.367 491.107 483.005 491.251 513.485 488.754C642.644 478.523 774.577 429.159 852.306 320.443C887.32 271.456 913.459 208.882 908.947 147.643C898.645 7.35623 721.249 -14.8184 612.479 7.82802C566.288 17.4393 522.669 38.2389 485.057 66.6008C448.899 93.8709 418.72 130.456 375.788 147.723C315.458 171.987 267.463 122.192 220.37 92.9138C169.789 61.438 107.559 34.0331 46.9594 49.0633Z" fill="#F7931D"/>
<path d="M455 591.843C690.632 591.843 881.65 581.915 881.65 569.668C881.65 557.421 690.632 547.493 455 547.493C219.367 547.493 28.3486 557.421 28.3486 569.668C28.3486 581.915 219.367 591.843 455 591.843Z" fill="#E6E6FF"/>
<path d="M549.98 111.334H552.471V122.28C552.471 124.106 552.021 125.904 551.162 127.515C550.302 129.125 549.059 130.499 547.542 131.514L527.248 145.142C526.772 145.455 526.382 145.881 526.112 146.382C525.841 146.883 525.7 147.444 525.699 148.014V152.597" stroke="#0C3956" stroke-width="1.05" stroke-linecap="round" stroke-linejoin="round"/>
<path d="M548.108 105.605H469.638C467.236 105.605 465.288 107.555 465.288 109.96V112.696C465.288 115.101 467.236 117.05 469.638 117.05H548.108C550.51 117.05 552.458 115.101 552.458 112.696V109.96C552.458 107.555 550.51 105.605 548.108 105.605Z" fill="#0C3956"/>
<path d="M525.699 196.892C524.628 196.892 523.6 196.466 522.842 195.708C522.085 194.949 521.659 193.921 521.659 192.848V155.347C521.659 154.274 522.085 153.246 522.842 152.487C523.6 151.729 524.628 151.303 525.699 151.303C526.771 151.303 527.798 151.729 528.556 152.487C529.314 153.246 529.739 154.274 529.739 155.347V192.889C529.729 193.954 529.298 194.972 528.542 195.722C527.785 196.472 526.764 196.892 525.699 196.892V196.892Z" fill="#B6CCFE"/>
<path d="M541.281 101.103H476.479C472.716 101.103 469.665 104.157 469.665 107.924V114.731C469.665 118.498 472.716 121.552 476.479 121.552H541.281C545.044 121.552 548.095 118.498 548.095 114.731V107.924C548.095 104.157 545.044 101.103 541.281 101.103Z" fill="#FAE625"/>
<path d="M632.759 274.173C650.751 252.308 655.424 224.782 656.528 215.4C645.553 208.66 635.924 204.495 634.753 200.464C634.473 199.495 634.319 198.494 634.295 197.485C625.688 199.016 616.9 199.253 608.223 198.186C607.647 199.45 606.71 200.515 605.53 201.246L605.247 201.367C616.101 221.655 626.349 274.159 626.349 274.159L632.759 274.173Z" fill="#CECFFF"/>
<path d="M634.349 197.485C634.284 195.352 634.636 193.228 635.386 191.23C635.386 191.23 611.051 187.887 609.247 193.737C609.241 195.272 608.91 196.788 608.277 198.186C616.954 199.253 625.742 199.016 634.349 197.485V197.485Z" fill="#FFCCD3"/>
<path d="M558.908 206.719C547.731 209.577 537.362 212.394 537.362 212.394C537.362 212.394 531.019 205.277 530.83 196.622C530.642 187.968 528.514 185.838 528.514 185.838C528.514 185.838 522.562 185.542 520.057 188.049C517.552 190.556 513.916 218.73 518.333 225.47C521.646 230.511 538.291 234.784 556.444 234.906C554.33 225.281 556.956 213.419 558.908 206.719Z" fill="#FFCCD3"/>
<path d="M679.395 273.432C678.926 263.961 677.642 254.549 675.557 245.299C671.328 228.179 674.399 227.209 661.524 218.554L661.215 218.352C658.441 249.761 637.688 274.173 637.688 274.173L645.122 275.952C645.122 283.798 647.519 293.84 649.324 300.284C649.389 296.726 649.873 293.187 650.765 289.742C654.024 278.958 661.538 267.999 661.538 267.999C661.538 267.999 661.309 270.479 661.134 274.173C664.743 274.186 672.796 274.133 679.395 273.432Z" fill="#CECFFF"/>
<path d="M596.683 322.633C610.782 317.241 617.192 274.173 617.192 274.173H622.31C622.31 274.173 607.416 216.007 600.022 201.812C595.659 201.3 589.64 199.925 582.139 201.3C577.048 202.23 567.729 204.508 558.909 206.773C556.956 213.513 554.33 225.335 556.444 235C562.604 235.091 568.759 234.64 574.84 233.652C574.84 233.652 582.65 273.863 581.344 291.953C580.684 300.998 578.233 312.362 575.957 325.518C582.994 326.117 590.076 325.131 596.683 322.633V322.633Z" fill="#CECFFF"/>
<path d="M661.12 274.173C660.748 280.837 660.883 287.52 661.524 294.164C662.871 305.325 664.595 318.212 665.362 324.561C665.779 330.197 665.779 335.856 665.362 341.492C668.458 343.015 671.966 343.488 675.354 342.84C675.354 342.84 678.25 318.576 679.394 303.209C680.037 293.293 680.037 283.347 679.394 273.431C672.796 274.132 664.743 274.186 661.12 274.173Z" fill="#FFCCD3"/>
<path d="M661.524 267.999L667.288 255.692" stroke="#0C3956" stroke-width="0.28" stroke-linecap="round" stroke-linejoin="round"/>
<path d="M574.839 233.558V227.208" stroke="#0C3956" stroke-width="0.28" stroke-linecap="round" stroke-linejoin="round"/>
<path d="M537.361 212.394C536.586 213.243 535.901 214.169 535.314 215.157" stroke="#0C3956" stroke-width="0.28" stroke-linecap="round" stroke-linejoin="round"/>
<path d="M519.64 188.952C518.238 186.946 517.038 184.805 516.057 182.563C515.492 180.595 517.256 175.297 519.64 174.07C519.64 174.07 519.64 169.743 521.525 169.487C523.41 169.231 526.912 174.151 528.379 173.652C529.847 173.154 529.605 167.856 529.605 167.856C529.605 167.856 533.524 172.682 533.187 174.596C532.932 176.537 532.411 178.433 531.638 180.231C530.75 182.199 528.864 186.539 528.864 186.539L519.64 188.952Z" fill="#FFCCD3"/>
<path d="M665.511 339.403C665.605 339.403 673.227 339.618 674.937 341.977C676.648 344.336 677.079 357.021 676.648 359.164C676.217 361.308 669.026 371.296 667.746 371.188C667.386 371.164 667.045 371.017 666.781 370.772C666.516 370.527 666.343 370.198 666.292 369.84C666.292 369.84 663.316 372.927 662.993 369.409C662.993 369.409 660.178 370.326 660.905 367.427C660.905 367.427 659.37 367.818 659.774 364.731C660.178 361.645 663.962 357.992 664.204 356.037C664.447 354.082 664.81 350.955 663.706 351.036C662.602 351.117 662.588 355.08 662.184 356.266C662.099 356.518 661.942 356.739 661.732 356.901C661.522 357.063 661.269 357.16 661.004 357.179C660.739 357.197 660.475 357.137 660.244 357.006C660.013 356.875 659.826 356.678 659.707 356.441C659.114 355.093 660.42 349.917 661.309 347.423C662.533 344.661 663.937 341.981 665.511 339.403Z" fill="#FFCCD3"/>
<path d="M666.305 369.854C666.305 369.854 668.998 366.147 670.17 364.219C670.963 362.518 671.463 360.695 671.651 358.827" stroke="#0C3956" stroke-width="0.23" stroke-linecap="round" stroke-linejoin="round"/>
<path d="M663.006 369.422C663.006 369.422 668.271 363.572 668.985 357.924" stroke="#0C3956" stroke-width="0.23" stroke-linecap="round" stroke-linejoin="round"/>
<path d="M660.918 367.441C660.918 367.441 665.901 362.197 666.305 357.924" stroke="#0C3956" stroke-width="0.23" stroke-linecap="round" stroke-linejoin="round"/>
<path d="M663.059 434.612C663.059 434.612 654.602 391.125 655.37 368.048C655.882 354.387 654.195 340.732 650.374 327.608C649.444 318.522 649.093 309.387 649.323 300.257C647.519 293.813 645.122 283.771 645.122 275.925L637.688 274.146C637.688 274.146 658.44 249.734 661.214 218.325C659.666 217.287 658.117 216.303 656.582 215.373C655.477 224.809 650.804 252.281 632.813 274.146H626.416C626.416 274.146 616.168 221.574 605.314 201.354C603.619 201.97 601.788 202.105 600.022 201.745C607.415 215.993 622.309 274.159 622.309 274.159H617.192C617.192 274.159 610.781 317.295 596.682 322.62C590.055 325.092 582.96 326.045 575.916 325.41C573.122 339.974 571.541 354.745 571.189 369.571C570.799 401.923 568.887 434.598 568.887 434.598L559.783 559.962H577.209L603.038 445.167C604.609 438.161 606.597 431.256 608.99 424.488L614.242 409.66L624.679 434.612L673.496 559.976H691.178L663.059 434.612Z" fill="#00A651"/>
<path d="M614.243 409.593L624.101 388.564L637.689 380.099" stroke="#0C3956" stroke-width="0.28" stroke-linecap="round" stroke-linejoin="round"/>
<path d="M583.363 329.306C583.363 329.306 579.256 360.607 578.488 382.148C577.721 403.689 565.426 559.922 565.426 559.922" stroke="#0C3956" stroke-width="0.28" stroke-linecap="round" stroke-linejoin="round"/>
<path d="M691.124 559.922H673.442L653.579 569.668H689.777C690.117 569.666 690.452 569.593 690.762 569.453C691.071 569.313 691.347 569.109 691.572 568.854C691.797 568.6 691.966 568.3 692.068 567.976C692.169 567.652 692.201 567.309 692.161 566.972L691.124 559.922Z" fill="#0C3956"/>
<path d="M577.385 559.922H559.703L539.84 569.668H576.038C576.378 569.666 576.713 569.593 577.023 569.453C577.332 569.313 577.608 569.109 577.833 568.854C578.058 568.6 578.227 568.3 578.328 567.976C578.43 567.652 578.462 567.309 578.422 566.972L577.385 559.922Z" fill="#0C3956"/>
<path d="M616.896 148.324C610.458 149.495 604.674 152.992 600.641 158.151C600.067 158.788 599.611 159.523 599.295 160.321C599.039 161.925 598.527 163.92 598.527 163.92C598.527 163.92 593.316 169.137 590.353 171.604C590.179 171.748 590.037 171.927 589.936 172.128C589.835 172.33 589.777 172.551 589.766 172.777C589.754 173.002 589.79 173.228 589.87 173.439C589.95 173.65 590.073 173.842 590.232 174.003C590.878 174.673 591.576 175.29 592.319 175.85C593.787 176.874 592.508 179.624 592.952 180.527L593.41 181.417C593.147 181.669 592.969 181.996 592.899 182.353C592.829 182.71 592.871 183.08 593.019 183.412C593.62 184.871 593.775 186.475 593.464 188.022C593.087 190.139 590.905 191.406 593.922 194.56C596.938 197.714 612.438 195.382 618.525 194.56C624.612 193.738 628.639 196.178 636.032 192.902C643.425 189.626 646.926 163.084 638.348 152.57C633.514 146.666 624.168 146.935 616.896 148.324Z" fill="#FFCCD3"/>
<path d="M603.133 148.229C603.147 150.35 603.747 152.426 604.867 154.227C605.986 156.028 607.581 157.484 609.476 158.434C616.115 161.804 619.859 159.485 619.859 159.485C619.859 159.485 615.145 164.594 615.63 168.719C616.115 172.844 617.879 173.626 616.519 176.618C615.926 177.711 615.473 178.875 615.172 180.083L617.287 179.409C617.287 179.409 620.074 175.068 622.283 174.596C624.491 174.124 625.582 175.459 625.42 179.018C625.259 182.576 622.283 182.388 620.748 184.019C619.212 185.65 623.535 193.455 629.972 194.991C636.409 196.528 639.399 192.781 642.564 188.737C645.728 184.693 649.001 160.644 640.059 150.831C631.117 141.018 599.82 137.755 603.133 148.229Z" fill="#0C3956"/>
<path d="M503.425 222.698L291.751 138.936L276.309 178.036L487.983 261.798L503.425 222.698Z" fill="#CECFFF"/>
<g opacity="0.33">
<path opacity="0.33" d="M297.439 149.685C299.237 148.57 301.334 148.034 303.446 148.148C305.561 148.249 307.637 148.757 309.559 149.645C310.492 150.088 311.392 150.597 312.253 151.168C313.148 151.714 314.007 152.318 314.825 152.974C316.468 154.322 317.976 155.751 319.525 157.153C325.825 162.706 332.902 167.307 340.533 170.808C355.696 177.98 371.87 182.603 387.882 187.537C395.87 190.112 403.601 193.424 410.977 197.431C414.659 199.448 418.172 201.761 421.481 204.347C423.125 205.653 424.669 207.082 426.1 208.62C427.573 210.134 428.731 211.925 429.507 213.89C429.894 214.884 429.955 215.974 429.682 217.004C429.511 217.509 429.242 217.975 428.891 218.375C428.54 218.775 428.113 219.102 427.635 219.336C426.637 219.688 425.583 219.857 424.524 219.835C423.474 219.835 422.424 219.835 421.373 219.754C417.196 219.394 413.042 218.805 408.93 217.988C400.702 216.425 392.555 214.416 384.475 212.192C376.395 209.968 368.382 207.447 360.49 204.616C352.545 201.909 344.849 198.518 337.489 194.479C335.663 193.434 333.933 192.229 332.318 190.88C331.496 190.208 330.759 189.439 330.123 188.588C329.438 187.733 329.051 186.678 329.019 185.582C329.037 185.033 329.186 184.496 329.453 184.015C329.72 183.535 330.097 183.125 330.554 182.819C331.46 182.239 332.479 181.858 333.544 181.7C335.631 181.393 337.748 181.347 339.846 181.565C344.024 181.977 348.166 182.702 352.235 183.736C356.275 184.733 360.315 185.906 364.355 187.2C372.328 189.735 380.116 192.816 387.666 196.42C389.558 197.34 391.401 198.357 393.187 199.467C394.091 200.025 394.931 200.68 395.692 201.421C395.913 201.604 396.085 201.839 396.193 202.105C396.301 202.371 396.342 202.659 396.312 202.945C396.058 203.453 395.62 203.844 395.086 204.037C393.072 204.691 390.951 204.957 388.838 204.818C386.737 204.818 384.65 204.616 382.562 204.374C378.397 203.87 374.264 203.123 370.186 202.136C366.093 201.201 362.091 199.902 358.228 198.254C357.269 197.828 356.338 197.341 355.44 196.798C354.524 196.271 353.712 195.581 353.043 194.762C352.719 194.36 352.468 193.904 352.303 193.414V193.023C352.303 192.889 352.303 192.754 352.303 192.619C352.387 192.355 352.558 192.127 352.787 191.972C353.254 191.716 353.777 191.581 354.309 191.581C354.834 191.541 355.36 191.541 355.885 191.581C360.022 192.194 364.084 193.238 368.005 194.695C368.005 194.695 368.005 194.695 368.005 194.695C364.086 193.239 360.023 192.209 355.885 191.621C355.365 191.581 354.843 191.581 354.323 191.621C353.804 191.624 353.294 191.759 352.841 192.012C352.628 192.155 352.471 192.368 352.397 192.614C352.324 192.86 352.338 193.124 352.437 193.36C352.606 193.846 352.852 194.301 353.165 194.708C353.831 195.51 354.639 196.182 355.548 196.69C356.444 197.228 357.37 197.714 358.322 198.146C362.184 199.766 366.181 201.043 370.267 201.961C374.343 202.924 378.471 203.653 382.63 204.144C384.703 204.374 386.791 204.535 388.878 204.562C390.956 204.692 393.04 204.427 395.019 203.78C395.478 203.609 395.86 203.279 396.096 202.85C396.204 202.446 395.854 201.974 395.517 201.624C394.776 200.898 393.953 200.261 393.066 199.723C391.288 198.626 389.454 197.623 387.572 196.717C380.002 193.131 372.201 190.055 364.221 187.51C360.181 186.162 356.221 185.043 352.101 184.046C348.044 183.014 343.916 182.289 339.752 181.875C337.681 181.657 335.59 181.702 333.53 182.01C332.517 182.163 331.545 182.52 330.675 183.062C330.267 183.345 329.933 183.722 329.699 184.16C329.465 184.598 329.338 185.086 329.329 185.582C329.364 186.604 329.728 187.587 330.365 188.386C330.991 189.212 331.709 189.963 332.507 190.624C334.109 191.963 335.826 193.158 337.637 194.196C344.968 198.222 352.626 201.618 360.531 204.347C368.409 207.204 376.408 209.739 384.475 211.976C392.541 214.214 400.634 216.249 408.903 217.84C413.01 218.665 417.16 219.264 421.333 219.633C422.383 219.633 423.42 219.741 424.47 219.714C425.511 219.732 426.547 219.564 427.527 219.215C427.991 218.987 428.404 218.67 428.744 218.281C429.083 217.892 429.343 217.44 429.507 216.95C429.786 215.963 429.753 214.913 429.413 213.944C428.637 211.998 427.484 210.225 426.019 208.728C424.566 207.205 422.999 205.794 421.333 204.508C418.031 201.931 414.522 199.632 410.842 197.634C403.469 193.648 395.742 190.359 387.76 187.807C371.749 182.967 355.562 178.263 340.398 171.024C332.78 167.483 325.716 162.851 319.431 157.274C317.882 155.859 316.387 154.39 314.744 153.082C313.932 152.426 313.082 151.818 312.199 151.262C311.334 150.699 310.434 150.19 309.506 149.739C307.611 148.85 305.562 148.337 303.473 148.229C301.368 148.114 299.279 148.64 297.48 149.739C297.48 149.739 297.439 149.699 297.439 149.685Z" fill="white"/>
<path opacity="0.33" d="M290.127 168.274C293.035 169.995 296.054 171.521 299.163 172.844C302.264 174.161 305.539 175.024 308.886 175.405C310.559 175.585 312.251 175.494 313.896 175.135C315.539 174.785 317.114 174.178 318.771 173.787C320.417 173.353 322.128 173.225 323.821 173.41C325.503 173.628 327.159 174.016 328.763 174.569L328.669 174.704C326.247 171.657 323.394 168.983 320.198 166.764C317.053 164.525 313.595 162.763 309.936 161.534C308.116 160.92 306.201 160.632 304.28 160.685C303.344 160.724 302.44 161.038 301.681 161.588C301.332 161.888 301.086 162.289 300.977 162.737C300.868 163.184 300.903 163.655 301.075 164.082C301.506 164.931 302.103 165.684 302.832 166.296C303.562 166.907 304.407 167.365 305.317 167.64C307.138 168.326 309.153 168.288 310.946 167.533V167.533C309.153 168.358 307.107 168.445 305.25 167.775C304.326 167.448 303.451 166.994 302.651 166.427C301.834 165.857 301.194 165.067 300.806 164.149C300.622 163.673 300.588 163.151 300.709 162.655C300.829 162.159 301.098 161.711 301.479 161.372C302.284 160.768 303.249 160.416 304.253 160.361C306.215 160.301 308.172 160.593 310.031 161.224C313.726 162.472 317.216 164.262 320.387 166.535C323.558 168.791 326.388 171.492 328.79 174.556C328.798 174.562 328.805 174.57 328.81 174.579C328.814 174.589 328.817 174.599 328.817 174.61C328.817 174.62 328.814 174.63 328.81 174.64C328.805 174.649 328.798 174.657 328.79 174.663V174.663C327.203 174.087 325.56 173.68 323.888 173.45C322.211 173.277 320.517 173.419 318.892 173.868C317.262 174.299 315.673 174.92 314.017 175.297C312.352 175.672 310.639 175.785 308.94 175.634C305.556 175.253 302.252 174.343 299.15 172.938C296.044 171.601 293.049 170.019 290.194 168.207L290.127 168.274Z" fill="#0C3956"/>
<path opacity="0.33" d="M320.925 186.674C318.306 185.542 315.605 184.61 312.845 183.884C311.499 183.479 310.085 183.129 308.698 182.765L304.51 181.821C301.734 181.139 299.028 180.196 296.43 179.004C293.796 177.842 291.317 176.357 289.05 174.583C291.418 176.185 293.924 177.575 296.537 178.734C299.158 179.9 301.858 180.878 304.617 181.66C307.378 182.428 310.206 182.927 312.98 183.668C314.348 184.014 315.696 184.433 317.02 184.922C318.385 185.375 319.702 185.962 320.952 186.674H320.925Z" fill="#0C3956"/>
<path opacity="0.33" d="M412.714 223.893C413.441 223.6 414.22 223.458 415.003 223.475C415.788 223.465 416.572 223.523 417.346 223.65C418.89 223.912 420.408 224.304 421.885 224.823C424.831 225.857 427.679 227.152 430.396 228.691C433.089 230.188 435.782 231.927 438.476 233.504C441.156 235.087 443.916 236.531 446.744 237.831C452.392 240.451 458.204 242.702 464.143 244.571C470.058 246.523 476.139 247.93 482.31 248.777C482.31 248.777 482.31 248.777 482.31 248.777C479.198 248.512 476.11 248.016 473.071 247.294C470.041 246.606 467.011 245.811 464.049 244.841C458.09 242.989 452.278 240.691 446.663 237.966C445.317 237.305 443.876 236.618 442.489 235.863C441.102 235.108 439.795 234.367 438.449 233.585C435.755 232.021 433.129 230.336 430.369 228.88C427.64 227.392 424.809 226.099 421.898 225.011C420.441 224.476 418.941 224.065 417.414 223.785C416.649 223.648 415.874 223.571 415.097 223.556C414.325 223.507 413.55 223.617 412.822 223.879V223.879L412.714 223.893Z" fill="white"/>
<g opacity="0.33">
<mask id="path-33-inside-1" fill="white">
<path d="M346.687 166.441L358.713 171.833C362.753 173.639 366.726 175.405 370.833 176.996C374.94 178.586 379.007 180.177 383.142 181.66C387.276 183.143 391.397 184.598 395.612 185.839C391.356 184.774 387.168 183.426 383.034 181.943C378.9 180.46 374.806 178.856 370.779 177.131L358.659 172.035C356.639 171.186 354.619 170.256 352.653 169.339C350.687 168.422 348.68 167.479 346.714 166.481C346.714 166.481 346.674 166.441 346.687 166.441Z"/>
</mask>
<path d="M346.687 166.441L358.713 171.833C362.753 173.639 366.726 175.405 370.833 176.996C374.94 178.586 379.007 180.177 383.142 181.66C387.276 183.143 391.397 184.598 395.612 185.839C391.356 184.774 387.168 183.426 383.034 181.943C378.9 180.46 374.806 178.856 370.779 177.131L358.659 172.035C356.639 171.186 354.619 170.256 352.653 169.339C350.687 168.422 348.68 167.479 346.714 166.481C346.714 166.481 346.674 166.441 346.687 166.441Z" fill="#0C3956"/>
<path d="M346.687 166.441L347.096 165.528L346.901 165.441H346.687V166.441ZM358.713 171.833L358.304 172.745L358.305 172.746L358.713 171.833ZM395.612 185.839L395.369 186.809L395.894 184.879L395.612 185.839ZM370.779 177.131L371.173 176.211L371.167 176.209L370.779 177.131ZM358.659 172.035L358.272 172.957L358.272 172.957L358.659 172.035ZM346.714 166.481L346.007 167.188L346.119 167.301L346.262 167.373L346.714 166.481ZM346.278 167.353L358.304 172.745L359.122 170.92L347.096 165.528L346.278 167.353ZM358.305 172.746C362.343 174.551 366.338 176.327 370.472 177.928L371.194 176.063C367.114 174.483 363.163 172.727 359.121 170.92L358.305 172.746ZM370.472 177.928C374.574 179.517 378.655 181.113 382.804 182.601L383.479 180.719C379.36 179.241 375.307 177.656 371.194 176.063L370.472 177.928ZM382.804 182.601C386.938 184.084 391.084 185.549 395.329 186.798L395.894 184.879C391.71 183.648 387.614 182.201 383.479 180.719L382.804 182.601ZM395.855 184.869C391.641 183.814 387.486 182.477 383.371 181.002L382.696 182.884C386.85 184.374 391.072 185.733 395.369 186.809L395.855 184.869ZM383.371 181.002C379.255 179.525 375.18 177.929 371.173 176.211L370.385 178.05C374.431 179.783 378.544 181.395 382.696 182.884L383.371 181.002ZM371.167 176.209L359.047 171.113L358.272 172.957L370.392 178.052L371.167 176.209ZM359.047 171.113C357.046 170.272 355.041 169.349 353.076 168.433L352.231 170.245C354.198 171.163 356.233 172.1 358.272 172.957L359.047 171.113ZM353.076 168.433C351.11 167.516 349.117 166.579 347.167 165.59L346.262 167.373C348.244 168.379 350.264 169.329 352.231 170.245L353.076 168.433ZM346.714 166.481C347.422 165.775 347.422 165.775 347.422 165.775C347.422 165.775 347.422 165.775 347.422 165.775C347.422 165.775 347.422 165.775 347.422 165.775C347.422 165.775 347.423 165.775 347.423 165.776C347.423 165.776 347.423 165.776 347.424 165.777C347.424 165.777 347.425 165.778 347.425 165.778C347.426 165.779 347.427 165.78 347.429 165.782C347.431 165.784 347.433 165.786 347.436 165.789C347.439 165.793 347.45 165.804 347.464 165.821C347.472 165.83 347.485 165.847 347.501 165.869C347.513 165.886 347.547 165.933 347.581 166.001C347.598 166.035 347.626 166.096 347.648 166.178C347.668 166.249 347.704 166.408 347.671 166.607C347.632 166.842 347.5 167.1 347.24 167.273C347.015 167.423 346.795 167.441 346.687 167.441V165.441C346.578 165.441 346.356 165.459 346.13 165.61C345.87 165.783 345.738 166.043 345.698 166.278C345.665 166.479 345.701 166.638 345.721 166.712C345.744 166.795 345.773 166.858 345.791 166.894C345.85 167.011 345.921 167.094 345.927 167.101C345.95 167.128 345.97 167.15 345.981 167.161C345.987 167.168 345.992 167.173 345.996 167.178C345.999 167.18 346.001 167.182 346.002 167.184C346.003 167.184 346.004 167.185 346.005 167.186C346.005 167.186 346.005 167.187 346.006 167.187C346.006 167.187 346.006 167.187 346.006 167.188C346.006 167.188 346.006 167.188 346.006 167.188C346.006 167.188 346.007 167.188 346.007 167.188C346.007 167.188 346.007 167.188 346.714 166.481Z" fill="black" mask="url(#path-33-inside-1)"/>
</g>
</g>
<path d="M312.468 255.867C312.468 255.867 329.1 258.563 342.028 251.944C342.028 251.944 335.079 222.288 329.908 211.046C326.649 210.278 323.955 209.28 323.174 207.811C322.931 207.381 322.728 206.93 322.568 206.463C320.239 209.361 316.279 212.69 310.623 212.016C305.023 211.277 299.803 208.776 295.716 204.872C295.454 205.373 295.113 205.828 294.706 206.22C293.427 207.312 289.575 208.916 285.145 210.884C299.117 222.315 308.76 238.189 312.468 255.867V255.867Z" fill="#CECFFF"/>
<path d="M389.215 222.828L386.737 236.456C386.737 236.456 380.004 232.722 371.924 228.274C371.686 235.998 369.852 243.59 366.537 250.569C378.32 253.373 395.733 256.811 399.719 253.71C402.668 251.432 403.167 239.961 402.709 228.098C398.303 226.114 393.799 224.355 389.215 222.828V222.828Z" fill="#FFCCD3"/>
<path d="M272.876 277.974C273.954 275.535 275.031 272.825 276.081 269.886C276.081 269.886 285.925 292.074 286.235 299.462C286.235 300.81 286.235 302.36 286.235 304.126C295.554 300.796 305.088 285.995 304.833 259.574C304.644 235.31 287.541 220.711 278.869 213.742C274.007 216.196 269.523 218.999 267.894 222.005C265.066 227.222 258.898 246.957 254.306 262.243C258.211 266.948 265.416 274.78 272.876 277.974Z" fill="#CECFFF"/>
<path d="M322.568 206.409C321.222 202.365 321.329 195.328 321.329 195.328L297.628 193.172C297.628 193.172 297.857 201.03 295.716 204.818C299.803 208.722 305.023 211.224 310.623 211.963C316.293 212.596 320.239 209.307 322.568 206.409Z" fill="#FFCCD3"/>
<path d="M343.334 213.661C341.53 213.135 338.877 212.717 336.103 212.232C339.079 221.372 349.865 254.586 352.64 265.114C353.273 267.514 353.771 269.792 354.134 271.854C355.131 260.733 355.804 251.338 355.333 247.59C355.333 247.59 360.087 248.938 366.483 250.448C369.798 243.468 371.632 235.877 371.87 228.152C360.612 222.113 346.458 214.551 343.334 213.661Z" fill="#CECFFF"/>
<path d="M264.379 293.611C267.704 288.682 270.55 283.446 272.877 277.974C265.416 274.779 258.211 266.948 254.333 262.216C252.69 267.702 251.236 272.609 250.226 276.074C246.374 289.149 245.432 292.573 246.186 297.965C246.94 303.357 280.068 349.728 281.199 351.332C281.899 344.848 282.748 338.472 283.421 333.997L264.379 293.611Z" fill="#FFCCD3"/>
<path d="M287.932 343.352L283.488 333.916C282.814 338.392 281.966 344.768 281.266 351.252C281.266 351.252 287.312 345.374 287.932 343.352Z" stroke="#0C3956" stroke-width="0.26" stroke-linecap="round" stroke-linejoin="round"/>
<path d="M357.178 383.28C355.495 365.095 350.566 339.524 350.256 322.89C350.068 312.591 352.532 289.971 354.135 271.922C353.771 269.792 353.273 267.514 352.64 265.182C349.866 254.654 339.079 221.439 336.103 212.3C334.042 211.949 331.901 211.572 329.962 211.113C335.079 222.356 342.082 252.012 342.082 252.012C329.154 258.59 312.523 255.934 312.523 255.934C308.837 238.218 299.192 222.302 285.199 210.844C283.165 211.76 281.024 212.731 278.95 213.782C287.623 220.779 304.725 235.35 304.914 259.614C305.116 286.035 295.635 300.836 286.316 304.166C286.157 312.66 285.478 321.137 284.283 329.549C284.081 330.614 283.825 332.164 283.542 334.037L287.986 343.473C287.313 345.374 281.28 351.44 281.28 351.44C280.714 356.751 280.256 362.13 280.095 366.592C279.866 372.442 280.607 392.905 281.441 412.572C282.62 440.775 281.408 469.026 277.819 497.024L272.217 560.704H288.377L311.943 456.584L323.781 414.648V454.05L325.127 560.663H342.028L353.65 454.05C353.65 454.05 358.875 401.451 357.178 383.28Z" fill="#00A651"/>
<path d="M268.083 301.429L287.932 343.352C287.932 343.352 285.01 349.351 281.307 351.359L252.03 308.614L268.083 301.429Z" fill="#FFCCD3"/>
<path d="M386.737 236.456C386.737 236.456 386.575 241.079 388.42 243.856" stroke="#0C3956" stroke-width="0.26" stroke-linecap="round" stroke-linejoin="round"/>
<path d="M264.379 293.611C264.379 293.611 260.85 292.627 259.544 293.611" stroke="#0C3956" stroke-width="0.26" stroke-linecap="round" stroke-linejoin="round"/>
<path d="M276.081 269.886L277.845 254.25" stroke="#0C3956" stroke-width="0.26" stroke-linecap="round" stroke-linejoin="round"/>
<path d="M355.332 247.712L353.568 236.928" stroke="#0C3956" stroke-width="0.26" stroke-linecap="round" stroke-linejoin="round"/>
<path d="M289.157 338.365C289.157 338.365 286.639 349.054 286.275 376.648C285.912 404.242 286.275 442.309 286.275 442.309L276.404 560.717" stroke="#0C3956" stroke-width="0.26" stroke-linecap="round" stroke-linejoin="round"/>
<path d="M323.78 414.702C323.78 414.702 334.405 380.489 335.092 376.648L341.556 371.552" stroke="#0C3956" stroke-width="0.26" stroke-linecap="round" stroke-linejoin="round"/>
<path d="M291.77 171.752C291.77 171.752 288.848 168.827 287.164 169.905C285.481 170.984 286.383 178.694 291.77 180.541C291.77 180.541 295.621 201.111 311.014 202.608C326.406 204.104 327.174 179.772 327.174 179.772C327.174 179.772 329.167 180.999 330.406 177.616C331.645 174.232 327.942 166.98 326.864 168.18C326.864 168.18 326.716 143.228 310.085 143.39C293.453 143.552 290.235 163.596 291.77 171.752Z" fill="#FFCCD3"/>
<path d="M289.359 170.013C289.359 170.013 286.774 166.05 289.359 154.659C291.945 143.268 296.995 138.025 309.169 139.561C321.342 141.098 326.271 146.032 328.116 156.048C329.29 161.741 328.756 167.655 326.581 173.046C326.581 173.046 326.123 168.678 321.356 160.914C316.589 153.149 307.189 157.84 303.647 152.907C303.647 152.907 299.23 162.612 295.742 165.039C292.254 167.465 292.726 173.814 292.726 173.814L289.359 170.013Z" fill="#0C3956"/>
<path d="M297.628 194.236C297.628 194.236 303.728 202.068 311.014 202.607C312.975 202.859 314.967 202.586 316.789 201.817C318.61 201.047 320.195 199.808 321.383 198.226" stroke="#0C3956" stroke-width="0.26" stroke-linecap="round" stroke-linejoin="round"/>
<path d="M286.814 163.556C287.299 164.985 311.35 155.199 329.84 158.272C329.84 158.272 327.268 141.125 321.194 136.96C317.668 134.49 313.552 132.997 309.263 132.633C308.201 131.634 306.871 130.966 305.437 130.71C304.002 130.454 302.524 130.621 301.183 131.191C296.038 132.997 296.187 135.922 296.187 135.922C296.187 135.922 281.198 147.286 286.814 163.556Z" fill="#FAE625" stroke="#FAE625" stroke-width="0.95" stroke-linecap="round" stroke-linejoin="round"/>
<path d="M286.814 162.275C286.059 160.133 285.641 157.887 285.575 155.616C285.495 158.317 285.915 161.008 286.814 163.556C287.299 164.985 311.35 155.198 329.84 158.272C329.84 158.272 329.773 157.773 329.624 156.924C311.148 154.012 287.299 163.704 286.814 162.275Z" fill="#FAD225"/>
<path d="M296.187 135.922C296.187 135.922 299.742 138.618 299.742 141.57L295.231 136.717C295.231 136.717 294.746 136.636 296.187 135.922Z" fill="#FAD225"/>
<path d="M309.263 132.633C309.263 132.633 312.279 135.814 311.835 138.753C312.39 136.693 312.12 134.496 311.081 132.633C311.081 132.633 309.734 131.716 309.263 132.633Z" fill="#FAD225"/>
<path d="M288.188 560.717H271.947L253.713 569.668H286.949C287.266 569.668 287.579 569.599 287.867 569.466C288.155 569.334 288.412 569.141 288.619 568.9C288.826 568.66 288.978 568.378 289.067 568.073C289.155 567.768 289.177 567.448 289.13 567.134L288.188 560.717Z" fill="#0C3956"/>
<path d="M325.235 560.717H341.476L359.71 569.668H326.474C326.157 569.668 325.844 569.599 325.555 569.466C325.267 569.334 325.011 569.141 324.804 568.9C324.597 568.66 324.444 568.378 324.356 568.073C324.268 567.768 324.246 567.448 324.292 567.134L325.235 560.717Z" fill="#0C3956"/>
<path d="M409.442 185.542C409.442 185.542 410.142 176.524 406.829 177.454C406.829 177.454 405.483 173.841 402.789 176.672C402.789 176.672 400.257 173.841 398.009 176.483C398.009 176.483 394.197 174.03 393.228 176.375C392.258 178.721 392.581 186.014 393.955 186.31C395.329 186.607 395.221 184.207 395.221 184.207C395.221 184.207 395.127 189.977 396.635 190.071C398.143 190.165 398.251 188.265 398.251 188.265C398.251 188.265 398.601 190.273 399.773 190.071C400.944 189.869 401.119 187.874 401.119 187.874C401.119 187.874 401.806 188.898 403.368 187.874C404.93 186.849 405.132 183.83 405.132 183.83L409.442 185.542Z" fill="#FFCCD3"/>
<path d="M398.035 176.524C397.474 177.292 396.983 178.108 396.567 178.964C395.97 180.684 395.52 182.452 395.221 184.248" stroke="#0C3956" stroke-width="0.22" stroke-linecap="round" stroke-linejoin="round"/>
<path d="M398.277 188.332C398.277 188.332 399.328 176.874 402.816 176.739" stroke="#0C3956" stroke-width="0.22" stroke-linecap="round" stroke-linejoin="round"/>
<path d="M401.133 187.914C401.133 187.914 402.843 177.13 406.856 177.494" stroke="#0C3956" stroke-width="0.22" stroke-linecap="round" stroke-linejoin="round"/>
<path d="M405.173 183.83C405.173 183.83 406.91 181.134 407.691 181.633" stroke="#0C3956" stroke-width="0.22" stroke-linecap="round" stroke-linejoin="round"/>
<path d="M393.528 322.668L195.505 308.355L192.867 344.926L390.89 359.239L393.528 322.668Z" fill="#CECFFF"/>
<g opacity="0.33">
<path opacity="0.33" d="M203.078 315.786C204.282 314.387 205.884 313.39 207.67 312.928C209.427 312.467 211.257 312.352 213.057 312.591C214.872 312.83 216.653 313.283 218.363 313.939C220.073 314.586 221.716 315.422 223.372 316.19C230.058 319.155 237.14 321.13 244.394 322.054C258.884 324.049 273.549 323.672 288.161 323.577C295.5 323.648 302.817 324.401 310.017 325.828C313.609 326.537 317.135 327.543 320.561 328.834C322.278 329.481 323.94 330.266 325.531 331.18C327.152 332.048 328.581 333.236 329.732 334.671C330.314 335.397 330.649 336.289 330.688 337.219C330.681 337.682 330.581 338.14 330.394 338.563C330.206 338.987 329.935 339.369 329.597 339.686C328.043 340.669 326.315 341.346 324.507 341.681C320.951 342.471 317.354 343.07 313.734 343.474C306.462 344.323 299.163 344.822 291.864 345.037C284.565 345.253 277.239 345.307 269.927 345.037C262.608 344.857 255.318 344.045 248.138 342.611C246.345 342.215 244.588 341.669 242.886 340.98C242.028 340.626 241.214 340.174 240.462 339.632C239.676 339.099 239.082 338.329 238.765 337.435C238.636 336.974 238.619 336.489 238.715 336.02C238.811 335.551 239.017 335.112 239.317 334.739C239.922 334.021 240.669 333.438 241.512 333.027C243.17 332.226 244.921 331.633 246.724 331.261C250.31 330.516 253.947 330.038 257.605 329.832C261.254 329.589 264.917 329.508 268.58 329.535C275.897 329.562 283.204 330.089 290.45 331.113C292.264 331.376 294.063 331.741 295.837 332.204C296.732 332.429 297.6 332.755 298.422 333.175C298.799 333.404 299.311 333.674 299.351 334.267C299.267 334.754 299.003 335.192 298.611 335.494C297.109 336.574 295.412 337.352 293.615 337.785C291.864 338.311 290.073 338.715 288.228 339.066C284.63 339.724 280.997 340.174 277.347 340.414C273.702 340.706 270.038 340.674 266.398 340.319C265.49 340.214 264.591 340.047 263.705 339.821C262.802 339.635 261.942 339.278 261.173 338.769C260.794 338.502 260.462 338.174 260.19 337.799C260.03 337.611 259.942 337.372 259.942 337.125C259.942 336.877 260.03 336.638 260.19 336.451C260.891 335.846 261.752 335.458 262.668 335.332C266.281 334.744 269.947 334.545 273.603 334.739C273.603 334.739 273.603 334.739 273.603 334.739C269.951 334.56 266.29 334.768 262.682 335.359C261.783 335.496 260.94 335.878 260.244 336.464C260.104 336.635 260.028 336.849 260.028 337.071C260.028 337.292 260.104 337.506 260.244 337.677C260.503 338.047 260.827 338.367 261.2 338.621C261.962 339.122 262.812 339.475 263.705 339.659C264.592 339.872 265.492 340.029 266.398 340.131C270.036 340.454 273.696 340.454 277.333 340.131C280.975 339.867 284.599 339.395 288.187 338.715C289.979 338.365 291.756 337.947 293.493 337.435C295.253 336.989 296.915 336.221 298.395 335.17C298.737 334.909 298.967 334.529 299.042 334.105C299.042 333.741 298.624 333.445 298.247 333.242C297.441 332.837 296.592 332.525 295.715 332.312C293.941 331.855 292.143 331.5 290.329 331.247C283.09 330.241 275.793 329.719 268.486 329.684C261.187 329.483 253.888 330.057 246.71 331.396C244.928 331.753 243.199 332.337 241.566 333.135C240.772 333.557 240.079 334.145 239.532 334.86C239.255 335.197 239.064 335.596 238.974 336.023C238.885 336.451 238.901 336.893 239.021 337.313C239.319 338.155 239.881 338.879 240.623 339.376C241.354 339.914 242.145 340.366 242.98 340.724C244.665 341.419 246.409 341.96 248.191 342.341C255.348 343.739 262.61 344.528 269.9 344.7C277.199 345.01 284.511 344.997 291.81 344.781C299.109 344.566 306.421 344.094 313.68 343.271C317.299 342.871 320.895 342.282 324.453 341.506C326.248 341.183 327.963 340.515 329.503 339.538C330.159 338.908 330.541 338.047 330.567 337.138C330.515 336.234 330.186 335.368 329.624 334.658C328.466 333.245 327.044 332.073 325.436 331.207C323.848 330.304 322.191 329.529 320.481 328.888C317.063 327.607 313.545 326.611 309.963 325.909C302.785 324.533 295.496 323.82 288.187 323.779C273.59 323.941 258.897 324.265 244.394 322.202C237.138 321.27 230.057 319.285 223.372 316.311C221.716 315.53 220.087 314.707 218.39 314.047C216.687 313.397 214.916 312.945 213.111 312.699C211.311 312.454 209.481 312.564 207.724 313.022C205.945 313.468 204.346 314.451 203.145 315.84L203.078 315.786Z" fill="#0C3956"/>
<path opacity="0.33" d="M235.506 328.282C235.436 328.279 235.365 328.277 235.294 328.276C235.365 328.322 235.436 328.369 235.506 328.416V328.282Z" fill="#0C3956"/>
<path opacity="0.33" d="M232.274 340.414C229.792 340.158 227.293 340.09 224.8 340.211C223.562 340.211 222.309 340.306 221.07 340.373L217.326 340.67C214.826 340.849 212.314 340.786 209.826 340.481C207.334 340.192 204.888 339.599 202.54 338.715C204.929 339.426 207.376 339.922 209.852 340.198C212.329 340.479 214.821 340.592 217.313 340.535C219.804 340.454 222.282 340.117 224.787 340.009C226.038 339.942 227.293 339.942 228.544 340.009C229.794 340.027 231.039 340.167 232.261 340.427V340.427L232.274 340.414Z" fill="#0C3956"/>
<path opacity="0.33" d="M318.366 347.396C318.904 346.965 319.522 346.644 320.184 346.453C320.829 346.24 321.492 346.086 322.164 345.994C323.502 345.804 324.854 345.732 326.204 345.779C328.922 345.869 331.626 346.203 334.284 346.776C336.977 347.289 339.576 348.057 342.216 348.677C344.861 349.288 347.535 349.765 350.229 350.106C355.614 350.806 361.039 351.157 366.469 351.157C371.883 351.235 377.292 350.816 382.629 349.904V349.904C379.969 350.497 377.268 350.89 374.549 351.076C371.856 351.306 369.163 351.427 366.402 351.413C360.958 351.427 355.52 351.035 350.134 350.241C348.788 350.052 347.441 349.796 346.094 349.58C344.748 349.364 343.401 349.041 342.054 348.744C339.361 348.165 336.775 347.396 334.109 346.952C331.443 346.426 328.743 346.088 326.029 345.941C324.68 345.881 323.329 345.935 321.989 346.102C320.636 346.203 319.33 346.644 318.191 347.383V347.383L318.366 347.396Z" fill="#0C3956"/>
<path opacity="0.33" d="M379.586 343.635C378.996 342.887 378.134 342.402 377.189 342.287C376.259 342.13 375.315 342.08 374.374 342.139C372.497 342.285 370.633 342.573 368.799 343.002C365.028 343.447 361.211 343.297 357.487 342.557C353.757 341.95 350.08 341.061 346.431 340.104C342.781 339.146 339.145 338.068 335.563 336.882V336.814C341.608 333.998 348.126 332.339 354.78 331.921C358.104 331.739 361.435 331.739 364.759 331.921C368.084 332.06 371.393 332.457 374.657 333.107C375.477 333.287 376.282 333.526 377.068 333.822C377.469 333.977 377.846 334.191 378.185 334.455C378.374 334.597 378.518 334.788 378.603 335.008C378.639 335.127 378.649 335.252 378.632 335.375C378.616 335.499 378.574 335.617 378.508 335.723C377.943 336.38 377.192 336.85 376.354 337.071C375.561 337.342 374.751 337.563 373.93 337.731C370.658 338.352 367.335 338.673 364.005 338.688C362.335 338.688 360.679 338.688 359.009 338.553C357.339 338.487 355.689 338.16 354.12 337.583C353.916 337.507 353.734 337.382 353.589 337.22C353.443 337.058 353.339 336.864 353.285 336.653C353.248 336.435 353.281 336.212 353.381 336.015C353.48 335.818 353.64 335.659 353.838 335.561C354.583 335.17 355.397 334.927 356.235 334.846C357.884 334.662 359.546 334.612 361.204 334.698V334.698C359.549 334.628 357.891 334.7 356.248 334.914C355.428 334.986 354.63 335.224 353.905 335.615C353.726 335.702 353.581 335.846 353.491 336.023C353.401 336.201 353.372 336.403 353.407 336.599C353.458 336.792 353.556 336.969 353.693 337.115C353.829 337.26 353.999 337.37 354.188 337.434C355.741 337.988 357.374 338.288 359.022 338.324C360.679 338.445 362.335 338.459 363.991 338.419C367.304 338.353 370.605 338.015 373.862 337.408C374.669 337.246 375.465 337.034 376.246 336.774C377.024 336.569 377.725 336.143 378.266 335.547C378.468 335.237 378.266 334.887 377.997 334.644C377.682 334.401 377.332 334.205 376.96 334.064C376.189 333.77 375.397 333.536 374.59 333.364C371.339 332.714 368.044 332.313 364.732 332.164C361.422 331.982 358.104 331.982 354.794 332.164C351.481 332.34 348.193 332.837 344.976 333.647C341.725 334.417 338.565 335.533 335.55 336.976V336.855C342.726 339.203 350.056 341.055 357.487 342.395C361.175 343.161 364.961 343.339 368.705 342.921C370.553 342.509 372.431 342.239 374.32 342.112C375.267 342.06 376.217 342.124 377.148 342.301C378.096 342.421 378.96 342.904 379.559 343.649V343.649L379.586 343.635Z" fill="#0C3956"/>
<path opacity="0.33" d="M331.375 327.095C332.353 326.055 333.627 325.34 335.024 325.046C336.404 324.71 337.82 324.547 339.24 324.561C340.653 324.545 342.066 324.631 343.468 324.817C344.815 324.993 346.256 325.276 347.643 325.505C353.206 326.377 358.82 326.885 364.449 327.028L381.336 327.486C382.049 327.498 382.759 327.556 383.464 327.662C383.825 327.705 384.176 327.81 384.501 327.972L384.986 328.214L385.417 328.565C386.452 329.579 387.128 330.905 387.342 332.339C387.614 333.733 387.664 335.162 387.491 336.572C387.388 337.993 386.889 339.357 386.05 340.508V340.508C386.85 339.344 387.316 337.983 387.396 336.572C387.54 335.176 387.468 333.766 387.181 332.393C386.957 331.022 386.29 329.762 385.282 328.807C384.138 328.026 382.756 327.668 381.377 327.796C375.761 327.581 370.119 327.527 364.49 327.217C358.86 326.907 353.231 326.597 347.656 325.747C344.9 325.197 342.103 324.872 339.293 324.777C337.89 324.751 336.488 324.896 335.119 325.208C333.733 325.463 332.457 326.13 331.456 327.122L331.375 327.095Z" fill="#0C3956"/>
<path opacity="0.33" d="M248.421 316.837L259.827 318.185C263.625 318.63 267.436 319.061 271.247 319.318C275.058 319.574 278.896 319.816 282.707 319.978C286.518 320.14 290.356 320.248 294.181 320.18C290.359 320.376 286.529 320.376 282.707 320.18C278.874 320.036 275.049 319.776 271.233 319.398L259.8 318.32C257.901 318.145 256.003 317.902 254.104 317.646C252.205 317.39 250.306 317.147 248.421 316.824V316.837Z" fill="#0C3956"/>
</g>
<path d="M280.067 351.211C280.067 351.211 281.67 360.108 284.633 358.315C284.633 358.315 286.881 361.469 288.673 358.059C288.673 358.059 291.851 360.148 293.345 357.021C293.345 357.021 297.655 358.369 298.005 355.889C298.355 353.408 296.16 346.453 294.759 346.453C293.359 346.453 294.073 348.812 294.073 348.812C294.073 348.812 292.726 343.204 291.204 343.5C289.683 343.797 290.113 345.657 290.113 345.657C290.113 345.657 289.265 343.81 288.188 344.309C287.11 344.808 287.474 346.776 287.474 346.776C287.474 346.776 286.545 345.954 285.306 347.396C284.067 348.838 284.633 351.737 284.633 351.737L280.067 351.211Z" fill="#FFCCD3"/>
<path d="M293.399 357.021C293.742 356.147 294.008 355.245 294.194 354.325C294.326 352.529 294.303 350.725 294.127 348.933" stroke="#0C3956" stroke-width="0.22" stroke-linecap="round" stroke-linejoin="round"/>
<path d="M290.154 345.684C290.154 345.684 292.053 357.034 288.713 358.059" stroke="#0C3956" stroke-width="0.22" stroke-linecap="round" stroke-linejoin="round"/>
<path d="M287.515 346.79C287.515 346.79 288.619 357.708 284.633 358.315" stroke="#0C3956" stroke-width="0.22" stroke-linecap="round" stroke-linejoin="round"/>
<path d="M284.673 351.75C284.673 351.75 283.663 354.77 282.801 354.527" stroke="#0C3956" stroke-width="0.22" stroke-linecap="round" stroke-linejoin="round"/>
<path d="M765.541 274.227C764.789 280.657 763.547 287.02 761.824 293.26C758.673 303.694 754.862 315.732 753.071 321.663C751.726 326.977 750.781 332.384 750.243 337.839C747.028 338.779 743.595 338.642 740.466 337.448C740.466 337.448 741.812 313.804 743.159 298.909C744.477 287.13 746.424 275.431 748.99 263.861C755.306 265.64 762.039 273.647 765.541 274.227Z" fill="#FFCCD3"/>
<path d="M858.3 227.262C859.512 227.262 877.557 251.985 877.557 251.985C877.557 251.985 879.967 242.549 881.341 235.997C882.715 229.446 885.462 217.125 885.462 217.125L893.892 219.067C893.892 219.067 893.205 273.876 885.637 275.251C878.069 276.626 854.179 253.899 854.179 253.899L858.3 227.262Z" fill="#FFCCD3"/>
<path d="M877.556 251.985C877.149 253.348 877.149 254.801 877.556 256.164" stroke="#0C3956" stroke-width="0.26" stroke-linecap="round" stroke-linejoin="round"/>
<path d="M887.051 158.002L892.949 136.987" stroke="#0C3956" stroke-width="0.91" stroke-linecap="round" stroke-linejoin="round"/>
<path d="M866.689 204.724C866.785 205.83 867.261 206.868 868.036 207.663C869.53 209.145 872.237 211.235 874.877 210.359C878.822 209.011 880.896 206.611 883.105 207.366C885.313 208.121 899.44 222.194 903.157 221.628C906.873 221.062 907.197 209.496 903.938 205.802L890.282 197.108C890.282 197.108 891.454 192.673 890.484 191.837C888.986 190.916 887.409 190.131 885.771 189.492C885.771 189.492 892.639 158.312 891.387 157.005C890.171 156.18 888.794 155.624 887.347 155.374C886.318 155.103 885.228 155.185 884.251 155.608C883.274 156.031 882.468 156.77 881.96 157.706C877.476 166.212 865.383 190.139 866.689 204.724Z" fill="#FAE625"/>
<path d="M890.336 197.094L885.151 194.506L885.825 189.478" stroke="#0C3956" stroke-width="0.17" stroke-linecap="round" stroke-linejoin="round"/>
<path d="M886.606 209.9C886.606 209.9 887.536 202.001 889.219 202.486C890.902 202.972 888.977 211.922 888.977 211.922" stroke="#0C3956" stroke-width="0.17" stroke-linecap="round" stroke-linejoin="round"/>
<path d="M892.006 214.376C892.006 214.376 892.948 206.476 894.699 206.962C896.45 207.447 894.457 216.398 894.457 216.398" stroke="#0C3956" stroke-width="0.17" stroke-linecap="round" stroke-linejoin="round"/>
<path d="M876.815 168.112C877.246 168.315 883.737 172.156 889.541 171.469" stroke="#0C3956" stroke-width="0.17" stroke-linecap="round" stroke-linejoin="round"/>
<path d="M883.388 156.183C885.894 157.558 888.762 158.128 891.602 157.814" stroke="#0C3956" stroke-width="0.17" stroke-linecap="round" stroke-linejoin="round"/>
<path d="M878.068 168.786C878.068 168.786 882.391 158.932 884.142 156.573" stroke="#0C3956" stroke-width="0.17" stroke-linecap="round" stroke-linejoin="round"/>
<path d="M888.209 171.576C888.209 171.576 890.108 162.531 890.566 157.908" stroke="#0C3956" stroke-width="0.17" stroke-linecap="round" stroke-linejoin="round"/>
<path d="M880.398 169.959C880.398 169.959 884.708 159.108 885.637 157.167" stroke="#0C3956" stroke-width="0.17" stroke-linecap="round" stroke-linejoin="round"/>
<path d="M884.034 171.037C884.034 171.037 887.118 161.13 887.926 157.746" stroke="#0C3956" stroke-width="0.17" stroke-linecap="round" stroke-linejoin="round"/>
<path d="M866.688 204.724C868.428 204.877 870.099 205.474 871.542 206.458C872.985 207.443 874.151 208.781 874.93 210.345" stroke="#0C3956" stroke-width="0.17" stroke-linecap="round" stroke-linejoin="round"/>
<path d="M885.529 218.487C884.599 216.101 883.421 213.819 882.014 211.68C879.752 208.283 878.809 204.009 879.469 203.025C880.129 202.041 882.014 197.836 883.145 198.469C884.277 199.103 883.24 203.457 882.863 204.684C882.485 205.91 887.01 210.628 888.707 211.666C890.404 212.704 895.44 215.845 895.683 217.166C895.925 218.487 893.757 219.512 893.757 219.512L885.529 218.487Z" fill="#FFCCD3"/>
<path d="M805.806 255.867C805.806 255.867 822.424 258.563 835.352 251.944C835.352 251.944 828.403 222.288 823.232 211.046C819.986 210.278 817.28 209.28 816.499 207.811C816.255 207.381 816.052 206.93 815.893 206.463C813.576 209.361 809.604 212.69 803.961 212.016C798.358 211.274 793.134 208.773 789.04 204.872C788.787 205.379 788.445 205.835 788.03 206.22C786.751 207.312 782.899 208.916 778.469 210.884C792.442 222.316 802.089 238.189 805.806 255.867V255.867Z" fill="#CECFFF"/>
<path d="M766.2 277.974C767.278 275.535 768.369 272.825 769.405 269.886C769.405 269.886 779.25 292.074 779.559 299.462C779.559 300.81 779.559 302.36 779.559 304.126C788.878 300.796 798.413 285.995 798.157 259.574C797.968 235.31 780.866 220.711 772.193 213.742C767.332 216.196 762.847 218.999 761.218 222.005C758.39 227.222 752.222 246.957 747.63 262.243C751.535 266.948 758.74 274.78 766.2 277.974Z" fill="#CECFFF"/>
<path d="M815.906 206.409C814.56 202.365 814.667 195.328 814.667 195.328L790.966 193.172C790.966 193.172 791.195 201.03 789.054 204.818C793.148 208.719 798.372 211.22 803.975 211.963C809.604 212.596 813.576 209.307 815.906 206.409Z" fill="#FFCCD3"/>
<path d="M836.658 213.661C834.854 213.135 832.214 212.717 829.427 212.232C832.403 221.372 843.19 254.586 845.977 265.114C846.61 267.514 847.095 269.792 847.472 271.854C848.455 260.733 849.129 251.338 848.671 247.59C850.355 250.935 852.717 253.891 855.606 256.271C859.646 248.183 864.481 241.956 866.595 235.836C856.858 223.38 839.796 214.551 836.658 213.661Z" fill="#CECFFF"/>
<path d="M850.516 383.28C848.819 365.095 843.89 339.524 843.58 322.89C843.392 312.591 845.856 289.971 847.472 271.922C847.095 269.792 846.61 267.514 845.977 265.182C843.19 254.654 832.403 221.439 829.427 212.3C827.366 211.949 825.225 211.572 823.286 211.113C828.403 222.356 835.406 252.012 835.406 252.012C822.478 258.59 805.86 255.934 805.86 255.934C802.166 238.218 792.517 222.304 778.523 210.844C776.503 211.76 774.348 212.731 772.274 213.782C780.947 220.779 798.05 235.35 798.238 259.614C798.4 285.995 788.973 300.796 779.546 304.125C779.391 312.62 778.716 321.096 777.526 329.508C777.324 330.573 777.069 332.123 776.772 333.997C776.099 338.472 775.25 344.848 774.564 351.332C773.998 356.643 773.54 362.022 773.365 366.484C773.15 372.334 773.877 392.797 774.712 412.464C775.907 440.701 774.714 468.989 771.143 497.024L765.541 560.704H781.701L805.281 456.584L817.118 414.648V454.05L818.465 560.663H835.366L846.987 454.05C846.987 454.05 852.266 401.451 850.516 383.28ZM774.631 351.44C774.631 351.44 775.224 350.847 775.978 349.984C775.224 350.793 774.631 351.44 774.631 351.44ZM776.57 349.432C776.934 349.041 777.324 348.623 777.715 348.178C777.324 348.569 776.934 348.987 776.57 349.378V349.432Z" fill="#00A651"/>
<path d="M769.405 269.886L771.169 254.25" stroke="#0C3956" stroke-width="0.26" stroke-linecap="round" stroke-linejoin="round"/>
<path d="M848.67 247.712L846.893 236.928" stroke="#0C3956" stroke-width="0.26" stroke-linecap="round" stroke-linejoin="round"/>
<path d="M782.481 338.365C782.481 338.365 779.963 349.054 779.613 376.648C779.263 404.242 779.613 442.309 779.613 442.309L769.729 560.717" stroke="#0C3956" stroke-width="0.26" stroke-linecap="round" stroke-linejoin="round"/>
<path d="M817.118 414.702C817.118 414.702 827.73 380.489 828.43 376.648L834.894 371.552" stroke="#0C3956" stroke-width="0.26" stroke-linecap="round" stroke-linejoin="round"/>
<path d="M785.108 171.752C785.108 171.752 782.172 168.827 780.489 169.905C778.805 170.984 779.721 178.694 785.108 180.541C785.108 180.541 788.946 201.111 804.338 202.608C819.731 204.104 820.498 179.772 820.498 179.772C820.498 179.772 822.505 180.999 823.73 177.616C824.956 174.232 821.266 166.98 820.188 168.18C820.188 168.18 820.04 143.228 803.422 143.39C786.805 143.552 783.586 163.596 785.108 171.752Z" fill="#FFCCD3"/>
<path d="M782.657 170.013C782.657 170.013 780.071 166.05 782.657 154.659C785.243 143.268 790.32 138.025 802.44 139.561C814.56 141.098 819.556 146.032 821.401 156.048C822.596 161.734 822.09 167.646 819.946 173.046C819.946 173.046 819.488 168.678 814.721 160.914C809.954 153.149 800.554 157.84 797.026 152.907C797.026 152.907 792.595 162.612 789.107 165.039C785.62 167.465 786.091 173.814 786.091 173.814L782.657 170.013Z" fill="#0C3956"/>
<path d="M790.952 194.236C790.952 194.236 797.053 202.068 804.338 202.607C806.299 202.859 808.292 202.586 810.113 201.817C811.934 201.047 813.52 199.808 814.707 198.226" stroke="#0C3956" stroke-width="0.26" stroke-linecap="round" stroke-linejoin="round"/>
<path d="M780.138 163.556C780.623 164.985 804.675 155.198 823.164 158.272C823.164 158.272 820.592 141.125 814.532 136.96C811.005 134.491 806.889 132.998 802.601 132.633C801.537 131.637 800.208 130.971 798.774 130.715C797.34 130.459 795.863 130.624 794.521 131.19C789.377 132.997 789.525 135.922 789.525 135.922C789.525 135.922 774.536 147.285 780.138 163.556Z" fill="#FAE625" stroke="#FAE625" stroke-width="0.95" stroke-linecap="round" stroke-linejoin="round"/>
<path d="M780.139 162.275C779.391 160.131 778.973 157.886 778.9 155.616C778.82 158.317 779.241 161.008 780.139 163.556C780.624 164.985 804.675 155.198 823.165 158.272C823.165 158.272 823.165 157.773 822.95 156.924C804.487 154.012 780.624 163.704 780.139 162.275Z" fill="#FAD225"/>
<path d="M789.511 135.922C789.511 135.922 793.066 138.618 793.066 141.57L788.555 136.717C788.555 136.717 788.07 136.636 789.511 135.922Z" fill="#FAD225"/>
<path d="M802.601 132.633C802.601 132.633 805.604 135.814 805.173 138.753C805.72 136.69 805.445 134.496 804.405 132.633C804.405 132.633 803.058 131.716 802.601 132.633Z" fill="#FAD225"/>
<path d="M781.512 560.717H765.271L747.037 569.668H780.273C780.59 569.668 780.903 569.599 781.191 569.466C781.48 569.334 781.736 569.141 781.943 568.9C782.15 568.66 782.303 568.378 782.391 568.073C782.479 567.768 782.501 567.448 782.454 567.134L781.512 560.717Z" fill="#0C3956"/>
<path d="M818.6 560.717H834.76L853.007 569.668H819.798C819.481 569.668 819.168 569.599 818.88 569.466C818.591 569.334 818.335 569.141 818.128 568.9C817.921 568.66 817.768 568.378 817.68 568.073C817.592 567.768 817.57 567.448 817.617 567.134L818.6 560.717Z" fill="#0C3956"/>
<path d="M734.163 364.691V356.832C734.163 356.524 734.224 356.219 734.341 355.935C734.459 355.65 734.632 355.392 734.849 355.174C735.067 354.956 735.325 354.783 735.61 354.665C735.894 354.547 736.199 354.487 736.506 354.487H754.35C754.964 354.497 755.55 354.749 755.981 355.188C756.411 355.627 756.653 356.217 756.652 356.832V364.732" stroke="#0C3956" stroke-width="2.55" stroke-linecap="round" stroke-linejoin="round"/>
<path d="M794.669 384.615H793.646L787.343 366.754C787.134 366.152 786.743 365.63 786.224 365.261C785.706 364.891 785.085 364.692 784.448 364.691H702.396C701.759 364.69 701.137 364.888 700.618 365.258C700.099 365.628 699.708 366.151 699.5 366.754L693.198 384.615H692.175C691.592 384.615 691.034 384.846 690.622 385.258C690.211 385.67 689.979 386.229 689.979 386.812V391.058H796.864V386.812C796.864 386.229 796.633 385.67 796.222 385.258C795.81 384.846 795.252 384.615 794.669 384.615Z" fill="#FAD225"/>
<path d="M692.175 397.502H693.198L699.5 415.376C699.712 415.975 700.104 416.494 700.623 416.861C701.141 417.228 701.761 417.425 702.396 417.425H784.448C785.083 417.423 785.701 417.225 786.219 416.859C786.738 416.492 787.13 415.974 787.343 415.376L793.646 397.502H794.669C795.252 397.502 795.81 397.27 796.222 396.858C796.633 396.446 796.864 395.887 796.864 395.304V391.058H689.979V395.304C689.979 395.887 690.211 396.446 690.622 396.858C691.034 397.27 691.592 397.502 692.175 397.502V397.502Z" fill="#0C3956"/>
<path d="M693.197 384.615H793.645" stroke="#0C3956" stroke-width="0.22" stroke-linecap="round" stroke-linejoin="round"/>
<path d="M716.495 388.429H713.855C712.888 388.429 712.104 389.214 712.104 390.182V398.095C712.104 399.062 712.888 399.847 713.855 399.847H716.495C717.462 399.847 718.245 399.062 718.245 398.095V390.182C718.245 389.214 717.462 388.429 716.495 388.429Z" fill="#FAD225"/>
<path d="M772.974 388.429H770.335C769.368 388.429 768.584 389.214 768.584 390.182V398.095C768.584 399.062 769.368 399.847 770.335 399.847H772.974C773.941 399.847 774.725 399.062 774.725 398.095V390.182C774.725 389.214 773.941 388.429 772.974 388.429Z" fill="#FAD225"/>
<path d="M724.696 364.691L724.117 367.926C723.994 368.623 723.629 369.253 723.087 369.707C722.545 370.16 721.861 370.408 721.154 370.407H700.847" stroke="#0C3956" stroke-width="0.22" stroke-linecap="round" stroke-linejoin="round"/>
<path d="M762.134 364.691L762.713 367.926C762.836 368.623 763.201 369.253 763.743 369.707C764.285 370.16 764.969 370.408 765.676 370.407H785.983" stroke="#0C3956" stroke-width="0.22" stroke-linecap="round" stroke-linejoin="round"/>
<path d="M740.601 335.332C740.541 339.015 739.662 342.639 738.029 345.94V346.008C737.369 347.338 737.08 348.822 737.194 350.303C737.308 351.783 737.82 353.206 738.675 354.419C740.601 357.115 741.072 357.708 741.57 356.778C741.57 356.778 742.607 360.822 745.61 359.784C745.61 359.784 747.711 362.319 749.246 360.647C749.246 360.647 750.983 361.995 752.344 361.119C753.704 360.243 753.69 353.489 753.69 353.489L757.73 354.446C756.631 352.533 755.888 350.437 755.535 348.259C755.023 344.808 755.535 344.997 754.619 343.056C753.704 341.115 749.973 337.866 750.014 336.316L740.587 334.361L740.601 335.332Z" fill="#FFCCD3"/>
<path d="M749.205 360.647C748.85 359.354 748.607 358.032 748.478 356.697C748.303 354.595 748.384 351.872 748.384 351.872" stroke="#0C3956" stroke-width="0.23" stroke-linecap="round" stroke-linejoin="round"/>
<path d="M745.569 359.784C745.569 359.784 743.792 354.055 743.926 352.236" stroke="#0C3956" stroke-width="0.23" stroke-linecap="round" stroke-linejoin="round"/>
<path d="M741.543 356.832C740.909 355.337 740.456 353.771 740.196 352.168" stroke="#0C3956" stroke-width="0.23" stroke-linecap="round" stroke-linejoin="round"/>
<path d="M753.65 353.489C753.655 352.339 753.574 351.19 753.407 350.052" stroke="#0C3956" stroke-width="0.23" stroke-linecap="round" stroke-linejoin="round"/>
<path d="M516.334 503.295L444.737 291.927L405.775 305.15L477.372 516.519L516.334 503.295Z" fill="#CECFFF"/>
<g opacity="0.33">
<path opacity="0.33" d="M440.388 303.034C442.36 303.673 444.09 304.9 445.344 306.552C446.58 308.194 447.494 310.055 448.037 312.038C448.3 313.032 448.503 314.04 448.644 315.058C448.807 316.074 448.897 317.102 448.913 318.131C448.994 320.18 448.846 322.175 448.778 324.292C448.626 332.515 449.674 340.716 451.889 348.636C456.144 364.516 462.945 379.546 469.396 394.63C472.534 402.239 474.959 410.122 476.641 418.18C477.475 422.207 477.975 426.296 478.135 430.406C478.208 432.463 478.118 434.523 477.866 436.566C477.676 438.628 477.076 440.631 476.102 442.457C475.603 443.376 474.825 444.113 473.88 444.56C473.4 444.76 472.885 444.863 472.365 444.863C471.845 444.863 471.33 444.76 470.85 444.56C469.954 444.038 469.16 443.357 468.507 442.552C467.82 441.783 467.16 440.974 466.581 440.152C464.201 436.802 462.007 433.324 460.009 429.732C455.969 422.574 452.293 415.214 448.832 407.76C445.371 400.305 442.18 392.73 439.298 385.032C436.281 377.373 433.934 369.467 432.282 361.402C431.902 359.375 431.703 357.318 431.689 355.255C431.668 354.217 431.777 353.18 432.012 352.168C432.222 351.128 432.76 350.183 433.547 349.472C433.97 349.136 434.466 348.906 434.996 348.8C435.525 348.695 436.072 348.717 436.591 348.866C437.588 349.173 438.506 349.693 439.284 350.389C440.841 351.753 442.22 353.306 443.392 355.012C445.731 358.4 447.81 361.96 449.613 365.662C451.458 369.342 453.128 373.089 454.704 376.891C457.872 384.483 460.518 392.284 462.622 400.238C463.139 402.232 463.548 404.252 463.847 406.29C464.009 407.32 464.05 408.365 463.969 409.404C463.979 409.685 463.918 409.963 463.791 410.213C463.663 410.464 463.474 410.677 463.241 410.833C462.702 410.959 462.135 410.877 461.652 410.604C459.882 409.515 458.337 408.097 457.101 406.425C455.754 404.835 454.596 403.163 453.451 401.451C451.193 398.018 449.134 394.458 447.283 390.788C445.387 387.134 443.818 383.317 442.597 379.384C442.311 378.397 442.086 377.393 441.924 376.378C441.728 375.359 441.728 374.311 441.924 373.291C442.028 372.784 442.224 372.3 442.503 371.862C442.624 371.623 442.824 371.433 443.07 371.324C443.315 371.216 443.591 371.197 443.849 371.269C444.341 371.451 444.778 371.757 445.115 372.159C445.472 372.534 445.8 372.935 446.098 373.359C448.281 376.846 450.087 380.556 451.485 384.426V384.426C450.083 380.566 448.278 376.865 446.098 373.386C445.57 372.511 444.804 371.806 443.89 371.35C443.651 371.281 443.396 371.298 443.169 371.4C442.942 371.501 442.759 371.679 442.651 371.903C442.388 372.317 442.197 372.773 442.085 373.251C441.897 374.253 441.897 375.282 442.085 376.284C442.249 377.299 442.474 378.302 442.759 379.29C443.996 383.206 445.578 387.004 447.485 390.64C449.34 394.3 451.408 397.846 453.68 401.262C454.825 402.961 456.023 404.619 457.33 406.21C458.559 407.821 460.075 409.192 461.8 410.254C462.211 410.478 462.687 410.555 463.147 410.469C463.511 410.294 463.645 409.741 463.686 409.256C463.755 408.243 463.71 407.226 463.551 406.223C463.246 404.198 462.832 402.191 462.312 400.211C460.194 392.279 457.548 384.497 454.394 376.917C452.832 373.116 451.162 369.369 449.33 365.702C447.533 362.013 445.457 358.467 443.122 355.093C441.977 353.403 440.619 351.867 439.082 350.524C438.327 349.859 437.442 349.358 436.483 349.054C436.01 348.917 435.511 348.896 435.029 348.992C434.546 349.088 434.093 349.299 433.709 349.607C432.975 350.281 432.479 351.175 432.295 352.155C432.06 353.143 431.951 354.158 431.972 355.174C431.987 357.223 432.186 359.267 432.564 361.281C434.208 369.323 436.532 377.21 439.513 384.857C442.382 392.554 445.573 400.13 448.94 407.598C452.306 415.066 456.023 422.426 460.05 429.584C462.034 433.175 464.214 436.654 466.581 440.004C467.201 440.826 467.82 441.635 468.507 442.403C469.149 443.193 469.93 443.86 470.81 444.371C471.754 444.762 472.814 444.762 473.759 444.371C474.674 443.925 475.427 443.204 475.913 442.309C476.872 440.497 477.463 438.514 477.651 436.472C477.893 434.433 477.974 432.377 477.893 430.325C477.716 426.224 477.207 422.145 476.371 418.126C474.67 410.089 472.226 402.228 469.072 394.644C462.541 379.6 455.794 364.529 451.566 348.596C449.377 340.658 448.356 332.443 448.536 324.211C448.617 322.148 448.765 320.099 448.697 318.05C448.644 315.997 448.354 313.958 447.835 311.971C447.294 309.991 446.38 308.134 445.142 306.498C443.896 304.853 442.176 303.629 440.213 302.993C440.213 302.993 440.213 302.993 440.213 302.993L440.388 303.034Z" fill="#0C3956"/>
<path opacity="0.33" d="M421.872 309.329C422.43 312.595 423.209 315.82 424.202 318.981C425.179 322.136 426.608 325.132 428.444 327.877C429.369 329.244 430.511 330.45 431.824 331.45C433.171 332.461 434.517 333.256 435.864 334.226C437.231 335.188 438.412 336.389 439.352 337.772C440.259 339.166 441.018 340.653 441.614 342.207H441.533C442.244 338.485 442.412 334.68 442.032 330.91C441.71 327.136 440.835 323.429 439.433 319.911C438.744 318.159 437.745 316.547 436.483 315.152C435.857 314.482 435.046 314.013 434.154 313.804C433.71 313.74 433.257 313.815 432.857 314.017C432.457 314.22 432.129 314.541 431.918 314.937C431.555 315.789 431.368 316.706 431.368 317.633C431.368 318.559 431.555 319.476 431.918 320.329C432.564 322.126 433.869 323.611 435.568 324.48V324.48C433.815 323.657 432.453 322.182 431.77 320.369C431.443 319.47 431.235 318.532 431.151 317.579C431.051 316.603 431.238 315.619 431.689 314.748C431.922 314.3 432.288 313.936 432.737 313.707C433.186 313.477 433.695 313.393 434.194 313.467C435.156 313.684 436.033 314.181 436.712 314.896C437.998 316.324 439.015 317.972 439.715 319.762C441.127 323.316 442.007 327.059 442.328 330.87C442.648 334.67 442.425 338.496 441.668 342.234C441.66 342.253 441.647 342.269 441.631 342.281C441.614 342.293 441.594 342.3 441.574 342.301C440.999 340.752 440.259 339.269 439.365 337.879C438.436 336.511 437.258 335.331 435.891 334.402C434.544 333.458 433.076 332.663 431.743 331.706C430.404 330.7 429.232 329.49 428.269 328.12C426.388 325.352 424.956 322.304 424.027 319.088C423.052 315.916 422.336 312.671 421.886 309.383C421.886 309.383 421.886 309.383 421.886 309.383L421.872 309.329Z" fill="#0C3956"/>
<path opacity="0.33" d="M427.663 344.026C426.845 341.341 425.823 338.723 424.606 336.194C424.04 334.914 423.434 333.66 422.814 332.393L420.875 328.659C419.61 326.138 418.587 323.502 417.818 320.787C417.028 318.085 416.576 315.296 416.472 312.483V312.483C416.775 315.272 417.325 318.028 418.115 320.719C418.903 323.407 419.875 326.037 421.023 328.592C422.208 331.126 423.622 333.566 424.835 336.1C425.453 337.365 426.006 338.661 426.491 339.982C427.018 341.288 427.415 342.643 427.676 344.026H427.663Z" fill="#0C3956"/>
<path opacity="0.33" d="M458.056 436.229C458.735 436.593 459.331 437.093 459.807 437.699C460.312 438.276 460.763 438.899 461.154 439.559C461.939 440.872 462.606 442.253 463.147 443.684C464.247 446.546 465.09 449.501 465.665 452.513C466.285 455.506 466.635 458.539 467.146 461.558C467.658 464.578 468.372 467.53 469.166 470.482C470.799 476.368 472.815 482.141 475.2 487.764C477.483 493.423 480.283 498.861 483.562 504.007V504.007C481.783 501.522 480.198 498.904 478.822 496.175C477.395 493.479 476.093 490.711 474.917 487.871C472.526 482.239 470.559 476.435 469.032 470.509C468.628 469.04 468.318 467.544 467.968 466.061C467.618 464.578 467.348 463.068 467.079 461.558C466.527 458.552 466.123 455.519 465.463 452.54C464.839 449.557 464.011 446.621 462.985 443.751C462.465 442.323 461.82 440.943 461.06 439.626C460.361 438.274 459.339 437.116 458.083 436.256V436.256C458.083 436.256 458.043 436.229 458.056 436.229Z" fill="#0C3956"/>
<path opacity="0.33" d="M488.667 498.009C489.169 497.069 489.28 495.97 488.977 494.949C488.741 493.919 488.379 492.923 487.899 491.983C486.938 490.102 485.83 488.299 484.586 486.591C482.481 482.883 480.972 478.866 480.115 474.688C479.105 470.55 478.419 466.357 477.813 462.152C477.207 457.946 476.749 453.727 476.466 449.494C476.459 449.482 476.455 449.468 476.455 449.454C476.455 449.439 476.459 449.425 476.466 449.413V449.413C482.017 454.453 486.583 460.483 489.933 467.193C491.579 470.548 493.04 473.99 494.309 477.505C495.62 481.013 496.651 484.619 497.393 488.289C497.583 489.213 497.691 490.151 497.716 491.093C497.729 491.575 497.675 492.056 497.555 492.522C497.484 492.776 497.349 493.008 497.164 493.196C497.057 493.286 496.932 493.352 496.797 493.39C496.663 493.427 496.521 493.434 496.383 493.412C495.461 493.107 494.65 492.534 494.053 491.767C493.434 491.062 492.858 490.319 492.33 489.543C490.23 486.43 488.427 483.126 486.943 479.676C486.202 477.964 485.502 476.225 484.91 474.459C484.251 472.7 483.87 470.849 483.778 468.973C483.768 468.727 483.816 468.483 483.919 468.26C484.022 468.037 484.177 467.843 484.371 467.692C484.578 467.567 484.818 467.509 485.059 467.525C485.3 467.542 485.53 467.634 485.718 467.786C486.446 468.387 487.05 469.124 487.495 469.957C488.418 471.584 489.198 473.289 489.825 475.052C489.175 473.326 488.382 471.658 487.455 470.064C487.015 469.247 486.415 468.527 485.691 467.948C485.523 467.804 485.314 467.717 485.093 467.7C484.873 467.683 484.653 467.737 484.465 467.854C484.29 467.991 484.151 468.171 484.061 468.375C483.972 468.58 483.935 468.804 483.953 469.027C484.06 470.874 484.455 472.694 485.125 474.419C485.745 476.171 486.472 477.896 487.212 479.595C488.732 483.002 490.534 486.275 492.599 489.381C493.118 490.148 493.685 490.882 494.296 491.579C494.849 492.284 495.592 492.817 496.437 493.115C496.855 493.196 497.137 492.873 497.259 492.455C497.37 492.014 497.42 491.561 497.407 491.107C497.375 490.201 497.271 489.3 497.097 488.411C496.357 484.743 495.335 481.137 494.04 477.627C492.803 474.109 491.373 470.662 489.758 467.301C488.124 463.947 486.176 460.756 483.94 457.771C481.726 454.769 479.203 452.008 476.412 449.534H476.533C477.243 457.993 478.53 466.392 480.385 474.675C481.199 478.83 482.667 482.829 484.735 486.524C485.968 488.233 487.066 490.036 488.02 491.916C488.486 492.877 488.834 493.891 489.057 494.935C489.201 495.449 489.242 495.986 489.177 496.516C489.112 497.046 488.944 497.558 488.68 498.022V498.022L488.667 498.009Z" fill="#0C3956"/>
<path opacity="0.33" d="M484.627 440.867C486.133 441.416 487.428 442.425 488.33 443.751C489.274 445.032 490.06 446.422 490.673 447.89C491.299 449.354 491.825 450.858 492.249 452.392C492.68 453.915 492.99 455.479 493.367 457.016C494.888 463.16 496.809 469.199 499.117 475.092L506.012 492.778C506.312 493.521 506.564 494.282 506.766 495.056C506.88 495.45 506.921 495.861 506.887 496.269V496.89L506.712 497.469C506.12 498.985 505.052 500.267 503.669 501.122C502.337 502.003 500.88 502.675 499.346 503.117C497.832 503.639 496.201 503.714 494.646 503.333V503.333C496.192 503.656 497.798 503.534 499.279 502.983C500.787 502.533 502.215 501.846 503.507 500.947C504.827 500.11 505.839 498.866 506.389 497.402C506.698 495.879 506.464 494.295 505.729 492.926C503.507 487.009 501.097 481.145 498.996 475.173C496.895 469.202 494.727 463.244 493.165 457.097C492.514 454 491.613 450.962 490.471 448.011C489.889 446.548 489.129 445.163 488.209 443.886C487.34 442.565 486.098 441.533 484.64 440.921V440.921L484.627 440.867Z" fill="#0C3956"/>
<path opacity="0.33" d="M459.04 350.456L462.676 362.844C463.861 366.983 465.087 371.108 466.487 375.179C467.888 379.25 469.288 383.267 470.796 387.311C472.305 391.355 473.853 395.399 475.591 399.294C473.696 395.427 472.005 391.463 470.527 387.418C469.019 383.374 467.605 379.33 466.339 375.206L462.461 362.885C461.801 360.836 461.222 358.76 460.656 356.684C460.09 354.608 459.525 352.532 459.04 350.443V350.456Z" fill="#0C3956"/>
</g>
<path d="M447.62 463.324L441.533 453.443L436.685 445.665L433.022 447.957L434.369 452.54L431.218 449.062L423.501 453.888C423.501 453.888 427.016 461.895 427.312 462.367C427.609 462.839 421.724 454.993 421.724 454.993L417.684 457.514L420.66 463.877L416.135 458.485L411.287 461.518L411.853 462.421L422.276 479.123C423.432 480.979 424.987 482.553 426.828 483.733L449.721 469.431C449.475 467.266 448.758 465.181 447.62 463.324V463.324Z" fill="#FFCCD3"/>
<path d="M449.748 469.404L426.854 483.706C428.724 484.906 430.836 485.677 433.038 485.966C435.24 486.255 437.478 486.054 439.594 485.378C439.65 485.522 439.718 485.662 439.796 485.795L454.394 509.156C454.904 509.971 455.717 510.551 456.653 510.768C457.589 510.985 458.573 510.822 459.39 510.316C459.794 510.064 460.145 509.734 460.422 509.347C460.7 508.959 460.898 508.52 461.005 508.055C461.113 507.591 461.128 507.11 461.049 506.639C460.971 506.169 460.801 505.719 460.548 505.314L445.95 481.9C445.859 481.768 445.76 481.642 445.654 481.522C447.188 479.93 448.351 478.018 449.059 475.923C449.766 473.827 450.002 471.601 449.748 469.404V469.404Z" fill="#0C3956"/>
<path d="M420.686 463.863L426.854 472.41L418.666 456.894L417.71 457.501L420.686 463.863Z" fill="#C97F89"/>
<path d="M434.341 452.54L439.014 458.997L433.695 447.512L432.968 447.957L434.341 452.54Z" fill="#C97F89"/>
<path d="M427.312 462.354L428.632 464.659L424.498 453.255L423.501 453.875L427.312 462.354Z" fill="#C97F89"/>
<path d="M503.843 424.421L506.429 424.138L507.641 435.488C507.848 437.381 507.588 439.297 506.884 441.067C506.179 442.836 505.052 444.406 503.601 445.638L483.993 462.057C483.522 462.427 483.152 462.91 482.917 463.462C482.682 464.013 482.589 464.615 482.647 465.211L483.145 469.983" stroke="#0C3956" stroke-width="1.1" stroke-linecap="round" stroke-linejoin="round"/>
<path d="M501.3 418.635L419.68 427.323C417.181 427.589 415.37 429.833 415.636 432.336L415.938 435.177C416.203 437.68 418.445 439.492 420.945 439.226L502.564 430.538C505.064 430.272 506.875 428.028 506.609 425.526L506.307 422.684C506.041 420.182 503.799 418.369 501.3 418.635Z" fill="#0C3956"/>
<path d="M488.047 516.098C486.942 516.212 485.837 515.883 484.974 515.183C484.111 514.483 483.56 513.47 483.441 512.365L479.293 473.273C479.195 472.178 479.529 471.087 480.224 470.236C480.918 469.384 481.918 468.839 483.01 468.716V468.716C484.115 468.599 485.221 468.925 486.087 469.622C486.953 470.319 487.507 471.331 487.629 472.437L491.763 511.529C491.869 512.627 491.538 513.722 490.842 514.578C490.147 515.433 489.142 515.979 488.047 516.098V516.098Z" fill="#B6CCFE"/>
<path d="M493.704 414.699L426.293 421.875C422.381 422.291 419.546 425.803 419.962 429.72L420.716 436.811C421.132 440.727 424.64 443.564 428.553 443.147L495.964 435.972C499.876 435.555 502.711 432.043 502.295 428.127L501.541 421.036C501.125 417.12 497.616 414.283 493.704 414.699Z" fill="#A5BFFC"/>
<path d="M518.805 563.791C496.862 571.239 473.078 571.239 451.135 563.791V480.848H518.805V563.791Z" fill="#B6CCFE"/>
<path d="M451.135 480.848C451.135 480.848 456.346 527.044 484.977 527.044C513.607 527.044 518.805 480.848 518.805 480.848" stroke="#0C3956" stroke-width="0.26" stroke-linecap="round" stroke-linejoin="round"/>
<path d="M452.845 480.848C452.62 480.846 452.398 480.889 452.189 480.973C451.981 481.058 451.792 481.182 451.632 481.34C451.471 481.498 451.344 481.686 451.256 481.893C451.169 482.1 451.123 482.322 451.121 482.547C451.121 488.788 451.283 509.965 455.336 509.83C460.09 509.695 458.03 495.083 461.019 495.339C462.743 495.487 462.756 497.334 463.281 498.574C464.224 500.812 465.786 500.165 466.81 498.426C468.008 496.404 467.577 494.032 468.251 491.834C468.349 491.497 468.544 491.196 468.812 490.969C469.08 490.741 469.409 490.598 469.758 490.556C470.107 490.515 470.46 490.577 470.774 490.734C471.088 490.892 471.348 491.139 471.523 491.443C471.834 492.01 472.005 492.644 472.021 493.29C472.277 496.768 471.038 500.152 471.267 503.616C471.242 505.262 471.774 506.867 472.776 508.172C475.469 510.868 477.435 506.635 478.162 504.627C479.056 501.508 479.478 498.273 479.415 495.029C479.415 494.045 479.159 490.796 480.465 490.446C482.795 489.826 483.98 495.177 484.64 496.552C485.892 499.154 488.68 499.141 488.922 496.013C489 493.985 489.836 492.061 491.265 490.621C491.516 490.386 491.818 490.212 492.147 490.115C492.476 490.017 492.824 489.999 493.162 490.06C493.5 490.122 493.819 490.262 494.093 490.47C494.367 490.677 494.588 490.946 494.74 491.255C495.682 492.603 495.022 494.908 494.74 496.35C493.662 501.917 491.669 509.237 494.861 514.467C496.208 516.718 499.709 519.05 502.443 517.851C504.288 517.042 504.88 514.777 505.136 512.958C505.796 508.617 504.894 504.249 504.476 499.936C503.668 491.538 506.24 487.602 508.812 490.985C511.384 494.369 509.849 498.79 515.02 497.536C519.141 496.525 519.06 486.469 518.926 482.466C518.902 482.025 518.709 481.61 518.389 481.306C518.068 481.003 517.643 480.834 517.202 480.835L452.845 480.848Z" fill="#FAE625" stroke="#FAE625" stroke-width="1.18" stroke-miterlimit="10"/>
<path d="M484.976 485.337C503.667 485.337 518.818 483.303 518.818 480.794C518.818 478.285 503.667 476.251 484.976 476.251C466.286 476.251 451.135 478.285 451.135 480.794C451.135 483.303 466.286 485.337 484.976 485.337Z" fill="#CECFFF" stroke="#CECFFF" stroke-width="1.18" stroke-miterlimit="10"/>
<path d="M485.043 485.755C503.689 485.755 518.804 483.812 518.804 481.414C518.804 479.017 503.689 477.074 485.043 477.074C466.398 477.074 451.282 479.017 451.282 481.414C451.282 483.812 466.398 485.755 485.043 485.755Z" fill="#FAD225" stroke="#FAD225" stroke-width="1.15" stroke-miterlimit="10"/>
<path d="M457.868 565.368C440.959 571.104 422.633 571.104 405.725 565.368V501.419H457.868V565.368Z" fill="#CECFFF"/>
<path d="M405.725 501.419C405.725 501.419 409.765 537.006 431.796 537.006C453.828 537.006 457.868 501.419 457.868 501.419" stroke="#0C3956" stroke-width="0.26" stroke-linecap="round" stroke-linejoin="round"/>
<path d="M431.796 504.91C446.195 504.91 457.868 503.347 457.868 501.419C457.868 499.49 446.195 497.927 431.796 497.927C417.397 497.927 405.725 499.49 405.725 501.419C405.725 503.347 417.397 504.91 431.796 504.91Z" fill="#CECFFF" stroke="#CECFFF" stroke-width="0.91" stroke-miterlimit="10"/>
<path d="M431.851 505.233C446.22 505.233 457.868 503.737 457.868 501.89C457.868 500.044 446.22 498.547 431.851 498.547C417.482 498.547 405.833 500.044 405.833 501.89C405.833 503.737 417.482 505.233 431.851 505.233Z" fill="#B6CCFE"/>
<path d="M216.855 180.244L19.9051 180.501C15.6355 180.501 11.5394 178.809 8.51148 175.796C5.48359 172.783 3.77003 168.693 3.74513 164.419V115.554C3.74336 114.26 3.99623 112.978 4.48931 111.782C4.98239 110.586 5.70602 109.499 6.61888 108.582C7.53174 107.666 8.61596 106.939 9.80963 106.442C11.0033 105.945 12.283 105.688 13.5758 105.687L222.982 105.417C225.593 105.417 228.098 106.452 229.948 108.297C231.798 110.141 232.843 112.644 232.854 115.257V164.122C232.861 168.382 231.181 172.47 228.182 175.492C225.183 178.514 221.11 180.223 216.855 180.244Z" fill="#B6CCFE"/>
<path d="M209.125 180.244C209.123 178.007 208.681 175.793 207.824 173.727C206.967 171.661 205.711 169.785 204.129 168.205C202.547 166.625 200.67 165.373 198.604 164.519C196.538 163.666 194.324 163.229 192.09 163.232L44.6297 163.421C42.395 163.423 40.1826 163.865 38.1188 164.724C36.055 165.582 34.1804 166.838 32.6021 168.422C31.0238 170.006 29.7728 171.885 28.9205 173.953C28.0681 176.021 27.6312 178.236 27.6348 180.473" stroke="#0C3956" stroke-width="0.24" stroke-linecap="round" stroke-linejoin="round"/>
<path d="M43.7412 167.695L193.235 167.506" stroke="#0C3956" stroke-width="0.24" stroke-linecap="round" stroke-linejoin="round"/>
<path d="M43.6201 171.9L193.114 171.698" stroke="#0C3956" stroke-width="0.24" stroke-linecap="round" stroke-linejoin="round"/>
<path d="M43.498 176.093L192.992 175.904" stroke="#0C3956" stroke-width="0.24" stroke-linecap="round" stroke-linejoin="round"/>
<path d="M217.784 113.37H18.8812C15.3187 113.37 12.4307 116.261 12.4307 119.827V138.793C12.4307 142.359 15.3187 145.25 18.8812 145.25H217.784C221.346 145.25 224.234 142.359 224.234 138.793V119.827C224.234 116.261 221.346 113.37 217.784 113.37Z" stroke="#0C3956" stroke-width="0.24" stroke-linecap="round" stroke-linejoin="round"/>
<path d="M134.709 208.619C131.221 208.067 130.669 207.11 129.322 201.017C127.975 194.412 101.042 201.987 101.042 201.987C101.042 201.987 103.735 210.561 103.735 215.804C111.452 216.492 127.639 216.802 134.709 208.619Z" fill="#FFCCD3"/>
<path d="M80.3303 226.899C81.0634 221.323 82.2754 215.82 83.9529 210.453C86.7943 201.017 89.4338 193.306 89.4338 193.306L78.8894 191.743C78.8894 191.743 63.295 219.188 59.3627 228.678C55.4304 238.168 53.4508 241.686 61.046 250.542L61.5308 251.095C62.3809 245.806 64.5489 240.816 67.8347 236.587C71.1205 232.358 75.418 229.026 80.3303 226.899V226.899Z" fill="#FFCCD3"/>
<path d="M133.954 113.37L127.1 118.439C127.1 118.439 143.125 159.903 144.391 168.449C145.226 174.071 145.091 185.151 144.916 193.158C150.303 191.581 159.622 190.112 167.809 195.14C164.793 181.107 160.416 165.753 160.16 161.305C159.891 155.792 133.954 113.37 133.954 113.37Z" fill="#FFCCD3"/>
<path d="M144.916 193.158C144.821 197.337 144.7 200.68 144.7 201.987C144.7 205.802 140.027 209.321 135.677 208.727L134.708 208.593C127.638 216.775 111.451 216.465 103.735 215.777C103.808 216.422 103.749 217.075 103.561 217.696C103.374 218.317 103.061 218.894 102.644 219.39C99.4791 221.924 92.8131 228.152 87.7496 228.57C82.6861 228.988 80.3026 227.586 80.3026 227.586C80.3026 227.586 80.3026 227.33 80.3026 226.871C75.3802 228.991 71.0718 232.32 67.7762 236.55C64.4806 240.779 62.3045 245.773 61.4492 251.068C69.2599 259.614 85.6892 264.872 85.6892 264.872L93.0016 331.921L167.27 333.458C167.27 333.458 164.846 289.54 168.011 268.242C171.176 246.943 172.051 220.495 169.6 204.751C169.102 201.718 168.469 198.456 167.755 195.113C159.621 190.111 150.302 191.581 144.916 193.158Z" fill="#CECFFF"/>
<path d="M208.047 559.922H190.366L170.516 569.668H206.714C207.053 569.667 207.388 569.593 207.697 569.453C208.006 569.313 208.281 569.108 208.505 568.854C208.729 568.599 208.896 568.299 208.996 567.975C209.096 567.651 209.126 567.309 209.084 566.972L208.047 559.922Z" fill="#0C3956"/>
<path d="M94.3216 559.922H76.586L56.7227 569.668H92.921C93.2601 569.667 93.5951 569.593 93.9038 569.453C94.2125 569.313 94.488 569.108 94.712 568.854C94.936 568.599 95.1035 568.299 95.2033 567.975C95.3031 567.651 95.3331 567.309 95.2912 566.972L94.3216 559.922Z" fill="#0C3956"/>
<path d="M85.7834 264.899L84.5176 251.81" stroke="#161B43" stroke-width="0.31" stroke-miterlimit="10"/>
<path d="M144.095 166.953C144.495 166.062 145.15 165.308 145.976 164.788C146.803 164.268 147.765 164.003 148.741 164.028" stroke="#161B43" stroke-width="0.31" stroke-miterlimit="10"/>
<path d="M179.997 434.612C179.997 434.612 171.539 391.125 172.307 368.048C172.757 354.86 171.209 341.679 167.715 328.956L166.489 297.52C151.676 294.191 146.963 276.074 146.289 268.161L141.401 268.511C140.66 262.701 144.094 204.454 144.094 204.454C141.401 204.306 140.431 207.946 140.431 207.946C137.253 221.736 136.58 265.465 136.54 268.848L124.676 269.698C124.676 269.698 106.819 233.692 92.8538 226.831L87.7499 228.664C87.7499 228.664 107.075 238.02 118.602 270.129L113.956 270.452C111.559 290.106 89.0966 295.31 89.0966 295.31L92.5979 326.866C89.9529 340.984 88.4532 355.292 88.1135 369.652C87.7364 402.004 85.8107 434.679 85.8107 434.679L76.7207 560.043H94.0927L119.908 445.248C121.484 438.242 123.476 431.337 125.874 424.569L131.113 409.741L141.495 434.76L190.312 560.124H207.994L179.997 434.612Z" fill="#00A651"/>
<path d="M78.8884 191.743C78.7713 188.977 78.8432 186.208 79.1039 183.452C79.5079 181.457 83.5479 177.589 86.2278 177.616C86.2278 177.616 88.2478 173.787 90.0254 174.448C91.803 175.108 92.6244 181.08 94.1462 181.336C95.6679 181.592 97.9303 176.78 97.9303 176.78C97.9303 176.78 99.1558 182.873 97.9303 184.382C96.7812 185.978 95.4222 187.411 93.8903 188.642C92.1605 190.186 90.5447 191.852 89.0558 193.63L78.8884 191.743Z" fill="#FFCCD3"/>
<path d="M87.8847 170.215C87.3326 171.051 87.1845 180.204 90.8474 186.108C94.5103 192.012 93.0963 189.343 96.0455 198.348C97.5807 203.053 101.432 205.978 105.701 208.094C111.788 211.114 119.585 214.389 124.433 207.501C127.127 203.7 129.214 204.684 132.729 194.264C136.244 183.844 135.422 170.175 132.015 165.484C128.608 160.793 120.716 152.907 113.512 152.341C106.307 151.775 103.775 154.309 103.775 154.309C103.775 154.309 96.8805 153.325 93.0963 157.126C89.3122 160.928 87.8847 170.215 87.8847 170.215Z" fill="#0C3956"/>
<path d="M136.715 118.236C135.149 115.28 134.266 112.009 134.129 108.665V108.585C134.068 107.234 133.646 105.926 132.907 104.795C132.168 103.663 131.139 102.752 129.928 102.155C127.234 100.807 126.575 100.591 126.588 101.548C126.588 101.548 124.002 98.852 122.063 100.928C122.063 100.928 119.262 99.8226 118.777 101.818C118.777 101.818 116.825 101.548 116.084 102.815C115.343 104.082 118.333 109.474 118.333 109.555C118.055 109.018 117.66 108.551 117.178 108.187C116.695 107.823 116.137 107.572 115.545 107.452C115.238 107.405 114.924 107.433 114.63 107.533C114.32 107.654 114.32 107.628 114.374 107.897C114.537 108.206 114.741 108.491 114.98 108.746C116.326 110.674 117.673 112.602 119.154 114.502C121.08 117.023 120.582 117.104 122.157 118.25C123.733 119.396 128.137 120.339 128.783 121.593L137.132 119.032L136.715 118.236Z" fill="#FFCCD3"/>
<path d="M118.764 101.817C119.6 102.697 120.357 103.649 121.026 104.662C121.826 105.891 122.563 107.159 123.235 108.463" stroke="#0C3956" stroke-width="0.21" stroke-linecap="round" stroke-linejoin="round"/>
<path d="M122.05 100.928C122.05 100.928 125.982 104.716 126.669 106.225" stroke="#0C3956" stroke-width="0.21" stroke-linecap="round" stroke-linejoin="round"/>
<path d="M126.574 101.548C127.727 102.49 128.762 103.567 129.658 104.756" stroke="#0C3956" stroke-width="0.21" stroke-linecap="round" stroke-linejoin="round"/>
<path d="M118.333 109.488C118.835 110.425 119.402 111.326 120.03 112.184" stroke="#0C3956" stroke-width="0.21" stroke-linecap="round" stroke-linejoin="round"/>
<path d="M131.166 409.593L141.037 388.564L154.625 380.099" stroke="#0C3956" stroke-width="0.28" stroke-linecap="round" stroke-linejoin="round"/>
<path d="M100.287 329.306C100.287 329.306 96.2472 360.607 95.4257 382.148C94.6043 403.689 82.3496 559.922 82.3496 559.922" stroke="#0C3956" stroke-width="0.28" stroke-linecap="round" stroke-linejoin="round"/>
</svg>
