<svg width="208" height="33" viewBox="0 0 208 33" fill="none" xmlns="http://www.w3.org/2000/svg">
<path d="M142.296 20.7361H150.535L146.426 11.0139L142.296 20.7361Z" fill="#F7941D"/>
<path d="M201.497 4.06647L183.853 23.9769L170.573 11.6917L183.451 15.7585L200.565 3.43103C198.066 1.84244 195.122 0.931641 191.966 0.931641H132.086C126.96 0.931641 122.406 3.32512 119.483 7.07421H136.831V10.3785H129.883V28.9545H126.198V10.3785H117.471C116.56 12.3907 116.052 14.6147 116.052 16.9659C116.052 25.8196 123.233 33.0001 132.086 33.0001H191.966C200.82 33.0001 208 25.8196 208 16.9659C208 11.6917 205.437 6.98948 201.497 4.06647ZM180.168 7.07421H183.853V11.8824L183.281 14.1064L180.168 12.8355V7.07421ZM154.051 28.9545L151.954 24.0192H140.919L138.822 28.9545H134.967L144.626 7.07421H148.417L157.991 28.9756H154.051V28.9545ZM167.586 29.0815C164.155 29.0815 160.893 27.6836 158.648 25.6078L160.236 22.4094C162.481 24.464 165.299 25.6078 167.65 25.6078C170.213 25.6078 171.738 24.6335 171.738 22.9602C171.738 18.0885 159.919 20.7997 159.919 13.005C159.919 9.25588 163.138 6.90476 167.883 6.90476C169.111 6.90476 170.319 7.07421 171.462 7.37074L168.624 10.442C168.264 10.3997 167.925 10.3785 167.607 10.3785C165.447 10.3785 164.049 11.1834 164.049 12.6661C164.049 17.453 175.868 14.8901 175.847 22.7695C175.847 26.6669 172.415 29.0815 167.586 29.0815ZM183.853 28.9545H180.168V22.8966L183.853 26.3068V28.9545ZM194.762 28.9545L188.598 20.7149L191.14 17.8343L199.189 28.9545H194.762Z" fill="#F7941D"/>
<path d="M13.1747 11.9672C12.4969 10.8446 10.6542 9.78553 8.53605 9.78553C5.80367 9.78553 4.49043 10.9293 4.49043 12.3908C4.49043 14.0853 6.50265 14.5725 8.85377 14.8478C12.9206 15.3562 16.7332 16.4153 16.7332 21.0751C16.7332 25.4385 12.8782 27.3024 8.51487 27.3024C4.53279 27.3024 1.44033 26.0739 0 22.4943L3.07128 20.9057C3.93971 23.0662 6.20611 23.9982 8.57841 23.9982C10.8872 23.9982 13.0688 23.1933 13.0688 21.0751C13.0688 19.2324 11.1413 18.4698 8.53605 18.1945C4.55397 17.7285 0.868432 16.6694 0.868432 12.2849C0.868432 8.26048 4.82933 6.60834 8.43014 6.58716C11.4802 6.58716 14.6363 7.45559 16.1189 10.4633L13.1747 11.9672Z" fill="#00A651"/>
<path d="M35.5423 26.794H20.906C20.906 20.2913 20.906 13.7463 20.906 7.24365H35.5423V10.8233H24.5704V15.3137H35.161V18.7451H24.5704V23.172H35.5423V26.794Z" fill="#00A651"/>
<path d="M43.464 7.24365V23.3838H53.5251V26.794H39.7784V7.24365H43.464Z" fill="#00A651"/>
<path d="M72.101 26.794H57.4647C57.4647 20.2913 57.4647 13.7463 57.4647 7.24365H72.101V10.8233H61.1291V15.3137H71.7197V18.7451H61.1291V23.172H72.101V26.794Z" fill="#00A651"/>
<path d="M93.5575 24.3368C91.5453 26.3279 88.9612 27.2387 86.1229 27.2387C78.8577 27.2387 75.7864 22.2399 75.7652 17.1564C75.7441 12.0517 79.0695 6.8623 86.1441 6.8623C88.7917 6.8623 91.3123 7.85782 93.3245 9.84886L90.8675 12.2212C89.5754 10.9715 87.8597 10.3784 86.1441 10.3784C81.4206 10.3784 79.3872 13.8945 79.4084 17.1564C79.4296 20.3971 81.3147 23.765 86.1441 23.765C87.8386 23.765 89.766 23.066 91.0581 21.7739L93.5575 24.3368Z" fill="#00A651"/>
<path d="M101.797 10.6115H95.5911V7.24365C101.225 7.24365 106.012 7.24365 111.668 7.24365V10.5903H105.483V26.794H101.797V10.6115Z" fill="#00A651"/>
</svg>
