<svg width="141" height="130" viewBox="0 0 141 130" fill="none" xmlns="http://www.w3.org/2000/svg">
<path opacity="0.3" d="M64.7758 130C100.55 130 129.552 100.982 129.552 65.1871C129.552 29.3919 100.55 0.374146 64.7758 0.374146C29.0011 0.374146 0 29.3919 0 65.1871C0 100.982 29.0011 130 64.7758 130Z" fill="#EFEFEF"/>
<path d="M58.8555 19.2303C58.8555 19.2303 79.5009 14.2481 84.2953 24.2741C89.0898 34.3001 62.1769 53.7356 47.3286 30.8703L58.8555 19.2303Z" fill="#F9CAC0"/>
<path d="M105.562 39.2107L93.2954 13.5354L47.6945 35.3473L59.9615 61.0226L105.562 39.2107Z" fill="#77869E"/>
<path d="M100.855 38.8927L90.5837 17.3938L56.4689 33.7116L66.7405 55.2105L100.855 38.8927Z" fill="white"/>
<path d="M73.805 45.3061L68.9446 35.1331L64.7756 37.1272L69.636 47.3002L73.805 45.3061Z" fill="#F7931D"/>
<path d="M85.4828 40.8405C89.7857 40.8405 93.2738 37.3503 93.2738 33.045C93.2738 28.7397 89.7857 25.2495 85.4828 25.2495C81.18 25.2495 77.6918 28.7397 77.6918 33.045C77.6918 37.3503 81.18 40.8405 85.4828 40.8405Z" fill="#00A651"/>
<path d="M69.5702 23.7587C69.5702 23.7587 81.1867 27.7153 82.0716 31.3917C82.811 34.4292 77.322 37.0576 69.8838 33.2299C68.3824 32.4486 66.7307 31.9992 65.0405 31.9122C63.3504 31.8252 61.6613 32.1025 60.0877 32.7255C57.4496 33.7735 54.0105 34.4068 50.4763 32.888C43.0438 29.7441 45.3122 23.6859 52.0782 21.1191C58.8442 18.5524 60.9558 17.9359 69.5702 23.7587Z" fill="#F9CAC0"/>
<path d="M52.9633 35.4044L11.3141 51.7519L4.4865 25.6867L50.3756 18.4796L52.9633 35.4044Z" fill="#00A651"/>
<path d="M94.9485 22.47C95.428 22.47 95.8166 22.0811 95.8166 21.6013C95.8166 21.1216 95.428 20.7327 94.9485 20.7327C94.469 20.7327 94.0803 21.1216 94.0803 21.6013C94.0803 22.0811 94.469 22.47 94.9485 22.47Z" fill="#A8A8A8"/>
<path d="M100.094 31.6916L96.4825 24.1326C96.3891 23.9371 96.155 23.8544 95.9597 23.9479L95.9546 23.9503C95.7593 24.0437 95.6766 24.278 95.77 24.4734L99.3815 32.0324C99.4749 32.2279 99.709 32.3106 99.9043 32.2172L99.9094 32.2148C100.105 32.1213 100.187 31.8871 100.094 31.6916Z" fill="#A8A8A8"/>
<path d="M57.601 48.406C59.1292 48.406 60.3679 47.1665 60.3679 45.6375C60.3679 44.1085 59.1292 42.869 57.601 42.869C56.0729 42.869 54.8341 44.1085 54.8341 45.6375C54.8341 47.1665 56.0729 48.406 57.601 48.406Z" fill="#C3CAD4"/>
<path d="M86.4294 85.5119C86.4294 85.5119 65.6104 81.3031 61.1912 91.5084C56.772 101.714 84.3962 120.124 98.3988 96.7203L86.4294 85.5119Z" fill="#F9CAC0"/>
<path d="M86.8697 127.312L98.1745 101.198L51.7949 81.0971L40.4901 107.211L86.8697 127.312Z" fill="#77869E"/>
<path d="M81.1106 39.2364C81.5538 39.0245 81.8457 38.7322 81.9864 38.3596C82.1351 37.9897 82.1795 37.4572 82.1198 36.762C82.06 36.0668 82.0362 35.454 82.0485 34.9236C82.0662 34.3906 82.142 33.9029 82.2759 33.4604C82.4178 33.0207 82.6393 32.6227 82.9404 32.2663C83.2441 31.9152 83.6608 31.6131 84.1905 31.3599C85.1039 30.9233 85.9918 30.8573 86.8543 31.1621C87.7168 31.4669 88.4277 32.0799 88.987 33.001L90.7219 32.1716L91.3415 33.469L89.5822 34.31C89.904 35.3315 89.8616 36.2714 89.4549 37.1298C89.0537 37.9856 88.3261 38.6654 87.2722 39.1692L86.1532 36.8258C86.8018 36.5157 87.2209 36.1493 87.4108 35.7266C87.6085 35.3067 87.6003 34.8724 87.3861 34.4237C87.1744 33.9804 86.8835 33.6979 86.5133 33.576C86.1485 33.4516 85.7445 33.4954 85.3014 33.7072C84.8906 33.9036 84.6177 34.1801 84.4827 34.5368C84.3476 34.8935 84.304 35.4555 84.3517 36.2229C84.4021 36.9956 84.4104 37.6456 84.3768 38.173C84.3485 38.6977 84.2569 39.1731 84.1019 39.5992C83.9522 40.0226 83.7271 40.3992 83.4264 40.7288C83.1312 41.0559 82.7376 41.3369 82.2458 41.5721C81.327 42.0113 80.4444 42.0813 79.5978 41.7822C78.7513 41.4831 78.0367 40.8553 77.4538 39.8989L75.8405 40.6701L75.2249 39.3808L76.8301 38.6135C76.4198 37.4484 76.4012 36.4016 76.7743 35.4729C77.1554 34.5471 77.8999 33.8193 79.0079 33.2897L80.1269 35.6331C79.4837 35.9406 79.0615 36.3283 78.8601 36.7964C78.6668 37.2673 78.7069 37.7893 78.9805 38.3623C79.2077 38.838 79.5114 39.1543 79.8916 39.3112C80.2773 39.4654 80.6836 39.4405 81.1106 39.2364Z" fill="white"/>
<path d="M79.8724 121.759L89.3383 99.8932L54.641 84.8553L45.1751 106.721L79.8724 121.759Z" fill="white"/>
<path d="M78.0974 114.08L82.5364 103.825L77.217 101.52L72.7779 111.774L78.0974 114.08Z" fill="#F7931D"/>
<path d="M62.1992 108.915C66.5021 108.915 69.9903 105.425 69.9903 101.119C69.9903 96.8141 66.5021 93.324 62.1992 93.324C57.8964 93.324 54.4082 96.8141 54.4082 101.119C54.4082 105.425 57.8964 108.915 62.1992 108.915Z" fill="#00A651"/>
<path d="M70.1172 101.99C69.6905 101.744 69.2833 101.669 68.8958 101.764C68.506 101.852 68.0411 102.118 67.5013 102.562C66.9614 103.007 66.4691 103.375 66.0243 103.666C65.5743 103.954 65.1286 104.169 64.6873 104.31C64.2437 104.442 63.7893 104.485 63.3239 104.439C62.8616 104.388 62.3754 104.215 61.8654 103.921C60.9859 103.415 60.4269 102.718 60.1883 101.832C59.9498 100.946 60.0517 100.01 60.4942 99.0247L58.8237 98.0624L59.5425 96.8131L61.2365 97.7889C61.8968 96.9424 62.6967 96.4433 63.6364 96.2914C64.5708 96.1366 65.5454 96.3515 66.5602 96.9361L65.2618 99.1927C64.6373 98.833 64.0966 98.6948 63.6398 98.7782C63.1808 98.8534 62.827 99.1071 62.5784 99.5391C62.3328 99.966 62.2649 100.367 62.3747 100.742C62.4793 101.114 62.7449 101.423 63.1717 101.669C63.5672 101.897 63.9505 101.965 64.3217 101.874C64.6929 101.783 65.1816 101.5 65.7879 101.024C66.3971 100.543 66.9289 100.167 67.3833 99.895C67.8325 99.6201 68.277 99.4256 68.7168 99.3116C69.1514 99.1946 69.5901 99.1666 70.0331 99.2277C70.4708 99.2858 70.9265 99.4513 71.4001 99.7241C72.2848 100.234 72.8442 100.923 73.0784 101.793C73.3125 102.662 73.2004 103.61 72.7422 104.635L74.2956 105.53L73.5813 106.771L72.0356 105.881C71.3071 106.882 70.4536 107.493 69.475 107.712C68.4942 107.923 67.4704 107.722 66.4035 107.107L67.702 104.851C68.3213 105.207 68.8813 105.336 69.3821 105.236C69.8807 105.128 70.2888 104.799 70.6063 104.247C70.8698 103.789 70.9583 103.358 70.8717 102.955C70.7799 102.548 70.5284 102.227 70.1172 101.99Z" fill="white"/>
<path d="M75.9106 90.438C75.9106 90.438 64.4565 94.8205 63.7003 98.5305C63.0282 101.596 68.6292 104.017 75.9106 99.9147C77.3828 99.0739 79.0185 98.5597 80.7068 98.4069C82.3951 98.2541 84.0964 98.4664 85.6955 99.0292C88.3672 99.9819 91.8287 100.464 95.3069 98.8387C102.616 95.4201 100.124 89.446 93.2625 87.1146C86.4013 84.7833 84.3121 84.2957 75.9106 90.438Z" fill="#F9CAC0"/>
<path d="M92.9209 101.456L135.147 116.24L141 89.939L94.8756 84.4469L92.9209 101.456Z" fill="#F7931D"/>
<path d="M88.6643 114.62C90.1924 114.62 91.4312 113.381 91.4312 111.852C91.4312 110.323 90.1924 109.083 88.6643 109.083C87.1361 109.083 85.8974 110.323 85.8974 111.852C85.8974 113.381 87.1361 114.62 88.6643 114.62Z" fill="#C3CAD4"/>
</svg>
