<svg width="128" height="129" viewBox="0 0 128 129" fill="none" xmlns="http://www.w3.org/2000/svg">
<path d="M28.9033 105.978C39.1651 105.978 47.4839 97.6591 47.4839 87.3973C47.4839 77.1355 39.1651 68.8167 28.9033 68.8167C18.6415 68.8167 10.3226 77.1355 10.3226 87.3973C10.3226 97.6591 18.6415 105.978 28.9033 105.978Z" fill="#00A651"/>
<path d="M54.9945 83.2681C55.4693 85.2768 55.7419 87.3434 55.7419 89.4389V89.4616C55.7419 91.5963 55.4652 93.6629 54.9945 95.6552H125.935V83.2681H54.9945Z" fill="#F7931D"/>
<path d="M49.5483 110.107H78.4516V120.43H49.5483V110.107Z" fill="#F7931D"/>
<path d="M37.1613 81.0076C37.1613 77.2089 34.5104 74.0337 30.9677 73.1852V68.8167H26.8387V73.1872C23.296 74.0357 20.6451 77.2089 20.6451 81.0097C20.6451 84.4863 22.8604 87.5604 26.1574 88.6587L30.3401 90.0543C31.9504 90.5911 33.0302 92.092 33.0302 93.789C33.0322 95.9568 31.2671 97.7199 29.0973 97.7199H28.7091C26.5393 97.7199 24.7742 95.9568 24.7742 93.787V91.5263H20.6451V93.787C20.6451 97.5857 23.296 100.761 26.8387 101.609V105.978H30.9677V101.607C34.5104 100.759 37.1613 97.5857 37.1613 93.7849C37.1613 90.3083 34.946 87.2342 31.649 86.1359L27.4663 84.7403C25.8539 84.2056 24.7742 82.7046 24.7742 81.0076C24.7742 78.8378 26.5393 77.0747 28.7091 77.0747H29.0973C31.2671 77.0747 33.0322 78.8378 33.0322 81.0076V81.2037L37.1613 81.0076Z" fill="white"/>
<path d="M121.806 70.881H51.0245C50.8077 70.6229 50.6116 70.3524 50.3866 70.1026L41.4183 60.1372C43.7512 59.2495 45.4194 57.0053 45.4194 54.3648C45.4194 51.8688 43.9288 49.7279 41.7982 48.7473L45.1324 37.0807C45.3223 36.4097 45.4194 35.7181 45.4194 35.0224C45.4194 30.8892 42.0563 27.5261 37.9231 27.5261H32.2725C29.3554 27.5261 26.8511 29.217 25.6124 31.6552H20.2942C15.9319 31.6552 12.3871 35.1999 12.3871 39.5602C12.3871 41.6701 13.2088 43.6562 14.7035 45.1488L17.8044 48.2497C14.7592 48.6358 12.3871 51.2144 12.3871 54.3648C12.3871 57.0053 14.0552 59.2495 16.3881 60.1372L7.41987 70.1026C2.63432 75.4167 0 82.2833 0 89.4616C0 105.4 12.9652 118.365 28.9032 118.365C33.3399 118.365 37.5288 117.331 41.2903 115.536V122.494C41.2903 125.909 44.0692 128.687 47.4839 128.687H121.806C125.221 128.687 128 125.909 128 122.494V77.0745C128 73.6598 125.221 70.881 121.806 70.881ZM16.5161 39.5602C16.5161 37.4771 18.209 35.7842 20.2921 35.7842H24.7742V39.9132H28.9032V35.0224C28.9032 33.1664 30.4145 31.6552 32.2705 31.6552H37.921C39.7791 31.6552 41.2903 33.1664 41.2903 35.0224C41.2903 35.3341 41.247 35.6479 41.1603 35.9473L37.6692 48.1713H23.5644L17.6227 42.2296C16.9084 41.5153 16.5161 40.5677 16.5161 39.5602ZM18.5806 52.3003H39.2258C40.3634 52.3003 41.2903 53.2273 41.2903 54.3648C41.2903 55.5024 40.3634 56.4293 39.2258 56.4293H18.5806C17.4431 56.4293 16.5161 55.5024 16.5161 54.3648C16.5161 53.2273 17.4431 52.3003 18.5806 52.3003ZM4.12903 89.4368C4.12903 83.3052 6.38761 77.4213 10.4898 72.865L21.5639 60.5584H36.2405L47.3166 72.865C51.4188 77.4213 53.6774 83.3073 53.6774 89.4616C53.6774 103.123 42.5641 114.236 28.9032 114.236C15.2423 114.236 4.12903 103.123 4.12903 89.4368ZM123.871 122.494C123.871 123.633 122.944 124.558 121.806 124.558H47.4839C46.3463 124.558 45.4194 123.633 45.4194 122.494V113.146C46.9037 112.107 48.287 110.939 49.5484 109.648V112.171H78.4516V108.042H51.008C55.2423 103.009 57.8064 96.5222 57.8064 89.4368C57.8064 84.323 56.4377 79.3682 53.9231 75.01H121.806C122.944 75.01 123.871 75.9349 123.871 77.0745V122.494Z" fill="#002838"/>
<path d="M111.484 103.913C109.975 103.913 108.579 104.349 107.361 105.059C106.104 104.32 104.685 103.913 103.226 103.913C98.6715 103.913 94.9678 107.617 94.9678 112.171C94.9678 116.726 98.6715 120.429 103.226 120.429C104.685 120.429 106.104 120.023 107.361 119.284C108.579 119.994 109.975 120.429 111.484 120.429C116.038 120.429 119.742 116.726 119.742 112.171C119.742 107.617 116.038 103.913 111.484 103.913ZM99.0968 112.171C99.0968 109.894 100.949 108.042 103.226 108.042C103.618 108.042 103.965 108.108 104.289 108.199C103.633 109.382 103.226 110.724 103.226 112.171C103.226 113.619 103.633 114.961 104.289 116.144C103.965 116.234 103.618 116.3 103.226 116.3C100.949 116.3 99.0968 114.449 99.0968 112.171ZM111.484 116.3C109.207 116.3 107.355 114.449 107.355 112.171C107.355 109.894 109.207 108.042 111.484 108.042C113.761 108.042 115.613 109.894 115.613 112.171C115.613 114.449 113.761 116.3 111.484 116.3Z" fill="#002838"/>
<path d="M74.3226 116.3H78.4517V120.429H74.3226V116.3Z" fill="#002838"/>
<path d="M66.0645 116.3H70.1935V120.429H66.0645V116.3Z" fill="#002838"/>
<path d="M57.8064 116.3H61.9354V120.429H57.8064V116.3Z" fill="#002838"/>
<path d="M49.5483 116.3H53.6774V120.429H49.5483V116.3Z" fill="#002838"/>
<path d="M109.419 66.7521C119.664 66.7521 128 58.4156 128 48.1715C128 37.9273 119.664 29.5908 109.419 29.5908C99.1753 29.5908 90.8387 37.9273 90.8387 48.1715C90.8387 58.4156 99.1753 66.7521 109.419 66.7521ZM109.419 33.7199C117.388 33.7199 123.871 40.2024 123.871 48.1715C123.871 56.1405 117.388 62.6231 109.419 62.6231C101.45 62.6231 94.9678 56.1405 94.9678 48.1715C94.9678 40.2024 101.45 33.7199 109.419 33.7199Z" fill="#002838"/>
<path d="M72.258 37.8488C82.5021 37.8488 90.8387 29.5123 90.8387 19.2681C90.8387 9.02402 82.5021 0.6875 72.258 0.6875C62.0139 0.6875 53.6774 9.02402 53.6774 19.2681C53.6774 29.5123 62.0139 37.8488 72.258 37.8488ZM72.258 4.81653C80.227 4.81653 86.7096 11.2991 86.7096 19.2681C86.7096 27.2372 80.227 33.7198 72.258 33.7198C64.289 33.7198 57.8064 27.2372 57.8064 19.2681C57.8064 11.2991 64.289 4.81653 72.258 4.81653Z" fill="#002838"/>
<path d="M104.686 55.8246L109.42 51.0907L114.154 55.8246L117.073 52.9054L112.339 48.1715L117.073 43.4375L114.154 40.5183L109.42 45.2522L104.686 40.5183L101.766 43.4375L106.5 48.1715L101.766 52.9054L104.686 55.8246Z" fill="#002838"/>
<path d="M81.976 14.5342L79.0568 11.615L68.1293 22.5425L65.4599 19.8731L62.5406 22.7923L68.1293 28.3809L81.976 14.5342Z" fill="#002838"/>
<path d="M74.3225 41.9778H70.1935V50.2358H49.5483V54.3649H74.3225V41.9778Z" fill="#002838"/>
<path d="M49.5483 58.4939H88.7741V62.6229H49.5483V58.4939Z" fill="#002838"/>
</svg>
