<svg width="133" height="130" viewBox="0 0 133 130" fill="none" xmlns="http://www.w3.org/2000/svg">
<path opacity="0.3" d="M66.2589 123.086C102.853 123.086 132.518 98.6621 132.518 68.5338C132.518 38.4054 102.853 13.9816 66.2589 13.9816C29.6651 13.9816 0 38.4054 0 68.5338C0 98.6621 29.6651 123.086 66.2589 123.086Z" fill="#FBFBFB"/>
<path d="M28.5618 72.9645C28.5618 72.9645 27.276 50.8368 38.4612 47.7746C49.6463 44.7124 64.596 75.9544 38.3734 86.9795L28.5618 72.9645Z" fill="#F9CAC0"/>
<path d="M103.486 8.92761L36.128 16.6854L45.4273 97.4275L112.785 89.6696L103.486 8.92761Z" fill="#BABABA"/>
<path d="M101.108 6.89574L35.6489 14.4349L44.9482 95.177L110.408 87.6378L101.108 6.89574Z" fill="#DADADA"/>
<path d="M98.4723 5.00963L33.0127 12.5488L42.312 93.2909L107.772 85.7517L98.4723 5.00963Z" fill="#F5F5F5"/>
<path d="M62.9475 15.8692L40.9755 18.3998L43.9049 43.8346L65.877 41.304L62.9475 15.8692Z" fill="white"/>
<path d="M43.398 39.3935C43.398 39.3935 44.0745 33.8319 49.2023 31.7095C54.3301 29.5871 61.632 29.1791 65.3655 36.8735L65.8819 41.3093L43.9144 43.8396L43.398 39.3935Z" fill="#00A651"/>
<path d="M51.934 23.767L51.4434 30.9087L55.8947 32.9692L54.17 25.7035L51.934 23.767Z" fill="#F9CAC0"/>
<path opacity="0.31" d="M54.4851 26.8292C53.9856 26.7497 53.5206 26.5252 53.1476 26.1837C53.3888 27.1913 54.0033 28.0698 54.8672 28.6418L54.4851 26.8292Z" fill="#CE8172"/>
<path d="M55.0635 22.9308C55.4353 24.0863 55.6506 25.2864 55.7038 26.4991C55.6979 26.6443 55.6631 26.7868 55.6015 26.9184C55.5399 27.05 55.4528 27.1681 55.3451 27.2656C55.2374 27.3632 55.1114 27.4384 54.9744 27.4867C54.8374 27.5351 54.6921 27.5557 54.5471 27.5474C54.0808 27.562 53.6201 27.4423 53.22 27.2024C52.8199 26.9625 52.4972 26.6126 52.2904 26.1944L51.2473 24.48C51.0696 24.1148 51.0099 23.7033 51.0766 23.3027C51.1432 22.902 51.3328 22.532 51.6191 22.244C52.6209 21.1027 54.7072 21.614 55.0635 22.9308Z" fill="#F9CAC0"/>
<path d="M55.4093 24.2322L56.1891 24.919C56.2368 24.9571 56.2736 25.0071 56.2957 25.064C56.3178 25.1209 56.3245 25.1826 56.3151 25.2429C56.3057 25.3032 56.2804 25.36 56.242 25.4074C56.2035 25.4548 56.1532 25.4912 56.0961 25.5128L55.3164 25.8537L55.4093 24.2322Z" fill="#F9CAC0"/>
<path d="M51.5727 26.7211L50.5037 23.9635C50.5037 23.9635 48.8255 23.8654 49.1973 22.7345C49.5691 21.6036 50.3127 22.2181 50.1991 21.0046C50.0855 19.791 51.0615 19.4037 51.8515 20.0182C52.6416 20.6328 52.2027 19.7032 53.0754 19.4709C53.9481 19.2385 54.227 19.6103 54.3199 20.2816C54.4129 20.9529 55.6161 20.0957 56.0395 20.9116C56.463 21.7275 56.6127 22.5331 54.4129 22.9307C52.213 23.3284 54.0308 24.9395 51.5727 26.7211Z" fill="#002838"/>
<path d="M53.2096 25.2437C53.2096 25.2437 53.0082 24.4278 52.404 24.6343C51.7998 24.8409 52.0941 26.0183 52.9565 25.9408L53.2096 25.2437Z" fill="#F9CAC0"/>
<path opacity="0.08" d="M43.398 39.3931C43.398 39.3931 45.8973 43.3848 51.1439 40.5292C56.3905 37.6735 62.262 36.1656 65.6599 39.4964L65.8664 41.2831L43.8989 43.8134L43.398 39.3931Z" fill="black"/>
<path d="M84.2457 14.1842L68.0142 16.0536L68.4491 19.8293L84.6806 17.9599L84.2457 14.1842Z" fill="#BABABA"/>
<path opacity="0.5" d="M85.0901 21.5223L68.8586 23.3917L69.2934 27.1674L85.5249 25.298L85.0901 21.5223Z" fill="#BABABA"/>
<path opacity="0.11" d="M66.4238 46.0185L51.9827 47.6818L52.4175 51.4575L66.8586 49.7943L66.4238 46.0185Z" fill="#BABABA"/>
<path opacity="0.11" d="M67.7006 57.1646L53.2595 58.8279L53.6943 62.6036L68.1355 60.9404L67.7006 57.1646Z" fill="#BABABA"/>
<path opacity="0.11" d="M94.2346 42.8108L79.7935 44.474L80.2284 48.2497L94.6695 46.5865L94.2346 42.8108Z" fill="#BABABA"/>
<path opacity="0.11" d="M95.5175 53.9625L81.0764 55.6257L81.5112 59.4015L95.9524 57.7382L95.5175 53.9625Z" fill="#BABABA"/>
<path opacity="0.36" d="M94.4875 27.8761L69.7042 30.7305L70.8558 40.729L95.6391 37.8746L94.4875 27.8761Z" fill="white"/>
<path opacity="0.36" d="M98.6677 64.1724L47.0132 70.1216L48.6711 84.5165L100.326 78.5673L98.6677 64.1724Z" fill="white"/>
<path d="M49.5661 47.2397L44.3694 47.8383L44.9679 53.035L50.1647 52.4365L49.5661 47.2397Z" fill="#00A651"/>
<path d="M77.0073 44.0795L71.8105 44.678L72.4091 49.8747L77.6058 49.2762L77.0073 44.0795Z" fill="#F7931D"/>
<path d="M50.8483 58.3857L45.6516 58.9843L46.2501 64.181L51.4468 63.5825L50.8483 58.3857Z" fill="#002838"/>
<path d="M78.2955 55.2251L73.0987 55.8236L73.6972 61.0204L78.894 60.4218L78.2955 55.2251Z" fill="white"/>
<path d="M99.7568 73.3757L84.1973 75.1677L84.7959 80.3645L100.355 78.5724L99.7568 73.3757Z" fill="#00A651"/>
<path opacity="0.1" d="M48.3503 54.9059C48.3503 54.9059 53.2044 58.0921 49.6258 64.955C46.0472 71.8179 50.0699 77.0955 50.9426 79.1869C51.8153 81.2783 52.9566 96.5533 52.9566 96.5533L45.0454 97.4932L40.9607 81.5365L42.6699 65.4559L48.3503 54.9059Z" fill="black"/>
<path d="M86.2023 6.40586L86.0473 5.25429C85.9485 4.37879 86.2006 3.49978 86.7484 2.80971C87.2962 2.11964 88.0951 1.67473 88.9702 1.57238V1.57238C89.4035 1.522 89.8426 1.55753 90.2622 1.67692C90.6818 1.79632 91.0738 1.99724 91.4157 2.2682C91.7577 2.53916 92.0429 2.87485 92.255 3.25608C92.4671 3.63731 92.6021 4.05662 92.6521 4.49002L93.9534 15.8095C93.9908 16.1293 93.9647 16.4533 93.8767 16.763C93.7886 17.0728 93.6404 17.3621 93.4403 17.6144C93.2403 17.8667 92.9924 18.0771 92.711 18.2335C92.4295 18.3899 92.1199 18.4892 91.8 18.5257V18.5257C91.1544 18.5998 90.5057 18.4147 89.9964 18.011C89.4871 17.6072 89.1589 17.0179 89.0838 16.3723L88.3815 10.2788" stroke="#002838" stroke-width="2" stroke-miterlimit="10"/>
<path d="M35.1976 62.8019C35.1976 62.8019 41.3944 51.6064 45.3552 51.3689C48.6085 51.1778 50.2868 57.2971 44.9782 64.2323C43.8983 65.6287 43.1307 67.2405 42.7271 68.959C42.3235 70.6775 42.2935 72.4625 42.6389 74.1936C43.2328 77.0958 43.2173 80.7467 41.0278 84.0981C36.4215 91.147 30.6223 87.7129 29.2229 80.2665C27.8235 72.82 27.6221 70.5685 35.1976 62.8019Z" fill="#F9CAC0"/>
<path d="M48.4279 87.9447L53.1219 127.816L25.1022 130L26.0472 88.9775L48.4279 87.9447Z" fill="#F7931D"/>
<path d="M27.7768 88.9002V83.1166H47.2657V87.9449L27.7768 88.9002Z" fill="#68E1FD"/>
<path d="M27.7768 88.9002V83.1166H47.2657V87.9449L27.7768 88.9002Z" fill="#E1861A"/>
</svg>
