<svg xmlns="http://www.w3.org/2000/svg" width="104" height="104" viewBox="0 0 104 104">
  <g id="play-btn-videoWt1" transform="translate(-50 -20)">
    <path id="Path_1" data-name="Path 1" d="M147.035,45.995A52,52,0,1,0,154,71.972,52,52,0,0,0,147.035,45.995ZM147,84.044A46.574,46.574,0,1,1,142.344,48.7,46.565,46.565,0,0,1,147,84.044Zm-20.052-16.96L93.52,47.791a5.666,5.666,0,0,0-8.5,4.907V91.289a5.655,5.655,0,0,0,8.5,4.906l33.426-19.3a5.664,5.664,0,0,0,0-9.812Zm-2.7,5.123-33.436,19.3a.25.25,0,0,1-.374-.218v-38.6a.224.224,0,0,1,.125-.217.26.26,0,0,1,.125-.04.236.236,0,0,1,.125.04l33.436,19.3a.223.223,0,0,1,.095.09.214.214,0,0,1,.029.128.211.211,0,0,1-.029.127A.217.217,0,0,1,124.244,72.206Zm9.728-24.913a40.835,40.835,0,0,0-26.56-15.338,2.707,2.707,0,0,0-.734,5.362A35.384,35.384,0,0,1,129.69,50.606a2.708,2.708,0,0,0,4.277-3.315Z" fill="#fff" fill-rule="evenodd"/>
  </g>
</svg>
